<svg width="23" height="18" viewBox="0 0 23 18" fill="none" xmlns="http://www.w3.org/2000/svg">
<path d="M22.4455 5.44548C22.6915 5.19945 22.6915 4.80055 22.4455 4.55452L18.4362 0.545228C18.1902 0.299197 17.7913 0.299197 17.5452 0.545228C17.2992 0.791257 17.2992 1.19015 17.5452 1.43618L21.109 5L17.5452 8.56382C17.2992 8.80985 17.2992 9.20874 17.5452 9.45477C17.7913 9.7008 18.1902 9.7008 18.4362 9.45477L22.4455 5.44548ZM1 5.63H22V4.37H1V5.63Z" fill="white"/>
<path d="M0.563519 12.1057C0.312618 12.3467 0.304642 12.7456 0.545704 12.9965L4.47403 17.0851C4.71509 17.336 5.1139 17.344 5.3648 17.1029C5.61571 16.8619 5.62368 16.4631 5.38262 16.2122L1.89078 12.5778L5.52514 9.08595C5.77604 8.84489 5.78402 8.44608 5.54296 8.19518C5.3019 7.94428 4.90308 7.9363 4.65218 8.17736L0.563519 12.1057ZM22.0126 12.3501L1.0126 11.9301L0.987402 13.1899L21.9874 13.6099L22.0126 12.3501Z" fill="white"/>
</svg>
