<svg width="350" height="350" viewBox="0 0 350 350" fill="none" xmlns="http://www.w3.org/2000/svg">
<mask id="mask0_5611_1341" style="mask-type:alpha" maskUnits="userSpaceOnUse" x="50" y="61" width="249" height="227">
<path d="M93.8756 95.3185C94.5563 94.6253 95.2497 93.9384 95.9462 93.2609L96.2739 93.6014C95.1462 94.6925 94.0407 95.8054 92.9607 96.9433L92.6174 96.6187C93.0326 96.1832 93.4509 95.7509 93.8725 95.3217L93.8756 95.3185ZM89.4347 100.108L89.7873 100.416C88.7612 101.588 87.7448 102.801 86.7632 104.017L86.395 103.724C87.3797 102.499 88.4023 101.28 89.4316 100.104L89.4347 100.108ZM99.4056 90.05C100.575 89.0121 101.782 87.9802 102.999 86.9829L103.298 87.3457C102.088 88.3367 100.884 89.3654 99.7176 90.4001L99.4024 90.0469L99.4056 90.05ZM83.514 107.466L83.8946 107.746C82.9732 108.996 82.0584 110.29 81.1815 111.59L80.7916 111.325C81.6747 110.019 82.5926 108.722 83.5171 107.469L83.514 107.466ZM106.716 84.069C107.971 83.128 109.264 82.1993 110.551 81.3148L110.819 81.7031C109.539 82.5876 108.252 83.5099 107 84.4477L106.716 84.069ZM78.2246 115.294L78.6238 115.542C77.8039 116.867 77.0064 118.232 76.2404 119.598L75.8287 119.368C76.5946 117.997 77.4015 116.628 78.2246 115.294ZM114.495 78.7171C115.817 77.8859 117.181 77.0699 118.545 76.2919L118.778 76.7026C117.418 77.4775 116.064 78.2901 114.741 79.1214L114.492 78.7203L114.495 78.7171ZM73.6069 123.532L74.028 123.746C73.3221 125.139 72.6386 126.566 71.9928 127.987L71.5624 127.789C72.2113 126.365 72.9011 124.931 73.6069 123.532ZM122.693 74.0327C124.086 73.3142 125.51 72.6144 126.935 71.9523L127.134 72.3791C125.719 73.0379 124.298 73.7346 122.911 74.4467L122.696 74.0295L122.693 74.0327ZM69.6952 132.133L70.1317 132.311C69.543 133.763 68.9797 135.246 68.4604 136.71L68.0178 136.55C68.5434 135.08 69.1097 133.594 69.6984 132.136L69.6952 132.133ZM131.257 70.0509C132.701 69.4517 134.183 68.8773 135.653 68.3346L135.815 68.7743C134.348 69.3139 132.872 69.8881 131.434 70.4873L131.254 70.054L131.257 70.0509ZM66.5206 141.032L66.9693 141.173C66.5101 142.664 66.0701 144.187 65.6741 145.697L65.2192 145.575C65.6183 144.056 66.0551 142.53 66.5206 141.032ZM140.124 66.8099C141.613 66.3364 143.131 65.8846 144.649 65.4707L144.773 65.9233C143.261 66.3372 141.746 66.7858 140.266 67.2561L140.123 66.8036L140.124 66.8099ZM64.1043 150.17L64.5653 150.273C64.2293 151.798 63.9252 153.355 63.6523 154.892L63.1883 154.811C63.4611 153.268 63.7684 151.708 64.1044 150.177L64.1043 150.17ZM149.23 64.3231C150.752 63.9753 152.306 63.6525 153.854 63.3675L153.94 63.8331C152.398 64.118 150.854 64.4377 149.338 64.7854L149.233 64.3263L149.23 64.3231ZM62.4711 159.478L62.9381 159.543C62.7346 161.086 62.5566 162.66 62.4163 164.221L61.9464 164.178C62.0898 162.608 62.2646 161.03 62.4711 159.478ZM158.514 62.61C160.059 62.3911 161.639 62.2004 163.198 62.0445L163.243 62.5136C161.688 62.6663 160.117 62.8602 158.575 63.0758L158.508 62.61L158.514 62.61ZM61.6173 168.895L62.087 168.92C62.0097 170.48 61.9642 172.059 61.9531 173.622L61.4835 173.617C61.4977 172.051 61.54 170.462 61.6173 168.895ZM167.906 61.6773C169.462 61.5876 171.049 61.5291 172.625 61.5023L172.632 61.9717C171.063 61.9985 169.482 62.057 167.932 62.1466L167.906 61.6773ZM61.542 178.34L62.0145 178.323C62.0664 179.88 62.1501 181.461 62.2682 183.02L61.7958 183.055C61.6776 181.49 61.594 179.903 61.542 178.34ZM177.348 61.5194C178.915 61.5588 180.501 61.6295 182.068 61.7319L182.037 62.2017C180.48 62.1024 178.897 62.0285 177.337 61.989L177.348 61.5194ZM62.248 187.753L62.7139 187.698C62.8949 189.25 63.1108 190.818 63.3579 192.353L62.8921 192.427C62.6481 190.882 62.429 189.305 62.248 187.753ZM186.779 62.1431C188.331 62.3118 189.912 62.5149 191.468 62.7498L191.396 63.2168C189.844 62.9851 188.276 62.7818 186.727 62.6162L186.776 62.1463L186.779 62.1431ZM63.7314 197.074L64.1907 196.981C64.5007 198.51 64.8488 200.057 65.2217 201.566L64.7626 201.678C64.3865 200.159 64.0384 198.612 63.7283 197.07L63.7314 197.074ZM196.126 63.5459C197.673 63.847 199.229 64.1827 200.749 64.544L200.642 65.0019C199.13 64.6406 197.583 64.3079 196.042 64.013L196.129 63.549L196.126 63.5459ZM65.9919 206.239L66.4445 206.109C66.8835 207.608 67.3572 209.116 67.8558 210.593L67.4066 210.745C66.9079 209.262 66.4278 207.748 65.9888 206.242L65.9919 206.239ZM205.319 65.7348C206.829 66.1623 208.349 66.6243 209.838 67.1182L209.691 67.567C208.208 67.0794 206.695 66.6172 205.188 66.1929L205.316 65.7379L205.319 65.7348ZM69.0161 215.186L69.4557 215.018C70.0172 216.469 70.6166 217.939 71.2409 219.37L70.8077 219.557C70.1802 218.116 69.5808 216.646 69.0161 215.186ZM214.295 68.685C215.759 69.2358 217.233 69.8275 218.682 70.4384L218.5 70.8717C217.057 70.2609 215.59 69.6691 214.129 69.1214L214.298 68.6818L214.295 68.685ZM72.7814 223.843L73.2081 223.638C73.892 225.046 74.6106 226.452 75.351 227.822L74.937 228.046C74.1966 226.67 73.4717 225.258 72.7877 223.843L72.7814 223.843ZM222.991 72.3784C224.406 73.0494 225.824 73.7613 227.214 74.4956L226.991 74.9136C225.611 74.1824 224.193 73.4704 222.787 72.8025L222.988 72.3752L222.991 72.3784ZM77.2588 232.157L77.6632 231.917C78.46 233.255 79.2946 234.599 80.151 235.909L79.7531 236.168C78.8967 234.852 78.0557 233.501 77.2588 232.157ZM231.344 76.7901C232.703 77.5814 234.06 78.4074 235.378 79.2526L235.123 79.6519C233.811 78.813 232.461 77.987 231.109 77.1956L231.344 76.7901ZM82.4165 240.07L82.7985 239.796C83.7018 241.064 84.646 242.335 85.6089 243.567L85.2365 243.858C84.2704 242.615 83.323 241.341 82.4165 240.07ZM239.303 81.883C240.588 82.7821 241.869 83.7222 243.113 84.6752L242.827 85.0496C241.586 84.0997 240.311 83.1659 239.029 82.2699L239.3 81.8862L239.303 81.883ZM88.2129 247.524L88.5726 247.221C89.5823 248.413 90.6298 249.598 91.6864 250.748L91.3426 251.066C90.2797 249.916 89.229 248.722 88.2129 247.524ZM246.805 87.6197C248.011 88.6235 249.212 89.6651 250.371 90.7166L250.053 91.0661C248.897 90.0178 247.702 88.9824 246.499 87.9817L246.798 87.6198L246.805 87.6197ZM94.6129 254.471L94.9439 254.134C95.1824 254.368 95.4113 254.599 95.6466 254.83C96.5305 255.699 97.4364 256.557 98.342 257.39L98.0238 257.74C97.1149 256.903 96.2027 256.039 95.3156 255.167C95.0803 254.936 94.8451 254.705 94.6098 254.474L94.6129 254.471ZM253.476 94.2967L253.807 93.9596C254.923 95.0556 256.033 96.1958 257.106 97.3426L256.759 97.664C255.69 96.5203 254.586 95.3864 253.473 94.2935L253.476 94.2967ZM101.871 260.506C103.065 261.516 104.297 262.514 105.525 263.47L105.235 263.841C103.998 262.882 102.763 261.882 101.566 260.868L101.871 260.506ZM259.901 101.168L260.257 100.862C261.276 102.051 262.29 103.277 263.262 104.506L262.893 104.8C261.924 103.573 260.914 102.35 259.901 101.168ZM109.301 266.278C110.572 267.184 111.882 268.076 113.188 268.928L112.93 269.324C111.614 268.469 110.302 267.574 109.027 266.665L109.304 266.281L109.301 266.278ZM265.731 108.549L266.113 108.275C267.032 109.539 267.939 110.848 268.805 112.155L268.41 112.417C267.547 111.114 266.644 109.814 265.731 108.549ZM117.184 271.41C118.527 272.204 119.905 272.983 121.28 273.72L121.056 274.138C119.676 273.394 118.295 272.613 116.945 271.812L117.187 271.406L117.184 271.41ZM270.926 116.386L271.327 116.143C272.137 117.488 272.934 118.864 273.684 120.238L273.27 120.462C272.523 119.098 271.732 117.728 270.92 116.387L270.926 116.386ZM125.468 275.866C126.873 276.547 128.31 277.208 129.743 277.828L129.555 278.262C128.115 277.635 126.672 276.974 125.261 276.287L125.465 275.863L125.468 275.866ZM275.45 124.633L275.874 124.425C276.57 125.827 277.242 127.267 277.882 128.702L277.452 128.891C276.818 127.463 276.143 126.032 275.453 124.636L275.45 124.633ZM134.102 279.61C135.559 280.174 137.045 280.709 138.528 281.209L138.377 281.655C136.892 281.151 135.396 280.613 133.932 280.05L134.102 279.61ZM279.265 133.227L279.705 133.053C280.279 134.516 280.835 136.005 281.346 137.481L280.9 137.636C280.395 136.166 279.843 134.681 279.265 133.227ZM143.015 282.618C144.519 283.058 146.048 283.467 147.564 283.837L147.452 284.295C145.933 283.921 144.397 283.513 142.887 283.073L143.018 282.621L143.015 282.618ZM282.346 142.111L282.798 141.974C283.247 143.47 283.67 145.004 284.059 146.523L283.603 146.637C283.217 145.122 282.797 143.597 282.349 142.107L282.346 142.111ZM152.152 284.864C153.677 285.169 155.236 285.451 156.786 285.698L156.711 286.162C155.155 285.915 153.59 285.633 152.062 285.325L152.155 284.861L152.152 284.864ZM284.662 151.219L285.125 151.123C285.447 152.652 285.742 154.215 285.999 155.76L285.536 155.837C285.279 154.298 284.988 152.744 284.665 151.216L284.662 151.219ZM161.446 286.334C162.998 286.515 164.575 286.664 166.133 286.776L166.096 287.246C164.535 287.131 162.952 286.982 161.39 286.804L161.446 286.334ZM286.211 160.485L286.68 160.427C286.874 161.985 287.037 163.563 287.167 165.121L286.698 165.16C286.567 163.608 286.408 162.034 286.218 160.485L286.211 160.485ZM170.83 287.024C172.39 287.076 173.973 287.093 175.532 287.076C176.109 287.067 176.685 287.059 177.259 287.048L177.269 287.52C176.693 287.535 176.116 287.543 175.537 287.548C173.971 287.566 172.379 287.546 170.812 287.494L170.827 287.021L170.83 287.024ZM286.983 169.856L287.453 169.836C287.504 171.043 287.531 172.275 287.542 173.497C287.546 173.85 287.546 174.206 287.546 174.562L287.076 174.563C287.079 174.21 287.076 173.857 287.073 173.505C287.062 172.288 287.032 171.06 286.983 169.863L286.983 169.856ZM286.983 179.263L287.456 179.284C287.388 180.854 287.292 182.439 287.165 184.001L286.692 183.961C286.823 182.409 286.919 180.829 286.98 179.266L286.983 179.263ZM181.959 286.841C183.521 286.739 185.101 286.605 186.644 286.44L186.696 286.909C185.143 287.077 183.56 287.214 181.988 287.314L181.959 286.841ZM286.205 188.642L286.672 188.7C286.475 190.262 286.246 191.836 285.986 193.38L285.522 193.299C285.779 191.765 286.008 190.197 286.205 188.642ZM191.312 285.84C192.857 285.608 194.418 285.342 195.943 285.048L196.033 285.51C194.501 285.804 192.937 286.074 191.379 286.305L191.312 285.84ZM284.65 197.92L285.111 198.017C284.785 199.558 284.424 201.102 284.037 202.621L283.582 202.505C283.969 200.999 284.33 199.455 284.653 197.923L284.65 197.92ZM200.541 284.061C202.063 283.7 203.595 283.305 205.094 282.885L205.224 283.338C203.718 283.764 202.181 284.159 200.653 284.52L200.545 284.064L200.541 284.061ZM282.315 207.039L282.767 207.177C282.315 208.681 281.821 210.195 281.308 211.671L280.862 211.514C281.375 210.044 281.863 208.537 282.315 207.039ZM209.588 281.515C211.071 281.029 212.566 280.504 214.023 279.956L214.188 280.398C212.724 280.947 211.223 281.471 209.73 281.961L209.581 281.515L209.588 281.515ZM279.223 215.925L279.662 216.101C279.086 217.559 278.469 219.026 277.833 220.456L277.403 220.265C278.036 218.838 278.65 217.38 279.226 215.928L279.223 215.925ZM218.388 278.214C219.828 277.606 221.272 276.956 222.681 276.291L222.883 276.715C221.471 277.383 220.025 278.036 218.574 278.648L218.388 278.214ZM275.393 224.518L275.817 224.729C275.114 226.138 274.38 227.546 273.624 228.915L273.209 228.688C273.959 227.327 274.696 225.921 275.39 224.522L275.393 224.518ZM226.885 274.186C228.265 273.461 229.651 272.692 231.002 271.908L231.239 272.316C229.884 273.103 228.495 273.875 227.106 274.603L226.885 274.186ZM270.857 232.762L271.263 233.004C270.452 234.345 269.598 235.685 268.731 236.995L268.337 236.733C269.205 235.43 270.05 234.093 270.857 232.762ZM235.016 269.461C236.335 268.62 237.651 267.739 238.925 266.848L239.197 267.233C237.913 268.127 236.594 269.012 235.269 269.859L235.016 269.461ZM265.653 240.599L266.037 240.876C265.112 242.148 264.153 243.411 263.178 244.639L262.81 244.346C263.779 243.124 264.732 241.862 265.653 240.599ZM242.723 264.075C243.965 263.128 245.201 262.143 246.402 261.143L246.702 261.506C245.497 262.509 244.252 263.497 243.007 264.448L242.72 264.072L242.723 264.075ZM259.811 247.972L260.167 248.278C259.144 249.466 258.083 250.648 257.01 251.792L256.666 251.467C257.734 250.329 258.791 249.151 259.811 247.966L259.811 247.972ZM249.957 258.063C251.11 257.023 252.263 255.938 253.382 254.837L253.712 255.174C252.591 256.278 251.432 257.369 250.275 258.413L249.96 258.067L249.957 258.063Z" fill="white"/>
<path d="M103.474 104.751C122.112 85.7731 147.025 75.1927 173.622 74.9489C228.528 74.4553 273.6 118.719 274.097 173.622C274.338 200.216 264.207 225.319 245.569 244.297C226.931 263.276 202.021 273.859 175.421 274.1C120.515 274.6 75.4397 230.333 74.946 175.427C74.7054 148.833 84.8363 123.73 103.474 104.751ZM245.232 243.967C263.779 225.08 273.864 200.101 273.624 173.626C273.13 118.982 228.271 74.9271 173.623 75.4184C147.149 75.658 122.356 86.1932 103.808 105.079C85.2607 123.965 75.1759 148.945 75.4155 175.42C75.9099 230.064 120.769 274.119 175.417 273.627C201.888 273.391 226.681 262.856 245.232 243.967Z" fill="white"/>
<path d="M285.069 173.523C285.05 171.418 284.974 169.326 284.845 167.251L275.809 168.171C275.914 169.972 275.977 171.784 275.994 173.611C276.01 175.433 275.98 177.251 275.908 179.054L284.962 179.807C285.053 177.73 285.091 175.637 285.072 173.532L285.069 173.523Z" fill="white"/>
<g opacity="0.95">
<path d="M283.213 154.342C282.828 152.272 282.388 150.228 281.903 148.203L273.165 150.677C273.584 152.432 273.956 154.209 274.291 155.999C274.622 157.792 274.909 159.585 275.149 161.37L284.192 160.538C283.918 158.477 283.597 156.412 283.209 154.339L283.213 154.342Z" fill="white"/>
</g>
<g opacity="0.9">
<path d="M278.056 135.775C277.32 133.802 276.53 131.865 275.7 129.957L267.523 133.907C268.238 135.564 268.918 137.244 269.558 138.952C270.197 140.661 270.789 142.373 271.334 144.095L280.095 141.706C279.469 139.723 278.792 137.741 278.053 135.772L278.056 135.775Z" fill="white"/>
</g>
<g opacity="0.85">
<path d="M269.756 118.386C268.687 116.574 267.574 114.8 266.424 113.065L259.057 118.378C260.051 119.885 261.007 121.424 261.938 122.994C262.863 124.565 263.748 126.151 264.581 127.751L272.796 123.876C271.834 122.032 270.825 120.197 269.756 118.386Z" fill="white"/>
</g>
<g opacity="0.8">
<path d="M258.563 102.702C257.193 101.101 255.793 99.5511 254.358 98.042L248.026 104.553C249.267 105.865 250.48 107.213 251.665 108.601C252.849 109.989 253.99 111.397 255.094 112.824L262.508 107.583C261.242 105.933 259.926 104.304 258.563 102.702Z" fill="white"/>
</g>
<g opacity="0.75">
<path d="M244.811 89.1977C243.186 87.8574 241.536 86.574 239.861 85.3413L234.754 92.8496C236.201 93.9268 237.632 95.0452 239.039 96.2015C240.448 97.3611 241.817 98.5493 243.152 99.7662L249.547 93.3176C248.012 91.9103 246.437 90.538 244.811 89.1977Z" fill="white"/>
</g>
<g opacity="0.7">
<path d="M228.928 78.2901C227.098 77.2541 225.245 76.2783 223.384 75.3497L219.658 83.6334C221.27 84.4413 222.875 85.2933 224.462 86.1897C226.049 87.086 227.605 88.0205 229.129 88.9867L234.308 81.525C232.552 80.4064 230.762 79.3229 228.928 78.2901Z" fill="white"/>
</g>
<g opacity="0.65">
<path d="M211.392 70.306C209.407 69.6055 207.415 68.9617 205.422 68.3716L203.191 77.1743C204.92 77.6912 206.642 78.2523 208.365 78.8575C210.085 79.4658 211.78 80.1123 213.447 80.7999L217.248 72.5534C215.325 71.7578 213.374 71.0034 211.389 70.3029L211.392 70.306Z" fill="white"/>
</g>
<g opacity="0.6">
<path d="M192.734 65.4864C190.657 65.1397 188.584 64.8528 186.518 64.6162L185.85 73.6726C187.642 73.8833 189.437 74.1349 191.236 74.4338C193.035 74.7326 194.819 75.0788 196.577 75.4631L198.89 66.6786C196.859 66.2275 194.804 65.827 192.728 65.4802L192.734 65.4864Z" fill="white"/>
</g>
<g opacity="0.55">
<path d="M173.523 63.9774C171.418 63.9965 169.329 64.0753 167.251 64.2012L168.164 73.237C169.966 73.1325 171.78 73.0656 173.605 73.0523C175.426 73.0358 177.245 73.0666 179.048 73.1385L179.801 64.0845C177.724 63.993 175.631 63.9552 173.526 63.9743L173.523 63.9774Z" fill="white"/>
</g>
<g opacity="0.5">
<path d="M154.343 65.8337C152.272 66.2179 150.225 66.6556 148.203 67.1434L150.674 75.8846C152.429 75.4654 154.203 75.0901 155.999 74.7556C157.792 74.4242 159.586 74.137 161.37 73.8971L160.538 64.8543C158.474 65.1251 156.409 65.4463 154.339 65.8305L154.343 65.8337Z" fill="white"/>
</g>
<g opacity="0.45">
<path d="M135.775 70.9902C133.802 71.7265 131.865 72.5161 129.957 73.3464L133.907 81.5227C135.564 80.8082 137.244 80.1281 138.952 79.4887C140.661 78.8493 142.373 78.2571 144.095 77.7121L141.706 68.9512C139.723 69.5774 137.741 70.2539 135.772 70.9934L135.775 70.9902Z" fill="white"/>
</g>
<g opacity="0.4">
<path d="M118.386 79.2903C116.574 80.3592 114.801 81.4718 113.065 82.622L118.379 89.9888C119.885 88.9951 121.421 88.0358 122.998 87.1109C124.568 86.186 126.154 85.3018 127.751 84.4649L123.876 76.2501C122.032 77.2121 120.198 78.2214 118.386 79.2903Z" fill="white"/>
</g>
<g opacity="0.35">
<path d="M102.703 90.4837C101.102 91.8532 99.5512 93.2538 98.0422 94.6886L104.553 101.02C105.865 99.7796 107.213 98.5667 108.601 97.3819C109.99 96.1971 111.397 95.0562 112.824 93.953L107.583 86.532C105.933 87.7979 104.304 89.1142 102.703 90.4774L102.703 90.4837Z" fill="white"/>
</g>
<g opacity="0.3">
<path d="M89.2009 104.232C87.8606 105.857 86.5772 107.507 85.3445 109.182L92.8591 114.289C93.9364 112.842 95.0516 111.414 96.2111 110.004C97.3706 108.595 98.5588 107.226 99.7757 105.891L93.3272 99.4957C91.9198 101.031 90.5476 102.606 89.2072 104.232L89.2009 104.232Z" fill="white"/>
</g>
<g opacity="0.25">
<path d="M78.29 120.118C77.2541 121.949 76.2782 123.801 75.3496 125.662L83.6333 129.388C84.4412 127.777 85.2932 126.171 86.1928 124.587C87.0891 123.001 88.0236 121.445 88.9866 119.917L81.5249 114.738C80.4063 116.494 79.3259 118.287 78.29 120.118Z" fill="white"/>
</g>
<g opacity="0.25">
<path d="M70.3062 137.654C69.6057 139.64 68.9619 141.631 68.3718 143.625L77.1744 145.855C77.6913 144.126 78.2493 142.401 78.8576 140.681C79.466 138.961 80.1124 137.266 80.8001 135.599L72.5536 131.798C71.758 133.721 71.0036 135.672 70.303 137.658L70.3062 137.654Z" fill="white"/>
</g>
<g opacity="0.2">
<path d="M65.4867 156.312C65.14 158.389 64.8531 160.462 64.6197 162.531L73.6792 163.196C73.8867 161.401 74.1415 159.609 74.4403 157.81C74.7392 156.011 75.0854 154.228 75.4697 152.469L66.6884 150.153C66.2372 152.184 65.8367 154.239 65.4899 156.315L65.4867 156.312Z" fill="white"/>
</g>
<g opacity="0.15">
<path d="M63.9777 175.523C63.9967 177.628 64.0755 179.717 64.2014 181.795L73.2403 180.878C73.1358 179.077 73.0721 177.265 73.0525 175.441C73.036 173.62 73.0668 171.801 73.1387 169.998L64.091 169.245C63.9995 171.322 63.9618 173.415 63.9777 175.523Z" fill="white"/>
</g>
<path d="M65.834 194.704C66.2183 196.774 66.6559 198.821 67.1437 200.843L75.885 198.372C75.4657 196.618 75.0904 194.844 74.7591 193.051C74.4277 191.258 74.1405 189.464 73.9006 187.679L64.8578 188.511C65.1286 190.576 65.4498 192.64 65.8404 194.71L65.834 194.704Z" fill="white"/>
<g opacity="0.9">
<path d="M70.9901 213.271C71.7264 215.244 72.516 217.181 73.3463 219.089L81.5258 215.136C80.8112 213.479 80.1311 211.799 79.4917 210.091C78.8523 208.382 78.2633 206.667 77.7151 204.948L68.9543 207.337C69.5773 209.323 70.2569 211.302 70.9964 213.271L70.9901 213.271Z" fill="white"/>
</g>
<g opacity="0.8">
<path d="M79.2904 230.66C80.3593 232.472 81.472 234.246 82.6221 235.981L89.9889 230.668C88.9952 229.161 88.036 227.625 87.1079 226.052C86.1798 224.478 85.302 222.892 84.4619 221.299L76.2502 225.17C77.2091 227.018 78.2215 228.849 79.2904 230.66Z" fill="white"/>
</g>
<g opacity="0.7">
<path d="M90.4836 246.344C91.8531 247.945 93.2537 249.495 94.6886 251.004L101.02 244.493C99.7827 243.184 98.5667 241.834 97.3819 240.445C96.197 239.057 95.053 237.652 93.9529 236.222L86.5382 241.464C87.8042 243.113 89.1204 244.743 90.4867 246.341L90.4836 246.344Z" fill="white"/>
</g>
<g opacity="0.6">
<path d="M104.235 259.849C105.861 261.189 107.511 262.472 109.183 263.708L114.289 256.2C112.842 255.123 111.411 254.004 110.005 252.848C108.595 251.688 107.226 250.5 105.892 249.283L99.4962 255.732C101.028 257.136 102.606 258.511 104.232 259.852L104.235 259.849Z" fill="white"/>
</g>
<g opacity="0.5">
<path d="M120.118 270.756C121.952 271.789 123.801 272.768 125.663 273.696L129.385 265.416C127.774 264.608 126.172 263.753 124.585 262.856C122.995 261.957 121.442 261.026 119.918 260.059L114.738 267.521C116.494 268.64 118.284 269.723 120.118 270.756Z" fill="white"/>
</g>
<g opacity="0.4">
<path d="M137.655 278.74C139.64 279.441 141.631 280.084 143.625 280.675L145.855 271.872C144.127 271.355 142.401 270.797 140.681 270.189C138.962 269.58 137.27 268.931 135.6 268.246L131.795 276.496C133.718 277.291 135.669 278.046 137.655 278.746L137.655 278.74Z" fill="white"/>
</g>
<g opacity="0.3">
<path d="M156.313 283.56C158.389 283.906 160.462 284.193 162.528 284.43L163.196 275.374C161.405 275.169 159.609 274.911 157.81 274.612C156.012 274.314 154.228 273.967 152.469 273.583L150.154 282.364C152.184 282.816 154.239 283.216 156.316 283.563L156.313 283.56Z" fill="white"/>
</g>
<g opacity="0.2">
<path d="M175.523 285.069C177.628 285.05 179.72 284.974 181.799 284.842L180.879 275.806C179.077 275.911 177.266 275.974 175.438 275.991C173.617 276.007 171.798 275.977 169.998 275.901L169.242 284.952C171.319 285.044 173.412 285.082 175.517 285.063L175.523 285.069Z" fill="white"/>
</g>
<g opacity="0.1">
<path d="M194.704 283.212C196.774 282.828 198.818 282.387 200.843 281.903L198.369 273.165C196.615 273.584 194.841 273.959 193.048 274.291C191.255 274.622 189.461 274.909 187.676 275.149L188.505 284.195C190.567 283.921 192.637 283.6 194.704 283.212Z" fill="white"/>
</g>
<path d="M213.271 278.056C215.244 277.32 217.181 276.53 219.086 275.697L215.136 267.52C213.479 268.235 211.799 268.915 210.091 269.554C208.382 270.194 206.667 270.783 204.948 271.331L207.337 280.092C209.32 279.466 211.302 278.789 213.271 278.05L213.271 278.056Z" fill="white"/>
<g opacity="0.75">
<path d="M230.661 269.756C232.472 268.687 234.246 267.574 235.981 266.424L230.668 259.057C229.161 260.051 227.626 261.01 226.052 261.938C224.482 262.863 222.895 263.747 221.296 264.581L225.17 272.796C227.018 271.837 228.849 270.825 230.661 269.756Z" fill="white"/>
</g>
<g opacity="0.5">
<path d="M246.347 258.559C247.948 257.19 249.498 255.789 251.008 254.354L244.497 248.023C243.187 249.26 241.837 250.476 240.449 251.661C239.06 252.846 237.656 253.99 236.225 255.09L241.464 262.508C243.113 261.242 244.743 259.926 246.344 258.563L246.347 258.559Z" fill="white"/>
</g>
<g opacity="0.25">
<path d="M259.849 244.811C261.189 243.186 262.472 241.536 263.705 239.861L256.193 234.757C255.116 236.204 253.998 237.635 252.842 239.042C251.682 240.451 250.494 241.82 249.277 243.155L255.725 249.55C257.133 248.016 258.505 246.44 259.845 244.815L259.849 244.811Z" fill="white"/>
</g>
<path d="M270.756 228.928C271.792 227.097 272.771 225.248 273.697 223.384L265.413 219.658C264.605 221.269 263.753 222.875 262.857 224.462C261.96 226.049 261.026 227.604 260.06 229.129L267.521 234.308C268.64 232.552 269.72 230.765 270.756 228.928Z" fill="white"/>
<g opacity="0.25">
<path d="M278.74 211.392C279.441 209.406 280.085 207.415 280.675 205.421L271.872 203.191C271.355 204.92 270.797 206.645 270.189 208.365C269.581 210.085 268.931 211.777 268.247 213.447L276.493 217.248C277.292 215.328 278.043 213.374 278.747 211.392L278.74 211.392Z" fill="white"/>
</g>
<g opacity="0.5">
<path d="M283.56 192.734C283.907 190.657 284.194 188.584 284.427 186.521L275.371 185.853C275.16 187.645 274.908 189.44 274.609 191.239C274.311 193.038 273.964 194.822 273.577 196.584L282.361 198.896C282.813 196.866 283.213 194.81 283.56 192.734Z" fill="white"/>
</g>
<path d="M76.032 98.6816L76.7778 99.2578C59.7716 121.313 50.9161 147.725 51.1655 175.639C51.4181 203.55 60.75 229.798 78.1557 251.544L77.4205 252.134C59.8841 230.222 50.481 203.773 50.2265 175.648C49.9721 147.522 58.895 120.908 76.032 98.6816ZM270.89 97.5015L271.626 96.9118C289.165 118.821 298.568 145.27 298.82 173.398C299.074 201.524 290.151 228.138 273.014 250.364L272.268 249.788C289.275 227.733 298.13 201.321 297.881 173.407C297.625 145.492 288.293 119.245 270.89 97.5015Z" fill="white"/>
<path d="M268.729 173.4L268.72 172.317L263.101 172.364L263.11 173.447L268.729 173.4Z" fill="white"/>
<path d="M265.23 149.057L264.94 148.014L259.526 149.52L259.816 150.563L265.23 149.057Z" fill="white"/>
<path d="M255.544 126.45L254.995 125.517L250.151 128.365L250.7 129.299L255.544 126.45Z" fill="white"/>
<path d="M240.342 107.118L239.57 106.36L235.632 110.369L236.405 111.128L240.342 107.118Z" fill="white"/>
<path d="M220.645 92.3773L219.702 91.8442L216.936 96.7355L217.878 97.2686L220.645 92.3773Z" fill="white"/>
<path d="M197.826 83.2388L196.777 82.9685L195.375 88.4101L196.423 88.6804L197.826 83.2388Z" fill="white"/>
<path d="M173.419 80.3153L172.336 80.3247L172.385 85.9439L173.468 85.9345L173.419 80.3153Z" fill="white"/>
<path d="M149.049 83.8273L148.005 84.1165L149.506 89.5318L150.55 89.2426L149.049 83.8273Z" fill="white"/>
<path d="M126.456 93.4931L125.523 94.043L128.374 98.8801L129.307 98.3302L126.456 93.4931Z" fill="white"/>
<path d="M107.116 108.708L106.357 109.481L110.367 113.418L111.125 112.646L107.116 108.708Z" fill="white"/>
<path d="M92.3722 128.378L91.84 129.321L96.7337 132.083L97.266 131.14L92.3722 128.378Z" fill="white"/>
<path d="M83.2314 151.215L82.9604 152.264L88.401 153.67L88.672 152.621L83.2314 151.215Z" fill="white"/>
<path d="M80.3259 175.65L80.3355 176.733L85.9547 176.683L85.9451 175.6L80.3259 175.65Z" fill="white"/>
<path d="M83.8215 199.992L84.1107 201.035L89.5217 199.536L89.2326 198.492L83.8215 199.992Z" fill="white"/>
<path d="M93.5023 222.599L94.0524 223.532L98.8928 220.678L98.3428 219.745L93.5023 222.599Z" fill="white"/>
<path d="M108.706 241.928L109.479 242.687L113.416 238.677L112.644 237.919L108.706 241.928Z" fill="white"/>
<path d="M128.396 256.665L129.339 257.198L132.105 252.307L131.162 251.774L128.396 256.665Z" fill="white"/>
<path d="M151.221 265.811L152.269 266.082L153.677 260.642L152.628 260.371L151.221 265.811Z" fill="white"/>
<path d="M175.648 268.722L176.731 268.713L176.685 263.094L175.602 263.102L175.648 268.722Z" fill="white"/>
<path d="M199.99 265.22L201.033 264.93L199.532 259.515L198.488 259.804L199.99 265.22Z" fill="white"/>
<path d="M222.602 255.553L223.535 255.003L220.68 250.162L219.747 250.712L222.602 255.553Z" fill="white"/>
<path d="M241.929 240.341L242.688 239.569L238.679 235.631L237.92 236.404L241.929 240.341Z" fill="white"/>
<path d="M256.675 220.655L257.207 219.712L252.313 216.951L251.781 217.895L256.675 220.655Z" fill="white"/>
<path d="M265.808 197.817L266.079 196.769L260.637 195.367L260.367 196.416L265.808 197.817Z" fill="white"/>
<g opacity="0.5">
<path d="M270.966 173.808C270.431 173.813 269.995 173.385 269.987 172.846C269.982 172.31 270.413 171.872 270.946 171.87C271.481 171.865 271.92 172.296 271.925 172.832C271.93 173.367 271.499 173.806 270.966 173.808Z" fill="white"/>
<path d="M270.538 165.404C270.005 165.456 269.529 165.064 269.48 164.535C269.428 164.003 269.821 163.526 270.35 163.477C270.882 163.425 271.358 163.818 271.407 164.347C271.459 164.879 271.07 165.352 270.538 165.404Z" fill="white"/>
<path d="M269.378 157.071C268.853 157.167 268.345 156.818 268.249 156.293C268.15 155.764 268.501 155.26 269.024 155.161C269.549 155.065 270.053 155.41 270.153 155.939C270.249 156.464 269.903 156.968 269.375 157.067L269.378 157.071Z" fill="white"/>
<path d="M267.495 148.869C266.98 149.012 266.447 148.708 266.304 148.193C266.161 147.677 266.465 147.145 266.977 146.999C267.493 146.856 268.025 147.16 268.168 147.675C268.311 148.191 268.011 148.726 267.495 148.869Z" fill="white"/>
<path d="M264.905 140.866C264.402 141.054 263.845 140.8 263.658 140.298C263.471 139.795 263.724 139.238 264.227 139.051C264.729 138.864 265.286 139.117 265.473 139.62C265.661 140.122 265.407 140.679 264.905 140.866Z" fill="white"/>
<path d="M261.627 133.112C261.143 133.344 260.565 133.138 260.334 132.655C260.102 132.171 260.308 131.593 260.791 131.362C261.275 131.13 261.853 131.336 262.081 131.816C262.313 132.299 262.107 132.878 261.623 133.109L261.627 133.112Z" fill="white"/>
<path d="M257.687 125.683C257.226 125.955 256.632 125.803 256.36 125.342C256.088 124.881 256.24 124.287 256.701 124.015C257.162 123.743 257.756 123.895 258.028 124.356C258.3 124.817 258.148 125.411 257.687 125.683Z" fill="white"/>
<path d="M253.113 118.618C252.678 118.928 252.072 118.826 251.763 118.391C251.453 117.956 251.555 117.35 251.99 117.04C252.428 116.727 253.031 116.832 253.341 117.267C253.65 117.703 253.549 118.309 253.113 118.618Z" fill="white"/>
<path d="M247.942 111.978C247.535 112.328 246.923 112.277 246.576 111.874C246.226 111.467 246.277 110.855 246.681 110.508C247.087 110.158 247.699 110.209 248.046 110.613C248.393 111.022 248.345 111.631 247.942 111.978Z" fill="white"/>
<path d="M242.211 105.819C241.836 106.2 241.225 106.206 240.844 105.831C240.462 105.457 240.456 104.845 240.831 104.464C241.206 104.082 241.817 104.077 242.199 104.451C242.58 104.826 242.586 105.437 242.211 105.819Z" fill="white"/>
<path d="M235.968 100.181C235.625 100.594 235.017 100.653 234.601 100.313C234.188 99.9703 234.129 99.3627 234.469 98.9468C234.809 98.5309 235.42 98.4749 235.836 98.8147C236.248 99.1576 236.307 99.7652 235.968 100.181Z" fill="white"/>
<path d="M229.254 95.1115C228.952 95.5523 228.348 95.6649 227.907 95.3632C227.467 95.0615 227.354 94.4575 227.656 94.0168C227.957 93.576 228.561 93.4634 229.002 93.7651C229.443 94.0668 229.556 94.6708 229.254 95.1115Z" fill="white"/>
<path d="M222.126 90.6414C221.862 91.107 221.272 91.27 220.806 91.0063C220.34 90.7427 220.177 90.1517 220.441 89.6861C220.705 89.2205 221.296 89.0576 221.761 89.3212C222.227 89.5849 222.39 90.1758 222.126 90.6414Z" fill="white"/>
<path d="M214.632 86.8111C214.41 87.2984 213.838 87.5115 213.348 87.2922C212.861 87.0697 212.644 86.495 212.867 86.0077C213.089 85.5204 213.664 85.3041 214.151 85.5266C214.639 85.749 214.855 86.3238 214.632 86.8111Z" fill="white"/>
<path d="M206.836 83.6517C206.658 84.1575 206.106 84.4209 205.6 84.2427C205.094 84.0645 204.831 83.5123 205.009 83.0064C205.187 82.5006 205.739 82.2372 206.245 82.4154C206.751 82.5936 207.014 83.1459 206.836 83.6517Z" fill="white"/>
<path d="M198.794 81.1813C198.66 81.6993 198.13 82.0097 197.612 81.8758C197.094 81.7418 196.781 81.2152 196.918 80.6941C197.052 80.176 197.582 79.8656 198.1 79.9995C198.618 80.1335 198.931 80.6601 198.794 81.1813Z" fill="white"/>
<path d="M190.566 79.4217C190.479 79.9488 189.978 80.3062 189.451 80.2196C188.924 80.133 188.567 79.6321 188.653 79.105C188.74 78.578 189.241 78.2205 189.768 78.3071C190.295 78.3937 190.653 78.8947 190.566 79.4217Z" fill="white"/>
<path d="M182.215 78.3849C182.173 78.9178 181.707 79.3159 181.174 79.2735C180.641 79.2311 180.243 78.7651 180.285 78.2322C180.328 77.6992 180.794 77.3011 181.327 77.3436C181.86 77.386 182.258 77.8519 182.215 78.3849Z" fill="white"/>
<path d="M173.808 78.0798C173.813 78.6155 173.382 79.0542 172.846 79.0591C172.311 79.0639 171.872 78.633 171.87 78.1005C171.865 77.5648 172.296 77.1261 172.832 77.1212C173.368 77.1164 173.806 77.5473 173.808 78.0798Z" fill="white"/>
<path d="M165.404 78.5087C165.456 79.0408 165.067 79.5138 164.535 79.5659C164.003 79.618 163.53 79.2284 163.478 78.6963C163.425 78.1642 163.815 77.6911 164.347 77.639C164.879 77.587 165.352 77.9766 165.404 78.5087Z" fill="white"/>
<path d="M157.071 79.6682C157.167 80.1936 156.822 80.6978 156.293 80.7971C155.768 80.8932 155.26 80.5449 155.164 80.0195C155.065 79.491 155.416 78.9867 155.942 78.8906C156.47 78.7913 156.971 79.1397 157.071 79.6682Z" fill="white"/>
<path d="M148.869 81.5512C149.013 82.0667 148.712 82.602 148.196 82.7453C147.681 82.8886 147.146 82.5878 147.002 82.0723C146.859 81.5568 147.163 81.0246 147.675 80.8782C148.191 80.7348 148.726 81.0357 148.869 81.5512Z" fill="white"/>
<path d="M140.866 84.1413C141.054 84.6438 140.8 85.2007 140.298 85.3881C139.795 85.5754 139.238 85.322 139.051 84.8195C138.864 84.317 139.117 83.7601 139.62 83.5728C140.122 83.3855 140.679 83.6388 140.866 84.1413Z" fill="white"/>
<path d="M133.116 87.4164C133.347 87.8996 133.141 88.4781 132.658 88.7094C132.175 88.9406 131.596 88.7347 131.365 88.2515C131.134 87.7683 131.34 87.1898 131.823 86.9585C132.306 86.7273 132.885 86.9332 133.113 87.4132L133.116 87.4164Z" fill="white"/>
<path d="M125.683 91.3596C125.955 91.8204 125.803 92.4142 125.342 92.6863C124.881 92.9583 124.288 92.8061 124.016 92.3453C123.744 91.8845 123.896 91.2907 124.357 91.0187C124.817 90.7467 125.411 90.8989 125.683 91.3596Z" fill="white"/>
<path d="M118.618 95.9328C118.928 96.368 118.826 96.974 118.391 97.2836C117.956 97.5932 117.35 97.4916 117.04 97.0563C116.731 96.6211 116.832 96.0152 117.268 95.7055C117.703 95.3959 118.309 95.4976 118.618 95.9328Z" fill="white"/>
<path d="M111.981 101.101C112.329 101.511 112.281 102.119 111.877 102.466C111.471 102.817 110.859 102.766 110.512 102.362C110.165 101.953 110.213 101.344 110.619 100.994C111.023 100.646 111.637 100.694 111.985 101.098L111.981 101.101Z" fill="white"/>
<path d="M105.822 106.832C106.204 107.207 106.212 107.821 105.838 108.203C105.463 108.584 104.852 108.59 104.467 108.212C104.082 107.834 104.08 107.226 104.454 106.845C104.829 106.463 105.44 106.458 105.822 106.832Z" fill="white"/>
<path d="M100.181 113.079C100.597 113.418 100.653 114.029 100.31 114.442C99.9736 114.855 99.3597 114.914 98.9469 114.571C98.5342 114.234 98.4751 113.62 98.818 113.207C99.1577 112.792 99.7685 112.736 100.181 113.079Z" fill="white"/>
<path d="M95.1116 119.792C95.5523 120.094 95.665 120.698 95.3633 121.139C95.0616 121.58 94.4576 121.692 94.0168 121.391C93.5761 121.089 93.4635 120.485 93.7651 120.044C94.0668 119.603 94.6708 119.491 95.1148 119.796L95.1116 119.792Z" fill="white"/>
<path d="M90.6447 126.923C91.1103 127.187 91.2732 127.778 91.0096 128.243C90.746 128.709 90.155 128.872 89.6894 128.608C89.2238 128.345 89.0609 127.754 89.3245 127.288C89.5882 126.823 90.1791 126.66 90.6447 126.923Z" fill="white"/>
<path d="M86.8113 134.414C87.2986 134.636 87.5149 135.211 87.2924 135.698C87.0699 136.186 86.4983 136.399 86.0079 136.179C85.5206 135.957 85.3043 135.382 85.5268 134.895C85.7492 134.408 86.3208 134.194 86.8113 134.414Z" fill="white"/>
<path d="M83.6519 142.21C84.1577 142.388 84.4211 142.941 84.2429 143.446C84.0647 143.952 83.5125 144.216 83.0066 144.037C82.5008 143.859 82.2374 143.307 82.4156 142.801C82.5938 142.295 83.1461 142.032 83.6519 142.21Z" fill="white"/>
<path d="M81.1817 150.252C81.6997 150.386 82.0102 150.916 81.8762 151.434C81.7422 151.952 81.2157 152.266 80.6945 152.129C80.1765 151.995 79.866 151.465 80 150.947C80.1339 150.429 80.6605 150.115 81.1817 150.252Z" fill="white"/>
<path d="M79.4221 158.48C79.9492 158.567 80.3066 159.068 80.22 159.595C80.1334 160.122 79.6324 160.479 79.1054 160.393C78.5784 160.306 78.2209 159.805 78.3075 159.278C78.3941 158.751 78.8951 158.394 79.419 158.483L79.4221 158.48Z" fill="white"/>
<path d="M78.3854 166.831C78.9183 166.874 79.3165 167.339 79.274 167.872C79.2316 168.405 78.7656 168.803 78.2327 168.761C77.6998 168.719 77.3016 168.253 77.3441 167.72C77.3865 167.187 77.8524 166.789 78.3854 166.831Z" fill="white"/>
<path d="M78.0798 175.238C78.6155 175.233 79.0542 175.664 79.0591 176.2C79.0639 176.736 78.633 177.174 78.1005 177.176C77.5648 177.181 77.1261 176.75 77.1212 176.214C77.1164 175.679 77.5442 175.243 78.0798 175.238Z" fill="white"/>
<path d="M78.5088 183.642C79.0409 183.59 79.5139 183.979 79.566 184.511C79.6181 185.043 79.2285 185.517 78.6964 185.569C78.1643 185.621 77.6881 185.228 77.6392 184.699C77.5871 184.167 77.9767 183.694 78.5088 183.642Z" fill="white"/>
<path d="M79.6683 191.976C80.1937 191.88 80.6979 192.225 80.7972 192.753C80.8933 193.279 80.5481 193.783 80.0196 193.882C79.4942 193.978 78.9901 193.633 78.8907 193.105C78.7914 192.576 79.1398 192.075 79.6651 191.973L79.6683 191.976Z" fill="white"/>
<path d="M81.5515 200.177C82.0671 200.034 82.6023 200.334 82.7456 200.85C82.889 201.366 82.5882 201.901 82.0726 202.044C81.5571 202.187 81.0219 201.887 80.8785 201.371C80.7352 200.856 81.036 200.32 81.5515 200.177Z" fill="white"/>
<path d="M84.1414 208.18C84.6439 207.993 85.2009 208.246 85.3882 208.749C85.5755 209.251 85.3221 209.808 84.8196 209.995C84.3171 210.183 83.7602 209.929 83.5729 209.427C83.3856 208.924 83.6389 208.367 84.1414 208.18Z" fill="white"/>
<path d="M87.4164 215.931C87.8996 215.699 88.4781 215.905 88.7062 216.385C88.9375 216.869 88.7316 217.447 88.2484 217.678C87.7652 217.91 87.1867 217.704 86.9554 217.221C86.7241 216.737 86.93 216.159 87.4132 215.928L87.4164 215.931Z" fill="white"/>
<path d="M91.3599 223.363C91.8206 223.091 92.4113 223.247 92.6865 223.704C92.9585 224.165 92.8063 224.759 92.3456 225.031C91.8848 225.303 91.2878 225.148 91.019 224.69C90.7469 224.229 90.8991 223.635 91.3599 223.363Z" fill="white"/>
<path d="M95.9333 230.428C96.3685 230.118 96.9744 230.22 97.2841 230.655C97.5937 231.09 97.492 231.696 97.0568 232.006C96.6216 232.316 96.0188 232.217 95.706 231.779C95.3964 231.344 95.4981 230.738 95.9333 230.428Z" fill="white"/>
<path d="M101.105 237.062C101.514 236.715 102.123 236.763 102.47 237.166C102.817 237.576 102.769 238.184 102.366 238.531C101.959 238.882 101.347 238.831 101 238.427C100.656 238.021 100.701 237.409 101.108 237.059L101.105 237.062Z" fill="white"/>
<path d="M106.832 243.224C107.207 242.843 107.818 242.837 108.2 243.212C108.581 243.587 108.587 244.198 108.212 244.579C107.837 244.961 107.226 244.966 106.845 244.592C106.463 244.217 106.458 243.606 106.832 243.224Z" fill="white"/>
<path d="M113.082 248.862C113.422 248.446 114.033 248.39 114.445 248.733C114.858 249.07 114.917 249.684 114.574 250.096C114.231 250.509 113.624 250.568 113.211 250.225C112.795 249.886 112.739 249.275 113.082 248.862Z" fill="white"/>
<path d="M119.793 253.935C120.094 253.494 120.698 253.381 121.139 253.683C121.58 253.985 121.692 254.589 121.391 255.03C121.089 255.47 120.485 255.583 120.044 255.281C119.6 254.976 119.491 254.375 119.793 253.935Z" fill="white"/>
<path d="M126.924 258.402C127.187 257.936 127.778 257.773 128.244 258.037C128.709 258.3 128.875 258.888 128.609 259.357C128.345 259.823 127.754 259.985 127.288 259.722C126.823 259.458 126.66 258.867 126.924 258.402Z" fill="white"/>
<path d="M134.414 262.235C134.636 261.748 135.211 261.531 135.698 261.754C136.186 261.976 136.399 262.548 136.18 263.038C135.957 263.526 135.382 263.742 134.895 263.52C134.408 263.297 134.191 262.722 134.414 262.235Z" fill="white"/>
<path d="M142.21 265.394C142.388 264.889 142.941 264.625 143.447 264.803C143.952 264.982 144.216 265.534 144.038 266.04C143.859 266.545 143.307 266.809 142.801 266.631C142.295 266.452 142.032 265.9 142.21 265.394Z" fill="white"/>
<path d="M150.252 267.865C150.386 267.347 150.913 267.033 151.434 267.17C151.952 267.304 152.263 267.834 152.132 268.349C151.998 268.867 151.471 269.18 150.95 269.043C150.432 268.909 150.121 268.379 150.255 267.861L150.252 267.865Z" fill="white"/>
<path d="M158.48 269.624C158.57 269.094 159.068 268.74 159.595 268.826C160.122 268.913 160.48 269.414 160.393 269.941C160.306 270.468 159.805 270.826 159.278 270.739C158.751 270.652 158.394 270.151 158.48 269.624Z" fill="white"/>
<path d="M166.831 270.661C166.874 270.128 167.34 269.73 167.873 269.773C168.406 269.815 168.804 270.281 168.761 270.814C168.719 271.347 168.253 271.745 167.72 271.702C167.187 271.66 166.789 271.194 166.831 270.661Z" fill="white"/>
<path d="M175.238 270.966C175.233 270.431 175.664 269.992 176.197 269.99C176.733 269.985 177.171 270.416 177.173 270.949C177.175 271.481 176.747 271.923 176.214 271.925C175.679 271.93 175.24 271.499 175.238 270.966Z" fill="white"/>
<path d="M183.642 270.537C183.59 270.005 183.979 269.532 184.512 269.48C185.044 269.428 185.517 269.818 185.569 270.35C185.621 270.882 185.231 271.355 184.699 271.407C184.167 271.459 183.694 271.069 183.642 270.537Z" fill="white"/>
<path d="M191.979 269.375C191.883 268.849 192.228 268.345 192.757 268.246C193.282 268.15 193.789 268.498 193.886 269.024C193.982 269.549 193.637 270.053 193.108 270.152C192.583 270.249 192.078 269.903 191.979 269.375Z" fill="white"/>
<path d="M200.177 267.495C200.034 266.98 200.335 266.444 200.85 266.301C201.366 266.158 201.901 266.458 202.044 266.974C202.188 267.489 201.884 268.022 201.371 268.168C200.856 268.311 200.321 268.011 200.177 267.495Z" fill="white"/>
<path d="M208.183 264.902C207.996 264.399 208.249 263.842 208.752 263.655C209.254 263.468 209.811 263.721 209.998 264.223C210.186 264.726 209.932 265.283 209.43 265.47C208.927 265.657 208.371 265.404 208.183 264.902Z" fill="white"/>
<path d="M215.934 261.627C215.703 261.143 215.909 260.565 216.392 260.334C216.875 260.102 217.453 260.308 217.685 260.791C217.916 261.275 217.71 261.853 217.227 262.084C216.744 262.316 216.165 262.11 215.934 261.627Z" fill="white"/>
<path d="M223.363 257.687C223.091 257.226 223.244 256.632 223.704 256.36C224.165 256.088 224.759 256.24 225.031 256.701C225.303 257.162 225.151 257.756 224.69 258.028C224.229 258.3 223.635 258.147 223.363 257.687Z" fill="white"/>
<path d="M230.428 253.113C230.118 252.678 230.22 252.072 230.655 251.762C231.091 251.453 231.697 251.554 232.006 251.99C232.316 252.425 232.214 253.031 231.779 253.34C231.344 253.65 230.738 253.548 230.428 253.113Z" fill="white"/>
<path d="M237.065 247.939C236.715 247.532 236.766 246.92 237.169 246.573C237.576 246.223 238.188 246.274 238.535 246.677C238.885 247.084 238.834 247.696 238.43 248.043C238.024 248.393 237.412 248.342 237.062 247.936L237.065 247.939Z" fill="white"/>
<path d="M243.224 242.214C242.843 241.839 242.837 241.228 243.215 240.843C243.593 240.458 244.201 240.456 244.583 240.831C244.964 241.205 244.97 241.817 244.595 242.198C244.22 242.58 243.606 242.589 243.224 242.214Z" fill="white"/>
<path d="M248.862 235.964C248.446 235.625 248.39 235.014 248.73 234.598C249.07 234.188 249.681 234.126 250.093 234.469C250.506 234.812 250.565 235.419 250.222 235.832C249.883 236.248 249.272 236.304 248.856 235.964L248.862 235.964Z" fill="white"/>
<path d="M253.935 229.254C253.494 228.952 253.381 228.348 253.683 227.907C253.985 227.466 254.589 227.354 255.03 227.655C255.47 227.957 255.583 228.561 255.281 229.002C254.98 229.443 254.376 229.555 253.935 229.254Z" fill="white"/>
<path d="M258.405 222.126C257.939 221.862 257.776 221.271 258.04 220.806C258.304 220.34 258.895 220.177 259.36 220.441C259.826 220.704 259.989 221.295 259.725 221.761C259.461 222.227 258.87 222.39 258.405 222.126Z" fill="white"/>
<path d="M262.235 214.633C261.748 214.41 261.532 213.835 261.754 213.348C261.976 212.861 262.551 212.644 263.039 212.867C263.526 213.089 263.739 213.661 263.52 214.151C263.297 214.639 262.722 214.855 262.235 214.633Z" fill="white"/>
<path d="M265.395 206.836C264.889 206.658 264.626 206.106 264.804 205.6C264.982 205.094 265.534 204.83 266.04 205.009C266.546 205.187 266.809 205.739 266.631 206.245C266.453 206.751 265.901 207.014 265.395 206.836Z" fill="white"/>
<path d="M267.865 198.794C267.347 198.66 267.033 198.133 267.17 197.612C267.304 197.094 267.834 196.784 268.352 196.918C268.87 197.052 269.18 197.581 269.046 198.099C268.912 198.617 268.383 198.928 267.868 198.797L267.865 198.794Z" fill="white"/>
<path d="M269.625 190.566C269.098 190.479 268.74 189.978 268.827 189.451C268.913 188.924 269.414 188.567 269.941 188.653C270.468 188.74 270.826 189.241 270.739 189.768C270.653 190.295 270.152 190.652 269.625 190.566Z" fill="white"/>
<path d="M270.661 182.215C270.128 182.173 269.73 181.707 269.773 181.174C269.815 180.641 270.281 180.243 270.814 180.285C271.347 180.328 271.745 180.794 271.703 181.327C271.66 181.859 271.194 182.258 270.661 182.215Z" fill="white"/>
</g>
<path d="M144.938 145.472C152.698 137.571 163.073 133.163 174.145 133.062C185.221 132.959 195.671 137.182 203.572 144.941C211.473 152.7 215.877 163.072 215.981 174.148C216.081 185.22 211.862 195.673 204.102 203.574C196.343 211.475 185.968 215.883 174.895 215.983C163.82 216.081 153.37 211.864 145.469 204.105C137.568 196.346 133.16 185.971 133.06 174.898C132.96 163.826 137.179 153.373 144.938 145.472ZM203.431 202.916C211.016 195.193 215.137 184.98 215.042 174.156C214.944 163.336 210.636 153.196 202.916 145.615C195.196 138.034 184.98 133.91 174.157 134.005C163.33 134.103 153.197 138.411 145.612 146.134C138.028 153.856 133.907 164.069 134.005 174.89C134.103 185.716 138.411 195.849 146.134 203.434C153.857 211.018 164.07 215.139 174.89 215.041C185.717 214.943 195.85 210.635 203.431 202.916Z" fill="white"/>
<path d="M148.795 149.259C155.542 142.388 164.561 138.553 174.194 138.469C183.823 138.382 192.913 142.05 199.787 148.801C206.661 155.552 210.489 164.57 210.576 174.2C210.664 183.829 206.996 192.919 200.248 199.79C193.501 206.661 184.479 210.492 174.849 210.58C154.967 210.759 138.646 194.732 138.466 174.849C138.382 165.217 142.047 156.13 148.795 149.259ZM199.911 199.459C206.571 192.677 210.19 183.707 210.107 174.201C210.021 164.698 206.241 155.795 199.459 149.135C192.677 142.474 183.704 138.853 174.201 138.939C164.698 139.025 155.792 142.808 149.132 149.59C142.471 156.372 138.853 165.342 138.936 174.848C139.117 194.469 155.224 210.288 174.842 210.11C184.345 210.024 193.251 206.241 199.911 199.459Z" fill="white"/>
<path d="M152.435 152.834C158.23 146.933 165.975 143.646 174.243 143.571C182.511 143.496 190.317 146.646 196.215 152.438C202.113 158.231 205.403 165.978 205.478 174.246C205.553 182.514 202.406 190.317 196.611 196.218C190.816 202.119 183.071 205.407 174.803 205.481C157.737 205.636 143.725 191.875 143.568 174.806C143.493 166.538 146.643 158.732 152.435 152.834ZM196.439 196.049C202.188 190.196 205.316 182.45 205.242 174.245C205.168 166.04 201.903 158.355 196.049 152.607C190.196 146.858 182.45 143.73 174.245 143.804C166.04 143.878 158.355 147.143 152.604 153C146.852 158.857 143.73 166.596 143.804 174.801C143.957 191.741 157.861 205.395 174.801 205.242C183.006 205.168 190.691 201.903 196.439 196.049Z" fill="white"/>
<path d="M139.966 140.588C149.03 131.358 161.144 126.21 174.082 126.093C200.787 125.848 222.709 147.377 222.951 174.085C223.068 187.023 218.139 199.228 209.075 208.458C200.01 217.688 187.896 222.837 174.958 222.954C148.254 223.198 126.331 201.669 126.09 174.961C125.973 162.023 130.901 149.818 139.966 140.588ZM207.73 207.137C216.442 198.266 221.179 186.536 221.066 174.102C220.834 148.44 199.764 127.748 174.102 127.98C161.669 128.093 150.025 133.041 141.314 141.912C132.602 150.783 127.865 162.514 127.977 174.947C128.209 200.615 149.277 221.305 174.941 221.069C187.375 220.957 199.018 216.008 207.73 207.137Z" fill="white"/>
</mask>
<g mask="url(#mask0_5611_1341)">
<rect x="35" y="37" width="286" height="123" fill="#0098EA"/>
</g>
</svg>
