<?xml version="1.0" standalone="no"?><!DOCTYPE svg PUBLIC "-//W3C//DTD SVG 1.1//EN" "http://www.w3.org/Graphics/SVG/1.1/DTD/svg11.dtd"><svg t="1698982302044" class="icon" viewBox="0 0 1024 1024" version="1.1" xmlns="http://www.w3.org/2000/svg" p-id="7004" xmlns:xlink="http://www.w3.org/1999/xlink" width="128" height="128"><path d="M248.672 880H775.36v91.808H248.672zM192 416v5.376C192 453.632 335.872 480 511.68 480h0.64c175.808 0 319.68-26.368 319.68-58.624v-10.752C832 378.368 688.128 352 512.32 352h-0.64C335.904 352 192 378.368 192 410.624V416z" fill="#E0EBFE" p-id="7005"></path><path d="M511.68 0C317.76 0 160 157.76 160 351.68V421.408c0 1.792 0.736 3.36 0.96 5.056L224.192 995.52A32 32 0 0 0 256 1024h512a32 32 0 0 0 31.808-28.48l63.232-569.088c0.224-1.696 0.96-3.264 0.96-5.056v-69.664C864 157.76 706.24 0 511.68 0z m227.68 960H284.64l-7.104-64h468.928l-7.104 64z m10.656-96H273.984L231.552 482.24c80.992 25.792 210.688 29.76 280.16 29.76h0.576c69.472 0 199.168-3.968 280.16-29.76L750.016 864zM232.128 416c34.208-13.76 129.504-32 280.16-32 150.176 0 245.408 18.24 279.584 32-34.176 13.76-129.408 32-279.584 32h-0.576c-150.176 0-245.408-18.24-279.584-32zM800 352.16C719.68 324.16 583.744 320 511.68 320c-71.616 0-207.424 4.16-287.68 32.16v-0.448C224 193.056 353.056 64 512.32 64 670.912 64 800 193.056 800 351.68v0.48z" fill="#5465CF" p-id="7006"></path></svg>