<svg xmlns="http://www.w3.org/2000/svg" xmlns:xlink="http://www.w3.org/1999/xlink" fill="none" version="1.1" width="45" height="42" viewBox="0 0 45 42"><defs><clipPath id="master_svg0_15_652"><rect x="0" y="0" width="45" height="42" rx="0"/></clipPath></defs><g clip-path="url(#master_svg0_15_652)"><g><path d="M26.250027783203127,3.50000166893C33.320527783203126,3.49685365,39.433327783203126,8.10246,40.92122778320312,14.5538C42.40922778320312,21.0052,38.86812778320313,27.5504,32.42252778320312,30.2628C28.101427783203125,39.179,15.562927783203126,41.3122,8.148957783203125,34.3926C0.7350377832031252,27.4729,3.020683783203125,15.7702,12.573747783203125,11.73725C15.000927783203124,6.72279,20.351727783203124,3.50000208616,26.250027783203127,3.50000166893ZM20.625027783203127,15.75L16.875027783203123,15.75L16.875027783203123,17.5C14.341627783203124,17.4942,12.261737783203126,19.3682,12.178607783203125,21.7314C12.095477783203124,24.0946,14.039127783203124,26.0919,16.567527783203126,26.2413L16.875027783203123,26.25L20.625027783203127,26.25L20.793727783203124,26.264C21.239827783203125,26.3394,21.564227783203126,26.7019,21.564227783203126,27.125C21.564227783203126,27.5481,21.239827783203125,27.9106,20.793727783203124,27.986L20.625027783203127,28L13.124997783203124,28L13.124997783203124,31.5L16.875027783203123,31.5L16.875027783203123,33.25L20.625027783203127,33.25L20.625027783203127,31.5C23.158427783203123,31.5058,25.238227783203126,29.6318,25.321427783203124,27.2686C25.404527783203125,24.9054,23.460827783203126,22.9081,20.932527783203124,22.7588L20.625027783203127,22.75L16.875027783203123,22.75L16.706227783203126,22.736C16.260127783203124,22.6606,15.935827783203125,22.2981,15.935827783203125,21.875C15.935827783203125,21.4519,16.260127783203124,21.0894,16.706227783203126,21.014L16.875027783203123,21L24.375027783203127,21L24.375027783203127,17.5L20.625027783203127,17.5L20.625027783203127,15.75ZM26.250027783203127,7C23.036327783203124,6.99649,19.975227783203124,8.27908,17.842527783203124,10.52275C26.830527783203124,10.0135,34.270427783203125,16.958199999999998,33.723727783203124,25.347C37.21402778320312,22.4507,38.42402778320312,17.8429,36.76432778320312,13.7685C35.10382778320313,9.6936,30.919527783203126,7,26.250027783203127,7Z" fill="#5F57FF" fill-opacity="1"/></g></g></svg>