<svg xmlns="http://www.w3.org/2000/svg" xmlns:xlink="http://www.w3.org/1999/xlink" fill="none" version="1.1" width="54" height="47" viewBox="0 0 54 47"><defs><clipPath id="master_svg0_15_652"><rect x="0" y="0" width="54" height="47" rx="0"/></clipPath></defs><g clip-path="url(#master_svg0_15_652)"><g><path d="M31.499985546875,3.9166278441725C39.984585546875,3.9131050565625,47.319985546875,9.0670059765625,49.105485546875,16.286425976562498C50.890985546875,23.5057259765625,46.641785546875,30.8301259765625,38.906985546875,33.8654259765625C33.721785546875,43.8430259765625,18.675485546875002,46.2303259765625,9.778765546875,38.4868259765625C0.8820655468749998,30.7434259765625,3.624832546875,17.6476259765625,15.088485546875,13.1345059765625C18.001185546875,7.523075976562501,24.422085546875,3.9166283110825,31.499985546875,3.9166278441725ZM24.749985546875,17.6249259765625L20.249985546875,17.6249259765625L20.249985546875,19.5833259765625C17.209985546875,19.5768259765625,14.714085546875,21.6739259765625,14.614385546875,24.3184259765625C14.514585546875,26.9630259765625,16.846985546875,29.1980259765625,19.880985546875,29.3651259765625L20.249985546875,29.3749259765625L24.749985546875,29.3749259765625L24.952485546875,29.3906259765625C25.487785546875,29.4750259765625,25.877085546875,29.8806259765625,25.877085546875,30.3541259765625C25.877085546875,30.8276259765625,25.487785546875,31.2332259765625,24.952485546875,31.3176259765625L24.749985546875,31.3333259765625L15.749985546875,31.3333259765625L15.749985546875,35.2499259765625L20.249985546875,35.2499259765625L20.249985546875,37.2083259765625L24.749985546875,37.2083259765625L24.749985546875,35.2499259765625C27.790085546875,35.2564259765625,30.285885546875,33.1593259765625,30.385685546875,30.5148259765625C30.485485546875,27.8702259765625,28.152985546875,25.6352259765625,25.118985546875,25.4681259765625L24.749985546875,25.4583259765625L20.249985546875,25.4583259765625L20.047485546875002,25.4426259765625C19.512185546875,25.3582259765625,19.122985546875,24.9526259765625,19.122985546875,24.4791259765625C19.122985546875,24.0056259765625,19.512185546875,23.6000259765625,20.047485546875002,23.5156259765625L20.249985546875,23.4999259765625L29.249985546875,23.4999259765625L29.249985546875,19.5833259765625L24.749985546875,19.5833259765625L24.749985546875,17.6249259765625ZM31.499985546875,7.8332959765625C27.643585546875,7.829365976562499,23.970385546875,9.2646459765625,21.410985546875,11.775415976562499C32.196685546875,11.205545976562501,41.124585546875,18.9770259765625,40.468485546875,28.3644259765625C44.656785546875,25.1233259765625,46.108885546875,19.9670259765625,44.117185546875,15.4076259765625C42.124585546875,10.8475659765625,37.103385546875,7.8332959765625,31.499985546875,7.8332959765625Z" fill="#5F57FF" fill-opacity="1"/></g></g></svg>