<svg xmlns="http://www.w3.org/2000/svg" xmlns:xlink="http://www.w3.org/1999/xlink" fill="none" version="1.1" width="57" height="57" viewBox="0 0 57 57"><defs><filter id="master_svg0_15_17236" filterUnits="objectBoundingBox" color-interpolation-filters="sRGB" x="-8" y="-4" width="61" height="61"><feFlood flood-opacity="0" result="BackgroundImageFix"/><feColorMatrix in="SourceAlpha" type="matrix" values="0 0 0 0 0 0 0 0 0 0 0 0 0 0 0 0 0 0 127 0"/><feOffset dy="4" dx="0"/><feGaussianBlur stdDeviation="2"/><feColorMatrix type="matrix" values="0 0 0 0 0.7791666388511658 0 0 0 0 0.3701041638851166 0 0 0 0 0.4450030028820038 0 0 0 0.10000000149011612 0"/><feBlend mode="normal" in2="BackgroundImageFix" result="effect1_dropShadow"/><feBlend mode="normal" in="SourceGraphic" in2="effect1_dropShadow" result="shape"/></filter><linearGradient x1="0.08888891339302063" y1="0.033333320170640945" x2="0.5" y2="1" id="master_svg1_15_17238"><stop offset="0%" stop-color="#FFD1DA" stop-opacity="1"/><stop offset="100%" stop-color="#FFB8C5" stop-opacity="1"/></linearGradient><linearGradient x1="-0.6060606241226196" y1="1.558823585510254" x2="0.9545454382896423" y2="-0.17647045850753784" id="master_svg2_15_17243"><stop offset="0%" stop-color="#FFE5EA" stop-opacity="0.6899999976158142"/><stop offset="100%" stop-color="#FFE5EA" stop-opacity="0"/></linearGradient><linearGradient x1="0.40909087657928467" y1="3.921359070790942e-10" x2="0.40909087657928467" y2="1" id="master_svg3_15_17246"><stop offset="0%" stop-color="#FFFFFF" stop-opacity="1"/><stop offset="100%" stop-color="#FFFFFF" stop-opacity="0.800000011920929"/></linearGradient></defs><g><g filter="url(#master_svg0_15_17236)"><path d="M6,12C6,6.47715,10.47715,2,16,2C16,2,32.3579,2,32.3579,2C35.010000000000005,2,37.5536,3.0535699999999997,39.4289,4.928929999999999C39.4289,4.928929999999999,48.0711,13.5711,48.0711,13.5711C49.9464,15.4464,51,17.990000000000002,51,20.6421C51,20.6421,51,37,51,37C51,42.5228,46.5228,47,41,47C41,47,16,47,16,47C10.47715,47,6,42.5228,6,37C6,37,6,12,6,12C6,12,6,12,6,12Z" fill="url(#master_svg1_15_17238)" fill-opacity="1"/></g><g><path d="M10,32C10,28.68629,12.68629,26,16,26C16,26,41,26,41,26C44.3137,26,47,28.68629,47,32C47,32,47,37,47,37C47,40.3137,44.3137,43,41,43C41,43,20,43,20,43C14.47715,43,10,38.522800000000004,10,33C10,33,10,32,10,32C10,32,10,32,10,32Z" fill="url(#master_svg2_15_17243)" fill-opacity="1"/></g><g><path d="M16,18L38,18Q38.0737,18,38.147,18.00722291Q38.2204,18.0144458,38.2926,18.0288221Q38.3649,18.0431983,38.4354,18.0645895Q38.5059,18.0859806,38.574,18.114181Q38.6421,18.142381,38.7071,18.177118Q38.772099999999995,18.211855,38.8334,18.252796Q38.8946,18.293736,38.9516,18.340484Q39.0086,18.387233,39.0607,18.43934Q39.1128,18.491447,39.1595,18.54841Q39.2063,18.605373,39.2472,18.666645Q39.2881,18.727916,39.322900000000004,18.792905Q39.357600000000005,18.857894,39.3858,18.925975Q39.414,18.994056,39.4354,19.06457Q39.4568,19.135089999999998,39.471199999999996,19.20736Q39.485600000000005,19.27964,39.4928,19.35297Q39.5,19.42631,39.5,19.5Q39.5,19.57369,39.4928,19.64703Q39.485600000000005,19.72036,39.471199999999996,19.79264Q39.4568,19.864910000000002,39.4354,19.93543Q39.414,20.00594,39.3858,20.07402Q39.357600000000005,20.14211,39.322900000000004,20.2071Q39.2881,20.27208,39.2472,20.33336Q39.2063,20.39463,39.1595,20.45159Q39.1128,20.50855,39.0607,20.56066Q39.0086,20.61277,38.9516,20.65952Q38.8946,20.70626,38.8334,20.7472Q38.772099999999995,20.78814,38.7071,20.82288Q38.6421,20.85762,38.574,20.88582Q38.5059,20.91402,38.4354,20.93541Q38.3649,20.9568,38.2926,20.97118Q38.2204,20.98555,38.147,20.99278Q38.0737,21,38,21L16,21Q15.92631,21,15.85297,20.99278Q15.77964,20.98555,15.70736,20.97118Q15.63509,20.9568,15.56457,20.93541Q15.494056,20.91402,15.425975,20.88582Q15.357894,20.85762,15.292905,20.82288Q15.227916,20.78814,15.166645,20.7472Q15.105373,20.70626,15.04841,20.65952Q14.991447,20.61277,14.93934,20.56066Q14.887233,20.50855,14.840484,20.45159Q14.793735999999999,20.39463,14.752796,20.33335Q14.711855,20.27208,14.677118,20.2071Q14.642381,20.14211,14.614181,20.07402Q14.5859806,20.00594,14.5645895,19.93543Q14.5431983,19.864910000000002,14.5288221,19.79264Q14.5144458,19.72036,14.50722291,19.64703Q14.5,19.57369,14.5,19.5Q14.5,19.42631,14.50722291,19.35297Q14.5144458,19.27964,14.5288221,19.20736Q14.5431983,19.135089999999998,14.5645895,19.06457Q14.5859806,18.994056,14.614181,18.925975Q14.642381,18.857894,14.677118,18.792905Q14.711855,18.727916,14.752796,18.666645Q14.793735999999999,18.605373,14.840484,18.54841Q14.887233,18.491447,14.93934,18.43934Q14.991447,18.387233,15.04841,18.340484Q15.105373,18.293736,15.166645,18.252796Q15.227916,18.211855,15.292905,18.177118Q15.357894,18.142381,15.425975,18.114181Q15.494056,18.0859806,15.56457,18.0645895Q15.63509,18.0431983,15.70736,18.0288221Q15.77964,18.0144458,15.85297,18.00722291Q15.92631,18,16,18ZM17.5,19.5Q17.5,19.57369,17.49278,19.64703Q17.48555,19.72036,17.47118,19.79264Q17.4568,19.864910000000002,17.43541,19.93543Q17.41402,20.00594,17.38582,20.07402Q17.35762,20.14211,17.32288,20.2071Q17.28814,20.27208,17.2472,20.33336Q17.20626,20.39463,17.15952,20.45159Q17.11277,20.50855,17.06066,20.56066Q17.00855,20.61277,16.95159,20.65952Q16.89463,20.70626,16.83335,20.7472Q16.77208,20.78814,16.7071,20.82288Q16.64211,20.85762,16.57402,20.88582Q16.50594,20.91402,16.43543,20.93541Q16.364910000000002,20.9568,16.29264,20.97118Q16.22036,20.98555,16.14703,20.99278Q16.07369,21,16,21Q15.92631,21,15.85297,20.99278Q15.77964,20.98555,15.70736,20.97118Q15.63509,20.9568,15.56457,20.93541Q15.494056,20.91402,15.425975,20.88582Q15.357894,20.85762,15.292905,20.82288Q15.227916,20.78814,15.166645,20.7472Q15.105373,20.70626,15.04841,20.65952Q14.991447,20.61277,14.93934,20.56066Q14.887233,20.50855,14.840484,20.45159Q14.793735999999999,20.39463,14.752796,20.33335Q14.711855,20.27208,14.677118,20.2071Q14.642381,20.14211,14.614181,20.07402Q14.5859806,20.00594,14.5645895,19.93543Q14.5431983,19.864910000000002,14.5288221,19.79264Q14.5144458,19.72036,14.50722291,19.64703Q14.5,19.57369,14.5,19.5Q14.5,19.42631,14.50722291,19.35297Q14.5144458,19.27964,14.5288221,19.20736Q14.5431983,19.135089999999998,14.5645895,19.06457Q14.5859806,18.994056,14.614181,18.925975Q14.642381,18.857894,14.677118,18.792905Q14.711855,18.727916,14.752796,18.666645Q14.793735999999999,18.605373,14.840484,18.54841Q14.887233,18.491447,14.93934,18.43934Q14.991447,18.387233,15.04841,18.340484Q15.105373,18.293736,15.166645,18.252796Q15.227916,18.211855,15.292905,18.177118Q15.357894,18.142381,15.425975,18.114181Q15.494056,18.0859806,15.56457,18.0645895Q15.63509,18.0431983,15.70736,18.0288221Q15.77964,18.0144458,15.85297,18.00722291Q15.92631,18,16,18Q16.07369,18,16.14703,18.00722291Q16.22036,18.0144458,16.29264,18.0288221Q16.364910000000002,18.0431983,16.43543,18.0645895Q16.50594,18.0859806,16.57402,18.114181Q16.64211,18.142381,16.7071,18.177118Q16.77208,18.211855,16.83336,18.252796Q16.89463,18.293736,16.95159,18.340484Q17.00855,18.387233,17.06066,18.43934Q17.11277,18.491447,17.15952,18.54841Q17.20626,18.605373,17.2472,18.666645Q17.28814,18.727916,17.32288,18.792905Q17.35762,18.857894,17.38582,18.925975Q17.41402,18.994056,17.43541,19.06457Q17.4568,19.135089999999998,17.47118,19.20736Q17.48555,19.27964,17.49278,19.35297Q17.5,19.42631,17.5,19.5ZM39.5,19.5Q39.5,19.57369,39.4928,19.64703Q39.485600000000005,19.72036,39.471199999999996,19.79264Q39.4568,19.864910000000002,39.4354,19.93543Q39.414,20.00594,39.3858,20.07402Q39.357600000000005,20.14211,39.322900000000004,20.2071Q39.2881,20.27208,39.2472,20.33336Q39.2063,20.39463,39.1595,20.45159Q39.1128,20.50855,39.0607,20.56066Q39.0086,20.61277,38.9516,20.65952Q38.8946,20.70626,38.8334,20.7472Q38.772099999999995,20.78814,38.7071,20.82288Q38.6421,20.85762,38.574,20.88582Q38.5059,20.91402,38.4354,20.93541Q38.3649,20.9568,38.2926,20.97118Q38.2204,20.98555,38.147,20.99278Q38.0737,21,38,21Q37.9263,21,37.853,20.99278Q37.7796,20.98555,37.7074,20.97118Q37.6351,20.9568,37.5646,20.93541Q37.4941,20.91402,37.426,20.88582Q37.3579,20.85762,37.2929,20.82288Q37.227900000000005,20.78814,37.1666,20.7472Q37.1054,20.70626,37.0484,20.65952Q36.9914,20.61277,36.9393,20.56066Q36.8872,20.50855,36.8405,20.45159Q36.7937,20.39463,36.7528,20.33335Q36.7119,20.27208,36.677099999999996,20.2071Q36.642399999999995,20.14211,36.6142,20.07402Q36.586,20.00594,36.5646,19.93543Q36.5432,19.864910000000002,36.528800000000004,19.79264Q36.514399999999995,19.72036,36.5072,19.64703Q36.5,19.57369,36.5,19.5Q36.5,19.42631,36.5072,19.35297Q36.514399999999995,19.27964,36.528800000000004,19.20736Q36.5432,19.135089999999998,36.5646,19.06457Q36.586,18.994056,36.6142,18.925975Q36.642399999999995,18.857894,36.677099999999996,18.792905Q36.7119,18.727916,36.7528,18.666645Q36.7937,18.605373,36.8405,18.54841Q36.8872,18.491447,36.9393,18.43934Q36.9914,18.387233,37.0484,18.340484Q37.1054,18.293736,37.1666,18.252796Q37.227900000000005,18.211855,37.2929,18.177118Q37.3579,18.142381,37.426,18.114181Q37.4941,18.0859806,37.5646,18.0645895Q37.6351,18.0431983,37.7074,18.0288221Q37.7796,18.0144458,37.853,18.00722291Q37.9263,18,38,18Q38.0737,18,38.147,18.00722291Q38.2204,18.0144458,38.2926,18.0288221Q38.3649,18.0431983,38.4354,18.0645895Q38.5059,18.0859806,38.574,18.114181Q38.6421,18.142381,38.7071,18.177118Q38.772099999999995,18.211855,38.8334,18.252796Q38.8946,18.293736,38.9516,18.340484Q39.0086,18.387233,39.0607,18.43934Q39.1128,18.491447,39.1595,18.54841Q39.2063,18.605373,39.2472,18.666645Q39.2881,18.727916,39.322900000000004,18.792905Q39.357600000000005,18.857894,39.3858,18.925975Q39.414,18.994056,39.4354,19.06457Q39.4568,19.135089999999998,39.471199999999996,19.20736Q39.485600000000005,19.27964,39.4928,19.35297Q39.5,19.42631,39.5,19.5ZM16,26L38,26Q38.0737,26,38.147,26.00722Q38.2204,26.01445,38.2926,26.02882Q38.3649,26.0432,38.4354,26.064590000000003Q38.5059,26.08598,38.574,26.114179999999998Q38.6421,26.14238,38.7071,26.177120000000002Q38.772099999999995,26.21185,38.8334,26.252789999999997Q38.8946,26.29374,38.9516,26.34048Q39.0086,26.387230000000002,39.0607,26.43934Q39.1128,26.49145,39.1595,26.54841Q39.2063,26.60537,39.2472,26.66664Q39.2881,26.72791,39.322900000000004,26.7929Q39.357600000000005,26.857889999999998,39.3858,26.92597Q39.414,26.994059999999998,39.4354,27.06457Q39.4568,27.135089999999998,39.471199999999996,27.20736Q39.485600000000005,27.27964,39.4928,27.35297Q39.5,27.42631,39.5,27.5Q39.5,27.57369,39.4928,27.64703Q39.485600000000005,27.72036,39.471199999999996,27.792630000000003Q39.4568,27.864910000000002,39.4354,27.93543Q39.414,28.0059,39.3858,28.073999999999998Q39.357600000000005,28.1421,39.322900000000004,28.2071Q39.2881,28.272100000000002,39.2472,28.333399999999997Q39.2063,28.3946,39.1595,28.4516Q39.1128,28.5086,39.0607,28.5607Q39.0086,28.6128,38.9516,28.6595Q38.8946,28.7063,38.8334,28.7472Q38.772099999999995,28.7881,38.7071,28.8229Q38.6421,28.857599999999998,38.574,28.8858Q38.5059,28.914,38.4354,28.9354Q38.3649,28.9568,38.2926,28.9712Q38.2204,28.985599999999998,38.147,28.992800000000003Q38.0737,29,38,29L16,29Q15.92631,29,15.85297,28.992800000000003Q15.77964,28.985599999999998,15.70736,28.9712Q15.63509,28.9568,15.56457,28.9354Q15.494056,28.914,15.425975,28.8858Q15.357894,28.857599999999998,15.292905,28.8229Q15.227916,28.7881,15.166645,28.7472Q15.105373,28.7063,15.04841,28.6595Q14.991447,28.6128,14.93934,28.5607Q14.887233,28.5086,14.840484,28.4516Q14.793735999999999,28.3946,14.752796,28.333399999999997Q14.711855,28.272100000000002,14.677118,28.2071Q14.642381,28.1421,14.614181,28.073999999999998Q14.5859806,28.0059,14.5645895,27.93543Q14.5431983,27.864910000000002,14.5288221,27.792630000000003Q14.5144458,27.72036,14.50722291,27.64703Q14.5,27.57369,14.5,27.5Q14.5,27.42631,14.50722291,27.35297Q14.5144458,27.27964,14.5288221,27.20736Q14.5431983,27.135089999999998,14.5645895,27.06457Q14.5859806,26.994059999999998,14.614181,26.92597Q14.642381,26.857889999999998,14.677118,26.7929Q14.711855,26.727919999999997,14.752796,26.66664Q14.793735999999999,26.60537,14.840484,26.54841Q14.887233,26.49145,14.93934,26.43934Q14.991447,26.387230000000002,15.04841,26.34048Q15.105373,26.29374,15.166645,26.2528Q15.227916,26.21185,15.292905,26.177120000000002Q15.357894,26.14238,15.425975,26.114179999999998Q15.494056,26.08598,15.56457,26.064590000000003Q15.63509,26.0432,15.70736,26.02882Q15.77964,26.01445,15.85297,26.00722Q15.92631,26,16,26ZM17.5,27.5Q17.5,27.57369,17.49278,27.64703Q17.48555,27.72036,17.47118,27.792630000000003Q17.4568,27.864910000000002,17.43541,27.93543Q17.41402,28.0059,17.38582,28.073999999999998Q17.35762,28.1421,17.32288,28.2071Q17.28814,28.272100000000002,17.2472,28.333399999999997Q17.20626,28.3946,17.15952,28.4516Q17.11277,28.5086,17.06066,28.5607Q17.00855,28.6128,16.95159,28.6595Q16.89463,28.7063,16.83335,28.7472Q16.77208,28.7881,16.7071,28.8229Q16.64211,28.857599999999998,16.57402,28.8858Q16.50594,28.914,16.43543,28.9354Q16.364910000000002,28.9568,16.29264,28.9712Q16.22036,28.985599999999998,16.14703,28.992800000000003Q16.07369,29,16,29Q15.92631,29,15.85297,28.992800000000003Q15.77964,28.985599999999998,15.70736,28.9712Q15.63509,28.9568,15.56457,28.9354Q15.494056,28.914,15.425975,28.8858Q15.357894,28.857599999999998,15.292905,28.8229Q15.227916,28.7881,15.166645,28.7472Q15.105373,28.7063,15.04841,28.6595Q14.991447,28.6128,14.93934,28.5607Q14.887233,28.5086,14.840484,28.4516Q14.793735999999999,28.3946,14.752796,28.333399999999997Q14.711855,28.272100000000002,14.677118,28.2071Q14.642381,28.1421,14.614181,28.073999999999998Q14.5859806,28.0059,14.5645895,27.93543Q14.5431983,27.864910000000002,14.5288221,27.792630000000003Q14.5144458,27.72036,14.50722291,27.64703Q14.5,27.57369,14.5,27.5Q14.5,27.42631,14.50722291,27.35297Q14.5144458,27.27964,14.5288221,27.20736Q14.5431983,27.135089999999998,14.5645895,27.06457Q14.5859806,26.994059999999998,14.614181,26.92597Q14.642381,26.857889999999998,14.677118,26.7929Q14.711855,26.727919999999997,14.752796,26.66664Q14.793735999999999,26.60537,14.840484,26.54841Q14.887233,26.49145,14.93934,26.43934Q14.991447,26.387230000000002,15.04841,26.34048Q15.105373,26.29374,15.166645,26.2528Q15.227916,26.21185,15.292905,26.177120000000002Q15.357894,26.14238,15.425975,26.114179999999998Q15.494056,26.08598,15.56457,26.064590000000003Q15.63509,26.0432,15.70736,26.02882Q15.77964,26.01445,15.85297,26.00722Q15.92631,26,16,26Q16.07369,26,16.14703,26.00722Q16.22036,26.01445,16.29264,26.02882Q16.364910000000002,26.0432,16.43543,26.064590000000003Q16.50594,26.08598,16.57402,26.114179999999998Q16.64211,26.14238,16.7071,26.177120000000002Q16.77208,26.21185,16.83336,26.252789999999997Q16.89463,26.29374,16.95159,26.34048Q17.00855,26.387230000000002,17.06066,26.43934Q17.11277,26.49145,17.15952,26.54841Q17.20626,26.60537,17.2472,26.66664Q17.28814,26.72791,17.32288,26.7929Q17.35762,26.857889999999998,17.38582,26.92597Q17.41402,26.994059999999998,17.43541,27.06457Q17.4568,27.135089999999998,17.47118,27.20736Q17.48555,27.27964,17.49278,27.35297Q17.5,27.42631,17.5,27.5ZM39.5,27.5Q39.5,27.57369,39.4928,27.64703Q39.485600000000005,27.72036,39.471199999999996,27.792630000000003Q39.4568,27.864910000000002,39.4354,27.93543Q39.414,28.0059,39.3858,28.073999999999998Q39.357600000000005,28.1421,39.322900000000004,28.2071Q39.2881,28.272100000000002,39.2472,28.333399999999997Q39.2063,28.3946,39.1595,28.4516Q39.1128,28.5086,39.0607,28.5607Q39.0086,28.6128,38.9516,28.6595Q38.8946,28.7063,38.8334,28.7472Q38.772099999999995,28.7881,38.7071,28.8229Q38.6421,28.857599999999998,38.574,28.8858Q38.5059,28.914,38.4354,28.9354Q38.3649,28.9568,38.2926,28.9712Q38.2204,28.985599999999998,38.147,28.992800000000003Q38.0737,29,38,29Q37.9263,29,37.853,28.992800000000003Q37.7796,28.985599999999998,37.7074,28.9712Q37.6351,28.9568,37.5646,28.9354Q37.4941,28.914,37.426,28.8858Q37.3579,28.857599999999998,37.2929,28.8229Q37.227900000000005,28.7881,37.1666,28.7472Q37.1054,28.7063,37.0484,28.6595Q36.9914,28.6128,36.9393,28.5607Q36.8872,28.5086,36.8405,28.4516Q36.7937,28.3946,36.7528,28.333399999999997Q36.7119,28.272100000000002,36.677099999999996,28.2071Q36.642399999999995,28.1421,36.6142,28.073999999999998Q36.586,28.0059,36.5646,27.93543Q36.5432,27.864910000000002,36.528800000000004,27.792630000000003Q36.514399999999995,27.72036,36.5072,27.64703Q36.5,27.57369,36.5,27.5Q36.5,27.42631,36.5072,27.35297Q36.514399999999995,27.27964,36.528800000000004,27.20736Q36.5432,27.135089999999998,36.5646,27.06457Q36.586,26.994059999999998,36.6142,26.92597Q36.642399999999995,26.857889999999998,36.677099999999996,26.7929Q36.7119,26.727919999999997,36.7528,26.66664Q36.7937,26.60537,36.8405,26.54841Q36.8872,26.49145,36.9393,26.43934Q36.9914,26.387230000000002,37.0484,26.34048Q37.1054,26.29374,37.1666,26.2528Q37.227900000000005,26.21185,37.2929,26.177120000000002Q37.3579,26.14238,37.426,26.114179999999998Q37.4941,26.08598,37.5646,26.064590000000003Q37.6351,26.0432,37.7074,26.02882Q37.7796,26.01445,37.853,26.00722Q37.9263,26,38,26Q38.0737,26,38.147,26.00722Q38.2204,26.01445,38.2926,26.02882Q38.3649,26.0432,38.4354,26.064590000000003Q38.5059,26.08598,38.574,26.114179999999998Q38.6421,26.14238,38.7071,26.177120000000002Q38.772099999999995,26.21185,38.8334,26.252789999999997Q38.8946,26.29374,38.9516,26.34048Q39.0086,26.387230000000002,39.0607,26.43934Q39.1128,26.49145,39.1595,26.54841Q39.2063,26.60537,39.2472,26.66664Q39.2881,26.72791,39.322900000000004,26.7929Q39.357600000000005,26.857889999999998,39.3858,26.92597Q39.414,26.994059999999998,39.4354,27.06457Q39.4568,27.135089999999998,39.471199999999996,27.20736Q39.485600000000005,27.27964,39.4928,27.35297Q39.5,27.42631,39.5,27.5ZM16,34L32,34Q32.0737,34,32.147,34.0072Q32.2204,34.014399999999995,32.2926,34.028800000000004Q32.3649,34.0432,32.4354,34.0646Q32.5059,34.086,32.574,34.1142Q32.6421,34.142399999999995,32.7071,34.177099999999996Q32.772099999999995,34.2119,32.8334,34.2528Q32.8946,34.2937,32.9516,34.3405Q33.0086,34.3872,33.0607,34.4393Q33.1128,34.4914,33.1595,34.5484Q33.2063,34.6054,33.2472,34.6666Q33.2881,34.727900000000005,33.322900000000004,34.7929Q33.357600000000005,34.8579,33.3858,34.926Q33.414,34.9941,33.4354,35.0646Q33.4568,35.1351,33.471199999999996,35.2074Q33.485600000000005,35.2796,33.4928,35.353Q33.5,35.4263,33.5,35.5Q33.5,35.5737,33.4928,35.647Q33.485600000000005,35.7204,33.471199999999996,35.7926Q33.4568,35.8649,33.4354,35.9354Q33.414,36.0059,33.3858,36.074Q33.357600000000005,36.1421,33.322900000000004,36.2071Q33.2881,36.272099999999995,33.2472,36.3334Q33.2063,36.3946,33.1595,36.4516Q33.1128,36.5086,33.0607,36.5607Q33.0086,36.6128,32.9516,36.6595Q32.8946,36.7063,32.8334,36.7472Q32.772099999999995,36.7881,32.7071,36.822900000000004Q32.6421,36.857600000000005,32.574,36.8858Q32.5059,36.914,32.4354,36.9354Q32.3649,36.9568,32.2926,36.971199999999996Q32.2204,36.985600000000005,32.147,36.9928Q32.0737,37,32,37L16,37Q15.92631,37,15.85297,36.9928Q15.77964,36.985600000000005,15.70736,36.971199999999996Q15.63509,36.9568,15.56457,36.9354Q15.494056,36.914,15.425975,36.8858Q15.357894,36.857600000000005,15.292905,36.822900000000004Q15.227916,36.7881,15.166645,36.7472Q15.105373,36.7063,15.04841,36.6595Q14.991447,36.6128,14.93934,36.5607Q14.887233,36.5086,14.840484,36.4516Q14.793735999999999,36.3946,14.752796,36.3334Q14.711855,36.272099999999995,14.677118,36.2071Q14.642381,36.1421,14.614181,36.074Q14.5859806,36.0059,14.5645895,35.9354Q14.5431983,35.8649,14.5288221,35.7926Q14.5144458,35.7204,14.50722291,35.647Q14.5,35.5737,14.5,35.5Q14.5,35.4263,14.50722291,35.353Q14.5144458,35.2796,14.5288221,35.2074Q14.5431983,35.1351,14.5645895,35.0646Q14.5859806,34.9941,14.614181,34.926Q14.642381,34.8579,14.677118,34.7929Q14.711855,34.727900000000005,14.752796,34.6666Q14.793735999999999,34.6054,14.840484,34.5484Q14.887233,34.4914,14.93934,34.4393Q14.991447,34.3872,15.04841,34.3405Q15.105373,34.2937,15.166645,34.2528Q15.227916,34.2119,15.292905,34.177099999999996Q15.357894,34.142399999999995,15.425975,34.1142Q15.494056,34.086,15.56457,34.0646Q15.63509,34.0432,15.70736,34.028800000000004Q15.77964,34.014399999999995,15.85297,34.0072Q15.92631,34,16,34ZM17.5,35.5Q17.5,35.5737,17.49278,35.647Q17.48555,35.7204,17.47118,35.7926Q17.4568,35.8649,17.43541,35.9354Q17.41402,36.0059,17.38582,36.074Q17.35762,36.1421,17.32288,36.2071Q17.28814,36.272099999999995,17.2472,36.3334Q17.20626,36.3946,17.15952,36.4516Q17.11277,36.5086,17.06066,36.5607Q17.00855,36.6128,16.95159,36.6595Q16.89463,36.7063,16.83335,36.7472Q16.77208,36.7881,16.7071,36.822900000000004Q16.64211,36.857600000000005,16.57402,36.8858Q16.50594,36.914,16.43543,36.9354Q16.364910000000002,36.9568,16.29264,36.971199999999996Q16.22036,36.985600000000005,16.14703,36.9928Q16.07369,37,16,37Q15.92631,37,15.85297,36.9928Q15.77964,36.985600000000005,15.70736,36.971199999999996Q15.63509,36.9568,15.56457,36.9354Q15.494056,36.914,15.425975,36.8858Q15.357894,36.857600000000005,15.292905,36.822900000000004Q15.227916,36.7881,15.166645,36.7472Q15.105373,36.7063,15.04841,36.6595Q14.991447,36.6128,14.93934,36.5607Q14.887233,36.5086,14.840484,36.4516Q14.793735999999999,36.3946,14.752796,36.3334Q14.711855,36.272099999999995,14.677118,36.2071Q14.642381,36.1421,14.614181,36.074Q14.5859806,36.0059,14.5645895,35.9354Q14.5431983,35.8649,14.5288221,35.7926Q14.5144458,35.7204,14.50722291,35.647Q14.5,35.5737,14.5,35.5Q14.5,35.4263,14.50722291,35.353Q14.5144458,35.2796,14.5288221,35.2074Q14.5431983,35.1351,14.5645895,35.0646Q14.5859806,34.9941,14.614181,34.926Q14.642381,34.8579,14.677118,34.7929Q14.711855,34.727900000000005,14.752796,34.6666Q14.793735999999999,34.6054,14.840484,34.5484Q14.887233,34.4914,14.93934,34.4393Q14.991447,34.3872,15.04841,34.3405Q15.105373,34.2937,15.166645,34.2528Q15.227916,34.2119,15.292905,34.177099999999996Q15.357894,34.142399999999995,15.425975,34.1142Q15.494056,34.086,15.56457,34.0646Q15.63509,34.0432,15.70736,34.028800000000004Q15.77964,34.014399999999995,15.85297,34.0072Q15.92631,34,16,34Q16.07369,34,16.14703,34.0072Q16.22036,34.014399999999995,16.29264,34.028800000000004Q16.364910000000002,34.0432,16.43543,34.0646Q16.50594,34.086,16.57402,34.1142Q16.64211,34.142399999999995,16.7071,34.177099999999996Q16.77208,34.2119,16.83336,34.2528Q16.89463,34.2937,16.95159,34.3405Q17.00855,34.3872,17.06066,34.4393Q17.11277,34.4914,17.15952,34.5484Q17.20626,34.6054,17.2472,34.6666Q17.28814,34.727900000000005,17.32288,34.7929Q17.35762,34.8579,17.38582,34.926Q17.41402,34.9941,17.43541,35.0646Q17.4568,35.1351,17.47118,35.2074Q17.48555,35.2796,17.49278,35.353Q17.5,35.4263,17.5,35.5ZM33.5,35.5Q33.5,35.5737,33.4928,35.647Q33.485600000000005,35.7204,33.471199999999996,35.7926Q33.4568,35.8649,33.4354,35.9354Q33.414,36.0059,33.3858,36.074Q33.357600000000005,36.1421,33.322900000000004,36.2071Q33.2881,36.272099999999995,33.2472,36.3334Q33.2063,36.3946,33.1595,36.4516Q33.1128,36.5086,33.0607,36.5607Q33.0086,36.6128,32.9516,36.6595Q32.8946,36.7063,32.8334,36.7472Q32.772099999999995,36.7881,32.7071,36.822900000000004Q32.6421,36.857600000000005,32.574,36.8858Q32.5059,36.914,32.4354,36.9354Q32.3649,36.9568,32.2926,36.971199999999996Q32.2204,36.985600000000005,32.147,36.9928Q32.0737,37,32,37Q31.9263,37,31.853,36.9928Q31.7796,36.985600000000005,31.7074,36.971199999999996Q31.6351,36.9568,31.5646,36.9354Q31.4941,36.914,31.426,36.8858Q31.3579,36.857600000000005,31.2929,36.822900000000004Q31.2279,36.7881,31.1666,36.7472Q31.1054,36.7063,31.0484,36.6595Q30.9914,36.6128,30.9393,36.5607Q30.8872,36.5086,30.8405,36.4516Q30.7937,36.3946,30.7528,36.3334Q30.7119,36.272099999999995,30.6771,36.2071Q30.6424,36.1421,30.6142,36.074Q30.586,36.0059,30.5646,35.9354Q30.5432,35.8649,30.5288,35.7926Q30.5144,35.7204,30.5072,35.647Q30.5,35.5737,30.5,35.5Q30.5,35.4263,30.5072,35.353Q30.5144,35.2796,30.5288,35.2074Q30.5432,35.1351,30.5646,35.0646Q30.586,34.9941,30.6142,34.926Q30.6424,34.8579,30.6771,34.7929Q30.7119,34.727900000000005,30.7528,34.6666Q30.7937,34.6054,30.8405,34.5484Q30.8872,34.4914,30.9393,34.4393Q30.9914,34.3872,31.0484,34.3405Q31.1054,34.2937,31.1666,34.2528Q31.2279,34.2119,31.2929,34.177099999999996Q31.3579,34.142399999999995,31.426,34.1142Q31.4941,34.086,31.5646,34.0646Q31.6351,34.0432,31.7074,34.028800000000004Q31.7796,34.014399999999995,31.853,34.0072Q31.9263,34,32,34Q32.0737,34,32.147,34.0072Q32.2204,34.014399999999995,32.2926,34.028800000000004Q32.3649,34.0432,32.4354,34.0646Q32.5059,34.086,32.574,34.1142Q32.6421,34.142399999999995,32.7071,34.177099999999996Q32.772099999999995,34.2119,32.8334,34.2528Q32.8946,34.2937,32.9516,34.3405Q33.0086,34.3872,33.0607,34.4393Q33.1128,34.4914,33.1595,34.5484Q33.2063,34.6054,33.2472,34.6666Q33.2881,34.727900000000005,33.322900000000004,34.7929Q33.357600000000005,34.8579,33.3858,34.926Q33.414,34.9941,33.4354,35.0646Q33.4568,35.1351,33.471199999999996,35.2074Q33.485600000000005,35.2796,33.4928,35.353Q33.5,35.4263,33.5,35.5Z" fill="url(#master_svg3_15_17246)" fill-opacity="1"/></g></g></svg>