<?xml version="1.0" standalone="no"?><!DOCTYPE svg PUBLIC "-//W3C//DTD SVG 1.1//EN" "http://www.w3.org/Graphics/SVG/1.1/DTD/svg11.dtd"><svg t="1698049015269" class="icon" viewBox="0 0 1024 1024" version="1.1" xmlns="http://www.w3.org/2000/svg" p-id="27153" xmlns:xlink="http://www.w3.org/1999/xlink" width="128" height="128"><path d="M284.417081 0a166.911207 166.911207 0 0 0-166.911207 166.655208v691.196717A166.655208 166.655208 0 0 0 284.417081 1023.995136h520.445528A166.655208 166.655208 0 0 0 972.797811 856.82793V343.294369a63.2317 63.2317 0 0 0-18.431912-44.799787L673.279234 18.431912A64.511694 64.511694 0 0 0 628.479447 0z" fill="#3F70FF" p-id="27154"></path><path d="M953.341904 298.494582L673.279234 18.431912A63.743697 63.743697 0 0 0 639.999392 1.279994a6.143971 6.143971 0 0 0-7.167966 6.39997v135.423356a195.071073 195.071073 0 0 0 195.071073 195.071074h135.423357a6.143971 6.143971 0 0 0 6.143971-7.167966 61.439708 61.439708 0 0 0-16.127923-32.511846z" fill="#2A58D8" p-id="27155"></path><path d="M835.582463 307.198541h124.671408a55.295737 55.295737 0 0 0-6.911967-8.44796L673.279234 18.431912a71.167662 71.167662 0 0 0-7.679964-6.911967v124.415409A171.007188 171.007188 0 0 0 835.582463 307.198541z" fill="#C6E1FF" p-id="27156"></path><path d="M253.185229 273.918699m33.79184 0l274.942694 0q33.791839 0 33.791839 33.791839l0 0.255999q0 33.791839-33.791839 33.79184l-274.942694 0q-33.791839 0-33.79184-33.79184l0-0.255999q0-33.791839 33.79184-33.791839Z" fill="#FFFFFF" p-id="27157"></path><path d="M253.185229 478.461727m33.79184 0l482.04571 0q33.791839 0 33.79184 33.79184l0 0.255999q0 33.791839-33.79184 33.791839l-482.04571 0q-33.791839 0-33.79184-33.791839l0-0.255999q0-33.791839 33.79184-33.79184Z" fill="#FFFFFF" p-id="27158"></path><path d="M253.185229 683.004756m33.79184 0l482.04571 0q33.791839 0 33.79184 33.791839l0 0.255999q0 33.791839-33.79184 33.791839l-482.04571 0q-33.791839 0-33.79184-33.791839l0-0.255999q0-33.791839 33.79184-33.791839Z" fill="#FFFFFF" p-id="27159"></path></svg>