<svg xmlns="http://www.w3.org/2000/svg" xmlns:xlink="http://www.w3.org/1999/xlink" fill="none" version="1.1" width="45" height="42" viewBox="0 0 45 42"><defs><clipPath id="master_svg0_15_660"><rect x="0" y="0" width="45" height="42" rx="0"/></clipPath></defs><g clip-path="url(#master_svg0_15_660)"><g><path d="M17.4937,20.125L21.5625,20.125C26.2224,20.125,30,23.6508,30,28L16.8731,28L16.875,29.75L31.875,29.75L31.875,28C31.8691,26.1379,31.2927,24.3163,30.2138,22.75L35.625,22.75C39.2425,22.7491,42.5377,24.6907,44.0925,27.7393C39.6581,33.201,32.4788,36.75,24.375,36.75C19.1981,36.75,14.8125,35.7175,11.25,33.9062L11.25,17.624299999999998C13.5311,17.9292,15.6853,18.792,17.4937,20.125ZM9.375,33.25C9.375,34.216499999999996,8.53553,35,7.5,35L3.75,35C2.714466,35,1.875,34.216499999999996,1.875,33.25L1.875,17.5C1.875,16.5335,2.714466,15.75,3.75,15.75L7.5,15.75C8.53553,15.75,9.375,16.5335,9.375,17.5L9.375,33.25ZM33.75,8.75C36.8566,8.75,39.375,11.1005,39.375,14C39.375,16.8995,36.8566,19.25,33.75,19.25C30.6434,19.25,28.125,16.8995,28.125,14C28.125,11.1005,30.6434,8.75,33.75,8.75ZM20.625,3.5C23.7316,3.5,26.25,5.8505,26.25,8.75C26.25,11.6495,23.7316,14,20.625,14C17.5184,14,15,11.6495,15,8.75C15,5.8505,17.5184,3.5,20.625,3.5Z" fill="#5F57FF" fill-opacity="1"/></g></g></svg>