<svg xmlns="http://www.w3.org/2000/svg" xmlns:xlink="http://www.w3.org/1999/xlink" fill="none" version="1.1" width="58" height="36" viewBox="0 0 58 36"><defs><clipPath id="master_svg0_15_664"><rect x="0" y="0" width="58" height="36" rx="0"/></clipPath></defs><g clip-path="url(#master_svg0_15_664)"><g><path d="M53.16663206176758,9L36.25003206176758,9C28.241832061767578,9,21.750032061767577,13.02944,21.750032061767577,18C21.750032061767577,22.9706,28.241832061767578,27,36.25003206176758,27L53.16663206176758,27L53.16663206176758,30C53.16663206176758,30.8284,52.084732061767575,31.5,50.75003206176758,31.5L7.250002061767578,31.5C5.915312061767578,31.5,4.833332061767578,30.8284,4.833332061767578,30L4.833332061767578,6C4.833332061767578,5.171573,5.915312061767578,4.5,7.250002061767578,4.5L50.75003206176758,4.5C52.084732061767575,4.5,53.16663206176758,5.171573,53.16663206176758,6L53.16663206176758,9ZM36.25003206176758,12L55.58333206176758,12L55.58333206176758,24L36.25003206176758,24C30.911232061767578,24,26.583332061767578,21.3137,26.583332061767578,18C26.583332061767578,14.6863,30.911232061767578,12,36.25003206176758,12ZM36.25003206176758,16.5L36.25003206176758,19.5L43.50003206176758,19.5L43.50003206176758,16.5L36.25003206176758,16.5Z" fill="#5F57FF" fill-opacity="1"/></g></g></svg>