<svg xmlns="http://www.w3.org/2000/svg" xmlns:xlink="http://www.w3.org/1999/xlink" fill="none" version="1.1" width="57" height="49" viewBox="0 0 57 49"><defs><clipPath id="master_svg0_15_668"><rect x="0" y="0" width="57" height="49" rx="0"/></clipPath></defs><g clip-path="url(#master_svg0_15_668)"><g><path d="M4.75,36.7499259765625L21.375,36.7499259765625L21.375,40.8333259765625L4.75,40.8333259765625L4.75,36.7499259765625ZM4.75,22.4583259765625L26.125,22.4583259765625L26.125,26.5416259765625L4.75,26.5416259765625L4.75,22.4583259765625ZM4.75,8.1666259765625L52.25,8.1666259765625L52.25,12.2499559765625L4.75,12.2499559765625L4.75,8.1666259765625ZM49.1007,26.5926259765625L51.8462,25.7944259765625L54.2213,29.3305259765625L52.0457,30.9741259765625C52.3196,32.090125976562504,52.3196,33.243125976562496,52.0457,34.359125976562495L54.2213,36.0027259765625L51.8462,39.538925976562496L49.1007,38.7406259765625C48.127,39.4960259765625,46.968,40.0779259765625,45.6926,40.4351259765625L45.125,42.8749259765625L40.375,42.8749259765625L39.805,40.4331259765625C38.5445,40.079025976562505,37.3843,39.5017259765625,36.3993,38.7385259765625L33.653800000000004,39.538925976562496L31.2787,36.0027259765625L33.4543,34.359125976562495C33.1804,33.243125976562496,33.1804,32.090125976562504,33.4543,30.9741259765625L31.2787,29.3305259765625L33.653800000000004,25.7944259765625L36.3993,26.5926259765625C37.373,25.8372259765625,38.532,25.2553259765625,39.8074,24.8981259765625L40.375,22.4583259765625L45.125,22.4583259765625L45.695,24.9001259765625C46.968,25.2553259765625,48.127,25.8393259765625,49.1007,26.5947259765625L49.1007,26.5926259765625ZM42.75,34.7083259765625C44.0617,34.7083259765625,45.125,33.7942259765625,45.125,32.6666259765625C45.125,31.5390259765625,44.0617,30.6249259765625,42.75,30.6249259765625C41.4383,30.6249259765625,40.375,31.5390259765625,40.375,32.6666259765625C40.375,33.7942259765625,41.4383,34.7083259765625,42.75,34.7083259765625Z" fill="currentColor" fill-opacity="1"/></g></g></svg>