<svg xmlns="http://www.w3.org/2000/svg" xmlns:xlink="http://www.w3.org/1999/xlink" fill="none" version="1.1" width="57" height="57" viewBox="0 0 57 57"><defs><filter id="master_svg0_15_17283" filterUnits="objectBoundingBox" color-interpolation-filters="sRGB" x="-8" y="-4" width="61" height="61"><feFlood flood-opacity="0" result="BackgroundImageFix"/><feColorMatrix in="SourceAlpha" type="matrix" values="0 0 0 0 0 0 0 0 0 0 0 0 0 0 0 0 0 0 127 0"/><feOffset dy="4" dx="0"/><feGaussianBlur stdDeviation="2"/><feColorMatrix type="matrix" values="0 0 0 0 0.05145832896232605 0 0 0 0 0.3113589584827423 0 0 0 0 0.4749999940395355 0 0 0 0.10000000149011612 0"/><feBlend mode="normal" in2="BackgroundImageFix" result="effect1_dropShadow"/><feBlend mode="normal" in="SourceGraphic" in2="effect1_dropShadow" result="shape"/></filter><linearGradient x1="0.08888891339302063" y1="0.033333320170640945" x2="0.5" y2="1" id="master_svg1_15_17285"><stop offset="0%" stop-color="#92D5FF" stop-opacity="1"/><stop offset="100%" stop-color="#7BCCFF" stop-opacity="1"/></linearGradient><linearGradient x1="-0.6060606241226196" y1="1.558823585510254" x2="0.9545454382896423" y2="-0.17647045850753784" id="master_svg2_15_17282"><stop offset="0%" stop-color="#AADEFF" stop-opacity="1"/><stop offset="100%" stop-color="#AADEFF" stop-opacity="0"/></linearGradient><linearGradient x1="0.5" y1="-3.0616171314629196e-17" x2="0.5" y2="1" id="master_svg3_15_17265"><stop offset="0%" stop-color="#FFFFFF" stop-opacity="1"/><stop offset="100%" stop-color="#FFFFFF" stop-opacity="0.800000011920929"/></linearGradient></defs><g><g filter="url(#master_svg0_15_17283)"><path d="M6,12C6,6.47715,10.47715,2,16,2C16,2,41,2,41,2C46.5228,2,51,6.47715,51,12C51,12,51,37,51,37C51,42.5228,46.5228,47,41,47C41,47,16,47,16,47C10.47715,47,6,42.5228,6,37C6,37,6,12,6,12C6,12,6,12,6,12Z" fill="url(#master_svg1_15_17285)" fill-opacity="1"/></g><g><path d="M10,32C10,28.68629,12.68629,26,16,26C16,26,41,26,41,26C44.3137,26,47,28.68629,47,32C47,32,47,37,47,37C47,40.3137,44.3137,43,41,43C41,43,20,43,20,43C14.47715,43,10,38.522800000000004,10,33C10,33,10,32,10,32C10,32,10,32,10,32Z" fill="url(#master_svg2_15_17282)" fill-opacity="1"/></g><g><path d="M40.66078,16.58039C40.66078,18.28164,39.28164,19.66078,37.58039,19.66078C35.87914,19.66078,34.5,18.28164,34.5,16.58039C34.5,14.87914,35.87914,13.5,37.58039,13.5C39.28164,13.5,40.66078,14.87914,40.66078,16.58039C40.66078,16.58039,40.66078,16.58039,40.66078,16.58039Z" fill="#FFFFFF" fill-opacity="1"/></g><g><path d="M21.20103646850586,19.288631666564942C21.20103646850586,19.288631666564942,16.59720046850586,29.33343166656494,16.59720046850586,29.33343166656494C15.38283046850586,31.98293166656494,17.31887646850586,35.00003166656494,20.23345646850586,35.00003166656494C20.23345646850586,35.00003166656494,36.17548646850586,35.00003166656494,36.17548646850586,35.00003166656494C39.23138646850586,35.00003166656494,41.15868646850586,31.711931666564944,39.66548646850586,29.045631666564944C39.66548646850586,29.045631666564944,37.38428646850586,24.972001666564942,37.38428646850586,24.972001666564942C36.67318646850586,23.702201666564942,34.97018646850586,23.41540166656494,33.88238646850586,24.382301666564942C32.714386468505865,25.42050166656494,30.87158646850586,25.00160166656494,30.26728646850586,23.560401666564943C30.26728646850586,23.560401666564943,28.52608646850586,19.40834166656494,28.52608646850586,19.40834166656494C27.17858646850586,16.19520066656494,22.65276646850586,16.12123066656494,21.20103646850586,19.288631666564942C21.20103646850586,19.288631666564942,21.20103646850586,19.288631666564942,21.20103646850586,19.288631666564942Z" fill="url(#master_svg3_15_17265)" fill-opacity="1"/></g></g></svg>