<svg width="84" height="81" viewBox="0 0 84 81" fill="none" xmlns="http://www.w3.org/2000/svg">
<path d="M79.5027 0.345703L47.2415 25.346L53.2406 10.6125L79.5027 0.345703Z" fill="#E17726" stroke="#E17726" stroke-width="0.5" stroke-linecap="round" stroke-linejoin="round"/>
<path d="M5.08789 0.345703L37.062 25.5793L31.35 10.6125L5.08789 0.345703Z" fill="#E27625" stroke="#E27625" stroke-width="0.5" stroke-linecap="round" stroke-linejoin="round"/>
<path d="M67.893 58.3086L59.3091 72.0421L77.6895 77.3421L82.9547 58.6086L67.893 58.3086Z" fill="#E27625" stroke="#E27625" stroke-width="0.5" stroke-linecap="round" stroke-linejoin="round"/>
<path d="M1.67529 58.6086L6.90857 77.3421L25.257 72.0421L16.705 58.3086L1.67529 58.6086Z" fill="#E27625" stroke="#E27625" stroke-width="0.5" stroke-linecap="round" stroke-linejoin="round"/>
<path d="M24.267 35.1137L19.1614 43.1804L37.3502 44.0471L36.7439 23.5469L24.267 35.1137Z" fill="#E27625" stroke="#E27625" stroke-width="0.5" stroke-linecap="round" stroke-linejoin="round"/>
<path d="M60.3293 35.1117L47.6609 23.3115L47.2461 44.0451L65.4349 43.1784L60.3293 35.1117Z" fill="#E27625" stroke="#E27625" stroke-width="0.5" stroke-linecap="round" stroke-linejoin="round"/>
<path d="M25.2561 72.0482L36.2651 66.4815L26.7878 58.748L25.2561 72.0482Z" fill="#E27625" stroke="#E27625" stroke-width="0.5" stroke-linecap="round" stroke-linejoin="round"/>
<path d="M48.3303 66.4815L59.3075 72.0482L57.8077 58.748L48.3303 66.4815Z" fill="#E27625" stroke="#E27625" stroke-width="0.5" stroke-linecap="round" stroke-linejoin="round"/>
<path d="M59.305 72.0472L48.3279 66.4805L49.2214 73.9472L49.1256 77.1139L59.305 72.0472Z" fill="#D5BFB2" stroke="#D5BFB2" stroke-width="0.5" stroke-linecap="round" stroke-linejoin="round"/>
<path d="M25.2512 72.0472L35.4625 77.1139L35.3987 73.9472L36.2603 66.4805L25.2512 72.0472Z" fill="#D5BFB2" stroke="#D5BFB2" stroke-width="0.5" stroke-linecap="round" stroke-linejoin="round"/>
<path d="M35.663 53.8161L26.5366 51.016L32.9825 47.916L35.663 53.8161Z" fill="#233447" stroke="#233447" stroke-width="0.5" stroke-linecap="round" stroke-linejoin="round"/>
<path d="M48.9353 53.8161L51.6158 47.916L58.0936 51.016L48.9353 53.8161Z" fill="#233447" stroke="#233447" stroke-width="0.5" stroke-linecap="round" stroke-linejoin="round"/>
<path d="M25.2541 72.0362L26.8496 58.3027L16.7021 58.6027L25.2541 72.0362Z" fill="#CC6228" stroke="#CC6228" stroke-width="0.5" stroke-linecap="round" stroke-linejoin="round"/>
<path d="M57.739 58.3027L59.3026 72.0362L67.8866 58.6027L57.739 58.3027Z" fill="#CC6228" stroke="#CC6228" stroke-width="0.5" stroke-linecap="round" stroke-linejoin="round"/>
<path d="M65.4303 43.1758L47.2415 44.0425L48.9327 53.8092L51.6132 47.9092L58.091 51.0092L65.4303 43.1758Z" fill="#CC6228" stroke="#CC6228" stroke-width="0.5" stroke-linecap="round" stroke-linejoin="round"/>
<path d="M26.5304 51.0092L32.9763 47.9092L35.6568 53.8092L37.348 44.0425L19.1592 43.1758L26.5304 51.0092Z" fill="#CC6228" stroke="#CC6228" stroke-width="0.5" stroke-linecap="round" stroke-linejoin="round"/>
<path d="M19.1594 43.1807L26.7859 58.7475L26.5307 51.0141L19.1594 43.1807Z" fill="#E27525" stroke="#E27525" stroke-width="0.5" stroke-linecap="round" stroke-linejoin="round"/>
<path d="M58.0889 51.0092L57.8018 58.7426L65.4283 43.1758L58.0889 51.0092Z" fill="#E27525" stroke="#E27525" stroke-width="0.5" stroke-linecap="round" stroke-linejoin="round"/>
<path d="M37.3436 44.0361L35.6523 53.8029L37.7903 65.3364L38.269 50.1362L37.3436 44.0361Z" fill="#E27525" stroke="#E27525" stroke-width="0.5" stroke-linecap="round" stroke-linejoin="round"/>
<path d="M47.2399 44.0361L46.3464 50.1029L46.7932 65.3364L48.9312 53.8029L47.2399 44.0361Z" fill="#E27525" stroke="#E27525" stroke-width="0.5" stroke-linecap="round" stroke-linejoin="round"/>
<path d="M48.9307 53.8166L46.7927 65.3501L48.3244 66.4834L57.8018 58.75L58.089 51.0166L48.9307 53.8166Z" fill="#F5841F" stroke="#F5841F" stroke-width="0.5" stroke-linecap="round" stroke-linejoin="round"/>
<path d="M26.5366 51.0166L26.7919 58.75L36.2692 66.4834L37.8009 65.3501L35.6629 53.8166L26.5366 51.0166Z" fill="#F5841F" stroke="#F5841F" stroke-width="0.5" stroke-linecap="round" stroke-linejoin="round"/>
<path d="M49.1203 77.1126L49.2161 73.9459L48.3864 73.2126H36.1967L35.3989 73.9459L35.4627 77.1126L25.2515 72.0459L28.8254 75.1126L36.069 80.346H48.4821L55.7577 75.1126L59.2997 72.0459L49.1203 77.1126Z" fill="#C0AC9D" stroke="#C0AC9D" stroke-width="0.5" stroke-linecap="round" stroke-linejoin="round"/>
<path d="M48.3267 66.48L46.795 65.3467H37.7963L36.2647 66.48L35.4031 73.9468L36.2008 73.2134H48.3906L49.2202 73.9468L48.3267 66.48Z" fill="#161616" stroke="#161616" stroke-width="0.5" stroke-linecap="round" stroke-linejoin="round"/>
<path d="M80.876 26.9852L83.5883 13.185L79.5038 0.351562L48.3276 24.5185L60.3258 35.1186L77.2701 40.2853L81.0036 35.7186L79.3762 34.4853L81.9609 32.0186L79.9825 30.4186L82.5672 28.3519L80.876 26.9852Z" fill="#763E1A" stroke="#763E1A" stroke-width="0.5" stroke-linecap="round" stroke-linejoin="round"/>
<path d="M1 13.1899L3.74428 26.9901L1.98922 28.3568L4.60586 30.4235L2.62742 32.0235L5.21215 34.4902L3.58473 35.7235L7.31823 40.2902L24.2626 35.1235L36.2608 24.5234L5.08451 0.356445L1 13.1899Z" fill="#763E1A" stroke="#763E1A" stroke-width="0.5" stroke-linecap="round" stroke-linejoin="round"/>
<path d="M77.2623 40.278L60.318 35.1113L65.4236 43.1781L57.7971 58.7449L67.8807 58.6115H82.9423L77.2623 40.278Z" fill="#F5841F" stroke="#F5841F" stroke-width="0.5" stroke-linecap="round" stroke-linejoin="round"/>
<path d="M24.2656 35.1113L7.32121 40.278L1.6731 58.6115H16.7028L26.7865 58.7449L19.1599 43.1781L24.2656 35.1113Z" fill="#F5841F" stroke="#F5841F" stroke-width="0.5" stroke-linecap="round" stroke-linejoin="round"/>
<path d="M47.2392 44.047L48.3242 24.5134L53.2383 10.6133H31.3479L36.2621 24.5134L37.347 44.047L37.7619 50.1804L37.7938 65.3472H46.7925L46.8244 50.1804L47.2392 44.047Z" fill="#F5841F" stroke="#F5841F" stroke-width="0.5" stroke-linecap="round" stroke-linejoin="round"/>
</svg>
