<?xml version="1.0" standalone="no"?><!DOCTYPE svg PUBLIC "-//W3C//DTD SVG 1.1//EN" "http://www.w3.org/Graphics/SVG/1.1/DTD/svg11.dtd"><svg t="1705310133153" class="icon" viewBox="0 0 1230 1024" version="1.1" xmlns="http://www.w3.org/2000/svg" p-id="2358" xmlns:xlink="http://www.w3.org/1999/xlink" width="240.234375" height="200"><path d="M0 106.837333c0-54.272 43.946667-98.133333 98.133333-98.133333h1034.666667c54.186667 0 98.133333 43.861333 98.133333 98.133333v810.666667a98.133333 98.133333 0 0 1-98.133333 98.133333H98.133333a98.133333 98.133333 0 0 1-98.133333-98.133333v-810.666667z m110.933333 12.8v785.066667h1009.066667v-785.066667H110.933333z" fill="#fdb043" p-id="2359"></path><path d="M487.253333 386.048v371.456h-39.68a36.181333 36.181333 0 0 1-15.104-2.816 38.144 38.144 0 0 1-11.946666-10.24l-185.173334-235.52c0.512 5.973333 0.853333 11.861333 1.024 17.664 0.341333 5.802667 0.512 11.093333 0.512 16.128v214.784h-67.84V386.048h40.448c3.242667 0 5.973333 0.170667 8.192 0.512a21.077333 21.077333 0 0 1 11.776 5.376c1.706667 1.536 3.584 3.584 5.632 6.144l186.368 236.544a392.874667 392.874667 0 0 1-2.048-36.096v-212.48h67.84zM625.322667 446.208v102.656H758.869333v60.416H625.322667v148.224h-77.312V386.048H784.469333v60.16H625.322667zM1083.818667 448h-108.544v309.504h-77.056V448H789.674667v-61.952h294.144v61.952z" fill="#fdb043" p-id="2360"></path></svg>