<?xml version="1.0" standalone="no"?><!DOCTYPE svg PUBLIC "-//W3C//DTD SVG 1.1//EN" "http://www.w3.org/Graphics/SVG/1.1/DTD/svg11.dtd"><svg t="1715054251923" class="icon" viewBox="0 0 1024 1024" version="1.1" xmlns="http://www.w3.org/2000/svg" p-id="6522" xmlns:xlink="http://www.w3.org/1999/xlink" width="200" height="200"><path d="M874.666667 251.733333L554.666667 68.266667c-25.6-17.066667-59.733333-17.066667-85.333334 0L149.333333 251.733333c-25.6 17.066667-42.666667 42.666667-42.666666 72.533334v371.2c0 29.866667 17.066667 59.733333 42.666666 72.533333l320 183.466667c25.6 17.066667 59.733333 17.066667 85.333334 0l320-183.466667c25.6-17.066667 42.666667-42.666667 42.666666-72.533333V328.533333c0-34.133333-17.066667-59.733333-42.666666-76.8z m0 443.733334c0 17.066667-8.533333 29.866667-21.333334 38.4l-320 183.466666c-12.8 8.533333-29.866667 8.533333-42.666666 0L170.666667 733.866667c-12.8-8.533333-21.333333-21.333333-21.333334-38.4V328.533333c0-17.066667 8.533333-29.866667 21.333334-38.4l320-183.466666c12.8-8.533333 29.866667-8.533333 42.666666 0L853.333333 290.133333c12.8 8.533333 21.333333 21.333333 21.333334 38.4v366.933334z" p-id="6523" fill="#ffffff"></path><path d="M640 452.266667h59.733333V640h59.733334v-187.733333h59.733333V396.8H640zM452.266667 640H512v-93.866667h89.6v-51.2H512v-42.666666h106.666667V396.8h-166.4zM341.333333 520.533333L264.533333 396.8H213.333333V640h59.733334v-123.733333L349.866667 640h51.2V396.8H341.333333z" p-id="6524" fill="#ffffff"></path></svg>