<?xml version="1.0" standalone="no"?><!DOCTYPE svg PUBLIC "-//W3C//DTD SVG 1.1//EN" "http://www.w3.org/Graphics/SVG/1.1/DTD/svg11.dtd"><svg t="1706239075547" class="icon" viewBox="0 0 1024 1024" version="1.1" xmlns="http://www.w3.org/2000/svg" p-id="8501" xmlns:xlink="http://www.w3.org/1999/xlink" width="128" height="128"><path d="M279.125333 259.477333l56.213334-30.848v579.434667l-39.786667-22.890667-82.069333-307.904v260.608l-46.762667-26.88V335.658667L213.482667 309.333333c0 3.498667 45.44 150.464 65.152 214.08z m103.978667 573.482667l52.714667 34.858667V544.234667h196.48v-65.216h-196.48V223.637333l76.181333-43.306666 132.672 77.162666 30.336-47.296-163.008-95.573333-128.896 77.162667z m359.125333-514.730667v469.333334L800.426667 755.2V350.08l72.106666 49.28v-61.717333l-171.584-108.522667-28.949333 43.306667zM955.733333 257.365333v510.250667L512.682667 1024 68.266667 767.744V257.493333L512 0z m-52.693333 27.882667L512 58.752 120.96 285.376v452.501333L512.682667 964.266667l390.4-226.517334z" p-id="8502"></path></svg>