<svg xmlns="http://www.w3.org/2000/svg" xmlns:xlink="http://www.w3.org/1999/xlink" fill="none" version="1.1" width="54" height="40" viewBox="0 0 54 40"><defs><clipPath id="master_svg0_15_656"><rect x="0" y="0" width="54" height="40" rx="0"/></clipPath></defs><g clip-path="url(#master_svg0_15_656)"><g><path d="M27,1.6666259765625C33.2132,1.6666259765625,38.25,5.3975859765625,38.25,9.9999559765625L38.25,13.3333259765625L45,13.3333259765625C46.2426,13.3333259765625,47.25,14.0795259765625,47.25,14.9999259765625L47.25,34.9999259765625C47.25,35.9204259765625,46.2426,36.6666259765625,45,36.6666259765625L9,36.6666259765625C7.75736,36.6666259765625,6.75,35.9204259765625,6.75,34.9999259765625L6.75,14.9999259765625C6.75,14.0795259765625,7.75736,13.3333259765625,9,13.3333259765625L15.75,13.3333259765625L15.75,9.9999559765625C15.75,5.3975859765625,20.7868,1.6666259765625,27,1.6666259765625ZM38.25,18.3333259765625L33.75,18.3333259765625L33.75,19.9999259765625C33.7513,20.8818259765625,34.6797,21.6102259765625,35.8681,21.6619259765625C37.0566,21.7136259765625,38.093599999999995,21.0706259765625,38.2342,20.1949259765625L38.25,19.9999259765625L38.25,18.3333259765625ZM20.25,18.3333259765625L15.75,18.3333259765625L15.75,19.9999259765625C15.75132,20.8818259765625,16.67972,21.6102259765625,17.8681,21.6619259765625C19.0566,21.7136259765625,20.093600000000002,21.0706259765625,20.234299999999998,20.1949259765625L20.25,19.9999259765625L20.25,18.3333259765625ZM27,4.9999559765625C23.4257,4.9998159765625,20.4709,7.0635859765625,20.2613,9.7066259765625L20.25,9.9999559765625L20.25,13.3333259765625L33.75,13.3333259765625L33.75,9.9999559765625C33.7502,7.3523659765625,30.9641,5.1636159765625,27.396,5.008295976562501L27,4.9999559765625Z" fill="#5F57FF" fill-opacity="1"/></g></g></svg>