<?xml version="1.0" standalone="no"?><!DOCTYPE svg PUBLIC "-//W3C//DTD SVG 1.1//EN" "http://www.w3.org/Graphics/SVG/1.1/DTD/svg11.dtd"><svg t="1697016818659" class="icon" viewBox="0 0 1024 1024" version="1.1" xmlns="http://www.w3.org/2000/svg" p-id="10736" xmlns:xlink="http://www.w3.org/1999/xlink" width="128" height="128"><path d="M507.84 63.19c-247.03 0-448 200.98-448 448s200.97 448 448 448 448-200.98 448-448-200.97-448-448-448z m0 821.33c-205.85 0-373.33-167.47-373.33-373.33s167.48-373.33 373.33-373.33 373.33 167.47 373.33 373.33-167.48 373.33-373.33 373.33z" p-id="10737"></path><path d="M677.03 378.5v-56.65c20.14-0.55 36.3-17.04 36.3-37.31 0-20.62-16.72-37.33-37.33-37.33H344.35c-20.62 0-37.33 16.72-37.33 37.33 0 20.27 16.16 36.76 36.29 37.31v56.65c0 52.55 24.43 99.5 62.52 130.1-38.09 30.61-62.52 77.55-62.52 130.1v56.65c-20.14 0.55-36.29 17.04-36.29 37.31 0 20.62 16.72 37.33 37.33 37.33H676c20.62 0 37.33-16.72 37.33-37.33 0-20.27-16.16-36.76-36.3-37.31V638.7c0-52.55-24.43-99.5-62.51-130.1 38.08-30.6 62.51-77.55 62.51-130.1z m-259.05-56.62h184.38v56.62c0 50.82-41.35 92.18-92.18 92.18s-92.19-41.36-92.19-92.18v-56.62z m184.38 373.44H417.98V638.7c0-50.82 41.36-92.18 92.19-92.18s92.18 41.36 92.18 92.18v56.62z" p-id="10738"></path></svg>