<svg xmlns="http://www.w3.org/2000/svg" xmlns:xlink="http://www.w3.org/1999/xlink" fill="none" version="1.1" width="73" height="49" viewBox="0 0 73 49"><defs><clipPath id="master_svg0_15_672"><rect x="0" y="0" width="73" height="49" rx="0"/></clipPath></defs><g clip-path="url(#master_svg0_15_672)"><g><path d="M41.4245,42.875C41.1659,42.875,40.995599999999996,42.7586,41.0382,42.6157L41.0382,6.384292C41.0382,6.269959,41.1659,6.1535837,41.3819,6.1535837L49.8529,6.1535837C57.5971,6.1535856,63.875,10.367519999999999,63.875,15.56567L63.875,33.462900000000005C63.875,38.6611,57.5971,42.875,49.8529,42.875L41.4245,42.875L41.4245,42.875ZM51.833,22.6094C48.7792,22.6094,46.285,24.2836,46.285,26.3334C46.285,28.3833,48.7792,30.0574,51.833,30.0574C54.8869,30.0574,57.381,28.3833,57.381,26.3334C57.381,24.2836,54.8869,22.6094,51.833,22.6094ZM17.641669999999998,17.15C17.641669999999998,15.24512,19.9625,13.68733,22.8003,13.68733C25.6413,13.68733,27.962,15.24512,27.962,17.15C27.962,19.0569,25.6413,20.6147,22.8003,20.6147C19.955399999999997,20.608,17.65168,19.0616,17.641669999999998,17.152L17.641669999999998,17.15ZM35.1008,6.125C35.3594,6.125,35.5327,6.241375,35.4902,6.384292L35.4902,42.5892C35.4902,42.7321,35.3168,42.8485,35.1008,42.8485L23.147100000000002,42.8485C15.40339,42.8496,9.125,38.6344,9.125,33.4343L9.125,15.53708C9.12499927481,10.338930000000001,15.402899999999999,6.125,23.147100000000002,6.125L35.1008,6.125ZM31.101,39.9023L31.101,9.06908L23.147100000000002,9.06908C20.564700000000002,9.06908,18.158749999999998,9.76325,16.348959999999998,10.97396C14.51676,12.17216,13.491869999999999,13.82011,13.51108,15.53708L13.51108,33.4343C13.51108,35.167699999999996,14.54525,36.7827,16.348959999999998,37.995400000000004C18.13351,39.226,20.5887,39.9147,23.147100000000002,39.9023L31.101,39.9023Z" fill="currentColor" fill-opacity="1"/></g></g></svg>