<svg xmlns="http://www.w3.org/2000/svg" xmlns:xlink="http://www.w3.org/1999/xlink" fill="none" version="1.1" width="24" height="24" viewBox="0 0 24 24"><defs><clipPath id="master_svg0_8_316"><rect x="0" y="0" width="24" height="24" rx="0"/></clipPath></defs><g clip-path="url(#master_svg0_8_316)"><g><path d="M12,18C8.68629,18,6,15.3137,6,12C6,8.68629,8.68629,6,12,6C15.3137,6,18,8.68629,18,12C18,15.3137,15.3137,18,12,18ZM11,1L13,1L13,4L11,4L11,1ZM11,20L13,20L13,23L11,23L11,20ZM3.515,4.929L4.929,3.515L7.05,5.636L5.636,7.05L3.515,4.929L3.515,4.929ZM16.95,18.364L18.364,16.95L20.485,19.071L19.071,20.485L16.95,18.364ZM19.071,3.514L20.485,4.929L18.364,7.05L16.95,5.636L19.071,3.515L19.071,3.514ZM5.636,16.95L7.05,18.364L4.929,20.485L3.515,19.071L5.636,16.95ZM23,11L23,13L20,13L20,11L23,11ZM4,11L4,13L1,13L1,11L4,11Z" fill="currentColor" fill-opacity="1"/></g></g></svg>