<svg width="18" height="15" viewBox="0 0 18 15" fill="none" xmlns="http://www.w3.org/2000/svg">
<path d="M14.7368 0C15.2254 0 15.6939 0.194078 16.0394 0.53954C16.3849 0.885002 16.5789 1.35355 16.5789 1.84211V3.93105C16.859 4.09273 17.0915 4.32526 17.2532 4.60529C17.4149 4.88532 17.5 5.20297 17.5 5.52632V9.21053C17.5 9.53387 17.4149 9.85153 17.2532 10.1316C17.0915 10.4116 16.859 10.6441 16.5789 10.8058V12.8947C16.5789 13.3833 16.3849 13.8518 16.0394 14.1973C15.6939 14.5428 15.2254 14.7368 14.7368 14.7368H1.84211C1.35355 14.7368 0.885002 14.5428 0.53954 14.1973C0.194078 13.8518 0 13.3833 0 12.8947V1.84211C0 1.35355 0.194078 0.885002 0.53954 0.53954C0.885002 0.194078 1.35355 0 1.84211 0H14.7368ZM14.7368 1.84211H1.84211V12.8947H14.7368V11.0526H11.0526C10.0915 11.0526 9.16834 10.677 8.48024 10.0059C7.79215 9.33485 7.39355 8.42142 7.36952 7.46055C7.34548 6.49969 7.6979 5.56747 8.35159 4.86281C9.00527 4.15816 9.90845 3.73686 10.8684 3.68882L11.0526 3.68421H14.7368V1.84211ZM15.6579 5.52632H11.0526C10.5641 5.52632 10.0955 5.72039 9.75007 6.06586C9.4046 6.41132 9.21053 6.87986 9.21053 7.36842C9.21053 7.85698 9.4046 8.32552 9.75007 8.67099C10.0955 9.01645 10.5641 9.21053 11.0526 9.21053H15.6579V5.52632ZM11.9737 6.44737C12.218 6.44737 12.4522 6.54441 12.625 6.71714C12.7977 6.88987 12.8947 7.12414 12.8947 7.36842C12.8947 7.6127 12.7977 7.84697 12.625 8.0197C12.4522 8.19243 12.218 8.28947 11.9737 8.28947C11.7294 8.28947 11.4951 8.19243 11.3224 8.0197C11.1497 7.84697 11.0526 7.6127 11.0526 7.36842C11.0526 7.12414 11.1497 6.88987 11.3224 6.71714C11.4951 6.54441 11.7294 6.44737 11.9737 6.44737Z" fill="white"/>
</svg>
