<svg width="19" height="16" viewBox="0 0 19 16" fill="none" xmlns="http://www.w3.org/2000/svg">
<path d="M7.26316 10.5263V11.8684C7.26316 12.6989 6.93322 13.4955 6.34594 14.0827C5.75865 14.67 4.96213 15 4.13158 15C3.30103 15 2.5045 14.67 1.91722 14.0827C1.32993 13.4955 1 12.6989 1 11.8684V5.60522M11.7368 10.5263V11.8684C11.7368 12.6989 12.0668 13.4955 12.6541 14.0827C13.2413 14.67 14.0379 15 14.8684 15C15.699 15 16.4955 14.67 17.0828 14.0827C17.6701 13.4955 18 12.6989 18 11.8684V5.60522" fill="black"/>
<path d="M7.26316 10.5263V11.8684C7.26316 12.6989 6.93322 13.4955 6.34594 14.0827C5.75865 14.67 4.96213 15 4.13158 15C3.30103 15 2.5045 14.67 1.91722 14.0827C1.32993 13.4955 1 12.6989 1 11.8684V5.60522M11.7368 10.5263V11.8684C11.7368 12.6989 12.0668 13.4955 12.6541 14.0827C13.2413 14.67 14.0379 15 14.8684 15C15.699 15 16.4955 14.67 17.0828 14.0827C17.6701 13.4955 18 12.6989 18 11.8684V5.60522" stroke="white" stroke-width="1.21429" stroke-linecap="round" stroke-linejoin="round"/>
<path d="M13.0789 0.684204H5.92105C3.20323 0.684204 1 2.88743 1 5.60526C1 8.32308 3.20323 10.5263 5.92105 10.5263H13.0789C15.7968 10.5263 18 8.32308 18 5.60526C18 2.88743 15.7968 0.684204 13.0789 0.684204Z" fill="black" stroke="white" stroke-width="1.21429"/>
<path d="M8.15787 5.60527H4.57892H8.15787ZM6.36839 3.8158V7.39474V3.8158Z" fill="black"/>
<path d="M8.15787 5.60527H4.57892M6.36839 3.8158V7.39474" stroke="white" stroke-width="1.21429" stroke-linecap="round" stroke-linejoin="round"/>
<path d="M14.8684 4.71053C14.8684 4.21638 14.4678 3.8158 13.9737 3.8158C13.4795 3.8158 13.0789 4.21638 13.0789 4.71053C13.0789 5.20468 13.4795 5.60527 13.9737 5.60527C14.4678 5.60527 14.8684 5.20468 14.8684 4.71053Z" fill="black"/>
<path d="M13.079 6.94735C13.079 6.4532 12.6784 6.05261 12.1842 6.05261C11.6901 6.05261 11.2895 6.4532 11.2895 6.94735C11.2895 7.4415 11.6901 7.84209 12.1842 7.84209C12.6784 7.84209 13.079 7.4415 13.079 6.94735Z" fill="black"/>
</svg>
