<svg width="20" height="20" viewBox="0 0 20 20" fill="none" xmlns="http://www.w3.org/2000/svg">
<path d="M17.0706 2.92691C15.1821 1.03949 12.6708 0 10.0001 0C7.32929 0 4.81807 1.03949 2.92958 2.92691C1.04123 4.8142 0 7.32382 0 9.99313C0 12.6612 1.04003 15.1722 2.92958 17.0596C4.8194 18.9468 7.32929 19.9875 10.0001 19.9875C12.6708 19.9875 15.1821 18.9482 17.0718 17.0595C18.9589 15.1722 20 12.6612 20 9.993C20 7.32382 18.9592 4.8142 17.0706 2.92691ZM16.2221 16.2129L12.3032 12.295C11.8991 12.6991 11.3956 12.9894 10.8435 13.1367L12.2792 18.492C11.5355 18.6893 10.7694 18.7889 10.0001 18.7885C9.22018 18.7885 8.45537 18.6872 7.7211 18.492L9.15668 13.1367C8.60482 12.9897 8.10167 12.6993 7.69829 12.295L3.77817 16.2129C2.6833 15.1227 1.8973 13.7616 1.50041 12.2684L6.8537 10.8361C6.70656 10.2843 6.70656 9.70347 6.8537 9.15161L1.50041 7.7179C1.89767 6.22518 2.6831 4.86427 3.77684 3.7735L7.69709 7.69122C8.10118 7.28721 8.60469 6.99694 9.15681 6.8497L7.72124 1.49454C8.46476 1.29725 9.23081 1.19756 10.0001 1.19798C10.7801 1.19798 11.5449 1.29937 12.2792 1.49454L10.8436 6.84983C11.3958 6.99754 11.8992 7.28827 12.3032 7.69269L16.222 3.77457C17.3343 4.88504 18.1092 6.23884 18.5048 7.7167L13.1452 9.15148C13.2924 9.70334 13.2924 10.2841 13.1452 10.836L18.5048 12.2709C18.1106 13.7489 17.3342 15.1026 16.2221 16.2129ZM10.5289 7.28967L10.0001 4.71148L9.51047 7.28193C8.95762 7.3808 8.44851 7.64719 8.05208 8.04501C6.97537 9.12106 6.97537 10.8652 8.05208 11.9414C9.1288 13.0162 10.874 13.0162 11.9506 11.9414C13.0273 10.8653 13.0273 9.12119 11.9506 8.04501C11.5622 7.65765 11.0673 7.3947 10.5289 7.28967Z" fill="white"/>
</svg>
