<svg width="20" height="20" viewBox="0 0 20 20" fill="none" xmlns="http://www.w3.org/2000/svg">
<path d="M10.4911 19.7321L10.4554 19.7263C10.4604 19.7302 10.4663 19.7328 10.4725 19.7338C10.4787 19.7348 10.4851 19.7342 10.4911 19.7321ZM18.6116 6.95446C18.6014 6.9006 18.5735 6.85168 18.5324 6.81547C18.4912 6.77926 18.4391 6.75784 18.3844 6.75461C18.3297 6.75138 18.2755 6.76652 18.2303 6.79764C18.1852 6.82875 18.1517 6.87404 18.1353 6.92634C18.1195 6.97598 18.0884 7.01936 18.0465 7.05024C18.0045 7.08112 17.9539 7.09792 17.9018 7.09821H17.2112C17.1665 7.09821 17.1227 7.08602 17.0844 7.06294L16.0853 6.46384C16.047 6.44076 16.0032 6.42857 15.9585 6.42857H14.3603C14.3116 6.42857 14.2641 6.44302 14.2237 6.47009L12.2527 7.78393C12.2186 7.80662 12.1907 7.83743 12.1716 7.8736C12.1524 7.90976 12.1425 7.95014 12.1429 7.99107V9.85446C12.1428 9.89912 12.1549 9.94295 12.1779 9.98125C12.2009 10.0196 12.2338 10.0509 12.2732 10.0719L14.8576 11.4513C14.8964 11.4722 14.929 11.5031 14.9519 11.5408C14.9748 11.5784 14.9873 11.6215 14.988 11.6656L15 12.7143C15.0007 12.7577 15.0128 12.8002 15.0352 12.8374C15.0575 12.8746 15.0893 12.9053 15.1272 12.9263L16.1656 13.5009C16.2041 13.5223 16.2362 13.5535 16.2586 13.5914C16.2809 13.6293 16.2928 13.6725 16.2929 13.7165V15.8862C16.2929 15.9336 16.3066 15.98 16.3323 16.0198C16.358 16.0596 16.3947 16.0912 16.4379 16.1107C16.4811 16.1302 16.529 16.1369 16.5759 16.1298C16.6228 16.1228 16.6667 16.1023 16.7022 16.071C17.121 15.7022 17.7214 15.1638 17.8014 15.0406C17.9335 14.8362 18.0575 14.6268 18.1732 14.4125C18.413 13.9685 18.616 13.5057 18.7804 13.0286C19.3464 11.3897 18.8991 8.44375 18.6116 6.95446ZM11.3572 12.0893L8.61921 10.0357C8.5883 10.0125 8.55071 10 8.51207 10H7.21296C7.19074 10 7.16873 9.99566 7.1482 9.98715C7.12767 9.97865 7.10902 9.96617 7.09332 9.95044L6.48082 9.33794C6.46422 9.32137 6.44452 9.30822 6.42284 9.29926C6.40117 9.2903 6.37794 9.28569 6.35448 9.28571H3.97993C3.94646 9.28571 3.91375 9.27579 3.88592 9.2572C3.8581 9.23861 3.83641 9.21218 3.8236 9.18126C3.8108 9.15035 3.80745 9.11633 3.81397 9.0835C3.8205 9.05068 3.83662 9.02053 3.86028 8.99687L4.23618 8.62098C4.25187 8.60525 4.27052 8.59277 4.29105 8.58427C4.31159 8.57577 4.3336 8.5714 4.35582 8.57143H5.80091C5.87874 8.57142 5.95444 8.546 6.01649 8.49902C6.07854 8.45204 6.12355 8.38607 6.14466 8.31116L6.45225 7.21741C6.45881 7.1939 6.47011 7.17199 6.48547 7.15303C6.50082 7.13406 6.51991 7.11844 6.54153 7.10714L7.76787 6.47589C7.79547 6.46163 7.8186 6.44005 7.83475 6.41351C7.85089 6.38697 7.85941 6.35651 7.85939 6.32544V5.76741C7.85938 5.73278 7.86998 5.69897 7.88975 5.67053L8.54153 4.73214C8.56108 4.70395 8.58882 4.68244 8.621 4.67053L9.53305 4.32812C9.56532 4.31603 9.59312 4.29438 9.61275 4.26606C9.63237 4.23773 9.64288 4.2041 9.64287 4.16964V3.66071C9.64287 3.63281 9.63598 3.60533 9.62282 3.58072C9.60966 3.55612 9.59063 3.53514 9.56743 3.51964L8.65314 2.91161C8.62802 2.89508 8.59899 2.88547 8.56897 2.88374C8.53895 2.88202 8.509 2.88824 8.48216 2.90178L7.23751 3.52411C7.20904 3.53816 7.17718 3.5439 7.14559 3.54067C7.114 3.53743 7.08397 3.52534 7.05894 3.5058L6.46876 3.03928C6.44863 3.02309 6.43245 3.0025 6.42148 2.9791C6.41051 2.9557 6.40503 2.9301 6.40546 2.90426C6.40589 2.87842 6.41222 2.85302 6.42397 2.83C6.43571 2.80698 6.45256 2.78694 6.47323 2.77143L6.95269 2.4183C6.9744 2.40238 6.99198 2.3815 7.00397 2.3574C7.01596 2.3333 7.02201 2.30668 7.02162 2.27977C7.02123 2.25285 7.0144 2.22642 7.00171 2.20268C6.98902 2.17894 6.97084 2.15858 6.94868 2.1433L6.2018 1.62232C6.17594 1.60412 6.1455 1.59354 6.11392 1.59181C6.08235 1.59007 6.05092 1.59724 6.02323 1.6125C5.75314 1.76027 4.96073 2.19777 4.67948 2.39464C3.37821 3.30723 2.33097 4.53638 1.63662 5.96607C1.55537 6.13393 1.45493 6.30491 1.4451 6.48928C1.43528 6.67366 1.29064 7.08527 1.23037 7.25178C1.22224 7.27429 1.21899 7.29827 1.22084 7.32213C1.22269 7.34599 1.22959 7.36919 1.24109 7.39018L2.83439 10.3179C2.84873 10.3445 2.87002 10.3667 2.896 10.3821L4.57234 11.3884C4.59408 11.4013 4.61264 11.419 4.62662 11.4401C4.64061 11.4612 4.64967 11.4852 4.65314 11.5103L4.98885 13.9451C4.99213 13.9684 5.00022 13.9908 5.01259 14.0109C5.02496 14.0309 5.04135 14.0482 5.06073 14.0616L6.36876 14.9607C6.40666 14.9868 6.43304 15.0264 6.44243 15.0714L7.13618 18.3661C7.14006 18.3854 7.14748 18.4039 7.15805 18.4205C7.22323 18.5259 7.48305 18.9116 7.79644 18.9687C7.76743 18.9768 7.74153 18.9951 7.71251 19.0036C7.78779 19.0168 7.8623 19.0341 7.93573 19.0554C8.02501 19.0795 8.1143 19.1 8.20359 19.1192C8.34332 19.1469 8.35716 19.1683 8.42412 19.0442C8.51341 18.8781 8.61564 18.821 8.69198 18.8004C8.72348 18.7932 8.7523 18.7772 8.77512 18.7543C8.79795 18.7314 8.81384 18.7025 8.821 18.671L9.27055 16.5871C9.28 16.5434 9.30549 16.5048 9.34198 16.479L11.3509 15.0549C11.3743 15.0384 11.3933 15.0165 11.4064 14.9911C11.4195 14.9657 11.4264 14.9375 11.4264 14.9089V12.2321C11.4266 12.2046 11.4205 12.1774 11.4085 12.1526C11.3965 12.1278 11.3789 12.1061 11.3572 12.0893Z" fill="white"/>
<path d="M10.2679 0.714233C10.2679 0.714233 10.1049 0.723608 10.0719 0.724501C9.82993 0.731644 9.58856 0.748311 9.34778 0.774501C8.47007 0.869749 7.61048 1.08998 6.7951 1.42852C6.90359 1.50352 6.71698 1.57227 6.71698 1.57227L7.00894 2.1428H8.57144L9.64287 2.67852L10.5804 2.1428L10.2679 0.714233ZM14.3853 3.9312L15.1045 3.3062C15.127 3.28666 15.1443 3.26179 15.1547 3.23387C15.1651 3.20595 15.1684 3.17586 15.1642 3.14635C15.1601 3.11683 15.1486 3.08883 15.1308 3.0649C15.113 3.04096 15.0896 3.02186 15.0625 3.00932L14.2228 2.61959C14.1801 2.59969 14.1313 2.59744 14.087 2.61332C14.0427 2.62921 14.0065 2.66194 13.9862 2.70441L13.6402 3.42807C13.6214 3.46764 13.6177 3.51274 13.63 3.55481C13.6423 3.59687 13.6696 3.63296 13.7067 3.6562L14.1737 3.94816C14.2061 3.96835 14.2442 3.97759 14.2823 3.97454C14.3204 3.97148 14.3565 3.95629 14.3853 3.9312ZM17.7518 4.85129L17.4915 4.4495C17.4875 4.44325 17.4839 4.437 17.4804 4.43031C17.4335 4.33432 17.0456 3.55084 16.7214 3.24682C16.4781 3.01691 16.4089 3.08298 16.3897 3.13388C16.3788 3.16202 16.3604 3.1867 16.3366 3.20531L15.0491 4.24593C15.0174 4.27158 14.9779 4.28561 14.9371 4.28566H14.2706C14.2471 4.28564 14.2239 4.29025 14.2022 4.29921C14.1805 4.30817 14.1608 4.32132 14.1442 4.33789L13.6085 4.87361C13.5919 4.89019 13.5787 4.90989 13.5697 4.93157C13.5608 4.95324 13.5561 4.97648 13.5561 4.99995C13.5561 5.02341 13.5608 5.04665 13.5697 5.06833C13.5787 5.09001 13.5919 5.1097 13.6085 5.12629L14.1442 5.662C14.1608 5.67858 14.1805 5.69172 14.2022 5.70069C14.2239 5.70965 14.2471 5.71425 14.2706 5.71423H17.6264C17.6505 5.71426 17.6743 5.7094 17.6965 5.69995C17.7187 5.69051 17.7387 5.67667 17.7554 5.65928C17.7721 5.64188 17.7851 5.62129 17.7936 5.59874C17.8021 5.57619 17.8059 5.55215 17.8049 5.52807L17.7804 4.94102C17.779 4.90909 17.7692 4.8781 17.7518 4.85129Z" fill="white"/>
<path d="M10 1.78571C11.9004 1.78556 13.7421 2.44435 15.2113 3.64985C16.6804 4.85535 17.6861 6.53297 18.057 8.39685C18.4279 10.2607 18.1411 12.1956 17.2453 13.8717C16.3496 15.5477 14.9004 16.8614 13.1447 17.5888C11.389 18.3162 9.43537 18.4123 7.61674 17.8607C5.7981 17.3092 4.22697 16.1441 3.17105 14.5641C2.11513 12.984 1.63974 11.0867 1.8259 9.19536C2.01206 7.30408 2.84824 5.53585 4.19196 4.19196C4.95285 3.42673 5.85797 2.82004 6.85493 2.407C7.85189 1.99397 8.92087 1.78279 10 1.78571ZM10 0C4.47768 0 0 4.47768 0 10C0 15.5223 4.47768 20 10 20C15.5223 20 20 15.5223 20 10C20 4.47768 15.5223 0 10 0Z" fill="white"/>
</svg>
