<svg width="16" height="16" viewBox="0 0 16 16" fill="none" xmlns="http://www.w3.org/2000/svg">
<path d="M1 2.16667C1 1.85725 1.12292 1.5605 1.34171 1.34171C1.5605 1.12292 1.85725 1 2.16667 1H10.464C10.6173 0.999982 10.769 1.03016 10.9106 1.08881C11.0522 1.14747 11.1809 1.23344 11.2892 1.34183L12.7896 2.84217L14.6582 4.71078C14.7666 4.81913 14.8525 4.94778 14.9112 5.08938C14.9698 5.23097 15 5.38274 15 5.536V13.8333C15 14.1428 14.8771 14.4395 14.6583 14.6583C14.4395 14.8771 14.1428 15 13.8333 15H2.16667C1.85725 15 1.5605 14.8771 1.34171 14.6583C1.12292 14.4395 1 14.1428 1 13.8333V2.16667Z" stroke="white" stroke-width="1.55556" stroke-linejoin="round"/>
<path d="M10.7222 8.77777H5.27778C4.96836 8.77777 4.67162 8.90069 4.45282 9.11948C4.23403 9.33827 4.11111 9.63502 4.11111 9.94444V15H11.8889V9.94444C11.8889 9.63502 11.766 9.33827 11.5472 9.11948C11.3284 8.90069 11.0316 8.77777 10.7222 8.77777Z" stroke="white" stroke-width="1.55556" stroke-linejoin="round"/>
<path d="M9.94445 4.88889H5.27778C4.96836 4.88889 4.67162 4.76597 4.45282 4.54718C4.23403 4.32839 4.11111 4.03164 4.11111 3.72222V1" stroke="white" stroke-width="1.55556" stroke-linecap="round" stroke-linejoin="round"/>
</svg>
