<?xml version="1.0" standalone="no"?><!DOCTYPE svg PUBLIC "-//W3C//DTD SVG 1.1//EN" "http://www.w3.org/Graphics/SVG/1.1/DTD/svg11.dtd"><svg t="1698049111297" class="icon" viewBox="0 0 1024 1024" version="1.1" xmlns="http://www.w3.org/2000/svg" p-id="34972" xmlns:xlink="http://www.w3.org/1999/xlink" width="128" height="128"><path d="M103.148983 912.896C-26.313874 799.012571-42.222446 204.873143 103.148983 87.771429 248.410697-29.257143 813.036983-29.257143 926.518126 87.771429c113.481143 117.065143 129.389714 628.370286 0 793.234285-129.389714 164.864-694.016 145.737143-823.442286 31.817143z m76.580571-530.651429v251.245715a73.142857 73.142857 0 0 0 67.072 72.886857l512 42.678857a73.142857 73.142857 0 0 0 79.213715-72.886857V325.376a73.142857 73.142857 0 0 0-81.188572-72.704l-512 56.905143a73.142857 73.142857 0 0 0-65.097143 72.704z m316.342857 177.590858a21.942857 21.942857 0 0 1-32.914285-19.017143v-82.322286a21.942857 21.942857 0 0 1 32.914285-19.017143l71.314286 41.179429a21.942857 21.942857 0 0 1 0 38.034285l-71.314286 41.142858z" fill="#FF579A" p-id="34973"></path></svg>