<svg xmlns="http://www.w3.org/2000/svg" xmlns:xlink="http://www.w3.org/1999/xlink" fill="none" version="1.1" width="51.39990234375" height="51.4000244140625" viewBox="0 0 51.39990234375 51.4000244140625"><defs><filter id="master_svg0_15_19375" filterUnits="objectBoundingBox" color-interpolation-filters="sRGB" x="-4.266666889190674" y="-2.133333444595337" width="53.53333377838135" height="53.53333377838135"><feFlood flood-opacity="0" result="BackgroundImageFix"/><feColorMatrix in="SourceAlpha" type="matrix" values="0 0 0 0 0 0 0 0 0 0 0 0 0 0 0 0 0 0 127 0"/><feOffset dy="2.133333444595337" dx="0"/><feGaussianBlur stdDeviation="1.0666667222976685"/><feColorMatrix type="matrix" values="0 0 0 0 0.05145832896232605 0 0 0 0 0.3113589584827423 0 0 0 0 0.4749999940395355 0 0 0 0.10000000149011612 0"/><feBlend mode="normal" in2="BackgroundImageFix" result="effect1_dropShadow"/><feBlend mode="normal" in="SourceGraphic" in2="effect1_dropShadow" result="shape"/></filter><linearGradient x1="0.08888891339302063" y1="0.033333320170640945" x2="0.5" y2="1" id="master_svg1_15_18902"><stop offset="0%" stop-color="#9AA1FF" stop-opacity="1"/><stop offset="100%" stop-color="#5460FE" stop-opacity="1"/></linearGradient><linearGradient x1="-0.6060606241226196" y1="1.558823585510254" x2="0.9545454382896423" y2="-0.17647045850753784" id="master_svg2_15_18908"><stop offset="0%" stop-color="#9DA4FF" stop-opacity="1"/><stop offset="100%" stop-color="#99A0FF" stop-opacity="0"/></linearGradient><linearGradient x1="0.5" y1="-3.0616171314629196e-17" x2="0.5" y2="1" id="master_svg3_15_18905"><stop offset="0%" stop-color="#FCFCFF" stop-opacity="1"/><stop offset="100%" stop-color="#C0C5FF" stop-opacity="1"/></linearGradient></defs><g><g filter="url(#master_svg0_15_19375)"><path d="M3.199951171875,11.066640390625C3.199951171875,5.543810390625,7.677091171875,1.066650390625,13.199941171875,1.066650390625C13.199941171875,1.066650390625,38.200051171875,1.066650390625,38.200051171875,1.066650390625C43.722851171875,1.066650390625,48.199951171875,5.543790390625,48.199951171875,11.066640390625C48.199951171875,11.066640390625,48.199951171875,36.066750390625,48.199951171875,36.066750390625C48.199951171875,41.589550390625,43.722851171875,46.066650390625,38.200051171875,46.066650390625C38.200051171875,46.066650390625,13.199941171875,46.066650390625,13.199941171875,46.066650390625C7.677111171875,46.066650390625,3.199951171875,41.589550390625,3.199951171875,36.066750390625C3.199951171875,36.066750390625,3.199951171875,11.066640390625,3.199951171875,11.066640390625C3.199951171875,11.066640390625,3.199951171875,11.066640390625,3.199951171875,11.066640390625Z" fill="url(#master_svg1_15_18902)" fill-opacity="1"/></g><g><path d="M7.199889898300171,31.06658935546875C7.199889898300171,27.75287935546875,9.88617989830017,25.06658935546875,13.199889898300171,25.06658935546875C13.199889898300171,25.06658935546875,38.19978989830017,25.06658935546875,38.19978989830017,25.06658935546875C41.51348989830017,25.06658935546875,44.19978989830017,27.75287935546875,44.19978989830017,31.06658935546875C44.19978989830017,31.06658935546875,44.19978989830017,36.06658935546875,44.19978989830017,36.06658935546875C44.19978989830017,39.38028935546875,41.51348989830017,42.06658935546875,38.19978989830017,42.06658935546875C38.19978989830017,42.06658935546875,17.19987989830017,42.06658935546875,17.19987989830017,42.06658935546875C11.677029898300171,42.06658935546875,7.199889898300171,37.589389355468754,7.199889898300171,32.06657935546875C7.199889898300171,32.06657935546875,7.199889898300171,31.06658935546875,7.199889898300171,31.06658935546875C7.199889898300171,31.06658935546875,7.199889898300171,31.06658935546875,7.199889898300171,31.06658935546875Z" fill="url(#master_svg2_15_18908)" fill-opacity="1"/></g><g><path d="M16.324950218200684,31.658217013549805C16.324950218200684,31.658217013549805,16.324950218200684,15.475167013549804,16.324950218200684,15.475167013549804C16.324950218200684,14.051931013549805,17.848340218200683,13.147592013549804,19.097790218200682,13.829112013549805C19.097790218200682,13.829112013549805,33.93215021820068,21.920587013549806,33.93215021820068,21.920587013549806C35.23505021820068,22.631247013549803,35.23505021820068,24.502017013549803,33.93215021820068,25.212717013549806C33.93215021820068,25.212717013549806,19.097790218200682,33.304317013549806,19.097790218200682,33.304317013549806C17.848340218200683,33.985617013549806,16.324950218200684,33.08131701354981,16.324950218200684,31.658217013549805C16.324950218200684,31.658217013549805,16.324950218200684,31.658217013549805,16.324950218200684,31.658217013549805Z" fill="url(#master_svg3_15_18905)" fill-opacity="1"/></g></g></svg>