<?xml version="1.0" encoding="UTF-8"?>
<svg width="24px" height="24px" viewBox="0 0 24 24" version="1.1" xmlns="http://www.w3.org/2000/svg" xmlns:xlink="http://www.w3.org/1999/xlink">
    <!-- Generator: Sketch 46.1 (44463) - http://www.bohemiancoding.com/sketch -->
    <title>ic_24</title>
    <desc>Created with Sketch.</desc>
    <defs></defs>
    <g id="Page-1" stroke="none" stroke-width="1" fill="none" fill-rule="evenodd">
        <g id="Desktop" transform="translate(-613.000000, -200.000000)">
            <g id="Group" transform="translate(265.000000, 188.000000)">
                <g id="Icon-html-xml" transform="translate(336.000000, 0.000000)">
                    <g id="path" transform="translate(13.000000, 12.000000)">
                        <path d="M1.9125,1.33226763e-15 C0.8625,1.33226763e-15 0,0.8625 0,1.9125 L0,22.0875 C0,23.1375 0.8625,24 1.9125,24 L19.0875,24 C20.1375,24 21,23.1375 21,22.0875 L21,7.6125 L13.9125,0 L1.9125,0 L1.9125,1.33226763e-15 Z" id="Shape" fill="#708A9F"></path>
                        <path d="M21,7.65 L21,8.025 L16.2,8.025 C16.2,8.025 13.8375,7.5375 13.875,5.475 C13.875,5.475 13.9875,7.65 16.1625,7.65 L21,7.65 Z" id="Shape" fill="#000000" opacity="0.2"></path>
                        <path d="M13.9125,0 L13.9125,5.475 C13.9125,6.075 14.325,7.65 16.2,7.65 L21,7.65 L13.9125,0 Z" id="Shape" fill="#FFFFFF" opacity="0.5"></path>
                        <path d="M8.078125,14.71875 L7.9375,14.71875 L4.375,13.125 C4.140625,13.03125 4,12.796875 4,12.515625 C4,12.28125 4.140625,12.046875 4.375,11.953125 L7.9375,10.359375 C7.984375,10.359375 8.03125,10.3125 8.078125,10.3125 C8.3125,10.3125 8.5,10.5 8.5,10.734375 C8.5,10.921875 8.40625,11.0625 8.265625,11.15625 L4.984375,12.5625 L8.265625,13.921875 C8.40625,14.015625 8.5,14.15625 8.5,14.34375 C8.5,14.578125 8.3125,14.71875 8.078125,14.71875 L8.078125,14.71875 Z M12.0625,9.5625 L10,15.796875 C9.90625,15.984375 9.765625,16.078125 9.578125,16.078125 C9.296875,16.078125 9.109375,15.890625 9.109375,15.65625 C9.109375,15.609375 9.15625,15.5625 9.15625,15.515625 L11.21875,9.328125 C11.3125,9.140625 11.453125,9 11.640625,9 C11.921875,9 12.0625,9.1875 12.0625,9.421875 L12.0625,9.5625 L12.0625,9.5625 Z M16.84375,13.125 L13.28125,14.71875 L13.140625,14.71875 C12.90625,14.71875 12.71875,14.578125 12.71875,14.34375 C12.71875,14.15625 12.8125,14.015625 12.953125,13.921875 L16.28125,12.5625 L12.953125,11.15625 C12.8125,11.0625 12.71875,10.921875 12.71875,10.734375 C12.71875,10.5 12.90625,10.3125 13.140625,10.3125 C13.1875,10.3125 13.234375,10.359375 13.28125,10.359375 L16.84375,11.953125 C17.078125,12.046875 17.21875,12.28125 17.21875,12.515625 C17.21875,12.796875 17.078125,13.03125 16.84375,13.125 L16.84375,13.125 Z" id="Shape" fill="#FFFFFF"></path>
                    </g>
                </g>
            </g>
        </g>
    </g>
</svg>