<?xml version="1.0" encoding="UTF-8"?>
<svg width="24px" height="24px" viewBox="0 0 24 24" version="1.1" xmlns="http://www.w3.org/2000/svg" xmlns:xlink="http://www.w3.org/1999/xlink">
    <!-- Generator: Sketch 50.2 (55047) - http://www.bohemiancoding.com/sketch -->
    <title>ic_24</title>
    <desc>Created with Sketch.</desc>
    <defs></defs>
    <g id="Page-1" stroke="none" stroke-width="1" fill="none" fill-rule="evenodd">
        <g id="Desktop" transform="translate(-603.000000, -544.000000)">
            <g id="cmd" transform="translate(591.000000, 532.000000)">
                <g id="path" transform="translate(13.000000, 12.000000)">
                    <path d="M1.9125,1.33226763e-15 C0.8625,1.33226763e-15 0,0.8625 0,1.9125 L0,22.0875 C0,23.1375 0.8625,24 1.9125,24 L19.0875,24 C20.1375,24 21,23.1375 21,22.0875 L21,7.6125 L13.9125,0 L1.9125,0 L1.9125,1.33226763e-15 Z" id="Shape" fill="#277A84"></path>
                    <path d="M21,7.65 L21,8.025 L16.2,8.025 C16.2,8.025 13.8375,7.5375 13.875,5.475 C13.875,5.475 13.9875,7.65 16.1625,7.65 L21,7.65 Z" id="Shape" fill="#000000" opacity="0.2"></path>
                    <path d="M13.9125,0 L13.9125,5.475 C13.9125,6.075 14.325,7.65 16.2,7.65 L21,7.65 L13.9125,0 Z" id="Shape" fill="#FFFFFF" opacity="0.5"></path>
                    <path d="M9.14803272,13.581469 L5.56564083,15.6109682 L5.42423062,15.6109682 C5.18854694,15.6109682 5,15.4318947 5,15.133439 C5,14.8946744 5.09427347,14.7156009 5.23568368,14.5962186 L8.5823919,12.8651752 L5.23568368,11.0744407 C5.09427347,10.9550584 5,10.775985 5,10.5372204 C5,10.2387646 5.18854694,10 5.42423062,10 C5.47136735,10 5.51850409,10.0596912 5.56564083,10.0596912 L9.14803272,12.0891903 C9.3837164,12.2085726 9.52512661,12.5070283 9.52512661,12.8054841 C9.52512661,13.163631 9.3837164,13.4620867 9.14803272,13.581469 Z" id="Shape" fill="#FFFFFF" fill-rule="nonzero"></path>
                    <rect id="Rectangle-10" fill="#FFFFFF" x="11" y="13" width="5.17647059" height="1" rx="0.5"></rect>
                </g>
            </g>
        </g>
    </g>
</svg>