<?xml version="1.0" encoding="UTF-8"?>
<svg width="24px" height="24px" viewBox="0 0 24 24" version="1.1" xmlns="http://www.w3.org/2000/svg" xmlns:xlink="http://www.w3.org/1999/xlink">
    <!-- Generator: Sketch 46.1 (44463) - http://www.bohemiancoding.com/sketch -->
    <title>ic_24</title>
    <desc>Created with Sketch.</desc>
    <defs></defs>
    <g id="Page-1" stroke="none" stroke-width="1" fill="none" fill-rule="evenodd">
        <g id="Desktop" transform="translate(-277.000000, -256.000000)">
            <g id="Group-Copy" transform="translate(265.000000, 244.000000)">
                <g id="Icon-css-json">
                    <g id="path" transform="translate(13.000000, 12.000000)">
                        <path d="M1.9125,1.33226763e-15 C0.8625,1.33226763e-15 0,0.8625 0,1.9125 L0,22.0875 C0,23.1375 0.8625,24 1.9125,24 L19.0875,24 C20.1375,24 21,23.1375 21,22.0875 L21,7.6125 L13.9125,0 L1.9125,0 L1.9125,1.33226763e-15 Z" id="Shape" fill="#353A9D"></path>
                        <path d="M21,7.65 L21,8.025 L16.2,8.025 C16.2,8.025 13.8375,7.5375 13.875,5.475 C13.875,5.475 13.9875,7.65 16.1625,7.65 L21,7.65 Z" id="Shape" fill="#000000" opacity="0.2"></path>
                        <path d="M13.9125,0 L13.9125,5.475 C13.9125,6.075 14.325,7.65 16.2,7.65 L21,7.65 L13.9125,0 Z" id="Shape" fill="#FFFFFF" opacity="0.5"></path>
                        <path d="M7.7734375,17.5849609 C7.19726274,17.4221997 6.76351057,17.1544615 6.47216797,16.7817383 C6.18082537,16.4090151 6.03515625,15.9166697 6.03515625,15.3046875 L6.03515625,14.3330078 C6.03515625,13.5419882 5.69010762,13.1464844 5,13.1464844 L5,12.4384766 C5.69010762,12.4384766 6.03515625,12.0446003 6.03515625,11.2568359 L6.03515625,10.2412109 C6.0416667,9.64550483 6.18733582,9.16455261 6.47216797,8.79833984 C6.75700012,8.43212708 7.19075229,8.16601646 7.7734375,8 L7.95898438,8.56152344 C7.27864243,8.77962349 6.93847656,9.34765166 6.93847656,10.265625 L6.93847656,11.2519531 C6.93847656,11.9908891 6.66666938,12.5052069 6.12304688,12.7949219 C6.66666938,13.0878921 6.93847656,13.6070926 6.93847656,14.3525391 L6.93847656,15.3583984 C6.94824224,16.2535852 7.28840811,16.8085927 7.95898438,17.0234375 L7.7734375,17.5849609 Z" id="Mask" fill="#FFFFFF"></path>
                        <path d="M11,17.0234375 C11.6608106,16.8118479 12.0026041,16.2731163 12.0253906,15.4072266 L12.0253906,14.3330078 C12.0253906,13.5810509 12.319984,13.0683607 12.9091797,12.7949219 C12.319984,12.5279935 12.0253906,12.0153033 12.0253906,11.2568359 L12.0253906,10.265625 C12.0253906,9.34765166 11.6852248,8.77962349 11.0048828,8.56152344 L11.1904297,8 C11.7666044,8.16276123 12.1995428,8.42724426 12.4892578,8.79345703 C12.7789728,9.1596698 12.9254557,9.6438772 12.9287109,10.2460938 L12.9287109,11.2714844 C12.9287109,12.0494831 13.2737596,12.4384766 13.9638672,12.4384766 L13.9638672,13.1464844 C13.2737596,13.1464844 12.9287109,13.5419882 12.9287109,14.3330078 L12.9287109,15.3193359 C12.9287109,15.9313182 12.7814142,16.4212221 12.4868164,16.7890625 C12.1922186,17.1569029 11.760094,17.4221997 11.1904297,17.5849609 L11,17.0234375 Z" id="Mask" fill="#FFFFFF"></path>
                    </g>
                </g>
            </g>
        </g>
    </g>
</svg>