<?xml version="1.0" encoding="UTF-8"?>
<svg width="24px" height="24px" viewBox="0 0 24 24" version="1.1" xmlns="http://www.w3.org/2000/svg" xmlns:xlink="http://www.w3.org/1999/xlink">
    <!-- Generator: Sketch 46.1 (44463) - http://www.bohemiancoding.com/sketch -->
    <title>ic_24</title>
    <desc>Created with Sketch.</desc>
    <defs></defs>
    <g id="Page-1" stroke="none" stroke-width="1" fill="none" fill-rule="evenodd">
        <g id="Desktop" transform="translate(-557.000000, -200.000000)">
            <g id="Group" transform="translate(265.000000, 188.000000)">
                <g id="Icon-music" transform="translate(280.000000, 0.000000)">
                    <g id="path" transform="translate(13.000000, 12.000000)">
                        <path d="M1.9125,1.33226763e-15 C0.8625,1.33226763e-15 0,0.8625 0,1.9125 L0,22.0875 C0,23.1375 0.8625,24 1.9125,24 L19.0875,24 C20.1375,24 21,23.1375 21,22.0875 L21,7.6125 L13.9125,0 L1.9125,0 L1.9125,1.33226763e-15 Z" id="Shape" fill="#379FD3"></path>
                        <path d="M21,7.65 L21,8.025 L16.2,8.025 C16.2,8.025 13.8375,7.5375 13.875,5.475 C13.875,5.475 13.9875,7.65 16.1625,7.65 L21,7.65 Z" id="Shape" fill="#000000" opacity="0.2"></path>
                        <path d="M13.9125,0 L13.9125,5.475 C13.9125,6.075 14.325,7.65 16.2,7.65 L21,7.65 L13.9125,0 Z" id="Shape" fill="#FFFFFF" opacity="0.5"></path>
                        <path d="M14.2213941,8 L7.56514412,8.890625 L7.56514412,15.171875 C7.23701912,15.078125 6.81514412,15.03125 6.39326912,15.125 C5.45576912,15.3125 4.84639412,15.921875 5.03389412,16.484375 C5.22139412,17.09375 6.11201912,17.375 7.04951912,17.1875 C7.89326912,17.046875 8.45576912,16.53125 8.45576912,16.015625 L8.45576912,16.015625 L8.45576912,11 L13.3307691,10.390625 L13.3307691,14.28125 C13.0026441,14.1875 12.5807691,14.1875 12.1588941,14.28125 C11.1745191,14.46875 10.5651441,15.078125 10.7526441,15.640625 C10.9401441,16.203125 11.8307691,16.53125 12.8151441,16.34375 C13.6588941,16.15625 14.2682691,15.640625 14.2213941,15.125 L14.2213941,8 L14.2213941,8 Z" id="Shape" fill="#FFFFFF"></path>
                    </g>
                </g>
            </g>
        </g>
    </g>
</svg>