<?xml version="1.0" encoding="UTF-8"?>
<svg width="24px" height="24px" viewBox="0 0 24 24" version="1.1" xmlns="http://www.w3.org/2000/svg" xmlns:xlink="http://www.w3.org/1999/xlink">
    <!-- Generator: Sketch 46.1 (44463) - http://www.bohemiancoding.com/sketch -->
    <title>ic_24</title>
    <desc>Created with Sketch.</desc>
    <defs></defs>
    <g id="Page-1" stroke="none" stroke-width="1" fill="none" fill-rule="evenodd">
        <g id="Desktop" transform="translate(-445.000000, -200.000000)">
            <g id="Group" transform="translate(265.000000, 188.000000)">
                <g id="Icon-pdf" transform="translate(168.000000, 0.000000)">
                    <g id="path" transform="translate(13.000000, 12.000000)">
                        <path d="M1.9125,1.33226763e-15 C0.8625,1.33226763e-15 0,0.8625 0,1.9125 L0,22.0875 C0,23.1375 0.8625,24 1.9125,24 L19.0875,24 C20.1375,24 21,23.1375 21,22.0875 L21,7.6125 L13.9125,0 L1.9125,0 L1.9125,1.33226763e-15 Z" id="Shape" fill="#DF4430"></path>
                        <path d="M21,7.65 L21,8.025 L16.2,8.025 C16.2,8.025 13.8375,7.5375 13.875,5.475 C13.875,5.475 13.9875,7.65 16.1625,7.65 L21,7.65 Z" id="Shape" fill="#000000" opacity="0.2"></path>
                        <path d="M13.9125,0 L13.9125,5.475 C13.9125,6.075 14.325,7.65 16.2,7.65 L21,7.65 L13.9125,0 Z" id="Shape" fill="#FFFFFF" opacity="0.5"></path>
                        <path d="M9.4,9.16 L9.4,9.16 L9.4,9.16 C9.48,8.84 9.56,8.68 9.56,8.44 L9.56,8.28 C9.64,7.88 9.64,7.56 9.56,7.48 C9.56,7.48 9.56,7.48 9.56,7.4 L9.48,7.32 L9.48,7.32 C9.48,7.32 9.48,7.4 9.4,7.4 C9.24,7.88 9.24,8.44 9.4,9.16 L9.4,9.16 L9.4,9.16 Z M7,14.68 C6.84,14.76 6.68,14.84 6.6,14.92 C6.04,15.4 5.64,15.96 5.56,16.2 L5.56,16.2 C6.04,16.12 6.52,15.64 7,14.68 L7,14.68 L7,14.68 L7,14.68 Z M14.36,13.48 C14.28,13.4 13.96,13.16 12.84,13.16 L12.68,13.16 L12.68,13.16 C12.68,13.16 12.68,13.16 12.68,13.24 C13.24,13.48 13.8,13.64 14.2,13.64 L14.36,13.64 L14.36,13.64 L14.44,13.64 C14.44,13.64 14.44,13.64 14.44,13.56 L14.44,13.56 C14.44,13.56 14.36,13.56 14.36,13.48 L14.36,13.48 Z M14.68,14.12 C14.52,14.2 14.28,14.28 13.96,14.28 C13.32,14.28 12.36,14.12 11.56,13.72 C10.2,13.88 9.16,14.04 8.36,14.36 C8.28,14.36 8.28,14.36 8.2,14.44 C7.24,16.12 6.44,16.92 5.8,16.92 C5.64,16.92 5.56,16.92 5.48,16.84 L5.08,16.6 L5.08,16.52 C5,16.36 5,16.28 5,16.12 C5.08,15.72 5.56,15 6.52,14.44 C6.68,14.36 6.92,14.2 7.24,14.04 C7.48,13.64 7.72,13.16 8.04,12.6 C8.44,11.8 8.68,11 8.92,10.28 L8.92,10.28 C8.6,9.32 8.44,8.76 8.76,7.64 C8.84,7.32 9.08,7 9.4,7 L9.56,7 C9.72,7 9.88,7.08 10.04,7.16 C10.6,7.72 10.36,9 10.04,10.04 L10.04,10.12 C10.36,11 10.84,11.72 11.32,12.2 C11.56,12.36 11.72,12.52 12.04,12.68 C12.44,12.68 12.76,12.6 13.08,12.6 C14.04,12.6 14.68,12.76 14.92,13.16 C15,13.32 15,13.48 15,13.64 C14.92,13.72 14.84,13.96 14.68,14.12 L14.68,14.12 Z M9.48,11 C9.32,11.56 9,12.2 8.68,12.92 C8.52,13.24 8.36,13.48 8.2,13.8 L8.28,13.8 L8.36,13.8 C9.4,13.4 10.36,13.16 11,13.08 C10.84,13 10.76,12.92 10.68,12.84 C10.28,12.36 9.8,11.72 9.48,11 L9.48,11 Z" id="Shape" fill="#FFFFFF"></path>
                    </g>
                </g>
            </g>
        </g>
    </g>
</svg>