<?xml version="1.0" encoding="UTF-8"?>
<svg width="24px" height="24px" viewBox="0 0 24 24" version="1.1" xmlns="http://www.w3.org/2000/svg" xmlns:xlink="http://www.w3.org/1999/xlink">
    <!-- Generator: Sketch 46.1 (44463) - http://www.bohemiancoding.com/sketch -->
    <title>ic_24</title>
    <desc>Created with Sketch.</desc>
    <defs></defs>
    <g id="Page-1" stroke="none" stroke-width="1" fill="none" fill-rule="evenodd">
        <g id="Desktop" transform="translate(-501.000000, -200.000000)">
            <g id="Group" transform="translate(265.000000, 188.000000)">
                <g id="Icon-img" transform="translate(224.000000, 0.000000)">
                    <g id="path" transform="translate(13.000000, 12.000000)">
                        <path d="M1.9125,1.33226763e-15 C0.8625,1.33226763e-15 0,0.8625 0,1.9125 L0,22.0875 C0,23.1375 0.8625,24 1.9125,24 L19.0875,24 C20.1375,24 21,23.1375 21,22.0875 L21,7.6125 L13.9125,0 L1.9125,0 L1.9125,1.33226763e-15 Z" id="Shape" fill="#2DBD93"></path>
                        <path d="M21,7.65 L21,8.025 L16.2,8.025 C16.2,8.025 13.8375,7.5375 13.875,5.475 C13.875,5.475 13.9875,7.65 16.1625,7.65 L21,7.65 Z" id="Shape" fill="#000000" opacity="0.2"></path>
                        <path d="M13.9125,0 L13.9125,5.475 C13.9125,6.075 14.325,7.65 16.2,7.65 L21,7.65 L13.9125,0 Z" id="Shape" fill="#FFFFFF" opacity="0.5"></path>
                        <g id="Group-2" transform="translate(3.000000, 7.000000)" fill="#FFFFFF">
                            <circle id="Path" cx="3.57971014" cy="1.25" r="1.25"></circle>
                            <polygon id="Path" points="4.61594203 5.33039215 7.45652174 8.07450977 11.0072464 3.95833333 14.9130435 9.78958329 0 9.78958329"></polygon>
                        </g>
                    </g>
                </g>
            </g>
        </g>
    </g>
</svg>