<?xml version="1.0" standalone="no"?><!DOCTYPE svg PUBLIC "-//W3C//DTD SVG 1.1//EN" "http://www.w3.org/Graphics/SVG/1.1/DTD/svg11.dtd"><svg t="1701237429660" class="icon" viewBox="0 0 1024 1024" version="1.1" xmlns="http://www.w3.org/2000/svg" p-id="3398" xmlns:xlink="http://www.w3.org/1999/xlink" width="200" height="200"><path d="M936.96 88.832a27.392 27.392 0 0 0-19.008-7.168C640.832 87.808 529.728 6.208 529.216 5.76a27.2 27.2 0 0 0-33.408 0c-1.536 0-104.448 75.84-359.296 75.84-9.792 0-20.096 0-30.976-0.512a25.408 25.408 0 0 0-18.496 7.168 26.56 26.56 0 0 0-8.32 18.944v372.48c0 4.16-5.12 405.888 424.768 543.232 2.624 0.832 5.44 1.216 8.256 1.024a39.36 39.36 0 0 0 8.32-1.024c415.296-129.152 424.512-537.984 425.088-542.592V107.264a28.416 28.416 0 0 0-8.256-18.432z m-45.824 44.992v346.368c0 3.648-10.24 370.432-379.392 490.432-384.128-126.976-379.968-475.008-379.968-489.856v-346.88h4.16c218.88 0 333.056-51.712 375.232-76.8 42.688 25.088 156.48 76.8 375.232 76.8h4.736zM679.488 452.928h-29.568v-59.136a118.464 118.464 0 0 0-118.144-118.08 118.464 118.464 0 0 0-118.08 118.08v59.136H384a29.696 29.696 0 0 0-29.568 29.568v236.288c0.064 16.32 13.248 29.44 29.568 29.568h295.36a29.696 29.696 0 0 0 29.504-29.504V482.56a29.44 29.44 0 0 0-29.44-29.568z m-221.568-59.136c0-41.344 32.448-73.856 73.856-73.856 41.472 0 73.92 32.384 73.92 73.856v59.136h-147.84v-59.136z m206.72 310.016H398.784v-206.72h265.856v206.72zM512.064 512c-22.336 0-39.488 20.48-39.488 47.36 0 16.896 7.488 32.512 19.712 40.96v45.696c0 12.992 8.832 23.552 19.712 23.552 10.88 0 19.648-10.56 19.648-23.616V600.32c11.904-7.808 19.712-23.552 19.712-40.96 0.128-26.816-17.024-47.36-39.296-47.36z" fill="#1296db" p-id="3399"></path></svg>