<?xml version="1.0" standalone="no"?><!DOCTYPE svg PUBLIC "-//W3C//DTD SVG 1.1//EN" "http://www.w3.org/Graphics/SVG/1.1/DTD/svg11.dtd"><svg t="1701237007100" class="icon" viewBox="0 0 1076 1024" version="1.1" xmlns="http://www.w3.org/2000/svg" p-id="2603" xmlns:xlink="http://www.w3.org/1999/xlink" width="210.15625" height="200"><path d="M487.686564 26.308923c15.570051-29.669744 57.081436-30.72 74.489436-3.150769l1.837949 3.150769 217.035487 413.774769a43.086769 43.086769 0 0 1-74.436923 43.244308l-1.864205-3.203282-178.91118-341.018256L119.913026 912.935385H565.037949c22.580513 0 41.143795 17.408 42.92923 39.542153l0.157539 3.544616c0 22.580513-17.408 41.143795-39.56841 42.955487l-3.518359 0.131282H48.653128a43.086769 43.086769 0 0 1-39.647179-60.022154L10.502564 936.041026 487.686564 26.308923z" p-id="2604" data-spm-anchor-id="a313x.manage_type_myprojects.0.i1.651a3a81e8o1fb" class="selected" fill="#e36454"></path><path d="M498.688 661.556513c4.804923 12.94441 14.388513 21.530256 28.750769 21.530256 14.388513 0 23.945846-8.585846 28.750769-21.530256l19.140924-236.990359c0-25.862564-23.945846-43.060513-47.891693-43.060513-28.750769 0-47.865436 21.530256-47.865436 47.392821l19.114667 232.658051z m28.750769 64.695795c-28.750769 0-47.865436 17.197949-47.865436 43.060513 0 25.888821 19.114667 43.086769 47.865436 43.086769s47.891692-17.197949 47.891693-43.060513c0-25.888821-19.140923-43.086769-47.891693-43.086769z" p-id="2605" data-spm-anchor-id="a313x.manage_type_myprojects.0.i2.651a3a81e8o1fb" class="selected" fill="#e36454"></path><path d="M794.72777 991.481784c-11.916443 4.10316-25.444313 5.623246-39.028484 4.802325-6.33726-0.178299-11.505443-3.897077-14.860973-9.045311-3.322156-5.131957-3.177232-11.485494-0.426306-17.12573l21.500349-44.336362-15.9785-7.855206-21.98095 45.279388a19.009641 19.009641 0 0 1-13.699519 10.215449 17.513026 17.513026 0 0 1-15.947024-5.505651c-27.487848-29.828766-34.778794-73.665291-16.693023-109.772513a96.361026 96.361026 0 0 1 71.038747-52.729773L862.102912 571.486813a119.729231 119.729231 0 0 1-10.001063-119.935458C873.577372 407.22354 918.726585 381.486078 967.21326 386.00654c6.303886 0.162021 11.505443 3.897077 14.8276 9.029033 3.346982 5.123408 3.177232 11.485494 0.426305 17.12573l-30.208085 62.274572 30.12915 14.756938 30.672408-63.184223a19.009641 19.009641 0 0 1 13.690971-10.240274 17.513026 17.513026 0 0 1 15.980399 5.521928 118.573949 118.573949 0 0 1 20.89536 133.429 116.315897 116.315897 0 0 1-102.453169 65.934787l-112.963574 235.336665c13.872201 26.658291 14.91641 59.288697 1.643195 86.629875a95.494564 95.494564 0 0 1-55.12605 48.861213z m-62.853069-116.649179c4.195581-1.444654 9.56499-1.738408 14.279297 0.58157l49.88748 24.476346c9.411517 4.590304 13.283875 15.836447 8.462769 24.577665l-13.720441 28.300481c11.404367-5.50969 20.668954-14.97561 25.889534-26.99231a58.499282 58.499282 0 0 0-4.624818-58.916902 18.038154 18.038154 0 0 1 0.470047-21.377612l122.133735-251.851249a19.062154 19.062154 0 0 1 18.38235-10.245025 80.397128 80.397128 0 0 0 79.050385-45.26929c10.513739-21.725769 10.712959-46.148062 1.825891-67.441695l-24.698502 50.935901c-4.125981 8.501866-16.017598 12.596479-24.478361 8.428576l-65.164205-30.2128c-9.420066-4.61513-13.292423-15.861273-8.462769-24.577665l23.786953-49.066947a80.055795 80.055795 0 0 0-48.908043 41.999396 81.526154 81.526154 0 0 0 11.999637 89.367502 18.326974 18.326974 0 0 1 3.030409 20.172309l-123.756688 253.992928a17.329231 17.329231 0 0 1-16.024248 10.238376c-21.792284 0.422508-40.813458 13.24789-50.432744 33.055054a61.965128 61.965128 0 0 0-4.478674 39.252871l14.656816-30.177984a17.77559 17.77559 0 0 1 10.89419-9.249496z" p-id="2606" data-spm-anchor-id="a313x.manage_type_myprojects.0.i3.651a3a81e8o1fb" class="selected" fill="#e36454"></path></svg>