<?xml version="1.0" standalone="no"?><!DOCTYPE svg PUBLIC "-//W3C//DTD SVG 1.1//EN" "http://www.w3.org/Graphics/SVG/1.1/DTD/svg11.dtd"><svg t="1727321382503" class="icon" viewBox="0 0 1024 1024" version="1.1" xmlns="http://www.w3.org/2000/svg" p-id="27594" xmlns:xlink="http://www.w3.org/1999/xlink" width="200" height="200"><path d="M731.428571 731.428571v-73.142857a73.142857 73.142857 0 1 1 146.285715 0v73.142857h73.142857a73.142857 73.142857 0 1 1 0 146.285715h-73.142857v73.142857a73.142857 73.142857 0 1 1-146.285715 0v-73.142857h-73.142857a73.142857 73.142857 0 1 1 0-146.285715h73.142857z m0-365.714285V146.596571H146.285714v659.675429h203.702857A73.216 73.216 0 0 1 438.857143 877.878857a73.216 73.216 0 0 1-73.142857 73.289143v1.700571H87.771429c-48.475429 0-87.771429-35.565714-87.771429-79.414857V79.396571C0 35.547429 39.296 0 87.771429 0h702.171428C838.418286 0 877.714286 35.547429 877.714286 79.396571v286.464a73.216 73.216 0 0 1-73.142857 73.307429c-40.411429 0-73.142857-32.822857-73.142858-73.307429V365.714286z m-438.857142-146.285715h292.571428a73.142857 73.142857 0 0 1 73.142857 73.142858v0.310857a73.142857 73.142857 0 0 1-73.142857 73.142857H292.571429a73.142857 73.142857 0 0 1-73.142858-73.142857V292.571429a73.142857 73.142857 0 0 1 73.142858-73.142858z m0 292.571429h146.285714a73.142857 73.142857 0 0 1 73.142857 73.142857v0.310857a73.142857 73.142857 0 0 1-73.142857 73.142857h-146.285714a73.142857 73.142857 0 0 1-73.142858-73.142857V585.142857a73.142857 73.142857 0 0 1 73.142858-73.142857z" p-id="27595" fill="#1afa29"></path></svg>