<?xml version="1.0" standalone="no"?><!DOCTYPE svg PUBLIC "-//W3C//DTD SVG 1.1//EN" "http://www.w3.org/Graphics/SVG/1.1/DTD/svg11.dtd"><svg class="icon" width="200px" height="200.00px" viewBox="0 0 1024 1024" version="1.1" xmlns="http://www.w3.org/2000/svg"><path d="M512 832m-85.333333 0a85.333333 85.333333 0 1 0 170.666666 0 85.333333 85.333333 0 1 0-170.666666 0Z" fill="#FF9800" /><path d="M426.666667 832a85.333333 85.333333 0 0 0 11.733333 42.666667h147.2a83.413333 83.413333 0 0 0 0-85.333334h-147.2a85.333333 85.333333 0 0 0-11.733333 42.666667z" fill="#F57C00" /><path d="M801.493333 705.066667L721.066667 343.68A219.946667 219.946667 0 0 0 576 180.266667 49.066667 49.066667 0 0 0 576 170.666667a64 64 0 0 0-128 0 49.28 49.28 0 0 0 1.066667 9.813333 213.333333 213.333333 0 0 0-144.853334 156.8l-81.706666 367.786667A52.906667 52.906667 0 0 1 170.666667 746.666667h682.666666a52.906667 52.906667 0 0 1-51.84-41.6zM512 192a21.333333 21.333333 0 1 1 21.333333-21.333333 21.333333 21.333333 0 0 1-21.333333 21.333333z" fill="#FF9800" /><path d="M170.666667 746.666667h682.666666v85.333333H170.666667z" fill="#FFB74D" /></svg>