<svg xmlns="http://www.w3.org/2000/svg" xmlns:xlink="http://www.w3.org/1999/xlink" fill="none" version="1.1" width="90" height="90" viewBox="0 0 90 90"><g><g><path d="M45,0C20.16,0,0,20.16,0,45C0,51.165,1.26,57.06,3.51,62.46L21.87,44.1C24.795,41.175,29.565,41.175,32.49,44.1L38.61,50.22C40.095,51.705,42.435,51.705,43.92,50.22L62.235,31.905L50.67,31.905C48.6,31.905,46.935,30.24,46.935,28.17C46.935,26.1,48.6,24.435,50.67,24.435L71.28,24.435C73.35,24.435,75.015,26.1,75.015,28.17L75.015,48.78C75.015,50.85,73.35,52.515,71.28,52.515C69.21,52.515,67.545,50.85,67.545,48.78L67.545,37.17L46.62,58.095C43.695,61.02,38.925,61.02,36,58.095L29.88,51.975C28.395,50.49,26.055,50.49,24.57,51.975L7.2,69.39C15.21,81.81,29.16,90,45,90C69.84,90,90,69.84,90,45C90,20.16,69.84,0,45,0Z" fill="#FFFFFF" fill-opacity="1"/></g></g></svg>