<svg xmlns="http://www.w3.org/2000/svg" xmlns:xlink="http://www.w3.org/1999/xlink" width="57.364013671875" height="56.3492431640625" viewBox="0 0 57.364013671875 56.3492431640625" fill="none"><g opacity="1"  transform="translate(0 0)  rotate(0)"><path id="路径 2" fill-rule="evenodd" fill="url(#linear_0)" opacity="1" d="M51.5917 16.2973L26.3617 6.75732L4.75171 18.0873L30.0917 27.2873L51.5917 16.2973Z"></path><g opacity="1"  transform="translate(17.309814453125 4.635498046875)  rotate(0)"><g opacity="1"  transform="translate(0 0)  rotate(0)"><g opacity="1" transform="translate(3.041015625 6.40869140625)  rotate(0)"><a xlink:href="https://" xlink:title="跳转" target="_blank"><text><tspan x="0" y="4.966334255976414" font-size="5.328684824009028" line-height="0" fill="#828FB8" opacity="1" font-family="Ubuntu-Bold" font-weight="Bold" letter-spacing="0"  >&lt;/</tspan><tspan x="0" y="10.939789943690535" font-size="5.328684824009028" line-height="0" fill="#828FB8" opacity="1" font-family="Ubuntu-Bold" font-weight="Bold" letter-spacing="0" >&gt;</tspan></text></a></g><g opacity="1"  transform="translate(2.024658203125 10.1785888671875)  rotate(0)"><g opacity="1" transform="translate(0 0)  rotate(0)"><a xlink:href="https://" xlink:title="跳转" target="_blank"><text><tspan x="0" y="3.7939910282478335" font-size="4.07080582430025" line-height="0" fill="#828FB8" opacity="1" font-family="Ubuntu-Bold" font-weight="Bold" letter-spacing="0"  >background:</tspan><tspan x="23.964833887655576" y="3.7939910282478335" font-size="4.07080582430025" line-height="0" fill="#828FB8" opacity="1" font-family="Roboto-Regular" font-weight="Regular" letter-spacing="0"  > </tspan><tspan x="24.972596852948655" y="3.7939910282478335" font-size="4.07080582430025" line-height="0" fill="#828FB8" opacity="1" font-family="Roboto-Regular" font-weight="Regular" letter-spacing="0"  > </tspan><tspan x="25.980359818241734" y="3.7939910282478335" font-size="4.07080582430025" line-height="0" fill="#828FB8" opacity="1" font-family="Roboto-Regular" font-weight="Regular" letter-spacing="0"  > </tspan><tspan x="26.988122783534813" y="3.7939910282478335" font-size="4.07080582430025" line-height="0" fill="#828FB8" opacity="1" font-family="Roboto-Regular" font-weight="Regular" letter-spacing="0"  > </tspan><tspan x="27.99588574882789" y="3.7939910282478335" font-size="4.07080582430025" line-height="0" fill="#828FB8" opacity="1" font-family="Roboto-Regular" font-weight="Regular" letter-spacing="0"  > </tspan><tspan x="0" y="8.357364357288414" font-size="4.07080582430025" line-height="0" fill="#828FB8" opacity="1" font-family="Ubuntu-Bold" font-weight="Bold" letter-spacing="0" >rgba(</tspan></text></a></g><path id="圆形 3" fill-rule="evenodd" style="fill:#FF8585" opacity="1" d="M16.4891 0.522461C15.9691 0.522461 15.5391 0.942461 15.5391 1.46246C15.5391 1.98246 15.9691 2.40246 16.4891 2.40246C17.0191 2.40246 17.4391 1.98246 17.4391 1.46246C17.4391 0.942461 17.0191 0.522461 16.4891 0.522461Z"></path></g><g opacity="1" transform="translate(3.041015625 13.948486328125)  rotate(0)"><a xlink:href="https://" xlink:title="跳转" target="_blank"><text><tspan x="0" y="3.5410582930313113" font-size="3.7994187693469006" line-height="0" fill="#828FB8" opacity="1" font-family="Ubuntu-Bold" font-weight="Bold" letter-spacing="0"  >border-radi</tspan><tspan x="0" y="7.800206733469187" font-size="3.7994187693469006" line-height="0" fill="#828FB8" opacity="1" font-family="Ubuntu-Bold" font-weight="Bold" letter-spacing="0"  >us:</tspan><tspan x="5.015232775537909" y="7.800206733469187" font-size="3.7994187693469006" line-height="0" fill="#828FB8" opacity="1" font-family="Roboto-Regular" font-weight="Regular" letter-spacing="0"  > </tspan><tspan x="5.955811543144783" y="7.800206733469187" font-size="3.7994187693469006" line-height="0" fill="#828FB8" opacity="1" font-family="Ubuntu-Bold" font-weight="Bold" letter-spacing="0" >1px</tspan></text></a></g><g opacity="1" transform="translate(3.041015625 17.71826171875)  rotate(0)"><a xlink:href="https://" xlink:title="跳转" target="_blank"><text><tspan x="0" y="3.5410582930313113" font-size="3.7994187693469006" line-height="0" fill="#828FB8" opacity="1" font-family="Ubuntu-Bold" font-weight="Bold" letter-spacing="0"  >box-shadow</tspan><tspan x="0" y="7.800206733469187" font-size="3.7994187693469006" line-height="0" fill="#828FB8" opacity="1" font-family="Ubuntu-Bold" font-weight="Bold" letter-spacing="0"  >:</tspan><tspan x="0.9346570172593376" y="7.800206733469187" font-size="3.7994187693469006" line-height="0" fill="#828FB8" opacity="1" font-family="Roboto-Regular" font-weight="Regular" letter-spacing="0"  > </tspan><tspan x="1.875235784866212" y="7.800206733469187" font-size="3.7994187693469006" line-height="0" fill="#828FB8" opacity="1" font-family="Ubuntu-Bold" font-weight="Bold" letter-spacing="0"  >0</tspan><tspan x="4.033305645855251" y="7.800206733469187" font-size="3.7994187693469006" line-height="0" fill="#828FB8" opacity="1" font-family="Roboto-Regular" font-weight="Regular" letter-spacing="0"  > </tspan><tspan x="4.973884413462126" y="7.800206733469187" font-size="3.7994187693469006" line-height="0" fill="#828FB8" opacity="1" font-family="Ubuntu-Bold" font-weight="Bold" letter-spacing="0"  >1</tspan><tspan x="7.131954274451165" y="7.800206733469187" font-size="3.7994187693469006" line-height="0" fill="#828FB8" opacity="1" font-family="Roboto-Regular" font-weight="Regular" letter-spacing="0"  > </tspan><tspan x="8.072533042058039" y="7.800206733469187" font-size="3.7994187693469006" line-height="0" fill="#828FB8" opacity="1" font-family="Ubuntu-Bold" font-weight="Bold" letter-spacing="0"  >2</tspan><tspan x="10.230602903047078" y="7.800206733469187" font-size="3.7994187693469006" line-height="0" fill="#828FB8" opacity="1" font-family="Roboto-Regular" font-weight="Regular" letter-spacing="0"  > </tspan><tspan x="11.171181670653953" y="7.800206733469187" font-size="3.7994187693469006" line-height="0" fill="#828FB8" opacity="1" font-family="Roboto-Regular" font-weight="Regular" letter-spacing="0" >3</tspan></text></a></g></g><path id="矩形 2" fill-rule="evenodd" fill="url(#linear_1)" opacity="1" d="M-10.6773 31.7397L14.4645 26.0276C15.1471 25.8723 15.5088 25.1207 15.1913 24.493L6.51741 6.82019C6.18957 6.14357 5.65339 5.59301 4.98419 5.23431L-0.900469 2.07884L-16.3759 4.78551C-16.9767 4.89278 -17.3737 5.4781 -17.2469 6.07477L-11.968 30.9099C-11.8433 31.4968 -11.2621 31.8742 -10.6773 31.7397Z"></path><path id="矩形 2" fill-rule="evenodd" fill="url(#linear_2)" opacity="1" d="M15.0824 27.8756L28.8485 27.853C29.9234 27.8596 30.3441 26.4719 29.4504 25.8746L12.3279 14.2915C11.7328 13.8966 11.0417 13.6754 10.3259 13.6742L9.23142 13.6717L6.43943 16.8415C6.08536 17.2439 6.07879 17.8382 6.42105 18.246L14.254 27.4894C14.459 27.7321 14.7647 27.8716 15.0824 27.8756Z"></path><path id="矩形 2" fill-rule="evenodd" fill="url(#linear_3)" opacity="1" d="M15.0824 27.8756L28.8485 27.853C29.9234 27.8596 30.3441 26.4719 29.4504 25.8746L12.3279 14.2915C11.7328 13.8966 11.0417 13.6754 10.3259 13.6742L9.23142 13.6717L6.43943 16.8415C6.08536 17.2439 6.07879 17.8382 6.42105 18.246L14.254 27.4894C14.459 27.7321 14.7647 27.8716 15.0824 27.8756Z"></path><path id="矩形 2" fill-rule="evenodd" fill="url(#linear_4)" opacity="0.35" d="M29.5356 13.7733L29.5495 4.50798L28.6988 6.66193L23.6292 19.5578L26.0632 19.5618C26.4711 19.5569 26.843 19.3347 27.021 18.9697L29.414 14.2592C29.4945 14.1092 29.5318 13.9479 29.5356 13.7733Z"></path><path id="矩形 2" fill-rule="evenodd" fill="url(#linear_5)" opacity="0.35" d="M29.5356 13.7733L29.5495 4.50798L28.6988 6.66193L23.6292 19.5578L26.0632 19.5618C26.4711 19.5569 26.843 19.3347 27.021 18.9697L29.414 14.2592C29.4945 14.1092 29.5318 13.9479 29.5356 13.7733Z"></path></g><g opacity="1"  transform="translate(50.6943359375 0)  rotate(0)"><path id="矩形 5" fill-rule="evenodd" fill="url(#linear_6)" opacity="1" d="M-13.9703 37.9008L-9.90927 39.4597C-9.6292 39.5672 -9.31913 39.4292 -9.21162 39.1491L4.87582 2.45007C4.98333 2.17 4.84528 1.85993 4.56521 1.75242L0.504133 0.193519C0.224059 0.0860083 -0.0860083 0.224059 -0.193519 0.504133L-14.281 37.2032C-14.3885 37.4833 -14.2504 37.7933 -13.9703 37.9008Z"></path><path id="矩形 6" fill-rule="evenodd" style="fill:#0A0605" opacity="0.18" d="M-0.407147 2.00749L0.860655 2.49415L0.981425 2.17953L-0.286377 1.69287L-0.407147 2.00749Z"></path><path id="矩形 6" fill-rule="evenodd" style="fill:#0A0605" opacity="0.18" d="M-2.57829 7.66374L-1.31049 8.1504L-1.18972 7.83578L-2.45752 7.34912L-2.57829 7.66374Z"></path><path id="矩形 6" fill-rule="evenodd" style="fill:#0A0605" opacity="0.18" d="M-4.74943 13.32L-3.48163 13.8067L-3.36086 13.492L-4.62866 13.0054L-4.74943 13.32Z"></path><path id="矩形 6" fill-rule="evenodd" style="fill:#0A0605" opacity="0.18" d="M-6.92082 18.9762L-5.65302 19.4629L-5.53225 19.1483L-6.80005 18.6616L-6.92082 18.9762Z"></path><path id="矩形 6" fill-rule="evenodd" style="fill:#0A0605" opacity="0.18" d="M-9.09196 24.6325L-7.82416 25.1192L-7.70339 24.8045L-8.97119 24.3179L-9.09196 24.6325Z"></path><path id="矩形 6" fill-rule="evenodd" style="fill:#0A0605" opacity="0.18" d="M-11.2631 30.2887L-9.9953 30.7754L-9.87453 30.4608L-11.1423 29.9741L-11.2631 30.2887Z"></path><path id="矩形 6" fill-rule="evenodd" style="fill:#0A0605" opacity="0.18" d="M-13.4345 35.945L-12.1667 36.4317L-12.0459 36.117L-13.3137 35.6304L-13.4345 35.945Z"></path><path id="矩形 6" fill-rule="evenodd" style="fill:#0A0605" opacity="0.18" d="M-1.4926 4.83561L-0.224794 5.32228L-0.104024 5.00766L-1.37183 4.521L-1.4926 4.83561Z"></path><path id="矩形 6" fill-rule="evenodd" style="fill:#0A0605" opacity="0.18" d="M-3.66398 10.4919L-2.39618 10.9785L-2.27541 10.6639L-3.54321 10.1772L-3.66398 10.4919Z"></path><path id="矩形 6" fill-rule="evenodd" style="fill:#0A0605" opacity="0.18" d="M-5.83513 16.1481L-4.56732 16.6348L-4.44655 16.3202L-5.71436 15.8335L-5.83513 16.1481Z"></path><path id="矩形 6" fill-rule="evenodd" style="fill:#0A0605" opacity="0.18" d="M-8.00627 21.8044L-6.73847 22.291L-6.6177 21.9764L-7.8855 21.4897L-8.00627 21.8044Z"></path><path id="矩形 6" fill-rule="evenodd" style="fill:#0A0605" opacity="0.18" d="M-10.1777 27.4606L-8.90985 27.9473L-8.78908 27.6327L-10.0569 27.146L-10.1777 27.4606Z"></path><path id="矩形 6" fill-rule="evenodd" style="fill:#0A0605" opacity="0.18" d="M-12.3488 33.1169L-11.081 33.6035L-10.9602 33.2889L-12.228 32.8022L-12.3488 33.1169Z"></path></g><g opacity="1"  transform="translate(3.826904296875 6.46875)  rotate(0)"><g opacity="1"  transform="translate(0 3.8388671875)  rotate(0)"><g opacity="1"  transform="translate(0 0)  rotate(0)"><path id="矩形 2" fill-rule="evenodd" style="fill:#FFFFFF" opacity="1" d="M5.4319 21.4187L21.8061 17.9383C22.2658 17.8405 22.5662 17.378 22.4685 16.9182L19.0088 0.641867L13.5376 -2.8775L0.841207 -0.178804C0.381478 -0.0810856 0.0810856 0.381478 0.178804 0.841207L4.41189 20.7563C4.5096 21.216 4.97217 21.5164 5.4319 21.4187Z"></path><path id="矩形 3" fill-rule="evenodd" style="fill:#B4ADFF" opacity="1" d="M15.3386 1.42196L19.0164 0.640214L13.5452 -2.87915L14.3165 0.749777C14.4163 1.21929 14.8691 1.52176 15.3386 1.42196Z"></path></g><g opacity="1" transform="translate(6.7529296875 6.265869140625)  rotate(-11.999999380000416)"><a xlink:href="https://" xlink:title="跳转" target="_blank"><text><tspan x="0.4564245920339962" y="5.595119065209479" font-size="5.328684824009028" line-height="0" fill="#8E91DE" opacity="1" font-family="Poppins-Bold" font-weight="Bold" letter-spacing="0"  >SV</tspan><tspan x="1.9697710820525605" y="13.055277818822118" font-size="5.328684824009028" line-height="0" fill="#8E91DE" opacity="1" font-family="Poppins-Bold" font-weight="Bold" letter-spacing="0" >G</tspan></text></a></g></g><path id="路径 4" fill-rule="evenodd" fill="url(#linear_7)" opacity="1" d="M23.9804 18.7726L1.70044 11.8326L1.88044 12.3726L17.4604 21.3726L23.9804 18.7726Z"></path></g><g opacity="1"  transform="translate(27.430419921875 16.977783203125)  rotate(0)"><path id="矩形 4" fill-rule="evenodd" style="fill:#CCE89E" opacity="1" d="M-4.94268 9.01561L3.14663 17.1049C4.27093 18.2292 6.08819 18.2363 7.21249 17.112L10.1258 14.1987C11.2501 13.0744 11.2501 11.2501 10.1258 10.1258L2.03647 2.03647C0.912168 0.912168 -0.912168 0.912168 -2.03647 2.03647L-4.94975 4.94975C-6.07405 6.07405 -6.06698 7.89131 -4.94268 9.01561Z"></path><g opacity="1" transform="translate(0.509765625 3.7474365234375)  rotate(45)"><a xlink:href="https://" xlink:title="跳转" target="_blank"><text><tspan x="0" y="6.181274395850473" font-size="5.328684824009028" line-height="0" fill="#82A672" opacity="1" font-family="SourceHanSansCN-Medium" font-weight="Medium" letter-spacing="0"  >文</tspan><tspan x="0" y="13.897210021015546" font-size="5.328684824009028" line-height="0" fill="#82A672" opacity="1" font-family="SourceHanSansCN-Medium" font-weight="Medium" letter-spacing="0" >本</tspan></text></a></g></g><g opacity="1"  transform="translate(4.751708984375 18.0892333984375)  rotate(0)"><mask id="mask-0" fill="white"><path id="路径 1" fill-rule="evenodd" fill="url(#linear_8)" d="M0 0L1.13 29.84L25.34 38.26L25.34 9.2L0 0Z"></path></mask><path id="路径 1" fill-rule="evenodd" fill="url(#linear_8)" opacity="1" d="M0 0L1.13 29.84L25.34 38.26L25.34 9.2L0 0Z"></path><g mask="url(#mask-0)"><path id="形状结合" fill-rule="evenodd" style="fill:#FFFFFF" opacity="1" d="M11.9898 16.5615L11.0698 14.3115C11.0298 14.2015 10.9598 14.1014 10.8698 14.0215C10.6398 13.8014 10.3498 13.8115 10.2198 14.0315L6.88981 19.9715C6.77981 20.1714 6.77981 20.4515 6.88981 20.7314L8.99981 25.8815C9.12981 26.1814 9.36981 26.4314 9.63981 26.5215L14.3498 28.0615C14.6098 28.1515 14.8598 28.0615 14.9798 27.8414L17.0898 24.0714C17.2098 23.8715 17.2098 23.5914 17.0898 23.3115L13.7698 15.1915C13.7198 15.0815 13.6498 14.9815 13.5698 14.9015C13.3298 14.6915 13.0398 14.6915 12.9198 14.9115L11.9898 16.5615ZM10.9123 21.6714C10.9123 22.3414 11.4023 23.0415 11.9923 23.2415C12.5823 23.4314 13.0623 23.0615 13.0723 22.4015L13.0723 22.3715C13.0723 22.1814 13.0323 21.9715 12.9423 21.7614L12.6623 21.0814L13.3423 19.8615L13.9823 21.4114C14.1723 21.8414 14.2723 22.3115 14.2723 22.7715C14.2723 24.1915 13.2523 25.0014 11.9923 24.5914C10.7323 24.1814 9.71231 22.6915 9.71231 21.2815Q9.71231 20.9065 9.80231 20.5914L9.82231 20.5415L9.82231 20.5215C9.86231 20.3914 9.92231 20.2715 9.98232 20.1515L11.3123 17.7815L10.8623 16.6614C10.7923 16.5114 10.6523 16.4114 10.5323 16.4515C10.4923 16.4615 10.4523 16.4814 10.4323 16.5215L8.16231 20.5814C8.11231 20.6814 8.11231 20.8214 8.16231 20.9515L9.82231 25.0114C9.89231 25.1714 10.0123 25.2915 10.1423 25.3315L13.8423 26.5415C13.9723 26.5914 14.1023 26.5415 14.1623 26.4314L15.8223 23.4615C15.8823 23.3615 15.8823 23.2215 15.8223 23.0914L13.5523 17.5515C13.4923 17.4015 13.3423 17.3015 13.2323 17.3314C13.1823 17.3414 13.1523 17.3715 13.1323 17.4114L12.6723 18.2215L11.9923 19.4415L11.0523 21.1115C11.0023 21.2015 10.9623 21.3015 10.9423 21.4214L10.9323 21.4415C10.9223 21.5114 10.9123 21.5914 10.9123 21.6714Z"></path></g><g mask="url(#mask-0)"><path id="路径 1" fill-rule="evenodd" fill="url(#linear_9)" d="M0 0L23.08 37.19L25.34 38.58L25.34 9.2L0 0Z"></path></g><g mask="url(#mask-0)"><path id="路径 1" fill-rule="evenodd" fill="url(#linear_10)" d="M0 0L4.21 17.12L23.08 24.46L25.34 9.2L0 0Z"></path></g></g><g opacity="1"  transform="translate(30.093994140625 16.2940673828125)  rotate(0)"><mask id="mask-1" fill="white"><path id="路径 1" fill-rule="evenodd" fill="url(#linear_11)" d="M0 40.05L20.36 30.22L21.5 0L0 11L0 40.05Z"></path></mask><path id="路径 1" fill-rule="evenodd" fill="url(#linear_11)" opacity="1" d="M0 40.05L20.36 30.22L21.5 0L0 11L0 40.05Z"></path><g mask="url(#mask-1)"><path id="路径 1" fill-rule="evenodd" fill="url(#linear_12)" d="M5.87 25.36L26.23 15.52L21.5 0L0 11L5.87 25.36Z"></path></g><g mask="url(#mask-1)"><path id="路径 1" fill-rule="evenodd" fill="url(#linear_13)" d="M9.96 35.78L20.48 31.29L21.5 0L0 11L9.96 35.78Z"></path></g><g mask="url(#mask-1)"><path id="路径 1" fill-rule="evenodd" fill="url(#linear_14)" d="M17.0871 26.6991C15.8371 25.2491 14.2571 24.4591 14.2571 24.4591L9.2771 35.3391L19.9071 31.0791C19.9071 31.0791 18.9771 28.9191 17.0871 26.6991Z"></path><path id="路径 1" fill-rule="evenodd" fill="url(#linear_15)" d="M17.0871 26.6991C15.8371 25.2491 14.2571 24.4591 14.2571 24.4591L9.2771 35.3391L19.9071 31.0791C19.9071 31.0791 18.9771 28.9191 17.0871 26.6991Z"></path></g></g><path id="路径 1" fill-rule="evenodd" fill="url(#linear_16)" opacity="1" d="M4.75 18.0892L0 29.3092L25 38.0592L30.09 27.2892L4.75 18.0892Z"></path><path id="路径 1" fill-rule="evenodd" fill="url(#linear_17)" opacity="1" d="M36.204 38.1741L57.364 27.2941L51.594 16.2941L30.094 27.2941L36.204 38.1741Z"></path><path id="路径 1" fill-rule="evenodd" fill="url(#linear_18)" opacity="0.4" d="M49.6797 17.1941L52.7597 18.3141L51.5897 16.2941L49.6797 17.1941Z"></path></g><defs><linearGradient id="linear_0" x1="0.001994681244280388%" y1="50%" x2="99.99800531875572%" y2="50%" gradientUnits="objectBoundingBox"><stop offset="0" stop-color="#000000" stop-opacity="0.5" /><stop offset="1" stop-color="#292323" stop-opacity="0.5" /></linearGradient><linearGradient id="linear_1" x1="-1.3000864625635113" y1="1.3767324022490315" x2="2.1125998250358826" y2="17.432159919387356" gradientUnits="userSpaceOnUse"><stop offset="0" stop-color="#626FD1" stop-opacity="0.4077" /><stop offset="1" stop-color="#423358" stop-opacity="0.0154" /></linearGradient><linearGradient id="linear_2" x1="4.6529216526251265" y1="12.633390137135423" x2="24.96010310746113" y2="30.70371028774521" gradientUnits="userSpaceOnUse"><stop offset="0" stop-color="#626FD1" stop-opacity="0.4077" /><stop offset="1" stop-color="#423358" stop-opacity="0.0154" /></linearGradient><linearGradient id="linear_3" x1="6.596729646241831" y1="26.270278478191322" x2="26.90187459401095" y2="21.954286913531895" gradientUnits="userSpaceOnUse"><stop offset="0" stop-color="#7A9451" stop-opacity="0.16150000000000003" /><stop offset="1" stop-color="#CCE89E" stop-opacity="0.2" /></linearGradient><linearGradient id="linear_4" x1="15.58827274282887" y1="10.043663431056672" x2="35.89545419766487" y2="28.113983581666457" gradientUnits="userSpaceOnUse"><stop offset="0" stop-color="#626FD1" stop-opacity="0.4077" /><stop offset="1" stop-color="#423358" stop-opacity="0.0154" /></linearGradient><linearGradient id="linear_5" x1="17.532080736445568" y1="23.680551772112572" x2="37.83722568421469" y2="19.36456020745315" gradientUnits="userSpaceOnUse"><stop offset="0" stop-color="#B05A3F" stop-opacity="1" /><stop offset="1" stop-color="#DB8360" stop-opacity="0.2" /></linearGradient><linearGradient id="linear_6" x1="-18.839664294959412" y1="39.20688029113063" x2="-4.364746440558362" y2="1.4984312235483772" gradientUnits="userSpaceOnUse"><stop offset="0" stop-color="#FF764D" stop-opacity="1" /><stop offset="1" stop-color="#FF997A" stop-opacity="1" /></linearGradient><linearGradient id="linear_7" x1="19.654379630580813%" y1="80.05662309959924%" x2="89.85013410571007%" y2="67.231%" gradientUnits="objectBoundingBox"><stop offset="0" stop-color="#626FD1" stop-opacity="0.4077" /><stop offset="1" stop-color="#423358" stop-opacity="0.0308" /></linearGradient><linearGradient id="linear_8" x1="22.30241499554397%" y1="14.628%" x2="85.96935700560626%" y2="86.842%" gradientUnits="objectBoundingBox"><stop offset="0" stop-color="#E35E29" stop-opacity="1" /><stop offset="1" stop-color="#FF8657" stop-opacity="1" /></linearGradient><linearGradient id="linear_9" x1="85.21428653518329%" y1="53.13838825426189%" x2="50%" y2="18.203336706673642%" gradientUnits="objectBoundingBox"><stop offset="0" stop-color="#E35E29" stop-opacity="1" /><stop offset="1" stop-color="#E36432" stop-opacity="1" /></linearGradient><linearGradient id="linear_10" x1="89.06464588767132%" y1="94.489%" x2="64.37034117815593%" y2="35.965%" gradientUnits="objectBoundingBox"><stop offset="0" stop-color="#8A3919" stop-opacity="0.48" /><stop offset="1" stop-color="#D15F32" stop-opacity="1" /></linearGradient><linearGradient id="linear_11" x1="27.21249883308683%" y1="89.79899999999999%" x2="99.99013067504646%" y2="15.912%" gradientUnits="objectBoundingBox"><stop offset="0" stop-color="#7B4DE8" stop-opacity="1" /><stop offset="1" stop-color="#8862E3" stop-opacity="1" /></linearGradient><linearGradient id="linear_12" x1="25.91778755479336%" y1="100%" x2="26.91778755479336%" y2="50%" gradientUnits="objectBoundingBox"><stop offset="0" stop-color="#62499E" stop-opacity="0.0692" /><stop offset="1" stop-color="#6D51AD" stop-opacity="1" /></linearGradient><linearGradient id="linear_13" x1="31.6402420895382%" y1="70.88263976377908%" x2="32.640242089538205%" y2="35.44131988188954%" gradientUnits="objectBoundingBox"><stop offset="0" stop-color="#62499E" stop-opacity="0.0692" /><stop offset="1" stop-color="#6D51AD" stop-opacity="1" /></linearGradient><linearGradient id="linear_14" x1="84.91957229396807%" y1="61.063%" x2="40.62782050051877%" y2="28.932000000000002%" gradientUnits="objectBoundingBox"><stop offset="0" stop-color="#62499E" stop-opacity="0.0692" /><stop offset="1" stop-color="#6D51AD" stop-opacity="1" /></linearGradient><linearGradient id="linear_15" x1="30.96351072628856%" y1="58.471%" x2="100.02230732003217%" y2="50%" gradientUnits="objectBoundingBox"><stop offset="0" stop-color="#FF9D7E" stop-opacity="0.2" /><stop offset="1" stop-color="#FF9A79" stop-opacity="0" /></linearGradient><linearGradient id="linear_16" x1="-0.006744211329227981%" y1="50%" x2="100.00674421132922%" y2="50%" gradientUnits="objectBoundingBox"><stop offset="0" stop-color="#FF8863" stop-opacity="1" /><stop offset="1" stop-color="#FFB196" stop-opacity="1" /></linearGradient><linearGradient id="linear_17" x1="0.007939688349806562%" y1="50%" x2="99.99206031165019%" y2="21.188000000000002%" gradientUnits="objectBoundingBox"><stop offset="0" stop-color="#AD5AE0" stop-opacity="1" /><stop offset="1" stop-color="#BD6FED" stop-opacity="1" /></linearGradient><linearGradient id="linear_18" x1="28.207173161643027%" y1="136.34666882678053%" x2="29.207173161643027%" y2="68.17333441339026%" gradientUnits="objectBoundingBox"><stop offset="0" stop-color="#62499E" stop-opacity="0.0692" /><stop offset="1" stop-color="#6D51AD" stop-opacity="1" /></linearGradient></defs></svg>