<svg xmlns="http://www.w3.org/2000/svg" xmlns:xlink="http://www.w3.org/1999/xlink" fill="none" version="1.1" width="48" height="44" viewBox="0 0 48 44"><defs><clipPath id="master_svg0_15_02120"><rect x="0" y="0" width="48" height="44" rx="0"/></clipPath></defs><g clip-path="url(#master_svg0_15_02120)"><g><path d="M0,1.83333C0,0.820811,0.89543,0,2,0C2,0,10,0,10,0C10.9533,0,11.774,0.616706,11.9611,1.47353C11.9611,1.47353,13.6409,9.16667,13.6409,9.16667C13.6409,9.16667,46,9.16667,46,9.16667C46.596,9.16667,47.161,9.41037,47.541,9.83136C47.921,10.2523,48.0762,10.8067,47.9646,11.3434C47.9646,11.3434,44.7618,26.7388,44.7618,26.7388C44.4874,28.0049,43.736,29.1423,42.639,29.9517C41.5476,30.7571,40.1832,31.1868,38.7828,31.1667C38.7828,31.1667,19.3773,31.1667,19.3773,31.1667C17.9767,31.1868,16.6124,30.7571,15.521,29.9517C14.4245,29.1425,13.6733,28.0058,13.3987,26.7404C13.3985,26.7399,13.3988,26.7408,13.3987,26.7404C13.3987,26.7404,10.0576,11.4385,10.0576,11.4385C10.044,11.3879,10.0328,11.3365,10.0239,11.2843C10.0239,11.2843,8.36064,3.66667,8.36064,3.66667C8.36064,3.66667,2,3.66667,2,3.66667C0.89543,3.66667,0,2.84585,0,1.83333C0,1.83333,0,1.83333,0,1.83333ZM14.4415,12.8333C14.4415,12.8333,17.3217,26.0245,17.3217,26.0245C17.4131,26.4466,17.6636,26.8257,18.0292,27.0954C18.3949,27.3653,18.8524,27.5086,19.3217,27.5004C19.3217,27.5004,19.36,27.5,19.36,27.5C19.36,27.5,38.8,27.5,38.8,27.5C38.8,27.5,38.8384,27.5004,38.8384,27.5004C39.3076,27.5086,39.7652,27.3653,40.1308,27.0954C40.4948,26.8268,40.7446,26.4501,40.837,26.0304C40.837,26.0304,43.5826,12.8333,43.5826,12.8333C43.5826,12.8333,14.4415,12.8333,14.4415,12.8333C14.4415,12.8333,14.4415,12.8333,14.4415,12.8333ZM14,38.5C14,36.4749,15.7909,34.8333,18,34.8333C20.2092,34.8333,22,36.4749,22,38.5C22,40.5251,20.2092,42.1667,18,42.1667C15.7909,42.1667,14,40.5251,14,38.5C14,38.5,14,38.5,14,38.5ZM36,38.5C36,36.4749,37.7908,34.8333,40,34.8333C42.2092,34.8333,44,36.4749,44,38.5C44,40.5251,42.2092,42.1667,40,42.1667C37.7908,42.1667,36,40.5251,36,38.5C36,38.5,36,38.5,36,38.5Z" fill-rule="evenodd" fill="#FFFFFF" fill-opacity="1"/></g></g></svg>