<svg xmlns="http://www.w3.org/2000/svg" xmlns:xlink="http://www.w3.org/1999/xlink" width="150.93618774414062" height="140" viewBox="0 0 150.93618774414062 140" fill="none"><g opacity="1"  transform="translate(0 0)  rotate(0)"><path id="矩形 3" fill-rule="evenodd" style="fill:#F3D2A6" opacity="1" d="M10 140L136.81 140C142.33 140 146.81 135.52 146.81 130L146.81 10C146.81 4.48 142.33 0 136.81 0L10 0C4.48 0 0 4.48 0 10L0 130C0 135.52 4.48 140 10 140Z"></path><path fill-rule="evenodd"  id="矩形 3" style="fill:#F2F2F2; opacity:1;" d="M136.81 140L10 140C4.48 140 0 135.52 0 130L0 10C0 4.48 4.48 0 10 0L136.81 0C142.33 0 146.81 4.48 146.81 10L146.81 130C146.81 135.52 142.33 140 136.81 140ZM136.81 139L10 139C5.02944 139 1 134.971 1 130L1 10C1 5.02944 5.02944 1 10 1L136.81 1C141.781 1 145.81 5.02944 145.81 10L145.81 130C145.81 134.971 141.781 139 136.81 139Z"></path><g opacity="1"  transform="translate(2 26)  rotate(0)"><g opacity="1" transform="translate(6.5106201171875 14)  rotate(0)"><a xlink:href="https://" xlink:title="跳转" target="_blank"><text><tspan x="0" y="16.240000000000002" font-size="14" line-height="0" fill="#000000" opacity="1" font-family="SourceHanSansCN-Regular" font-weight="Regular" letter-spacing="0" ></tspan></text></a></g><g opacity="1" transform="translate(15.021240234375 0)  rotate(0)"><a xlink:href="https://" xlink:title="跳转" target="_blank"><text><tspan x="0" y="14.7216796875" font-size="18" line-height="0" fill="#000000" opacity="1" font-family="AnonymousPro-Regular" font-weight="Regular" letter-spacing="0"  >Custom</tspan><tspan x="58.95703125" y="14.7216796875" font-size="18" line-height="0" fill="#000000" opacity="1" font-family="Roboto-Regular" font-weight="Regular" letter-spacing="0"  > </tspan><tspan x="63.4130859375" y="14.7216796875" font-size="18" line-height="0" fill="#000000" opacity="1" font-family="AnonymousPro-Regular" font-weight="Regular" letter-spacing="0" >Order</tspan></text></a></g><g opacity="1" transform="translate(0 34)  rotate(0)"><a xlink:href="https://" xlink:title="跳转" target="_blank"><text><tspan x="0" y="10.44" font-size="9" line-height="0" fill="#736073" opacity="1" font-family="Roboto-Regular" font-weight="Regular" letter-spacing="0"  ></tspan><tspan x="0" y="10.44" font-size="9" line-height="0" fill="#736073" opacity="1" font-family="Roboto-Regular" font-weight="Regular" letter-spacing="0"  > </tspan><tspan x="2.22802734375" y="10.44" font-size="9" line-height="0" fill="#736073" opacity="1" font-family="SourceHanSansCN-Regular" font-weight="Regular" letter-spacing="0"  >Custom</tspan><tspan x="34.82602734375" y="10.44" font-size="9" line-height="0" fill="#736073" opacity="1" font-family="Roboto-Regular" font-weight="Regular" letter-spacing="0"  > </tspan><tspan x="37.0540546875" y="10.44" font-size="9" line-height="0" fill="#736073" opacity="1" font-family="SourceHanSansCN-Regular" font-weight="Regular" letter-spacing="0"  >modifiy</tspan><tspan x="68.9860546875" y="10.44" font-size="9" line-height="0" fill="#736073" opacity="1" font-family="Roboto-Regular" font-weight="Regular" letter-spacing="0"  > </tspan><tspan x="71.21408203125" y="10.44" font-size="9" line-height="0" fill="#736073" opacity="1" font-family="SourceHanSansCN-Regular" font-weight="Regular" letter-spacing="0"  >space</tspan><tspan x="95.64908203125002" y="10.44" font-size="9" line-height="0" fill="#736073" opacity="1" font-family="Roboto-Regular" font-weight="Regular" letter-spacing="0"  > </tspan><tspan x="97.87710937500002" y="10.44" font-size="9" line-height="0" fill="#736073" opacity="1" font-family="Roboto-Regular" font-weight="Regular" letter-spacing="0"  > </tspan><tspan x="100.10513671875002" y="10.44" font-size="9" line-height="0" fill="#736073" opacity="1" font-family="SourceHanSansCN-Regular" font-weight="Regular" letter-spacing="0"  >and</tspan><tspan x="116.24213671875" y="10.44" font-size="9" line-height="0" fill="#736073" opacity="1" font-family="Roboto-Regular" font-weight="Regular" letter-spacing="0"  > </tspan><tspan x="118.4701640625" y="10.44" font-size="9" line-height="0" fill="#736073" opacity="1" font-family="SourceHanSansCN-Regular" font-weight="Regular" letter-spacing="0"  >time</tspan><tspan x="137.6581640625" y="10.44" font-size="9" line-height="0" fill="#736073" opacity="1" font-family="SourceHanSansCN-Regular" font-weight="Regular" letter-spacing="0" > </tspan></text></a></g></g><g opacity="1"  transform="translate(1 83)  rotate(0)"><g filter="url(#filter_7)"><path id="矩形 8" fill-rule="evenodd" fill="url(#linear_0)" opacity="1" d="M10 57L136 57C141.52 57 146 52.52 146 47L146 0C146 0 116.2 6 73 6C29.8 6 0 0 0 0L0 47C0 52.52 4.48 57 10 57Z"></path></g><g opacity="1"  transform="translate(11.9183349609375 18)  rotate(0)"><g filter="url(#filter_9)"><path id="矩形 1" fill-rule="evenodd" fill="url(#linear_1)" opacity="1" d="M14 28L108.16 28C115.89 28 122.16 21.73 122.16 14L122.16 14C122.16 6.27 115.89 0 108.16 0L14 0C6.27 0 0 6.27 0 14L0 14C0 21.73 6.27 28 14 28Z"></path></g><path  id="矩形 1" style="fill:#2F2F2D; opacity:1;" d="M15.4694 24.5L106.689 24.5C112.488 24.5 117.189 19.799 117.189 14C117.189 8.20101 112.488 3.5 106.689 3.5L15.4694 3.5C9.67037 3.5 4.96936 8.20101 4.96936 14C4.96936 19.799 9.67037 24.5 15.4694 24.5ZM15.4694 25.5C9.11809 25.5 3.96936 20.3513 3.96936 14C3.96936 7.64873 9.11809 2.5 15.4694 2.5L106.689 2.5C113.041 2.5 118.189 7.64873 118.189 14C118.189 20.3513 113.041 25.5 106.689 25.5L15.4694 25.5Z"></path><g opacity="1" transform="translate(22.3470458984375 4.5)  rotate(0)"><a xlink:href="https://" xlink:title="跳转" target="_blank"><text><tspan x="26.29368017578125" y="15.08" font-size="13" line-height="0" fill="#D2BB9F" opacity="1" font-family="SourceHanSansCN-Medium" font-weight="Medium" letter-spacing="0" >Edit</tspan></text></a></g></g></g></g><defs><linearGradient id="linear_0" x1="49.999999999999986%" y1="0%" x2="50%" y2="100%" gradientUnits="objectBoundingBox"><stop offset="0" stop-color="#F3D3A7" stop-opacity="1" /><stop offset="0.9934" stop-color="#F3D0A1" stop-opacity="1" /></linearGradient><filter id="filter_7" x="0" y="0" width="146" height="58" filterUnits="userSpaceOnUse" color-interpolation-filters="sRGB"><feFlood flood-opacity="0" result="feFloodId"/>
        <feColorMatrix in="SourceAlpha" type="matrix" values="0 0 0 0 0 0 0 0 0 0 0 0 0 0 0 0 0 0 127 0" result="hardAlpha"/>
        
        <feOffset dx="0" dy="-1"/>
        
         <feComposite in2="hardAlpha" operator="out"/>
        <feColorMatrix type="matrix" values="0 0 0 0 0.9882352941176471 0 0 0 0 0.8941176470588236 0 0 0 0 0.7725490196078432 0 0 0 1 0"/>
        <feBlend mode="normal" in2="BackgroundImageFix" result="dropShadow_1"/>
        <feBlend mode="normal" in="SourceGraphic" in2="dropShadow_2" result="shape"/></filter><radialGradient id="linear_1" cx="21.26424180938281%" cy="100%" fx="21.26424180938281%" fy="100%" r="2.28111728782065" gradientTransform="translate(0.2126424180938281 1) scale(0.22920154897103942 1) rotate(320.9728626961706) scale(1 1) translate(-0.2126424180938281 -1)" ><stop offset="0" stop-color="#4D4A46" stop-opacity="1" /><stop offset="0.6209" stop-color="#41423F" stop-opacity="1" /><stop offset="1" stop-color="#A7A19A" stop-opacity="1" /></radialGradient><filter id="filter_9" x="0" y="0" width="124.16" height="31" filterUnits="userSpaceOnUse" color-interpolation-filters="sRGB"><feFlood flood-opacity="0" result="feFloodId"/>
        <feColorMatrix in="SourceAlpha" type="matrix" values="0 0 0 0 0 0 0 0 0 0 0 0 0 0 0 0 0 0 127 0" result="hardAlpha"/>
        
        <feOffset dx="0" dy="1"/>
        <feGaussianBlur stdDeviation="0.5"/>
         <feComposite in2="hardAlpha" operator="out"/>
        <feColorMatrix type="matrix" values="0 0 0 0 0.30980392156862746 0 0 0 0 0.23137254901960785 0 0 0 0 0.15294117647058825 0 0 0 0.3 0"/>
        <feBlend mode="normal" in2="BackgroundImageFix" result="dropShadow_1"/>
        <feBlend mode="normal" in="SourceGraphic" in2="dropShadow_2" result="shape"/></filter></defs></svg>