<svg xmlns="http://www.w3.org/2000/svg" xmlns:xlink="http://www.w3.org/1999/xlink" width="146.8099365234375" height="140" viewBox="0 0 146.8099365234375 140" fill="none"><g opacity="1"  transform="translate(0 0)  rotate(0)"><path id="矩形 3" fill-rule="evenodd" style="fill:#F3D2A6" opacity="1" d="M10 140L136.81 140C142.33 140 146.81 135.52 146.81 130L146.81 10C146.81 4.48 142.33 0 136.81 0L10 0C4.48 0 0 4.48 0 10L0 130C0 135.52 4.48 140 10 140Z"></path><path fill-rule="evenodd"  id="矩形 3" style="fill:#F2F2F2; opacity:1;" d="M136.81 140L10 140C4.48 140 0 135.52 0 130L0 10C0 4.48 4.48 0 10 0L136.81 0C142.33 0 146.81 4.48 146.81 10L146.81 130C146.81 135.52 142.33 140 136.81 140ZM136.81 139L10 139C5.02944 139 1 134.971 1 130L1 10C1 5.02944 5.02944 1 10 1L136.81 1C141.781 1 145.81 5.02944 145.81 10L145.81 130C145.81 134.971 141.781 139 136.81 139Z"></path><g opacity="1"  transform="translate(7 44)  rotate(0)"><g opacity="1" transform="translate(0 0)  rotate(0)"><a xlink:href="https://" xlink:title="跳转" target="_blank"><text><tspan x="0" y="16.240000000000002" font-size="14" line-height="0" fill="#000000" opacity="1" font-family="SourceHanSansCN-Regular" font-weight="Regular" letter-spacing="0" ></tspan></text></a></g><g opacity="1" transform="translate(3.0650634765625 3)  rotate(0)"><a xlink:href="https://" xlink:title="跳转" target="_blank"><text><tspan x="0" y="9.814453125" font-size="12" line-height="0" fill="#000000" opacity="1" font-family="AnonymousPro-Regular" font-weight="Regular" letter-spacing="0"  >Custom</tspan><tspan x="39.3046875" y="9.814453125" font-size="12" line-height="0" fill="#000000" opacity="1" font-family="Roboto-Regular" font-weight="Regular" letter-spacing="0"  > </tspan><tspan x="42.275390625" y="9.814453125" font-size="12" line-height="0" fill="#000000" opacity="1" font-family="Roboto-Regular" font-weight="Regular" letter-spacing="0"  > </tspan><tspan x="45.24609375" y="9.814453125" font-size="12" line-height="0" fill="#000000" opacity="1" font-family="AnonymousPro-Regular" font-weight="Regular" letter-spacing="0"  >Space</tspan><tspan x="78" y="9.814453125" font-size="12" line-height="0" fill="#000000" opacity="1" font-family="Roboto-Regular" font-weight="Regular" letter-spacing="0"  > </tspan><tspan x="80.970703125" y="9.814453125" font-size="12" line-height="0" fill="#000000" opacity="1" font-family="AnonymousPro-Regular" font-weight="Regular" letter-spacing="0"  >and</tspan><tspan x="100.623046875" y="9.814453125" font-size="12" line-height="0" fill="#000000" opacity="1" font-family="Roboto-Regular" font-weight="Regular" letter-spacing="0"  > </tspan><tspan x="103.59375" y="9.814453125" font-size="12" line-height="0" fill="#000000" opacity="1" font-family="AnonymousPro-Regular" font-weight="Regular" letter-spacing="0" >Time</tspan></text></a></g></g><g opacity="1"  transform="translate(22 93)  rotate(0)"><g opacity="1"  transform="translate(0 -0.00006103515625)  rotate(0)"><path id="矩形 1" fill-rule="evenodd" style="fill:#4A4844" opacity="1" d="M11.27 22.54L98.58 22.54C104.8 22.54 109.84 17.49 109.84 11.27L109.84 11.27C109.84 5.05 104.8 0 98.58 0L11.27 0C5.05 0 0 5.05 0 11.27L0 11.27C0 17.49 5.05 22.54 11.27 22.54Z"></path><path  id="矩形 1" style="fill:#2F2F2D; opacity:1;" d="M11.27 22.04L98.58 22.04C104.528 22.04 109.34 17.2181 109.34 11.27C109.34 5.32742 104.523 0.5 98.58 0.5L11.27 0.5C5.32189 0.5 0.5 5.32189 0.5 11.27C0.5 17.2181 5.32189 22.04 11.27 22.04ZM11.27 23.04C4.76961 23.04 -0.5 17.7704 -0.5 11.27C-0.5 4.76961 4.76961 -0.5 11.27 -0.5L98.58 -0.5C105.075 -0.5 110.34 4.77514 110.34 11.27C110.34 17.7704 105.08 23.04 98.58 23.04L11.27 23.04Z"></path><g opacity="1" transform="translate(17.3441162109375 1.53662109375)  rotate(0)"><a xlink:href="https://" xlink:title="跳转" target="_blank"><text><tspan x="25.137369140625" y="15.08" font-size="13" line-height="0" fill="#D2BB9F" opacity="1" font-family="SourceHanSansCN-Medium" font-weight="Medium" letter-spacing="0" >Edit</tspan></text></a></g></g></g></g></svg>