<?xml version="1.0" standalone="no"?><!DOCTYPE svg PUBLIC "-//W3C//DTD SVG 1.1//EN" "http://www.w3.org/Graphics/SVG/1.1/DTD/svg11.dtd"><svg t="1699606748255" class="icon" viewBox="0 0 1024 1024" version="1.1" xmlns="http://www.w3.org/2000/svg" p-id="8593" xmlns:xlink="http://www.w3.org/1999/xlink" width="200" height="200"><path d="M922.638629 52.414171h-819.2c-32.314514 0-65.653029 32.811886-65.653029 65.1264v585.142858c0 32.314514 33.338514 51.902171 65.653029 51.902171h819.2c32.314514 0 51.375543-19.587657 51.375542-51.902171v-585.142858c0-32.314514-19.061029-65.1264-51.375542-65.1264z m-7.138743 643.657143h-819.2v-585.142857h819.2v585.142857z" fill="#ffffff" p-id="8594"></path><path d="M871.614171 184.071314a14.628571 14.628571 0 0 0-14.628571-14.628571h-702.171429a14.628571 14.628571 0 0 0-14.628571 14.628571v424.228572a14.628571 14.628571 0 0 0 14.628571 14.628571h702.171429a14.628571 14.628571 0 0 0 14.628571-14.628571v-424.228572z m-702.171428 14.628572h672.914286v394.971428h-672.914286v-394.971428z" fill="#ffffff" p-id="8595"></path><path d="M813.099886 510.785829a14.628571 14.628571 0 0 0-14.628572 14.628571v24.3712H746.057143a14.628571 14.628571 0 1 0 0 29.257143h73.142857c8.0896 0 8.528457-1.653029 8.528457-9.742629v-43.885714a14.628571 14.628571 0 0 0-14.628571-14.628571zM813.099886 276.728686a14.628571 14.628571 0 0 0-14.628572 14.628571v190.171429a14.628571 14.628571 0 1 0 29.257143 0v-190.171429a14.628571 14.628571 0 0 0-14.628571-14.628571zM526.628571 637.557029h-14.628571a14.628571 14.628571 0 1 0 0 29.257142h14.628571a14.628571 14.628571 0 1 0 0-29.257142zM716.8 915.499886h-59.377371c-10.927543-73.142857-72.235886-125.557029-146.212572-125.557029s-135.299657 52.414171-146.212571 125.557029H292.571429a29.257143 29.257143 0 0 0 0 58.514285h424.228571a29.257143 29.257143 0 0 0 0-58.514285zM511.210057 848.457143c41.603657 0 76.565943 23.157029 86.615772 67.042743H424.608914c10.0352-43.885714 45.012114-67.042743 86.601143-67.042743z" fill="#ffffff" p-id="8596"></path></svg>