<?xml version="1.0" standalone="no"?><!DOCTYPE svg PUBLIC "-//W3C//DTD SVG 1.1//EN" "http://www.w3.org/Graphics/SVG/1.1/DTD/svg11.dtd"><svg t="1700708075182" class="icon" viewBox="0 0 1250 1024" version="1.1" xmlns="http://www.w3.org/2000/svg" p-id="3378" xmlns:xlink="http://www.w3.org/1999/xlink" width="244.140625" height="200"><path d="M48.00512 800.01024l560.00512 0 0 48.00512c0 8.82688 7.168 15.99488 15.99488 15.99488s15.99488-7.168 15.99488-15.99488l0-48.00512 560.00512 0c26.46016 0 48.00512-21.54496 48.00512-48.00512l0-704c0-26.46016-21.54496-48.00512-48.00512-48.00512l-1152 0c-26.46016 0-48.00512 21.54496-48.00512 48.00512l0 704c0 26.46016 21.54496 48.00512 48.00512 48.00512zM32.01024 48.00512c0-8.82688 7.168-15.99488 15.99488-15.99488l1152 0c8.82688 0 15.99488 7.168 15.99488 15.99488l0 704c0 8.82688-7.168 15.99488-15.99488 15.99488l-1152 0c-8.82688 0-15.99488-7.168-15.99488-15.99488l0-704zM112.00512 704l1024 0c8.82688 0 15.99488-7.168 15.99488-15.99488l0-576c0-8.82688-7.168-15.99488-15.99488-15.99488l-1024 0c-8.82688 0-15.99488 7.168-15.99488 15.99488l0 576c0 8.82688 7.168 15.99488 15.99488 15.99488zM128 128l992.01024 0 0 544.01024-992.01024 0 0-544.01024zM448 896c-36.47488 0-64 27.52512-64 64l0 48.00512c0 8.82688 7.168 15.99488 15.99488 15.99488l448 0c8.82688 0 15.99488-7.168 15.99488-15.99488l0-45.60896c0-37.21216-28.09856-66.39616-64-66.39616l-352.01024 0zM832 962.39616l0 29.5936-416.01024 0 0-32.01024c0-18.8416 13.14816-32.01024 32.01024-32.01024l352.01024 0c18.24768 0 32.01024 14.78656 32.01024 34.4064z" fill="#ff7d24" p-id="3379"></path></svg>