<svg xmlns="http://www.w3.org/2000/svg" xmlns:xlink="http://www.w3.org/1999/xlink" fill="none" version="1.1" width="56" height="54" viewBox="0 0 56 54"><defs><clipPath id="master_svg0_15_632"><rect x="0" y="0" width="56" height="54" rx="0"/></clipPath></defs><g clip-path="url(#master_svg0_15_632)"><g><path d="M16.77001298828125,22.87511796875L21.83331298828125,22.87511796875C27.63231298828125,22.87511796875,32.33331298828125,27.40831796875,32.33331298828125,33.000117968750004L15.99761298828125,33.000117968750004L16.00001298828125,35.250117968750004L34.66661298828125,35.250117968750004L34.66661298828125,33.000117968750004C34.65931298828125,30.60611796875,33.94201298828125,28.26401796875,32.59931298828125,26.25011796875L39.33331298828125,26.25011796875C43.83501298828125,26.24901796875,47.93581298828125,28.74541796875,49.87061298828125,32.664917968750004C44.35231298828125,39.68721796875,35.41801298828125,44.25011796875,25.33331298828125,44.25011796875C18.89101298828125,44.25011796875,13.433312988281251,42.92271796875,9.00001298828125,40.59391796875L9.00001298828125,19.65991796875C11.83871298828125,20.05201796875,14.51941298828125,21.16131796875,16.77001298828125,22.87511796875ZM4.33331298828125,17.25011796875C5.51625298828125,17.25031796875,6.511912988281249,18.10401796875,6.65031298828125,19.23691796875L6.66664298828125,19.50011796875L6.66664298828125,39.75011796875C6.66664298828125,40.99281796875,5.62197298828125,42.00011796875,4.33331298828125,42.00011796875L-0.3333570117187499,42.00011796875C-1.62201701171875,42.00011796875,-2.66668701171875,40.99281796875,-2.66668701171875,39.75011796875L-2.66668701171875,19.50011796875C-2.66668701171875,18.25751796875,-1.62201701171875,17.25011796875,-0.3333570117187499,17.25011796875L4.33331298828125,17.25011796875ZM26.84061298828125,5.04391796875L27.66661298828125,5.84266796875L28.49261298828125,5.04616796875C30.76801298828125,2.83333796875,34.47541298828125,2.8260129687499997,36.76021298828125,5.02982796875C39.04501298828125,7.233647968750001,39.03641298828125,10.80864796875,36.74101298828125,13.00216796875L27.66661298828125,21.75011796875L18.59001298828125,12.99766796875C16.29521298828125,10.80350796875,16.28771298828125,7.22855796875,18.57311298828125,5.02537796875C20.85851298828125,2.82220596875,24.56591298828125,2.8305179687499997,26.84061298828125,5.04391796875Z" fill="#FFFFFF" fill-opacity="0.8392156958580017"/></g></g></svg>