<?xml version="1.0" standalone="no"?><!DOCTYPE svg PUBLIC "-//W3C//DTD SVG 1.1//EN" "http://www.w3.org/Graphics/SVG/1.1/DTD/svg11.dtd"><svg t="1700718513864" class="icon" viewBox="0 0 1024 1024" version="1.1" xmlns="http://www.w3.org/2000/svg" p-id="6127" xmlns:xlink="http://www.w3.org/1999/xlink" width="200" height="200"><path d="M512 112A400 400 0 1 1 112 512 400 400 0 0 1 512 112m0-48a448 448 0 0 0 0 896 448 448 0 0 0 0-896z" fill="#fdb043" p-id="6128"></path><path d="M736 320a16 16 0 0 1-16 16H336a16 16 0 0 1 0-32h384a16 16 0 0 1 16 16zM736 736a16 16 0 0 1-16 16H336a16 16 0 0 1 0-32h384a16 16 0 0 1 16 16z" fill="#fdb043" p-id="6129"></path><path d="M656 336v32a128 128 0 0 1-88 121.6 32 32 0 0 0 0 60.8A128 128 0 0 1 656 672v48H400v-48a128 128 0 0 1 88-121.6 32 32 0 0 0 0-60.8A128 128 0 0 1 400 368v-32h256m32-32H368v64a160 160 0 0 0 110.08 152A160 160 0 0 0 368 672v64c0 5.44 0 10.72 0.8 16H688v-80a160 160 0 0 0-110.08-152A160 160 0 0 0 688 368v-64z" fill="#fdb043" p-id="6130"></path><path d="M680.64 720a160 160 0 0 0-305.28 0 162.24 162.24 0 0 0-6.56 32h16a134.88 134.88 0 0 1 7.36-32 144 144 0 0 1 272 0 134.88 134.88 0 0 1 7.36 32h16a162.24 162.24 0 0 0-6.88-32zM528 504a7.2 7.2 0 0 1-3.2 0c-2.72-1.28-67.36-30.56-99.2-72.96a8 8 0 0 1 1.6-11.2 8.16 8.16 0 0 1 11.2 1.6C464 454.72 514.72 480 528 487.2c13.28-6.56 64-32 89.6-66.4a8.16 8.16 0 0 1 11.2-1.6 8 8 0 0 1 1.6 11.2c-32 42.4-96 71.68-99.2 72.96a7.2 7.2 0 0 1-3.2 0.64z" fill="#fdb043" p-id="6131"></path></svg>