<?xml version="1.0" standalone="no"?><!DOCTYPE svg PUBLIC "-//W3C//DTD SVG 1.1//EN" "http://www.w3.org/Graphics/SVG/1.1/DTD/svg11.dtd"><svg class="icon" width="200px" height="200.00px" viewBox="0 0 1024 1024" version="1.1" xmlns="http://www.w3.org/2000/svg"><path d="M114 380.64L421.3 123.86a51.02 51.02 0 0 1 65.42 0L794 380.64v331.84H114z" fill="#4263EB" /><path d="M245.1 191.3h408a17 17 0 0 1 17 17v492.86h-442V208.3a17 17 0 0 1 17-17z" fill="#FFD43B" /><path d="M114 391.1v374A51 51 0 0 0 165 816h578a51 51 0 0 0 51-50.98v-374L486.7 648a51.02 51.02 0 0 1-65.42 0z" fill="#4C6EF5" /><path d="M165 816l251.6-271.3a51 51 0 0 1 74.8 0L743 816z" fill="#5C7CFA" /><path d="M398.1 338.5m-17 0a17 17 0 1 0 34 0 17 17 0 1 0-34 0Z" fill="#FA5252" /><path d="M500.1 338.5m-17 0a17 17 0 1 0 34 0 17 17 0 1 0-34 0Z" fill="#FA5252" /><path d="M406.94 391.1a5.08 5.08 0 0 0-5.04 5.66 46.96 46.96 0 0 0 93.22 0 5.08 5.08 0 0 0-5.04-5.66z" fill="#FA5252" /><path d="M487.6 668.3m28.14 0l366.12 0q28.14 0 28.14 28.14l0 187.4q0 28.14-28.14 28.14l-366.12 0q-28.14 0-28.14-28.14l0-187.4q0-28.14 28.14-28.14Z" fill="#FF6B6B" /><path d="M487.6 714.84H910v37.5H487.6z" fill="#FFD43B" /><path d="M600.16 668.26v243.7h-37.54V668.26z" fill="#FFD43B" /><path d="M656.6 752.3h-75.18a18.76 18.76 0 0 1-18.78-18.74A93.72 93.72 0 0 1 656.34 640h0.26a56.16 56.16 0 1 1 0 112.3z m-53.18-37.5h53.18a18.66 18.66 0 1 0 0-37.32h-0.26a56.24 56.24 0 0 0-52.92 37.32z" fill="#FCC419" /><path d="M581.42 752.3h-75.18a56.16 56.16 0 1 1 0-112.3h0.26a93.72 93.72 0 0 1 93.7 93.56 18.76 18.76 0 0 1-18.78 18.74z m-75.18-74.8a18.66 18.66 0 1 0 0 37.32h53.18a56.24 56.24 0 0 0-52.92-37.32z" fill="#FCC419" /><path d="M647.46 818a18.72 18.72 0 0 1-13.26-5.48l-66.38-66.12a18.76 18.76 0 1 1 26.52-26.4l66.38 66a18.74 18.74 0 0 1-13.26 32z" fill="#FCC419" /><path d="M515.38 818a18.74 18.74 0 0 1-13.26-32l66.38-66a18.76 18.76 0 1 1 26.52 26.54l-66.38 66.12a18.74 18.74 0 0 1-13.26 5.34z" fill="#FCC419" /></svg>