<?xml version="1.0" standalone="no"?><!DOCTYPE svg PUBLIC "-//W3C//DTD SVG 1.1//EN" "http://www.w3.org/Graphics/SVG/1.1/DTD/svg11.dtd"><svg t="1706524671754" class="icon" viewBox="0 0 1024 1024" version="1.1" xmlns="http://www.w3.org/2000/svg" p-id="18948" xmlns:xlink="http://www.w3.org/1999/xlink" width="200" height="200"><path d="M69.339429 0.398961l80.412813 918.842736 361.370044 102.089697 362.371879-102.089697L953.906978 0.398961z" fill="#EF4A25" opacity=".99" p-id="18949"></path><path d="M512 1022.980433V0H68.709957l81.419082 924.969004z" fill="#D14222" opacity=".99" p-id="18950"></path><path d="M765.433351 289.322113H338.230303l13.068191 146.507359h401.57645l-28.148918 318.530493-213.09839 59.724468-213.102822-60.234251-13.063758-149.056277h80.412814l7.535931 86.778459 138.217835 37.772744 4.020641-1.019567 133.691844-36.753177 15.076295-173.561351H277.410909l-27.138216-310.360658h522.701021l-7.53593 81.671758z" fill="#FFFFFF" opacity=".99" p-id="18951"></path><path d="M512 208.222199v79.836537l-173.769697 1.263377 13.063758 146.507359H512v82.185974H277.410909l-27.138216-310.365091 261.727307 0.576277z m0 521.029818v84.726026l-0.376797 0.10639-213.102822-60.234251-13.063758-149.056277h80.412814l7.535931 86.778459 138.217835 37.772744 0.376797-0.093091z" fill="#E9E9E9" opacity=".99" p-id="18952"></path></svg>