<?xml version="1.0" standalone="no"?><!DOCTYPE svg PUBLIC "-//W3C//DTD SVG 1.1//EN" "http://www.w3.org/Graphics/SVG/1.1/DTD/svg11.dtd"><svg t="1727334581611" class="icon" viewBox="0 0 1024 1024" version="1.1" xmlns="http://www.w3.org/2000/svg" p-id="29055" xmlns:xlink="http://www.w3.org/1999/xlink" width="200" height="200"><path d="M174.08 635.904h53.76v53.76H174.08v-53.76z m0-123.904h53.76v53.76H174.08v-53.76z m0-124.416h53.76v53.76H174.08v-53.76z m0 372.736h53.76v53.76H174.08v-53.76zM289.792 635.904v53.76h204.288c-7.68-17.408-13.312-35.328-16.896-53.76h-187.392z m0-123.904v53.76h181.248c0.512-18.432 2.56-36.352 6.656-53.76h-187.904z m0-124.416v53.76h213.504c9.728-19.456 22.016-37.376 35.84-53.76h-249.344z m246.784 372.736h-247.296v53.76h305.664c-21.504-15.36-41.472-33.28-58.368-53.76" p-id="29056" fill="#f4ea2a"></path><path d="M698.88 912.896c0 12.288-10.752 23.04-23.04 23.04h-559.616c-12.8 0-23.04-10.24-23.04-23.04V225.792c0-12.288 10.752-23.04 23.04-23.04h53.248V148.992h-53.248c-42.496 0-76.8 34.304-76.8 76.8v686.592c0 42.496 34.816 76.8 76.8 76.8H675.84c42.496 0 76.8-34.304 76.8-76.8v-46.08c-17.92-0.512-36.352-2.56-53.76-6.656v53.248zM752.64 225.792c0-42.496-34.304-76.8-76.8-76.8h-53.248v53.76H675.84c12.288 0 23.04 10.752 23.04 23.04v64.512c17.408-4.096 35.328-6.144 53.76-6.656V225.792z" p-id="29057" fill="#f4ea2a"></path><path d="M549.888 95.232h-54.272c-12.288-43.52-52.736-75.264-99.84-75.264s-87.04 32.256-99.84 75.264h-54.272c-14.848 0-27.136 12.288-27.136 27.136V266.752h361.472v-144.384c0.512-14.848-11.264-27.136-26.112-27.136m-27.136 117.248h-253.952V148.992h50.176c14.848 0 26.624-11.776 27.136-26.624 0.512-27.136 23.04-49.152 49.664-49.152 27.136 0 49.152 22.016 49.664 49.152 0.512 14.848 12.288 26.624 27.136 26.624h50.176v63.488z m239.104 602.624c-132.096 0-239.616-107.52-239.616-239.616 0-132.096 107.52-239.616 239.616-239.616s239.616 107.52 239.616 239.616c0.512 132.096-107.52 239.616-239.616 239.616m0-425.984c-102.4 0-185.856 83.456-185.856 185.856 0 102.4 83.456 185.856 185.856 185.856s185.856-83.456 185.856-185.856c0-102.4-83.456-185.856-185.856-185.856" p-id="29058" fill="#f4ea2a"></path><path d="M755.712 675.328l-108.032-87.552 33.792-41.984 65.024 52.736 94.208-121.344 42.496 32.768-127.488 165.376z" p-id="29059" fill="#f4ea2a"></path></svg>