<svg xmlns="http://www.w3.org/2000/svg" xmlns:xlink="http://www.w3.org/1999/xlink" width="84.00021362304688" height="84.00032043457031" viewBox="0 0 84.00021362304688 84.00032043457031" fill="none"><g opacity="1"  transform="translate(0 0.00006103515625)  rotate(0)"><path id="路径 1" fill-rule="evenodd" style="fill:#58D1C1" opacity="1" d="M84 42ZM83.82 38.12C81.91 17.25 64.74 0.8 43.56 0.03C43.26 0.02 42.96 0.01 42.66 0.01C42.44 0 42.22 0 42 0C18.8 0 0 18.8 0 42C0 64.85 18.25 83.44 40.96 83.99C41.31 84 41.65 84 42 84C43.39 84 44.76 83.93 46.11 83.8C58.09 82.64 68.6 76.44 75.49 67.35C78.65 63.18 81.04 58.41 82.48 53.24C83.33 50.16 83.85 46.92 83.97 43.6C83.99 43.07 84 42.53 84 42C84 40.69 83.94 39.39 83.82 38.12Z"></path><path id="路径 2" fill-rule="evenodd" style="fill:#65A3E6" opacity="1" d="M83.9983 42.0004ZM83.8183 38.1203L47.6583 1.96035C46.5183 0.810351 45.0583 0.170351 43.5583 0.030351C43.2583 0.000350952 42.9583 -0.00964905 42.6583 0.010351C41.0483 0.070351 39.4483 0.720351 38.2183 1.96035L35.6783 4.50035L35.6183 4.56035L34.7083 5.47035L24.1583 16.0204L5.96831 34.2104C3.35831 36.8204 3.35831 41.0504 5.96831 43.6504L46.1083 83.8004C47.9783 83.6204 49.8083 83.3204 51.5883 82.9004C57.7683 81.4604 63.4283 78.6404 68.2283 74.8103C70.9483 72.6303 73.3883 70.1204 75.4883 67.3503C76.8183 65.5903 78.0183 63.7304 79.0583 61.7803C79.8883 60.2204 80.6283 58.6003 81.2683 56.9304C81.7283 55.7304 82.1283 54.5004 82.4783 53.2404C82.6683 52.5704 82.8383 51.8904 82.9883 51.2004C83.5383 48.7404 83.8683 46.2004 83.9683 43.6003C83.9783 43.4504 83.9783 43.3004 83.9883 43.1604C83.9983 42.7704 83.9983 42.3904 83.9983 42.0004C83.9983 40.6903 83.9383 39.3904 83.8183 38.1203Z"></path><path id="路径 3" fill-rule="evenodd" style="fill:#374266" opacity="1" d="M82.4793 53.2422ZM34.7093 5.47223L24.1593 16.0122L75.4893 67.3422C78.6494 63.1822 81.0493 58.4122 82.4793 53.2422L34.7093 5.47223Z"></path><path id="路径 4" fill-rule="evenodd" style="fill:#FF526C" opacity="1" d="M33.7464 39.4167ZM23.1964 28.8767C17.3764 28.8767 12.6564 33.5967 12.6564 39.4167C12.6564 45.2467 17.3764 49.9667 23.1964 49.9667C29.0264 49.9667 33.7464 45.2467 33.7464 39.4167C33.7464 33.5967 29.0264 28.8767 23.1964 28.8767Z"></path><path id="路径 5" fill-rule="evenodd" style="fill:#FFE261" opacity="1" d="M43.0366 48.7068ZM32.4866 38.1668C26.6666 38.1668 21.9466 42.8868 21.9466 48.7068C21.9466 54.5368 26.6666 59.2568 32.4866 59.2568C38.3166 59.2568 43.0366 54.5368 43.0366 48.7068C43.0366 42.8868 38.3166 38.1668 32.4866 38.1668Z"></path><path id="路径 6" fill-rule="evenodd" style="fill:#495B94" opacity="1" d="M82.475 53.2405ZM56.315 27.0805L57.555 49.4105L75.495 67.3505C78.645 63.1805 81.045 58.4105 82.475 53.2405L56.315 27.0805Z"></path></g></svg>