<svg xmlns="http://www.w3.org/2000/svg" xmlns:xlink="http://www.w3.org/1999/xlink" width="84" height="84.00027465820312" viewBox="0 0 84 84.00027465820312" fill="none"><g opacity="1"  transform="translate(0 0)  rotate(0)"><g opacity="1"  transform="translate(0 0)  rotate(0)"><path id="路径 85" fill-rule="evenodd" style="fill:#65A3E6" opacity="1" d="M84 42ZM42 0C18.8 0 0 18.8 0 42C0 65.2 18.8 84 42 84C65.2 84 84 65.2 84 42C84 18.8 65.2 0 42 0Z"></path><path id="路径 86" fill-rule="evenodd" style="fill:#F2F2F7" opacity="1" d="M75.5578 16.786ZM8.43781 16.786L8.43781 67.256C8.7578 67.676 9.0878 68.106 9.4278 68.516C9.86781 69.066 10.3378 69.596 10.8078 70.126C11.3878 70.766 11.9878 71.396 12.6078 72.006C13.0578 72.446 13.5178 72.876 13.9878 73.296C14.5778 73.816 15.1778 74.326 15.7878 74.816C16.2878 75.216 16.7978 75.606 17.3178 75.986C24.2478 81.026 32.7778 83.996 41.9978 83.996C51.4578 83.996 60.1778 80.876 67.1978 75.606C70.3578 73.226 73.1778 70.416 75.5578 67.246L75.5578 16.786L8.43781 16.786Z"></path><path id="路径 87" fill-rule="evenodd" style="fill:#E3E7FC" opacity="1" d="M75.5578 16.786ZM8.43781 16.786L8.43781 25.246C8.59781 25.266 8.76781 25.276 8.94781 25.276L75.0578 25.276C75.2278 25.276 75.3978 25.266 75.5578 25.246L75.5578 16.786L8.43781 16.786Z"></path><path id="路径 88" fill-rule="evenodd" style="fill:#FFE261" opacity="1" d="M75.0554 22.4506ZM79.0054 18.5006L79.0054 6.01061C79.0054 3.83061 77.2354 2.06061 75.0554 2.06061L8.94542 2.06061C6.76542 2.06061 4.99542 3.83061 4.99542 6.01061L4.99542 18.5006C4.99542 20.6806 6.76542 22.4506 8.94542 22.4506L75.0554 22.4506C77.2354 22.4506 79.0054 20.6806 79.0054 18.5006Z"></path><path id="路径 89" fill-rule="evenodd" style="fill:#FF526C" opacity="1" d="M19.3298 36.9002ZM17.4398 38.3802C15.7098 38.3802 15.2498 37.0702 14.5598 37.0702C14.0298 37.0702 13.5898 37.7902 13.5898 38.2602C13.5898 39.2402 15.2798 40.3602 17.4998 40.3602C19.8398 40.3602 21.5298 39.1102 21.5298 36.6902C21.5298 32.3002 16.0998 33.0302 16.0998 30.9302C16.0998 30.1102 16.7898 29.6202 18.0098 29.6202C19.4298 29.6202 19.8198 30.2602 20.3498 30.2602C20.9598 30.2602 21.2298 29.4902 21.2298 29.1002C21.2298 27.9802 19.0098 27.7402 18.0098 27.7402C16.0598 27.7402 13.8998 28.6002 13.8998 31.1302C13.8998 35.1402 19.3298 34.3602 19.3298 36.9002C19.3298 37.9202 18.4498 38.3802 17.4398 38.3802Z"></path><path id="路径 90" fill-rule="evenodd" style="fill:#FF526C" opacity="1" d="M28.9219 28.505ZM28.9219 36.435C28.9219 37.755 28.2219 38.375 27.0619 38.375C25.8919 38.375 25.1919 37.755 25.1919 36.435L25.1919 28.505C25.1919 28.025 24.6319 27.825 24.0919 27.825C23.5319 27.825 22.9919 28.025 22.9919 28.505L22.9919 36.435C22.9919 39.2649 24.7719 40.3149 27.0619 40.3149C29.3319 40.3149 31.1219 39.2649 31.1219 36.435L31.1219 28.505C31.1219 28.025 30.5619 27.825 30.0219 27.825C29.4619 27.825 28.9219 28.025 28.9219 28.505L28.9219 36.435Z"></path><path id="路径 91" fill-rule="evenodd" style="fill:#FF526C" opacity="1" d="M38.9553 39.5149ZM40.2253 40.205C40.7653 40.205 41.3253 39.975 41.3253 39.5149L41.3253 28.505C41.3253 28.025 40.7653 27.825 40.2253 27.825C39.6653 27.825 39.1153 28.025 39.1153 28.505L39.1153 35.3149L35.8453 28.995C35.3253 27.995 35.0053 27.825 34.2053 27.825C33.6453 27.825 33.1053 28.045 33.1053 28.515L33.1053 39.5149C33.1053 39.975 33.6453 40.205 34.2053 40.205C34.7453 40.205 35.3053 39.975 35.3053 39.5149L35.3053 32.705L38.9553 39.5149C39.2353 40.035 39.6953 40.205 40.2253 40.205Z"></path><path id="路径 92" fill-rule="evenodd" style="fill:#FF526C" opacity="1" d="M44.3245 27.825C43.7445 27.825 43.3545 28.145 43.3545 28.505L43.3545 39.535C43.3545 39.885 43.7445 40.205 44.3245 40.205L47.3145 40.205C49.5545 40.205 51.3045 39.155 51.3045 36.325L51.3045 31.705C51.3045 28.875 49.5545 27.825 47.3145 27.825L44.3245 27.825ZM47.3174 38.2763C48.4374 38.2763 49.0974 37.6463 49.0974 36.3263L49.0974 31.7063C49.0974 30.3863 48.4374 29.7563 47.3174 29.7563L45.5574 29.7563L45.5574 38.2763L47.3174 38.2763Z"></path><path id="路径 93" fill-rule="evenodd" style="fill:#FF526C" opacity="1" d="M53.7063 40.2133C54.0763 40.2133 54.3663 40.0933 54.4563 39.7633L55.0963 37.5133L58.9763 37.5133L59.6163 39.7633C59.7063 40.0933 59.9863 40.2133 60.3663 40.2133C60.9563 40.2133 61.7563 39.8233 61.7563 39.2933C61.7563 39.2433 61.7363 39.1933 61.7163 39.1233L58.4463 28.4633C58.2963 27.9633 57.6663 27.7233 57.0263 27.7233C56.3963 27.7233 55.7763 27.9633 55.6163 28.4633L52.3463 39.1233C52.3363 39.1933 52.3163 39.2633 52.3163 39.2933C52.3163 39.8333 53.1163 40.2133 53.7063 40.2133ZM55.5526 35.7863L58.5026 35.7863L57.0226 30.5863L55.5526 35.7863Z"></path><path id="路径 94" fill-rule="evenodd" style="fill:#FF526C" opacity="1" d="M64.601 35.2449ZM64.601 39.5149C64.601 39.975 65.161 40.205 65.701 40.205C66.261 40.205 66.801 39.975 66.801 39.5149L66.801 35.2449C66.801 35.165 66.841 35.075 66.871 35.025L70.361 28.965C70.411 28.875 70.411 28.795 70.411 28.735C70.411 28.195 69.551 27.825 68.951 27.825C68.601 27.825 68.441 27.975 68.291 28.265L65.701 33.165L63.121 28.265C62.971 27.965 62.801 27.825 62.451 27.825C61.851 27.825 60.991 28.195 60.991 28.735C60.991 28.795 61.011 28.875 61.041 28.965L64.551 35.025C64.581 35.075 64.601 35.165 64.601 35.2449L64.601 39.5149Z"></path><path id="路径 95" fill-rule="evenodd" style="fill:#374266" opacity="1" d="M31.1254 46.7032ZM22.0254 54.4932C22.0254 56.7732 23.0854 57.4532 24.5254 57.4532C26.3454 57.4532 27.3954 56.4332 27.3954 55.4232C27.3954 52.7932 29.0954 51.6932 31.1654 51.6932C33.9554 51.6932 35.1054 53.7332 35.1054 55.4632C35.1054 61.4332 21.4754 65.0232 21.4754 71.7932L21.4754 75.9032C21.4754 76.9632 22.9154 77.6332 23.8854 77.6332L38.9554 77.6332C39.8854 77.6332 40.6854 76.4532 40.6854 75.1832C40.6854 73.9132 39.8854 72.8132 38.9554 72.8132L27.1854 72.8132L27.1854 71.7932C27.1854 67.3932 40.6054 64.4332 40.6054 55.2932C40.6054 49.9232 36.0354 46.7032 31.1254 46.7032C26.4254 46.7032 22.0254 49.6632 22.0254 54.4932Z"></path><path id="路径 96" fill-rule="evenodd" style="fill:#374266" opacity="1" d="M57.0246 68.4932ZM52.4946 73.0632C49.7846 73.0632 48.0946 71.8832 48.0946 69.9832C48.0946 68.6232 47.5046 68.0332 45.2546 68.0332C43.3546 68.0332 42.6346 68.4932 42.6346 70.1932C42.6346 73.6132 45.4246 77.8932 52.3646 77.8932C57.9546 77.8932 62.5246 75.3132 62.5246 68.4932L62.5246 67.6932C62.5246 64.1832 60.7046 62.2732 58.2046 61.3032C60.2846 60.3332 61.5046 57.6232 61.5046 54.2832C61.5046 48.6532 57.6946 46.7032 52.5746 46.7032C45.4246 46.7032 43.3146 51.0632 43.3146 54.0632C43.3146 55.8432 43.6946 56.4332 46.1446 56.4332C48.1746 56.4332 48.7746 55.5932 48.7746 54.3232C48.7746 52.6232 49.7846 51.4832 52.5346 51.4832C54.8246 51.4832 56.2646 52.4132 56.2646 55.2132C56.2646 58.8532 54.4846 59.3532 52.3646 59.3532C51.1446 59.3532 50.7146 60.4532 50.7146 61.5132C50.7146 62.6132 51.1446 63.6732 52.3646 63.6732C55.0746 63.6732 57.0246 64.5632 57.0246 67.6932L57.0246 68.4932C57.0246 71.7132 55.6646 73.0632 52.4946 73.0632Z"></path><path id="路径 97" fill-rule="evenodd" style="fill:#374266" opacity="1" d="M36.6021 12.258ZM32.0621 7.71796C30.7021 7.71796 29.4921 8.30796 28.6621 9.25796C27.9521 10.048 27.5221 11.108 27.5221 12.258C27.5221 13.408 27.9521 14.458 28.6621 15.258C29.4921 16.198 30.7021 16.798 32.0621 16.798C34.5721 16.798 36.6021 14.768 36.6021 12.258C36.6021 9.74796 34.5721 7.71796 32.0621 7.71796Z"></path><path id="路径 98" fill-rule="evenodd" style="fill:#374266" opacity="1" d="M56.4786 12.258ZM51.9386 7.71796C50.5786 7.71796 49.3686 8.30796 48.5386 9.25796C47.8286 10.048 47.3986 11.108 47.3986 12.258C47.3986 13.408 47.8286 14.458 48.5386 15.258C49.3686 16.198 50.5786 16.798 51.9386 16.798C54.4486 16.798 56.4786 14.768 56.4786 12.258C56.4786 9.74796 54.4486 7.71796 51.9386 7.71796Z"></path></g></g></svg>