<svg xmlns="http://www.w3.org/2000/svg" xmlns:xlink="http://www.w3.org/1999/xlink" width="84" height="84" viewBox="0 0 84 84" fill="none"><g opacity="1"  transform="translate(0 0)  rotate(0)"><mask id="mask-0" fill="white"><path d="M0 84L84 84L84 0L0 0L0 84Z"  ></path></mask><path d="M0 84L84 84L84 0L0 0L0 84Z"  ></path><g mask="url(#mask-0)"><g opacity="1"  transform="translate(-0.000030517578125 -0.00006103515625)  rotate(0)"><path id="路径 143" fill-rule="evenodd" style="fill:#58D1C1" opacity="1" d="M84 56.19ZM75.17 21.71C74.28 20.19 73.34 18.73 72.34 17.34C69.8 13.78 66.91 10.68 63.75 8.11C63.26 7.72 62.77 7.33 62.27 6.97C56.26 2.53 49.35 0 42 0C34.65 0 27.74 2.53 21.73 6.97C21.23 7.34 20.73 7.72 20.24 8.12C20.23 8.13 20.22 8.13 20.21 8.14C18.38 9.64 16.63 11.32 14.99 13.16C13.82 14.47 12.71 15.87 11.66 17.34C11.28 17.87 10.91 18.4 10.55 18.95C3.99 28.86 0 41.9 0 56.19C0 70.47 3.98 83.51 10.55 93.43C10.91 93.97 11.28 94.51 11.66 95.04C12.56 96.3 13.5 97.5 14.48 98.64C19.54 104.51 25.66 108.79 32.4 110.9C35.48 111.87 38.7 112.38 42 112.38C53.93 112.38 64.7 105.72 72.34 95.04C73.34 93.65 74.28 92.19 75.17 90.67C80.7 81.15 84 69.18 84 56.19C84 43.19 80.7 31.23 75.17 21.71Z"></path><path id="路径 144" fill-rule="evenodd" style="fill:#ED8C40" opacity="1" d="M72.339 15.3077ZM66.109 6.96771L17.889 6.96771C17.719 6.96771 17.559 6.97771 17.389 6.99771C15.039 7.24771 13.059 9.23771 12.169 12.0177C11.839 13.0177 11.659 14.1377 11.659 15.3077L11.659 95.0377C12.559 96.2977 13.499 97.4977 14.489 98.6377C19.539 104.518 25.659 108.798 32.399 110.898C35.479 111.868 38.699 112.378 41.999 112.378C53.929 112.378 64.699 105.728 72.339 95.0377L72.339 15.3077C72.339 10.6977 69.549 6.96771 66.109 6.96771Z"></path><path id="路径 145" fill-rule="evenodd" style="fill:#B55D14" opacity="1" d="M51.0682 21.4164ZM18.8582 21.4164L18.8582 95.0364L63.0882 95.0364L63.0882 21.4164L51.0682 21.4164L18.8582 21.4164Z"></path><path id="路径 146" fill-rule="evenodd" style="fill:#F2F2F7" opacity="1" d="M52.0871 21.4164ZM19.8871 21.4164L19.8871 95.0364L64.1171 95.0364L64.1171 21.4164L52.0871 21.4164L19.8871 21.4164Z"></path><path id="路径 147" fill-rule="evenodd" style="fill:#374266" opacity="1" d="M25.2792 33.4573C24.5592 33.4573 23.9892 34.2273 23.9892 35.1773L23.9892 47.8173C23.9892 48.7673 24.5592 49.5373 25.2792 49.5373L34.7292 49.5373C35.4292 49.5373 36.0092 48.7673 36.0092 47.8173L36.0092 35.1773C36.0092 35.0273 35.9992 34.8873 35.9692 34.7573C35.8292 34.0073 35.3292 33.4573 34.7292 33.4573L25.2792 33.4573ZM33.4414 36.8961L26.5614 36.8961L26.5614 46.0961L33.4414 46.0961L33.4414 36.8961Z"></path><path id="路径 148" fill-rule="evenodd" style="fill:#374266" opacity="1" d="M23.9892 54.1394L23.9892 66.7794C23.9892 67.7294 24.5592 68.4994 25.2792 68.4994L34.7292 68.4994C35.4292 68.4994 36.0092 67.7294 36.0092 66.7794L36.0092 54.1394C36.0092 53.1894 35.4292 52.4194 34.7292 52.4194L25.2792 52.4194C24.5592 52.4194 23.9892 53.1894 23.9892 54.1394ZM33.4414 55.8594L26.5614 55.8594L26.5614 65.0594L33.4414 65.0594L33.4414 55.8594Z"></path><path id="路径 149" fill-rule="evenodd" style="fill:#374266" opacity="1" d="M23.9892 73.1033L23.9892 85.7433C23.9892 86.6933 24.5592 87.4633 25.2792 87.4633L34.7292 87.4633C35.4292 87.4633 36.0092 86.6933 36.0092 85.7433L36.0092 73.1033C36.0092 72.1533 35.4292 71.3833 34.7292 71.3833L25.2792 71.3833C24.5592 71.3833 23.9892 72.1533 23.9892 73.1033ZM33.4414 74.8239L26.5614 74.8239L26.5614 84.0239L33.4414 84.0239L33.4414 74.8239Z"></path><path id="路径 150" fill-rule="evenodd" style="fill:#374266" opacity="1" d="M58.2004 46.7859ZM59.4804 45.0659C59.4804 44.1159 58.9104 43.3459 58.2004 43.3459L40.4604 43.3459C39.7504 43.3459 39.1704 44.1159 39.1704 45.0659C39.1704 46.0159 39.7504 46.7859 40.4604 46.7859L58.2004 46.7859C58.9104 46.7859 59.4804 46.0159 59.4804 45.0659Z"></path><path id="路径 151" fill-rule="evenodd" style="fill:#374266" opacity="1" d="M51.2604 39.6481ZM52.5404 37.9281C52.5404 36.9781 51.9604 36.2081 51.2604 36.2081L40.4604 36.2081C39.7504 36.2081 39.1704 36.9781 39.1704 37.9281C39.1704 38.8781 39.7504 39.6481 40.4604 39.6481L51.2604 39.6481C51.9604 39.6481 52.5404 38.8781 52.5404 37.9281Z"></path><path id="路径 152" fill-rule="evenodd" style="fill:#374266" opacity="1" d="M58.2004 65.7492ZM59.4804 64.0292C59.4804 63.0792 58.9104 62.3092 58.2004 62.3092L40.4604 62.3092C39.7504 62.3092 39.1704 63.0792 39.1704 64.0292C39.1704 64.9792 39.7504 65.7492 40.4604 65.7492L58.2004 65.7492C58.9104 65.7492 59.4804 64.9792 59.4804 64.0292Z"></path><path id="路径 153" fill-rule="evenodd" style="fill:#374266" opacity="1" d="M51.2604 58.6114ZM52.5404 56.8914C52.5404 55.9414 51.9604 55.1714 51.2604 55.1714L40.4604 55.1714C39.7504 55.1714 39.1704 55.9414 39.1704 56.8914C39.1704 57.8414 39.7504 58.6114 40.4604 58.6114L51.2604 58.6114C51.9604 58.6114 52.5404 57.8414 52.5404 56.8914Z"></path><path id="路径 154" fill-rule="evenodd" style="fill:#374266" opacity="1" d="M58.2004 84.7125ZM59.4804 82.9925C59.4804 82.0425 58.9104 81.2725 58.2004 81.2725L40.4604 81.2725C39.7504 81.2725 39.1704 82.0425 39.1704 82.9925C39.1704 83.9425 39.7504 84.7125 40.4604 84.7125L58.2004 84.7125C58.9104 84.7125 59.4804 83.9425 59.4804 82.9925Z"></path><path id="路径 155" fill-rule="evenodd" style="fill:#374266" opacity="1" d="M51.2604 77.5748ZM52.5404 75.8548C52.5404 74.9048 51.9604 74.1348 51.2604 74.1348L40.4604 74.1348C39.7504 74.1348 39.1704 74.9048 39.1704 75.8548C39.1704 76.8048 39.7504 77.5748 40.4604 77.5748L51.2604 77.5748C51.9604 77.5748 52.5404 76.8048 52.5404 75.8548Z"></path><path id="路径 156" fill-rule="evenodd" style="fill:#FF526C" opacity="1" d="M30.4111 45.2402ZM30.5711 45.2302C31.0511 45.1602 31.4911 44.8002 31.7411 44.2402L39.1911 27.5402C39.6311 26.5602 39.3911 25.3002 38.6511 24.7102C37.9211 24.1302 36.9811 24.4502 36.5411 25.4302L30.1511 39.7402L27.0411 35.2202C26.4611 34.3802 25.4911 34.3202 24.8611 35.1002C24.2311 35.8702 24.1911 37.1702 24.7711 38.0102L29.2811 44.5702C29.5711 45.0002 29.9811 45.2402 30.4111 45.2402C30.4611 45.2402 30.5211 45.2402 30.5711 45.2302Z"></path><path id="路径 157" fill-rule="evenodd" style="fill:#374266" opacity="1" d="M50.9153 6.75067ZM49.0053 4.19067L35.7353 4.19067C34.2753 4.19067 33.0853 5.78067 33.0853 7.74067L33.0853 20.7407C33.0853 22.1607 33.9453 23.3007 34.9953 23.3007L49.0053 23.3007C50.0553 23.3007 50.9153 22.1607 50.9153 20.7407L50.9153 6.75067C50.9153 5.33067 50.0553 4.19067 49.0053 4.19067Z"></path><path id="路径 158" fill-rule="evenodd" style="fill:#495B94" opacity="1" d="M50.9112 6.75067ZM49.0012 4.19067L44.8812 4.19067L40.4812 23.3007L49.0012 23.3007C50.0612 23.3007 50.9112 22.1607 50.9112 20.7407L50.9112 6.75067C50.9112 5.33067 50.0612 4.19067 49.0012 4.19067Z"></path></g></g></g></svg>