<?xml version="1.0" standalone="no"?><!DOCTYPE svg PUBLIC "-//W3C//DTD SVG 1.1//EN" "http://www.w3.org/Graphics/SVG/1.1/DTD/svg11.dtd"><svg t="1695377154042" class="icon" viewBox="0 0 1024 1024" version="1.1" xmlns="http://www.w3.org/2000/svg" p-id="14238" xmlns:xlink="http://www.w3.org/1999/xlink" width="128" height="128"><path d="M533.704 575.012v82.05l-0.061-0.001c0.04 0.65 0.061 1.301 0.061 1.954 0 46.394-103.356 84.003-230.852 84.003C175.356 743.018 72 705.408 72 659.015c0-0.653 0.02-1.304 0.061-1.954H72v-82.049h461.704z" fill="#F8BC35" p-id="14239"></path><path d="M72 580.873a230.852 84.003 0 1 0 461.704 0 230.852 84.003 0 1 0-461.704 0Z" fill="#FFE68A" p-id="14240"></path><path d="M569.22 489.055v82.05h-0.062c0.041 0.649 0.062 1.3 0.062 1.954 0 46.393-103.356 84.003-230.852 84.003-127.496 0-230.852-37.61-230.852-84.003 0-0.654 0.02-1.305 0.06-1.955l-0.06 0.001v-82.05H569.22z" fill="#F8BC35" p-id="14241"></path><path d="M107.516 487.102a230.852 84.003 0 1 0 461.704 0 230.852 84.003 0 1 0-461.704 0Z" fill="#FFE68A" p-id="14242"></path><path d="M533.704 403.099v82.05l-0.061-0.001c0.04 0.65 0.061 1.3 0.061 1.954 0 46.394-103.356 84.003-230.852 84.003C175.356 571.105 72 533.495 72 487.102c0-0.653 0.02-1.305 0.061-1.954H72v-82.05h461.704z" fill="#F7BC35" p-id="14243"></path><path d="M72 408.96a230.852 84.003 0 1 0 461.704 0 230.852 84.003 0 1 0-461.704 0Z" fill="#FFE68A" p-id="14244"></path><path d="M569.22 317.142v82.05h-0.062c0.041 0.649 0.062 1.3 0.062 1.953 0 46.394-103.356 84.003-230.852 84.003-127.496 0-230.852-37.61-230.852-84.003 0-0.653 0.02-1.304 0.06-1.954h-0.06V317.143H569.22z" fill="#F9BB31" p-id="14245"></path><path d="M107.516 323.003a230.852 84.003 0 1 0 461.704 0 230.852 84.003 0 1 0-461.704 0Z" fill="#FAE07C" p-id="14246"></path><path d="M896.753 617.99v82.05h-0.06c0.04 0.649 0.06 1.3 0.06 1.953 0 46.394-103.356 84.003-230.852 84.003-127.496 0-230.852-37.609-230.852-84.003 0-0.653 0.02-1.304 0.062-1.954h-0.062V617.99h461.704z" fill="#F9BB31" p-id="14247"></path><path d="M435.049 623.851a230.852 84.003 0 1 0 461.704 0 230.852 84.003 0 1 0-461.704 0Z" fill="#FAE07C" p-id="14248"></path><path d="M924.377 539.848v82.05l-0.062-0.001c0.041 0.65 0.062 1.3 0.062 1.954 0 46.394-103.356 84.003-230.852 84.003-127.496 0-230.852-37.61-230.852-84.003 0-0.653 0.02-1.304 0.06-1.954h-0.06v-82.049h461.704z" fill="#F9BB31" p-id="14249"></path><path d="M462.673 545.709a230.852 84.003 0 1 0 461.704 0 230.852 84.003 0 1 0-461.704 0Z" fill="#FAE07C" p-id="14250"></path><path d="M202.225 317.142a134.17 46.885 0 1 0 268.34 0 134.17 46.885 0 1 0-268.34 0Z" fill="#FEB721" p-id="14251"></path><path d="M952 457.799v82.049h-0.061c0.04 0.65 0.061 1.3 0.061 1.954 0 46.393-103.356 84.003-230.852 84.003-127.496 0-230.852-37.61-230.852-84.003 0-0.654 0.02-1.305 0.061-1.955l-0.061 0.001v-82.05H952z" fill="#F9BB31" p-id="14252"></path><path d="M490.296 463.659a230.852 84.003 0 1 0 461.704 0 230.852 84.003 0 1 0-461.704 0Z" fill="#FAE07C" p-id="14253"></path><path d="M585.005 457.799a134.17 46.885 0 1 0 268.34 0 134.17 46.885 0 1 0-268.34 0Z" fill="#FEB721" p-id="14254"></path><path d="M304.825 289.793h19.731l15.785 11.72 15.785-11.72h19.73L352.18 313.235h35.516v15.629h-31.57v27.35h-27.623v-27.35h-35.515V313.235h35.515z" fill="#EB880A" p-id="14255"></path><path d="M300.879 285.885h19.73l15.786 11.722 15.784-11.722h19.731l-23.677 23.443h35.516v15.629h-31.57v27.35h-27.623v-27.35H289.04V309.328h35.516z" fill="#FDE194" p-id="14256"></path><path d="M687.605 426.542h19.731l15.785 11.721 15.785-11.721h19.73l-23.676 23.442h35.515v15.629h-31.57v27.35h-27.622v-27.35h-35.516v-15.629h35.516z" fill="#EB880A" p-id="14257"></path><path d="M683.66 422.635h19.73l15.785 11.72 15.785-11.72h19.73l-23.677 23.442h35.516v15.629h-31.57v27.35h-27.623v-27.35h-35.515v-15.629h35.515z" fill="#FDE194" p-id="14258"></path></svg>