<?xml version="1.0" standalone="no"?><!DOCTYPE svg PUBLIC "-//W3C//DTD SVG 1.1//EN" "http://www.w3.org/Graphics/SVG/1.1/DTD/svg11.dtd"><svg t="1706524615735" class="icon" viewBox="0 0 1024 1024" version="1.1" xmlns="http://www.w3.org/2000/svg" p-id="11673" xmlns:xlink="http://www.w3.org/1999/xlink" width="200" height="200"><path d="M512 512m-512 0a512 512 0 1 0 1024 0 512 512 0 1 0-1024 0Z" fill="#4AB8A1" p-id="11674"></path><path d="M768.096 412.304c-116.84-123.744-215.968-35.392-264.616-35.392-48.608 0-193.984-106.448-282.344 84.048-59.208 127.6 50.608 306.224 72.928 336 86.928 115.832 154.288 35.392 215.016 35.392 80.44 0 152.408 122.848 279.096-149.416-72.448-43.336-98.608-87.592-98.608-143.304-0.008-55.688 35.528-97.224 78.528-127.328zM636.888 148c-61.72 5.408-145.568 63.448-141.664 158.592C566.8 315.024 651.84 227.584 636.888 148z" fill="#F5F5F5" p-id="11675"></path></svg>