<svg xmlns="http://www.w3.org/2000/svg" xmlns:xlink="http://www.w3.org/1999/xlink" fill="none" version="1.1" width="54" height="40" viewBox="0 0 54 40"><defs><clipPath id="master_svg0_15_648"><rect x="0" y="0" width="54" height="40" rx="0"/></clipPath></defs><g clip-path="url(#master_svg0_15_648)"><g><path d="M6.300035078125,8.6667240625L15.750055078125,13.3333640625L25.168555078125,3.5667230625C26.065855078125,2.6353110625,27.934255078125,2.6353110625,28.831555078125,3.5667230625L38.250055078125,13.3333640625L47.700055078125,8.6667240625C48.430255078125,8.3068340625,49.376355078125,8.294094062500001,50.123755078125,8.6340940625C50.871255078125,8.974084062500001,51.283755078125,9.6048340625,51.180755078125,10.2500540625L47.484055078125,33.5283640625C47.350455078125,34.3676640625,46.390355078125,35.0000640625,45.249755078125,35.0000640625L8.750285078125,35.0000640625C7.609595078125,34.9999640625,6.649495078125,34.3675640625,6.516035078125,33.5283640625L2.819284678125,10.248394062500001C2.717295578125,9.603454062499999,3.130264078125,8.9733640625,3.877485078125,8.6338240625C4.624705078125,8.294284062500001,5.570115078125,8.3071240625,6.300035078125,8.6667240625ZM27.000055078125,25.0000640625C29.485355078125,25.0000640625,31.500055078125,23.5076640625,31.500055078125,21.6667640625C31.500055078125,19.8257640625,29.485355078125,18.3333640625,27.000055078125,18.3333640625C24.514755078125,18.3333640625,22.500055078125,19.8257640625,22.500055078125,21.6667640625C22.500055078125,23.5076640625,24.514755078125,25.0000640625,27.000055078125,25.0000640625Z" fill="#FFFFFF" fill-opacity="1"/></g></g></svg>