<svg xmlns="http://www.w3.org/2000/svg" xmlns:xlink="http://www.w3.org/1999/xlink" fill="none" version="1.1" width="51" height="46" viewBox="0 0 51 46"><defs><clipPath id="master_svg0_15_644"><rect x="0" y="0" width="51" height="46" rx="0"/></clipPath></defs><g clip-path="url(#master_svg0_15_644)"><g><path d="M35.7500634765625,3.8333758513175C43.7632634765625,3.8299280234375,50.6911634765625,8.874164023437501,52.3774634765625,15.9399740234375C54.0637634765625,23.0056740234375,50.0505634765625,30.1742740234375,42.7455634765625,33.1449740234375C37.8483634765625,42.9102740234375,23.6379634765625,45.2467740234375,15.2355234765625,37.6680740234375C6.8330834765625,30.0893740234375,9.4234794765625,17.2721740234375,20.2502934765625,12.8551240234375C23.0010634765625,7.3630940234375,29.0652634765625,3.8333763082775,35.7500634765625,3.8333758513175ZM29.3750634765625,17.2500740234375L25.125063476562502,17.2500740234375L25.125063476562502,19.1666740234375C22.2538634765625,19.160374023437498,19.8966834765625,21.2128740234375,19.8024634765625,23.8010740234375C19.7082434765625,26.3893740234375,21.9110634765625,28.5768740234375,24.7765634765625,28.7404740234375L25.125063476562502,28.7500740234375L29.3750634765625,28.7500740234375L29.5662634765625,28.7653740234375C30.0718634765625,28.8479740234375,30.4394634765625,29.2449740234375,30.4394634765625,29.7083740234375C30.4394634765625,30.1717740234375,30.0718634765625,30.5687740234375,29.5662634765625,30.6513740234375L29.3750634765625,30.6666740234375L20.875063476562502,30.6666740234375L20.875063476562502,34.5000740234375L25.125063476562502,34.5000740234375L25.125063476562502,36.4166740234375L29.3750634765625,36.4166740234375L29.3750634765625,34.5000740234375C32.2461634765625,34.5063740234375,34.6033634765625,32.4538740234375,34.6976634765625,29.8656740234375C34.7918634765625,27.2773740234375,32.5889634765625,25.0898740234375,29.7235634765625,24.9262740234375L29.3750634765625,24.9166740234375L25.125063476562502,24.9166740234375L24.9337634765625,24.9013740234375C24.4282634765625,24.8187740234375,24.0605634765625,24.4217740234375,24.0605634765625,23.9583740234375C24.0605634765625,23.4949740234375,24.4282634765625,23.0979740234375,24.9337634765625,23.0153740234375L25.125063476562502,23.0000740234375L33.6250634765625,23.0000740234375L33.6250634765625,19.1666740234375L29.3750634765625,19.1666740234375L29.3750634765625,17.2500740234375ZM35.7500634765625,7.6667140234375C32.1078634765625,7.6628640234375,28.6386634765625,9.0676040234375,26.2215634765625,11.5249640234375C36.4079634765625,10.9672040234375,44.8398634765625,18.573374023437502,44.2202634765625,27.7610740234375C48.1759634765625,24.5888740234375,49.5472634765625,19.5422740234375,47.6662634765625,15.0798740234375C45.7843634765625,10.616844023437501,41.0421634765625,7.6667140234375,35.7500634765625,7.6667140234375Z" fill="#FFFFFF" fill-opacity="1"/></g></g></svg>