<svg xmlns="http://www.w3.org/2000/svg" xmlns:xlink="http://www.w3.org/1999/xlink" fill="none" version="1.1" width="20.00001335144043" height="20.000022888183594" viewBox="0 0 20.00001335144043 20.000022888183594"><g><path d="M3.373,2.51001C5.1997,0.889389,7.55803,-0.00383615,10,0.0000121593C15.523,0.0000121593,20,4.47701,20,10C20.0033,12.0439,19.3772,14.0393,18.207,15.715L15.5,10L18,10C18.0001,6.74637,16.0296,3.8168,13.016,2.59017C10.0025,1.36354,6.5462,2.08422,4.274,4.41301L3.373,2.51001L3.373,2.51001ZM16.627,17.49C14.8003,19.1106,12.442,20.0039,10,20C4.477,20,0,15.523,0,10C0,7.87501,0.663,5.90501,1.793,4.28501L4.5,10L2,10C1.99994,13.2537,3.97041,16.1832,6.98398,17.4099C9.99754,18.6365,13.4538,17.9158,15.726,15.587L16.627,17.49L16.627,17.49ZM6.5,12L12,12C12.2761,12,12.5,11.7762,12.5,11.5C12.5,11.2239,12.2761,11,12,11L8,11C6.61929,11,5.5,9.88072,5.5,8.50001C5.5,7.1193,6.61929,6.00001,8,6.00001L9,6.00001L9,5.00001L11,5.00001L11,6.00001L13.5,6.00001L13.5,8.00001L8,8.00001C7.72386,8.00001,7.5,8.22387,7.5,8.50001C7.5,8.77615,7.72386,9.00001,8,9.00001L12,9.00001C13.3807,9.00001,14.5,10.1193,14.5,11.5C14.5,12.8807,13.3807,14,12,14L11,14L11,15L9,15L9,14L6.5,14L6.5,12Z" fill="#FFFFFF" fill-opacity="1"/></g></svg>