<svg xmlns="http://www.w3.org/2000/svg" xmlns:xlink="http://www.w3.org/1999/xlink" fill="none" version="1.1" width="38" height="44" viewBox="0 0 38 44"><defs><clipPath id="master_svg0_15_640"><rect x="0" y="0" width="38" height="44" rx="0"/></clipPath></defs><g clip-path="url(#master_svg0_15_640)"><g><path d="M20.5833740234375,31.053L20.5833740234375,34.8333L28.5000740234375,34.8333L28.5000740234375,38.5L9.5000440234375,38.5L9.5000440234375,34.8333L17.4166740234375,34.8333L17.4166740234375,31.053C11.0831740234375,30.1281,6.3333740234375,23.8914,6.3333740234375,16.5L6.3333740234375,5.5L31.6666740234375,5.5L31.6666740234375,16.5C31.6665740234375,23.8915,26.9167740234375,30.1283,20.5833740234375,31.053ZM1.5833740234375,9.16667L4.7500440234375,9.16667L4.7500440234375,16.5L1.5833740234375,16.5L1.5833740234375,9.16667ZM33.2500740234375,9.16667L36.4166740234375,9.16667L36.4166740234375,16.5L33.2500740234375,16.5L33.2500740234375,9.16667Z" fill="#FFFFFF" fill-opacity="1"/></g></g></svg>