<svg xmlns="http://www.w3.org/2000/svg" xmlns:xlink="http://www.w3.org/1999/xlink" fill="none" version="1.1" width="43.33333206176758" height="38.333335876464844" viewBox="0 0 43.33333206176758 38.333335876464844"><defs><clipPath id="master_svg0_15_616"><rect x="0" y="0" width="43.33333206176758" height="38.333335876464844" rx="0"/></clipPath></defs><g clip-path="url(#master_svg0_15_616)"><g><path d="M21.6667,0Q27.6467,0,36.985,5.61583Q43.3333,13.8767,43.3333,19.1667C43.3333,29.7467,33.6267,38.3333,21.6667,38.3333C9.70667,38.3333,0,29.7467,0,19.1667C0,8.58667,9.70667,0,21.6667,0ZM8.7165,25.714C11.8972,29.9115,16.6725,32.5833,22.0133,32.5833C27.352,32.5833,32.1295,29.9134,35.308,25.714C31.7021,22.7328,26.9489,21.0772,22.0133,21.0833C17.077,21.0767,12.3229,22.7324,8.7165,25.714ZM21.6667,17.25C25.2565,17.25,28.1667,14.6756,28.1667,11.5C28.1667,8.32436,25.2565,5.75,21.6667,5.75C18.0768,5.75,15.1667,8.32436,15.1667,11.5C15.1667,14.6756,18.0768,17.25,21.6667,17.25Z" fill="#D8D8D8" fill-opacity="1"/></g></g></svg>