<svg xmlns="http://www.w3.org/2000/svg" xmlns:xlink="http://www.w3.org/1999/xlink" fill="none" version="1.1" width="64" height="54" viewBox="0 0 64 54"><defs><clipPath id="master_svg0_15_620"><rect x="0" y="0" width="64" height="54" rx="0"/></clipPath></defs><g clip-path="url(#master_svg0_15_620)"><g><path d="M10.66664298828125,9L21.33331298828125,9L21.33331298828125,13.5L10.66664298828125,13.5L10.66664298828125,9ZM42.66661298828125,42.75L53.33331298828125,42.75L53.33331298828125,47.25L42.66661298828125,47.25L42.66661298828125,42.75ZM5.33331298828125,20.25L32.00001298828125,20.25L32.00001298828125,24.75L5.33331298828125,24.75L5.33331298828125,20.25ZM37.33331298828125,20.25L53.33331298828125,20.25L53.33331298828125,24.75L37.33331298828125,24.75L37.33331298828125,20.25ZM10.66664298828125,31.5L26.66661298828125,31.5L26.66661298828125,36L10.66664298828125,36L10.66664298828125,31.5ZM32.00001298828125,31.5L58.66661298828125,31.5L58.66661298828125,36L32.00001298828125,36L32.00001298828125,31.5ZM26.66661298828125,9L58.66661298828125,9L58.66661298828125,13.5L26.66661298828125,13.5L26.66661298828125,9ZM5.33331298828125,42.75L37.33331298828125,42.75L37.33331298828125,47.25L5.33331298828125,47.25L5.33331298828125,42.75Z" fill="#FFFFFF" fill-opacity="0.8392156958580017"/></g></g></svg>