<?xml version="1.0" standalone="no"?><!DOCTYPE svg PUBLIC "-//W3C//DTD SVG 1.1//EN" "http://www.w3.org/Graphics/SVG/1.1/DTD/svg11.dtd"><svg class="icon" width="200px" height="200.00px" viewBox="0 0 1024 1024" version="1.1" xmlns="http://www.w3.org/2000/svg"><path d="M0 0h1024v1024H0z" fill="#D8D8D8" fill-opacity=".01" /><path d="M90.352941 331.294118l115.2-184.32A120.470588 120.470588 0 0 1 307.712 90.352941h408.576a120.470588 120.470588 0 0 1 102.159059 56.621177L933.647059 331.294118v481.882353a120.470588 120.470588 0 0 1-120.470588 120.470588H210.823529a120.470588 120.470588 0 0 1-120.470588-120.470588V331.294118z m212.931765-180.705883a60.235294 60.235294 0 0 0-50.115765 26.804706L150.588235 331.294118h722.82353l-102.580706-153.901177A60.235294 60.235294 0 0 0 720.715294 150.588235H303.284706zM512 589.884235l-85.172706-85.202823a30.117647 30.117647 0 1 0-42.61647 42.61647L469.413647 632.470588l-85.202823 85.172706a30.117647 30.117647 0 0 0 42.61647 42.616471L512 675.056941l85.172706 85.202824a30.117647 30.117647 0 0 0 42.61647-42.616471L554.586353 632.470588l85.202823-85.172706a30.117647 30.117647 0 0 0-42.61647-42.61647L512 589.884235z" fill="#BB0C0C" /></svg>