<svg xmlns="http://www.w3.org/2000/svg" xmlns:xlink="http://www.w3.org/1999/xlink" fill="none" version="1.1" width="90" height="82.687744140625" viewBox="0 0 90 82.687744140625"><defs><mask id="master_svg0_15_6764"><g><rect x="56.842105865478516" y="50.290924072265625" width="33.157894134521484" height="32.396812438964844" rx="0" fill="#FFFFFF" fill-opacity="1"/></g></mask><mask id="master_svg1_15_6760"><g><path d="M61.57894694320679,61.725088914604186L63.94736694320679,61.725088914604186L63.94736694320679,59.819398914604186C63.94736694320679,55.609528914604184,68.18897694320678,52.19661891460419,73.42102694320678,52.19661891460419C78.65312694320679,52.19661891460419,82.89472694320679,55.609528914604184,82.89472694320679,59.819398914604186L82.89472694320679,61.725088914604186L85.26312694320679,61.725088914604186C86.5712269432068,61.725088914604186,87.63162694320678,62.57831891460419,87.63162694320678,63.63081891460419L87.63162694320678,78.87631891460418C87.63162694320678,79.9288189146042,86.5712269432068,80.78201891460418,85.26312694320679,80.78201891460418L61.57894694320679,80.78201891460418C60.270866943206784,80.78201891460418,59.21052694320679,79.9288189146042,59.21052694320679,78.87631891460418L59.21052694320679,63.63081891460419C59.21052694320679,62.57831891460419,60.270866943206784,61.725088914604186,61.57894694320679,61.725088914604186ZM78.15782694320679,59.81940891460419L78.15782694320679,61.725108914604185L68.68415694320679,61.725108914604185L68.68415694320679,59.81940891460419C68.68415694320679,57.71437891460419,70.80482694320679,56.008018914604186,73.42102694320678,56.008018914604186C76.03712694320679,56.008018914604186,78.15782694320679,57.71437891460419,78.15782694320679,59.81940891460419Z" fill-rule="evenodd" fill="#FFFFFF" fill-opacity="1"/></g></mask></defs><g><g><path d="M61.3097,75.41066052856445C61.2765,74.94606052856446,61.1766,74.37946052856445,61.0565,73.70296052856446C61.0548,73.69416052856445,61.0532,73.68526052856446,61.0515,73.67626052856446L61.0349,73.58196052856445C60.9857,73.30486052856446,60.9402,73.04836052856444,60.8928,72.81276052856445C68.3472,69.60556052856445,73.4222,63.28016052856445,73.4222,55.999460528564455C73.4222,45.47616052856445,62.82,36.94534052856445,49.7416,36.94534052856445L27.189,36.94534052856445C25.6865,36.94534052856445,24.2159,37.057970528564454,22.7894,37.27369052856445C20.8956,36.06110052856445,18.5743,35.43431652856445,16.3412,35.12864352856445C13.9145,34.796480728564454,11.4987,34.83059262856445,9.64279,34.95389112856445C6.96624,35.13169252856445,5.65366,37.36250052856445,6.66071,39.18587052856445L9.13619,43.66749052856446C7.12563,45.57106052856445,5.57124,47.797860528564456,4.61042,50.23816052856445L3.38353,50.23816052856445C3.02606,50.23796052856446,2.6901,50.23796052856446,2.40781,50.25666052856445C2.10122,50.27666052856445,1.75519,50.32356052856446,1.41075,50.464760528564454C0.924586,50.663860528564456,0.52932,50.98196052856446,0.281607,51.373160528564455C0.106107,51.65026052856445,0.0480569,51.92866052856445,0.022999,52.17546052856446C-0.0000429344,52.40236052856446,-0.000022172,52.67226052856445,0,52.95946052856445L0,60.862060528564456C-0.000022172,61.149260528564454,-0.0000429496,61.41926052856445,0.022999,61.64616052856445C0.0480569,61.89276052856445,0.106107,62.17126052856445,0.281607,62.448260528564454C0.52932,62.83956052856445,0.924586,63.15756052856445,1.41075,63.35696052856446C1.75519,63.498160528564455,2.10122,63.544860528564456,2.40781,63.56506052856445C2.6901,63.583560528564455,3.02604,63.583560528564455,3.38348,63.583560528564455L5.45874,63.583560528564455C7.82124,67.96056052856446,12.1654,71.48316052856445,17.5813,73.41976052856445C17.5692,73.48686052856445,17.5571,73.55546052856445,17.5446,73.62576052856446L17.5356,73.67626052856446C17.4133,74.36446052856445,17.3113,74.93996052856446,17.2776,75.41066052856445C17.2428,75.89816052856446,17.2708,76.37516052856445,17.4943,76.83576052856445C17.8281,77.52446052856445,18.4474,78.09896052856445,19.2474,78.46226052856446C19.7803,78.70426052856445,20.3568,78.79476052856445,20.9563,78.83636052856446C21.5327,78.87616052856445,22.2435,78.87616052856445,23.0907,78.87616052856445L24.4715,78.87616052856445C25.1233,78.87616052856445,25.6782,78.87616052856445,26.1374,78.84796052856444C26.6215,78.81806052856444,27.0864,78.75326052856445,27.5407,78.58606052856445C28.2356,78.33056052856446,28.8246,77.91966052856446,29.2372,77.40206052856445C29.5082,77.06246052856446,29.6538,76.69756052856445,29.7592,76.31296052856445C29.8542,75.96676052856445,29.9307,75.54616052856446,30.0183,75.05356052856445L48.569,75.05356052856445C48.6566,75.54616052856446,48.7329,75.96676052856445,48.8278,76.31296052856445C48.9335,76.69756052856445,49.0791,77.06246052856446,49.3501,77.40206052856445C49.7627,77.91966052856446,50.3517,78.33056052856446,51.0466,78.58606052856445C51.5008,78.75326052856445,51.9658,78.81806052856444,52.4499,78.84796052856444C52.9089,78.87616052856445,53.4638,78.87616052856445,54.1158,78.87616052856445L55.4966,78.87616052856445C56.3438,78.87616052856445,57.0546,78.87616052856445,57.631,78.83636052856446C58.2305,78.79476052856445,58.8069,78.70426052856445,59.3398,78.46226052856446C60.1399,78.09896052856445,60.7592,77.52446052856445,61.093,76.83576052856445C61.3163,76.37516052856445,61.3445,75.89816052856446,61.3097,75.41066052856445ZM9.8377,36.85309052856445C11.579,36.73741052856445,13.7806,36.711110528564454,15.944,37.00726052856445C18.1146,37.304550528564455,20.1548,37.913410528564455,21.6722,39.00786052856445L22.121,39.33144052856446L22.7103,39.23006052856445C24.1534,38.981750528564454,25.6514,38.851020528564455,27.189,38.851020528564455L49.7416,38.851020528564455C61.5121,38.851020528564455,71.0538,46.52846052856445,71.0538,55.999460528564455C71.0538,62.78656052856445,66.1538,68.65436052856445,59.0395,71.43436052856445L58.1646,71.77626052856445L58.4114,72.53326052856445C58.5052,72.82116052856446,58.5779,73.21846052856446,58.698,73.89526052856445C58.6987,73.89866052856445,58.6992,73.90206052856445,58.6999,73.90556052856445C58.8311,74.64456052856445,58.918,75.13946052856446,58.945,75.52006052856444C58.9718,75.89276052856445,58.9303,76.05286052856445,58.8865,76.14316052856445C58.7513,76.42236052856445,58.5,76.65546052856445,58.1758,76.80276052856445C58.0682,76.85156052856445,57.8792,76.90636052856445,57.428,76.93766052856445C56.9653,76.96966052856445,56.357,76.97046052856444,55.4457,76.97046052856444L54.1589,76.97046052856444C53.4522,76.97046052856444,52.9884,76.96986052856445,52.6306,76.94776052856446C52.2874,76.92666052856445,52.1311,76.88966052856446,52.0311,76.85286052856446C51.7493,76.74916052856446,51.5105,76.58266052856445,51.3433,76.37286052856444C51.2851,76.30006052856444,51.2166,76.17936052856444,51.1408,75.90226052856445C51.062,75.61476052856446,50.9938,75.23626052856446,50.8921,74.66356052856446L50.8917,74.66116052856445C50.8467,74.40726052856445,50.8064,74.18036052856445,50.7716,73.97296052856444L50.6328,73.14776052856445L27.9545,73.14776052856445L27.8157,73.97296052856444C27.7806,74.18146052856446,27.7401,74.40976052856445,27.6949,74.66496052856445C27.593,75.23756052856444,27.5253,75.61476052856446,27.4464,75.90226052856445C27.3706,76.17936052856444,27.3022,76.30006052856444,27.2439,76.37286052856444C27.0767,76.58266052856445,26.838,76.74916052856446,26.5561,76.85286052856446C26.4562,76.88966052856446,26.2999,76.92666052856445,25.9567,76.94776052856446C25.5986,76.96986052856445,25.1351,76.97046052856444,24.4284,76.97046052856444L23.1416,76.97046052856444C22.23,76.97046052856444,21.622,76.96966052856445,21.1592,76.93766052856445C20.708,76.90636052856445,20.519,76.85156052856445,20.4115,76.80276052856445C20.087,76.65546052856445,19.836,76.42236052856445,19.7008,76.14316052856445C19.6569,76.05286052856445,19.6155,75.89276052856445,19.642,75.52006052856444C19.6693,75.13946052856446,19.7562,74.64436052856445,19.8874,73.90556052856445C19.9539,73.53126052856445,20.006,73.23716052856446,20.0586,72.99056052856446L20.2209,72.22926052856445L19.3284,71.94416052856445C13.8635,70.19816052856444,9.5073,66.68446052856446,7.3518,62.28136052856445L7.05622,61.67786052856445L3.42345,61.67786052856445C3.012,61.67786052856445,2.77464,61.67706052856445,2.60066,61.66566052856445C2.52832,61.660860528564456,2.48875,61.65536052856446,2.47122,61.652260528564454C2.44226,61.63796052856445,2.41791,61.61836052856445,2.40015,61.59506052856445C2.3964,61.580960528564454,2.38946,61.54916052856446,2.38354,61.490860528564454C2.36933,61.35096052856446,2.36841,61.16006052856446,2.36841,60.82886052856445L2.36841,52.992560528564454C2.36841,52.66156052856445,2.36933,52.47066052856445,2.38354,52.330560528564455C2.38946,52.27246052856445,2.3964,52.240660528564455,2.40015,52.22656052856445C2.41788,52.20306052856445,2.44226,52.18366052856445,2.47125,52.169360528564454C2.48875,52.16626052856445,2.52832,52.16056052856445,2.60066,52.15586052856445C2.77464,52.14436052856445,3.012,52.14376052856446,3.42345,52.14376052856446L6.39757,52.14376052856446L6.63678,51.44346052856446C7.53417,48.816460528564456,9.18946,46.44066052856445,11.4032,44.478150528564456L11.9219,44.018310528564456L8.82496,38.41194052856445C8.39533,37.634040528564455,8.98862,36.909490528564454,9.8377,36.85309052856445Z" fill-rule="evenodd" fill="#000000" fill-opacity="1"/></g><g><path d="M37.93334315063476,66.83768458862305C48.76912315063477,64.29458458862305,56.83762315063477,56.982774588623045,58.693223150634765,48.024099588623045L58.693223150634765,48.024099588623045C58.898323150634766,47.034091157623045,60.446623150634764,46.686873588623044,61.25822315063476,47.448960588623045L62.837023150634764,48.93121458862305C65.08182315063476,51.038334588623044,66.31582315063477,53.722124588623046,66.31582315063477,56.49758458862305L66.31582315063477,56.49758458862305C66.31582315063477,63.59458458862305,59.16552315063477,69.34788458862305,50.34532315063477,69.34788458862305L37.82913315063477,69.34788458862305C36.079345150634765,69.34788458862305,35.725739150634766,67.35568458862305,37.40542315063477,66.96158458862305L37.93334315063476,66.83768458862305Z" fill="#D1E2FE" fill-opacity="1"/></g><g><path d="M28.421052932739258,43.62099504077148C28.421052932739258,43.09483304077148,28.95134293273926,42.668148040771484,29.605262932739258,42.668148040771484L48.55265293273926,42.668148040771484C49.20655293273926,42.668148040771484,49.736852932739254,43.09483304077148,49.736852932739254,43.62099504077148L49.736852932739254,43.62099504077148C49.736852932739254,44.14715804077149,49.20655293273926,44.573838040771484,48.55265293273926,44.573838040771484L29.605262932739258,44.573838040771484C28.95134293273926,44.573838040771484,28.421052932739258,44.14715804077149,28.421052932739258,43.62099504077148L28.421052932739258,43.62099504077148Z" fill="#000000" fill-opacity="1"/></g><g><path d="M23.629026979370117,50.30893635375976Q23.629026979370117,50.41105635375977,23.61658697937012,50.512696353759765Q23.604146979370118,50.614326353759765,23.579376979370117,50.71449635375976Q23.554616979370117,50.814656353759766,23.51777697937012,50.912386353759764Q23.480926979370118,51.01011635375976,23.432356979370116,51.10446635375977Q23.38377697937012,51.19881635375977,23.323946979370117,51.288886353759764Q23.264116979370115,51.37895635375977,23.193596979370117,51.46386635375977Q23.12307697937012,51.548786353759766,23.04255697937012,51.62772635375977Q22.962026979370115,51.70667635375977,22.872276979370117,51.778886353759766Q22.782526979370118,51.851096353759765,22.684406979370117,51.91588635375977Q22.586286979370115,51.98067635375977,22.480746979370117,52.03741635375977Q22.375206979370116,52.094156353759764,22.263266979370115,52.14229635375977Q22.15132697937012,52.190436353759765,22.034056979370117,52.22951635375976Q21.91679697937012,52.268606353759765,21.795326979370117,52.298246353759765Q21.673866979370118,52.32789635375977,21.549376979370116,52.34781635375977Q21.424886979370118,52.36773635375977,21.29856697937012,52.37774635375977Q21.17224697937012,52.38775635375977,21.045316979370117,52.38775635375977Q20.91838697937012,52.38775635375977,20.792066979370116,52.37774635375977Q20.665746979370116,52.36773635375977,20.541256979370118,52.34781635375977Q20.416766979370117,52.32789635375977,20.295306979370118,52.298246353759765Q20.173836979370115,52.268606353759765,20.056576979370117,52.22951635375976Q19.939306979370116,52.190436353759765,19.82736697937012,52.14229635375977Q19.71542697937012,52.094156353759764,19.609886979370117,52.03741635375977Q19.504346979370116,51.98067635375977,19.406228979370116,51.91588635375977Q19.308110979370117,51.851096353759765,19.21835797937012,51.778886353759766Q19.128605979370118,51.70667635375977,19.048081979370117,51.62772635375977Q18.967558979370118,51.548786353759766,18.897040979370118,51.46386635375977Q18.826521979370117,51.37895635375977,18.76668797937012,51.288886353759764Q18.706853979370116,51.19881635375977,18.658279979370118,51.10446635375977Q18.609705979370116,51.01011635375976,18.572860979370116,50.912386353759764Q18.536014979370115,50.814656353759766,18.51125227937012,50.71449635375976Q18.486489479370118,50.614326353759765,18.474048279370116,50.512696353759765Q18.461606979370117,50.41105635375977,18.461606979370117,50.30893635375976Q18.461606979370117,50.20680635375977,18.474048279370116,50.10517635375977Q18.486489479370118,50.00353635375976,18.51125227937012,49.90337635375977Q18.536014979370115,49.80320635375976,18.572860979370116,49.70548635375977Q18.609705979370116,49.60775635375977,18.658279979370118,49.51339635375977Q18.706853979370116,49.41904635375977,18.76668797937012,49.328976353759764Q18.826521979370117,49.23891635375976,18.897040979370118,49.153999353759765Q18.967558979370118,49.06908435375976,19.048081979370117,48.990139353759766Q19.128605979370118,48.91119435375977,19.21835797937012,48.838980353759766Q19.308110979370117,48.76676635375976,19.406228979370116,48.70197835375976Q19.504346979370116,48.63719035375976,19.609886979370117,48.58045135375976Q19.71542697937012,48.52371335375977,19.82736697937012,48.47557135375977Q19.939306979370116,48.42742935375976,20.056576979370117,48.38834735375976Q20.173836979370115,48.34926535375977,20.295306979370118,48.31961995375976Q20.416766979370117,48.289974253759766,20.541256979370118,48.270050453759765Q20.665746979370116,48.25012655375976,20.792066979370116,48.24011645375977Q20.91838697937012,48.230106353759766,21.045316979370117,48.230106353759766Q21.17224697937012,48.230106353759766,21.29856697937012,48.24011645375977Q21.424886979370118,48.25012655375976,21.549376979370116,48.270050453759765Q21.673866979370118,48.289974253759766,21.795326979370117,48.31961995375976Q21.91679697937012,48.34926535375977,22.034056979370117,48.38834735375976Q22.15132697937012,48.42742935375976,22.263266979370115,48.47557135375977Q22.375206979370116,48.52371335375977,22.480746979370117,48.58045135375976Q22.586286979370115,48.63719035375976,22.684406979370117,48.70197835375976Q22.782526979370118,48.76676635375976,22.872276979370117,48.838980353759766Q22.962026979370115,48.91119435375977,23.04255697937012,48.990139353759766Q23.12307697937012,49.06908435375976,23.193596979370117,49.153999353759765Q23.264116979370115,49.23891635375976,23.323946979370117,49.328976353759764Q23.38377697937012,49.41904635375977,23.432356979370116,49.51339635375977Q23.480926979370118,49.60775635375977,23.51777697937012,49.70548635375977Q23.554616979370117,49.80320635375976,23.579376979370117,49.90337635375977Q23.604146979370118,50.00353635375976,23.61658697937012,50.10517635375977Q23.629026979370117,50.20680635375977,23.629026979370117,50.30893635375976Z" fill="#000000" fill-opacity="1"/></g><g transform="matrix(0.9785569310188293,0.20597685873508453,-0.3129972517490387,0.949753999710083,2.2438244738199487,-8.12805298716495)"><ellipse cx="58.09392547607422" cy="18.93822455406189" rx="17.561538696289062" ry="14.546218872070312" fill="#D1E2FE" fill-opacity="1"/><ellipse cx="58.09392547607422" cy="18.93822455406189" rx="17.561538696289062" ry="14.546218872070312" fill-opacity="0" stroke-opacity="1" stroke="#FFFFFF" fill="none" stroke-width="1.2407407760620117"/></g><g><path d="M53.86950514892578,14.61242498840332L54.65108514892578,12.22453498840332L57.99131514892578,12.93240498840332L57.25871514892578,15.17041498840332C58.45431514892578,15.60184498840332,59.65011514892578,16.27560498840332,60.84641514892578,17.19148498840332L57.887015148925784,19.41695498840332C56.852815148925785,18.62799498840332,55.88451514892578,18.13784498840332,54.98218514892578,17.94670498840332C54.36142514892578,17.81502498840332,53.77050514892578,17.82169498840332,53.20989514892578,17.966334988403318C52.71774514892578,18.09001498840332,52.42618514892578,18.29182498840332,52.33453514892578,18.57158498840332C52.32150514892578,18.611414988403318,52.31132514892578,18.65562498840332,52.30445514892578,18.704034988403322C52.24974514892578,19.27650498840332,52.90082514892578,19.870314988403322,54.25745514892578,20.48547498840332C57.197815148925784,21.806694988403322,58.56131514892578,23.44173498840332,58.34821514892578,25.391134988403323C58.31711514892578,25.64803498840332,58.264615148925785,25.889634988403323,58.19041514892578,26.11623498840332C57.75891514892578,27.43493498840332,56.56031514892578,28.33843498840332,54.59447514892578,28.82653498840332C53.97963514892578,28.97403498840332,53.35129514892578,29.054634988403322,52.70968514892578,29.06813498840332L51.92147514892578,31.47603498840332L48.58129514892578,30.768034988403322L49.31384514892578,28.53013498840332C47.89255514892578,28.057934988403318,46.54634514892578,27.30253498840332,45.27521514892578,26.26393498840332L48.314375148925784,24.11943498840332C49.419475148925784,25.01603498840332,50.460395148925784,25.56773498840332,51.43737514892578,25.77493498840332C52.04155514892578,25.90293498840332,52.623005148925785,25.897834988403318,53.18171514892578,25.75983498840332C53.700635148925784,25.63483498840332,54.00592514892578,25.432434988403323,54.09734514892578,25.15273498840332C54.11274514892578,25.106034988403323,54.12268514892578,25.06183498840332,54.12766514892578,25.02003498840332C54.19255514892578,24.44263498840332,53.54692514892578,23.84633498840332,52.190295148925784,23.231234988403322C49.264345148925784,21.92027498840332,47.89753514892578,20.29509498840332,48.089605148925784,18.35566498840332C48.11684514892578,18.08372498840332,48.16942514892578,17.82779498840332,48.24805514892578,17.58786498840332C48.66868514892578,16.30247498840332,49.82779514892578,15.41196498840332,51.72513514892578,14.91655498840332C52.44229514892578,14.72665498840332,53.15708514892578,14.62527498840332,53.86950514892578,14.61242498840332Z" fill="#3C85FF" fill-opacity="1"/></g><g transform="matrix(0.9917017817497253,-0.12855932116508484,0.19890861213207245,0.9800180196762085,-0.9807999465043267,1.040378968924358)"><ellipse cx="24.962783813476562" cy="19.628065586090088" rx="17.683795928955078" ry="14.393487930297852" fill="#D1E2FE" fill-opacity="1"/><ellipse cx="24.962783813476562" cy="19.628065586090088" rx="17.683795928955078" ry="14.393487930297852" fill-opacity="0" stroke-opacity="1" stroke="#FFFFFF" fill="none" stroke-width="1.2407407760620117"/></g><g><path d="M24.68179365234375,10.246406437835693L24.19034365234375,7.8089454378356935L27.59992365234375,7.363946437835693L28.06034365234375,9.648416437835692C29.37055365234375,9.651866437835693,30.803453652343748,9.876546437835692,32.35904365234375,10.322476437835693L30.778583652343748,13.323416437835693C29.435213652343748,12.940506437835694,28.30310365234375,12.809166437835692,27.38203365234375,12.929376437835693C26.74824365234375,13.012086437835693,26.21155365234375,13.211206437835694,25.77221365234375,13.526736437835694C25.38521365234375,13.800566437835693,25.22037365234375,14.080246437835694,25.277923652343752,14.365816437835694C25.28621365234375,14.406596437835693,25.29947365234375,14.450236437835693,25.31747365234375,14.496736437835693C25.556453652343748,15.037706437835693,26.45124365234375,15.367526437835693,28.00137365234375,15.486186437835693C31.355243652343752,15.732286437835693,33.42674365234375,16.780806437835693,34.216143652343746,18.63164643783569C34.31744365234375,18.876546437835692,34.39164365234375,19.114546437835692,34.43824365234375,19.345646437835693C34.70964365234375,20.691846437835693,34.07044365234375,21.90924643783569,32.520743652343754,22.997746437835694C32.033343652343746,23.333546437835693,31.49974365234375,23.612546437835693,30.920213652343747,23.834546437835694L31.41564365234375,26.292546437835693L28.00611365234375,26.737446437835693L27.54568365234375,24.452946437835692C26.008583652343752,24.486146437835693,24.39734365234375,24.235846437835693,22.71126365234375,23.702246437835694L24.40539365234375,20.749446437835694C25.86813365234375,21.207346437835696,27.09782365234375,21.371446437835694,28.094923652343752,21.24124643783569C28.71189365234375,21.160646437835695,29.24053365234375,20.966046437835693,29.68129365234375,20.65734643783569C30.09245365234375,20.373446437835693,30.26913365234375,20.088746437835695,30.211583652343748,19.803246437835693C30.20210365234375,19.755546437835694,30.18884365234375,19.711946437835692,30.17226365234375,19.672346437835692C29.94016365234375,19.123246437835693,29.048923652343753,18.789646437835692,27.49879365234375,18.670846437835692C24.163343652343748,18.429446437835693,22.09382365234375,17.391246437835694,21.29021365234375,15.556146437835693C21.17771365234375,15.298706437835694,21.09671365234375,15.047616437835693,21.04721365234375,14.802846437835694C20.78289765234375,13.490626437835694,21.392292652343748,12.298096437835692,22.87563365234375,11.225266437835693C23.43529365234375,10.817296437835694,24.03734365234375,10.490996437835694,24.68179365234375,10.246406437835693Z" fill="#3C85FF" fill-opacity="1"/></g><g><rect x="66.31578826904297" y="52.19662094116211" width="14.210526466369629" height="19.056947708129883" rx="3.722222328186035" fill="#FFFFFF" fill-opacity="1"/></g><g><path d="M61.57894551269531,61.72509094116211L63.94736551269531,61.72509094116211L63.94736551269531,59.81940094116211C63.94736551269531,55.609530941162106,68.18897551269531,52.19662094116211,73.42102551269531,52.19662094116211C78.65312551269531,52.19662094116211,82.89472551269532,55.609530941162106,82.89472551269532,59.81940094116211L82.89472551269532,61.72509094116211L85.26312551269531,61.72509094116211C86.57122551269532,61.72509094116211,87.63162551269531,62.57832094116211,87.63162551269531,63.63082094116211L87.63162551269531,78.8763209411621C87.63162551269531,79.92882094116212,86.57122551269532,80.7820209411621,85.26312551269531,80.7820209411621L61.57894551269531,80.7820209411621C60.27086551269531,80.7820209411621,59.21052551269531,79.92882094116212,59.21052551269531,78.8763209411621L59.21052551269531,63.63082094116211C59.21052551269531,62.57832094116211,60.27086551269531,61.72509094116211,61.57894551269531,61.72509094116211ZM78.15782551269531,59.81941094116211L78.15782551269531,61.72511094116211L68.68415551269531,61.72511094116211L68.68415551269531,59.81941094116211C68.68415551269531,57.71438094116211,70.80482551269532,56.00802094116211,73.42102551269531,56.00802094116211C76.03712551269531,56.00802094116211,78.15782551269531,57.71438094116211,78.15782551269531,59.81941094116211Z" fill-rule="evenodd" fill="#185ADB" fill-opacity="1"/></g><g><g></g><g mask="url(#master_svg0_15_6764)"><g><path d="M61.57892586547852,59.81936407226563L61.57892586547852,59.819394072265624L61.57894586547852,59.819394072265624L61.57894586547852,61.725024072265626L61.57892586547852,61.725024072265626L61.57892586547852,63.63072407226562L56.842105865478516,63.63072407226562C56.842105865478516,61.525724072265625,58.962785865478516,59.81936407226563,61.57892586547852,59.81936407226563ZM61.57894586547852,63.63072407226562L61.57894586547852,61.725024072265626L63.94734586547852,61.725024072265626L63.94734586547852,61.72512407226563L68.68420586547852,61.72512407226563L68.68420586547852,63.630824072265625L63.94732586547852,63.630824072265625L63.94732586547852,63.63072407226562L61.57894586547852,63.63072407226562ZM63.94734586547852,59.81940407226563L63.94734586547852,61.725024072265626L66.31573586547852,61.725024072265626L66.31573586547852,59.81941407226562L63.94734586547852,59.81940407226563ZM68.68430586547852,59.81941407226562L68.68430586547852,61.725024072265626L71.05260586547851,61.725024072265626L71.05260586547851,59.81941407226562L68.68430586547852,59.81941407226562ZM85.26320586547851,63.63072407226562L90.00000586547851,63.63072407226562C90.00000586547851,61.525724072265625,87.87930586547851,59.81936407226563,85.26320586547851,59.81936407226563L85.26320586547851,63.63072407226562ZM61.57894586547852,63.63072407226562L61.57894586547852,78.87632407226562L56.842105865478516,78.87632407226562L56.842105865478516,63.63072407226562L61.57894586547852,63.63072407226562ZM85.26320586547851,63.63072407226562L85.26320586547851,78.87632407226562L90.00000586547851,78.87632407226562L90.00000586547851,63.63072407226562L85.26320586547851,63.63072407226562ZM85.26310586547851,78.87632407226562L85.26310586547851,82.68772407226562L61.57892586547852,82.68772407226562C58.962785865478516,82.68772407226562,56.842105865478516,80.98142407226563,56.842105865478516,78.87632407226562L85.26310586547851,78.87632407226562ZM85.26320586547851,78.87632407226562L85.26320586547851,82.68772407226562C87.87930586547851,82.68772407226562,90.00000586547851,80.98142407226563,90.00000586547851,78.87632407226562L85.26320586547851,78.87632407226562ZM68.68430586547852,59.81941407226562L68.68430586547852,59.81936407226563L66.31576586547851,59.81936407226563C66.31577586547851,58.835714072265624,66.62449586547851,57.91009407226562,67.16820586547851,57.101814072265626C66.62446586547851,57.910084072265626,66.31574586547852,58.835714072265624,66.31573586547852,59.81936407226563L63.94734586547852,59.81936407226563L63.94734586547852,59.81940407226563L61.57894586547852,59.819394072265624C61.57894586547852,54.556994072265624,66.88090586547851,50.290924072265625,73.42100586547852,50.290924072265625C79.96120586547852,50.290924072265625,85.26310586547851,54.55701407226562,85.26310586547851,59.819394072265624L82.89470586547851,59.819394072265624L82.89470586547851,61.725024072265626L85.26310586547851,61.725024072265626L85.26310586547851,63.63072407226562L82.89470586547851,63.63072407226562L82.89470586547851,63.630824072265625L78.15790586547851,63.630824072265625L78.15790586547851,63.63072407226562L68.68430586547852,63.63072407226562L68.68430586547852,61.725024072265626L66.31576586547851,61.725024072265626L66.31576586547851,59.81941407226562L68.68430586547852,59.81941407226562ZM80.52630586547852,59.819394072265624L82.89470586547851,59.819394072265624L82.89470586547851,59.81936407226563L78.15790586547851,59.81936407226563L78.15790586547851,59.81940407226563L75.78950586547852,59.81941407226562L75.78950586547852,59.81936407226563L75.78940586547851,59.81936407226563C75.78940586547851,58.76687407226562,74.72910586547852,57.91371407226563,73.42100586547852,57.91371407226563C72.11290586547851,57.91371407226563,71.05260586547851,58.76687407226562,71.05260586547851,59.81936407226563L75.78940586547851,59.81936407226563L75.78940586547851,59.81941407226562L75.78950586547852,59.81941407226562L75.78950586547852,61.725024072265626L78.15790586547851,61.725024072265626L78.15790586547851,61.72512407226563L78.15790586547851,61.72512407226563L78.15790586547851,63.63072407226562L78.15790586547851,63.63072407226562L78.15790586547851,61.72512407226563L82.89470586547851,61.72512407226563L82.89470586547851,61.725024072265626L78.15790586547851,61.725024072265626L78.15790586547851,59.81940407226563L80.52630586547852,59.819394072265624Z" fill-rule="evenodd" fill="#FFFFFF" fill-opacity="1"/></g></g><g></g><g mask="url(#master_svg1_15_6760)"></g></g><g><path d="M61.57894551269531,61.72509094116211L63.94736551269531,61.72509094116211L63.94736551269531,59.81940094116211C63.94736551269531,55.609530941162106,68.18897551269531,52.19662094116211,73.42102551269531,52.19662094116211C78.65312551269531,52.19662094116211,82.89472551269532,55.609530941162106,82.89472551269532,59.81940094116211L82.89472551269532,61.72509094116211L85.26312551269531,61.72509094116211C86.57122551269532,61.72509094116211,87.63162551269531,62.57832094116211,87.63162551269531,63.63082094116211L87.63162551269531,78.8763209411621C87.63162551269531,79.92882094116212,86.57122551269532,80.7820209411621,85.26312551269531,80.7820209411621L61.57894551269531,80.7820209411621C60.27086551269531,80.7820209411621,59.21052551269531,79.92882094116212,59.21052551269531,78.8763209411621L59.21052551269531,63.63082094116211C59.21052551269531,62.57832094116211,60.27086551269531,61.72509094116211,61.57894551269531,61.72509094116211ZM80.52632551269531,59.81934094116211L80.52632551269531,61.725040941162106L66.31574551269532,61.725040941162106L66.31574551269532,59.81934094116211C66.31574551269532,56.66180094116211,69.49682551269531,54.10226094116211,73.42102551269531,54.10226094116211C77.34522551269531,54.10226094116211,80.52632551269531,56.66180094116211,80.52632551269531,59.81934094116211Z" fill-rule="evenodd" fill="#004AFF" fill-opacity="1"/></g></g></svg>