<?xml version="1.0" standalone="no"?><!DOCTYPE svg PUBLIC "-//W3C//DTD SVG 1.1//EN" "http://www.w3.org/Graphics/SVG/1.1/DTD/svg11.dtd"><svg t="1727319508021" class="icon" viewBox="0 0 1024 1024" version="1.1" xmlns="http://www.w3.org/2000/svg" p-id="19460" xmlns:xlink="http://www.w3.org/1999/xlink" width="200" height="200"><path d="M616.682667 0a76.544 76.544 0 0 1 76.48 76.544h153.088c19.648 0 36.202667 14.997333 38.058666 34.602667l0.213334 3.669333v403.093333a307.072 307.072 0 0 0-76.544-23.381333V153.088h-114.816a76.544 76.544 0 0 1-76.544 76.544H310.506667a76.544 76.544 0 0 1-76.48-76.544H119.210667v790.805333h363.626666a310.378667 310.378667 0 0 0 57.088 76.544H80.938667a38.272 38.272 0 0 1-38.122667-34.602666L42.666667 982.186667V114.794667c0-19.690667 14.997333-36.181333 34.602666-38.101334l3.669334-0.149333h153.088A76.522667 76.522667 0 0 1 310.506667 0h306.176z m-190.826667 767.594667h-170.666667c-20.16-0.405333-32-10.666667-32-32s11.968-29.696 32-32h170.666667c28.437333 0 42.666667 10.666667 42.666667 32s-14.229333 32-42.666667 32z m88.789333-244.629334a38.272 38.272 0 0 1 38.016 44.032c-11.306667 9.856-21.845333 20.544-31.573333 31.957334l-2.837333 0.405333-3.626667 0.149333h-255.146667a38.272 38.272 0 0 1-3.626666-76.330666l3.626666-0.213334h255.146667z m140.309334-178.538666a38.272 38.272 0 0 1 3.626666 76.352l-3.626666 0.149333H259.456a38.272 38.272 0 0 1-3.626667-76.330667l3.626667-0.170666h395.498667zM616.682667 76.544H310.506667v76.544h306.176V76.544z" fill="#1afa29" p-id="19461"></path><path d="M816.512 554.261333c36.864 10.538667 63.168 26.325333 89.493333 52.650667-10.517333 26.304-10.517333 57.898667 5.269334 84.224s36.842667 42.112 63.168 42.112c10.538667 36.842667 5.269333 73.706667 0 110.549333-26.325333 5.269333-52.629333 21.056-63.168 47.36-15.786667 26.346667-15.786667 52.650667-5.269334 78.976-26.325333 26.325333-57.898667 42.112-89.493333 52.650667-15.786667-21.056-42.112-31.573333-68.437333-31.573333-26.304 0-52.629333 10.517333-68.416 31.573333-31.594667-10.538667-63.189333-26.325333-89.493334-52.650667 10.517333-26.325333 5.248-57.898667-5.269333-78.954666-15.786667-26.325333-36.864-42.112-68.437333-47.381334-4.608-18.432-5.184-32.810667-5.248-50.24v-7.68c0-15.786667 0-31.573333 5.248-47.36 26.325333-5.269333 52.650667-21.056 68.437333-47.381333 15.786667-26.325333 15.786667-57.92 5.269333-84.224 26.304-26.325333 57.898667-42.112 89.493334-52.650667 10.517333 21.056 36.842667 36.842667 68.416 36.842667 31.594667 0 52.650667-15.786667 68.437333-36.842667z m-73.685333 131.626667c-52.650667 0-100.032 47.36-100.032 100.010667 0 57.898667 47.381333 100.010667 100.032 100.010666 57.898667 0 100.010667-47.36 100.010666-100.010666 5.269333-52.650667-42.112-100.032-100.010666-100.032z" fill="#1afa29" p-id="19462"></path></svg>