<svg xmlns="http://www.w3.org/2000/svg" xmlns:xlink="http://www.w3.org/1999/xlink" width="20.716887211823163" height="24" viewBox="0 0 20.716887211823163 24" fill="none"><g opacity="1"  transform="translate(0 0)  rotate(0)"><mask id="bg-mask-0" fill="white"><use transform="translate(0 0)  rotate(0)" xlink:href="#path_0"></use></mask><g mask="url(#bg-mask-0)" ><path id="分组 1" fill-rule="evenodd" style="fill:#E6CDB3" opacity="1" d="M6.38772 1.39531L6.38771 1.39531C5.1617 1.37018 3.7665 1.34159 3.7665 3.28C3.7665 4.18 4.5565 5.4 5.4165 6.41C5.7665 6.81 6.2565 7.05 6.7865 7.05L14.5065 7.05C15.0265 7.05 15.5265 6.83 15.8565 6.43C16.6565 5.48 17.4065 4.32 17.5765 3.28C17.9165 1.2 17.0265 0.14 14.4365 0.14C11.8465 0.14 12.7265 1.84 11.7165 1.98C11.3054 2.0403 11.1286 1.77009 10.8585 1.35713C10.6358 1.01671 10.3497 0.57927 9.8165 0.15C9.34846 -0.224435 8.85312 0.18946 8.31548 0.638715C7.87672 1.00534 7.40978 1.39551 6.9065 1.4C6.74034 1.40254 6.56581 1.39896 6.38772 1.39531ZM14.78 8.3051L6.55 8.3051C5.96 8.3051 5.38 8.5451 4.97 8.9751C2.39 11.6851 0 15.5551 0 18.3751C0 20.8551 2.5 23.9951 5.58 23.9951L15.14 23.9951C18.22 23.9951 20.72 20.8851 20.72 18.3751C20.72 15.5051 18.8 11.7451 16.41 9.0351C16 8.5651 15.4 8.3051 14.78 8.3051Z"></path></g></g><defs><rect id="path_0" x="0" y="0" width="20.716887211823163" height="24" rx="0" ry="0"/></defs></svg>