<svg xmlns="http://www.w3.org/2000/svg" xmlns:xlink="http://www.w3.org/1999/xlink" width="84" height="84.000244140625" viewBox="0 0 84 84.000244140625" fill="none"><g opacity="1"  transform="translate(0 0)  rotate(0)"><g opacity="1"  transform="translate(0 0)  rotate(0)"><path id="路径 99" fill-rule="evenodd" style="fill:#374266" opacity="1" d="M84 42ZM42 0C18.8 0 0 18.8 0 42C0 59.6 10.83 74.67 26.18 80.92C27.73 81.55 29.31 82.09 30.94 82.53C34.47 83.49 38.17 84 42 84C50.78 84 58.93 81.31 65.67 76.7C76.73 69.14 84 56.42 84 42C84 18.8 65.2 0 42 0Z"></path><path id="路径 100" fill-rule="evenodd" style="fill:#FFE261" opacity="1" d="M68.9937 4.36118ZM9.34369 10.0212L9.34369 38.2912C9.34369 41.4212 11.8837 43.9612 15.0037 43.9612L68.9937 43.9612C72.1237 43.9612 74.6537 41.4212 74.6537 38.2912L74.6537 10.0212C74.6537 6.90118 72.1237 4.36118 68.9937 4.36118L15.0037 4.36118C11.8837 4.36118 9.34369 6.90118 9.34369 10.0212Z"></path><path id="路径 101" fill-rule="evenodd" style="fill:#FFDCBF" opacity="1" d="M66.8678 59.5698ZM65.6178 56.5598C64.8478 55.7898 63.7878 55.3198 62.6078 55.3198C60.2578 55.3198 58.3578 57.2198 58.3578 59.5698L58.3578 55.3198C58.3578 54.1398 57.8778 53.0798 57.1078 52.3098C56.3378 51.5398 55.2778 51.0598 54.0978 51.0598C52.9278 51.0598 51.8678 51.5398 51.0978 52.3098C50.3278 53.0798 49.8478 54.1398 49.8478 55.3198L49.8478 54.2298C49.8478 53.0598 49.3678 51.9898 48.5978 51.2198C47.8278 50.4498 46.7678 49.9798 45.5978 49.9798C43.2478 49.9798 41.3378 51.8798 41.3378 54.2298L41.3378 39.1698C41.3378 36.8198 39.4378 34.9198 37.0878 34.9198C35.9178 34.9198 34.8478 35.3998 34.0778 36.1698C33.3078 36.9398 32.8378 37.9998 32.8378 39.1698L32.8378 61.9898C32.8378 61.9898 32.6378 60.5498 31.0178 57.6198C29.7078 55.2798 26.7578 54.4298 24.4078 55.7298C22.0578 57.0298 21.2178 59.9898 22.5178 62.3398C23.7678 64.5798 23.7678 69.6198 23.7678 69.6698C23.7678 69.6698 23.7978 75.5998 26.1878 80.9198C31.0678 82.9098 36.4078 83.9998 41.9978 83.9998C50.7778 83.9998 58.9278 81.3098 65.6678 76.6998C66.4578 74.3098 66.8678 71.7898 66.8678 69.3798L66.8678 59.5698C66.8678 58.3998 66.3878 57.3298 65.6178 56.5598Z"></path><path id="路径 102" fill-rule="evenodd" style="fill:#FCBB8D" opacity="1" d="M34.8733 69.8298ZM34.9233 69.8298C35.9633 69.7698 36.7733 68.9098 36.7733 67.8698L36.7733 39.1698C36.7733 37.9998 37.2533 36.9398 38.0233 36.1698C38.3233 35.8598 38.6733 35.5998 39.0633 35.4098C38.4733 35.0998 37.8033 34.9198 37.0833 34.9198C35.9133 34.9198 34.8533 35.3998 34.0833 36.1698C33.3133 36.9398 32.8333 37.9998 32.8333 39.1698L32.8333 67.8698C32.8333 68.9798 33.7633 69.8798 34.8733 69.8298L34.9233 69.8298Z"></path><path id="路径 103" fill-rule="evenodd" style="fill:#FCBB8D" opacity="1" d="M43.3807 62.8079ZM43.4307 62.7979C44.4707 62.7479 45.2807 61.8879 45.2807 60.8479L45.2807 54.2279C45.2807 53.0579 45.7607 51.9979 46.5307 51.2279C46.8307 50.9179 47.1807 50.6579 47.5707 50.4679C46.9807 50.1579 46.3107 49.9779 45.5907 49.9779C44.4207 49.9779 43.3607 50.4579 42.5907 51.2279C41.8207 51.9979 41.3407 53.0579 41.3407 54.2279L41.3407 60.8479C41.3407 61.9579 42.2707 62.8579 43.3807 62.8079L43.4307 62.7979Z"></path><path id="路径 104" fill-rule="evenodd" style="fill:#FCBB8D" opacity="1" d="M51.8881 61.3135ZM51.9381 61.3135C52.9781 61.2635 53.7881 60.4035 53.7881 59.3635L53.7881 55.3135C53.7881 54.1435 54.2681 53.0835 55.0381 52.3135C55.3381 52.0035 55.6881 51.7435 56.0781 51.5435C55.4881 51.2335 54.8181 51.0635 54.1081 51.0635C52.9281 51.0635 51.8681 51.5335 51.0981 52.3135C50.3281 53.0835 49.8481 54.1435 49.8481 55.3135L49.8481 59.3635C49.8481 60.4735 50.7781 61.3735 51.8881 61.3135L51.9381 61.3135Z"></path><path id="路径 105" fill-rule="evenodd" style="fill:#FCBB8D" opacity="1" d="M60.3963 62.9971ZM60.4463 62.9971C61.4863 62.9471 62.2963 62.0871 62.2963 61.0471L62.2963 59.5671C62.2963 58.3971 62.7763 57.3371 63.5463 56.5671C63.8463 56.2571 64.1963 55.9971 64.5863 55.7971C63.9963 55.4871 63.3263 55.3171 62.6063 55.3171C61.4363 55.3171 60.3763 55.7871 59.6063 56.5671C58.8363 57.3371 58.3563 58.3971 58.3563 59.5671L58.3563 61.0471C58.3563 62.1571 59.2863 63.0471 60.3963 62.9971L60.4463 62.9971Z"></path><path id="路径 106" fill-rule="evenodd" style="fill:#FCBB8D" opacity="1" d="M30.9381 82.5301ZM27.7181 69.6701C27.7181 69.6401 27.7081 64.5901 26.4581 62.3301C25.1581 59.9901 26.0081 57.0301 28.3481 55.7301C28.4781 55.6601 28.6081 55.6001 28.7381 55.5401C27.3981 54.9401 25.7981 54.9601 24.4081 55.7301C22.0681 57.0301 21.2181 59.9901 22.5181 62.3301C23.7681 64.5901 23.7681 69.6401 23.7681 69.6701C23.7681 69.6701 23.7981 75.6001 26.1881 80.9201C27.7281 81.5501 29.3181 82.0901 30.9381 82.5301C27.7481 76.8801 27.7081 69.6701 27.7181 69.6701Z"></path><path id="路径 107" fill-rule="evenodd" style="fill:#F58D2C" opacity="1" d="M21.8335 35.0485C20.8235 35.0485 20.1935 34.4985 20.1935 33.8985L20.1935 15.1685C20.1935 14.3885 21.0035 13.9885 21.8335 13.9885L27.3935 13.9885C30.3935 13.9885 33.1835 14.9685 33.1835 19.0585C33.1835 21.4185 32.2635 22.9785 30.7335 23.6385C32.4935 24.3285 33.7035 25.4585 33.7035 28.3385L33.7035 28.9385C33.7035 33.4385 31.1935 35.0485 27.9435 35.0485L21.8335 35.0485ZM27.1097 17.273C28.5797 17.273 29.4397 18.193 29.4397 19.693C29.4397 21.163 28.6897 22.173 27.1397 22.173L23.9097 22.173L23.9097 17.273L27.1097 17.273ZM29.9597 28.1582C29.9597 25.9182 28.9197 25.1082 27.1697 25.1082L23.9097 25.1082L23.9097 31.7582L27.1697 31.7582C28.9197 31.7582 29.9597 30.8082 29.9597 28.6182L29.9597 28.1582Z"></path><path id="路径 108" fill-rule="evenodd" style="fill:#F58D2C" opacity="1" d="M46.3771 15.1385ZM46.3771 28.6185C46.3771 30.8685 45.1971 31.9385 43.2071 31.9385C41.2271 31.9385 40.0471 30.8685 40.0471 28.6185L40.0471 15.1385C40.0471 14.3385 39.0871 13.9885 38.1671 13.9885C37.2171 13.9885 36.2971 14.3385 36.2971 15.1385L36.2971 28.6185C36.2971 33.4385 39.3171 35.2185 43.2071 35.2185C47.0671 35.2185 50.1271 33.4385 50.1271 28.6185L50.1271 15.1385C50.1271 14.3385 49.1771 13.9885 48.2571 13.9885C47.2971 13.9885 46.3771 14.3385 46.3771 15.1385L46.3771 28.6185Z"></path><path id="路径 109" fill-rule="evenodd" style="fill:#F58D2C" opacity="1" d="M58.1655 26.6085ZM58.1655 33.8685C58.1655 34.6485 59.1155 35.0485 60.0355 35.0485C60.9855 35.0485 61.9055 34.6485 61.9055 33.8685L61.9055 26.6085C61.9055 26.4585 61.9655 26.3185 62.0255 26.2285L67.9555 15.9185C68.0455 15.7785 68.0455 15.6285 68.0455 15.5485C68.0455 14.6185 66.5755 13.9885 65.5655 13.9885C64.9655 13.9885 64.7055 14.2485 64.4455 14.7385L60.0355 23.0585L55.6555 14.7385C55.3955 14.2185 55.1055 13.9885 54.5055 13.9885C53.4955 13.9885 52.0255 14.6185 52.0255 15.5485C52.0255 15.6285 52.0555 15.7785 52.1155 15.9185L58.0755 26.2285C58.1355 26.3185 58.1655 26.4585 58.1655 26.6085L58.1655 33.8685Z"></path></g></g></svg>