<svg xmlns="http://www.w3.org/2000/svg" xmlns:xlink="http://www.w3.org/1999/xlink" width="20" height="17.224456787109375" viewBox="0 0 20 17.224456787109375" fill="none"><g opacity="1"  transform="translate(0 0)  rotate(0)"><mask id="bg-mask-0" fill="white"><use transform="translate(0 0)  rotate(0)" xlink:href="#path_0"></use></mask><g mask="url(#bg-mask-0)" ><path id="分组 1" fill-rule="evenodd" fill="url(#linear_0)" opacity="1" d="M20 15.71C20 16.55 19.32 17.22 18.48 17.22L1.52 17.22C0.68 17.22 0 16.55 0 15.71L0 12.78C0 12.15 0.4 11.59 0.99 11.37C2.06 10.96 2.83 9.92 2.83 8.7C2.83 7.49 2.06 6.45 0.99 6.04C0.4 5.82 0 5.26 0 4.63L0 1.52C0 0.68 0.68 0 1.52 0L18.48 0C19.32 0 20 0.68 20 1.52L20 4.59C20 5.23 19.6 5.79 19.01 6.01C17.92 6.41 17.15 7.45 17.15 8.67C17.15 9.9 17.92 10.94 19 11.35C19.6 11.57 20 12.12 20 12.76L20 15.71ZM6.4295 5.8032L13.5395 5.8032C13.9395 5.8032 14.2595 6.1232 14.2595 6.5232C14.2595 6.9232 13.9395 7.2432 13.5395 7.2432L6.4295 7.2432C6.0295 7.2432 5.7095 6.9232 5.7095 6.5232C5.7095 6.1232 6.0295 5.8032 6.4295 5.8032ZM13.5306 10.087L6.4206 10.087C6.0206 10.087 5.7006 10.407 5.7006 10.807C5.7006 11.207 6.0206 11.527 6.4206 11.527L13.5306 11.527C13.9306 11.527 14.2506 11.207 14.2506 10.807C14.2506 10.407 13.9306 10.087 13.5306 10.087Z"></path></g></g><defs><rect id="path_0" x="0" y="0" width="20" height="17.224453369031682" rx="0" ry="0"/><linearGradient id="linear_0" x1="49.999999999999986%" y1="0%" x2="50%" y2="100%" gradientUnits="objectBoundingBox"><stop offset="0" stop-color="#F1D5BD" stop-opacity="1" /><stop offset="1" stop-color="#EAD9C8" stop-opacity="1" /></linearGradient></defs></svg>