<svg xmlns="http://www.w3.org/2000/svg" xmlns:xlink="http://www.w3.org/1999/xlink" width="24" height="24" viewBox="0 0 24 24" fill="none"><g opacity="1"  transform="translate(0 0)  rotate(0)"><mask id="bg-mask-0" fill="white"><use transform="translate(0 0)  rotate(0)" xlink:href="#path_0"></use></mask><g mask="url(#bg-mask-0)" ><path id="路径 1" fill-rule="evenodd" fill="url(#linear_0)" opacity="1" d="M22.3554 11.4017C22.4954 10.5117 22.0854 9.66169 21.2754 9.25169C20.4754 8.83169 19.5354 8.99169 18.8954 9.63169L16.9554 11.5717L12.9854 7.81169L13.9254 6.87169C14.4454 6.35169 14.7354 5.67169 14.7354 4.93169C14.7354 4.20169 14.4454 3.52169 13.9254 3.00169L13.9154 2.99169C12.8554 1.96169 11.1354 1.98169 10.0854 3.03169C9.04536 4.07169 9.03536 5.79169 10.0554 6.85169L11.0154 7.80169L7.04536 11.5617L5.09536 9.61169C4.46536 8.97169 3.52536 8.83169 2.72536 9.24169C1.91536 9.65169 1.49536 10.5017 1.64536 11.3917L3.11536 20.0817C3.27536 21.0617 4.12536 21.7717 5.12536 21.7717L18.8754 21.7717C19.8754 21.7717 20.7254 21.0517 20.8854 20.1017L22.3554 11.4017Z"></path></g></g><defs><rect id="path_0" x="0" y="0" width="24" height="24" rx="0" ry="0"/><linearGradient id="linear_0" x1="49.999999999999986%" y1="0%" x2="50%" y2="100%" gradientUnits="objectBoundingBox"><stop offset="0" stop-color="#FCFAEB" stop-opacity="1" /><stop offset="1" stop-color="#F7D8A8" stop-opacity="1" /></linearGradient></defs></svg>