<?xml version="1.0" standalone="no"?><!DOCTYPE svg PUBLIC "-//W3C//DTD SVG 1.1//EN" "http://www.w3.org/Graphics/SVG/1.1/DTD/svg11.dtd"><svg class="icon" width="200px" height="200.00px" viewBox="0 0 1024 1024" version="1.1" xmlns="http://www.w3.org/2000/svg"><path d="M768 896c0 70.692-171.923 128-384 128S0 966.692 0 896V128C0 57.308 171.923 0 384 0s384 57.308 384 128v768z" fill="#7FC8FF" /><path d="M768 896c0 70.692-171.923 128-384 128S0 966.692 0 896V128C0 57.308 171.923 0 384 0s384 57.308 384 128v768z m-32 0V128c0-6.167-5.174-14.595-17.984-24.69-16.027-12.631-40.836-24.872-72.606-35.462C577.36 45.165 483.982 32 384 32c-99.982 0-193.361 13.165-261.41 35.848-31.77 10.59-56.58 22.831-72.606 35.462C37.174 113.405 32 121.833 32 128v768c0 6.167 5.174 14.595 17.984 24.69 16.027 12.631 40.836 24.872 72.606 35.462C190.64 978.835 284.018 992 384 992c99.982 0 193.361-13.165 261.41-35.848 31.77-10.59 56.58-22.831 72.606-35.462C730.826 910.595 736 902.167 736 896z" fill="#333333" /><path d="M0 128c0 70.692 171.923 128 384 128s384-57.308 384-128v32c0 70.692-171.923 128-384 128S0 230.692 0 160v-32zM0 320c0 70.692 171.923 128 384 128s384-57.308 384-128v32c0 70.692-171.923 128-384 128S0 422.692 0 352v-32zM0 512c0 70.692 171.923 128 384 128s384-57.308 384-128v32c0 70.692-171.923 128-384 128S0 614.692 0 544v-32zM0 704c0 70.692 171.923 128 384 128s384-57.308 384-128v32c0 70.692-171.923 128-384 128S0 806.692 0 736v-32z" fill="#333333" /><path d="M736 1024c159.058 0 288-128.942 288-288S895.058 448 736 448 448 576.942 448 736s128.942 288 288 288z" fill="#0091FF" /><path d="M736 1024c159.058 0 288-128.942 288-288S895.058 448 736 448 448 576.942 448 736s128.942 288 288 288z m0-32c-141.385 0-256-114.615-256-256s114.615-256 256-256 256 114.615 256 256-114.615 256-256 256z" fill="#333333" /><path d="M640 608v-16h64v16h192v32H704v16h-64v-16h-64v-32h64z m0 224v-16h64v16h192v32H704v16h-64v-16h-64v-32h64z m128-112v-16h64v16h64v32h-64v16h-64v-16H576v-32h192z" fill="#FFFFFF" /></svg>