<?xml version="1.0" standalone="no"?><!DOCTYPE svg PUBLIC "-//W3C//DTD SVG 1.1//EN" "http://www.w3.org/Graphics/SVG/1.1/DTD/svg11.dtd"><svg t="1682653017012" class="icon" viewBox="0 0 1024 1024" version="1.1" xmlns="http://www.w3.org/2000/svg" p-id="3836" xmlns:xlink="http://www.w3.org/1999/xlink" width="16" height="16"><path d="M887.466667 236.8L563.2 55.466667c-27.733333-14.933333-72.533333-14.933333-100.266667 0L136.533333 236.8C106.666667 251.733333 85.333333 288 85.333333 320v384c0 32 21.333333 68.266667 51.2 85.333333l326.4 181.333334c14.933333 8.533333 32 12.8 51.2 12.8s36.266667-4.266667 51.2-12.8L891.733333 789.333333c27.733333-14.933333 51.2-53.333333 51.2-85.333333V320c-4.266667-32-25.6-68.266667-55.466666-83.2z m6.4 467.2c0 17.066667-12.8 38.4-27.733334 46.933333l-326.4 181.333334c-14.933333 8.533333-40.533333 8.533333-55.466666 0L157.866667 750.933333c-14.933333-8.533333-27.733333-29.866667-27.733334-46.933333V320c0-17.066667 12.8-38.4 27.733334-46.933333l326.4-181.333334c6.4-2.133333 17.066667-4.266667 27.733333-4.266666s21.333333 2.133333 27.733333 6.4l326.4 181.333333c14.933333 8.533333 27.733333 29.866667 27.733334 46.933333V704zM725.333333 360.533333c-12.8 6.4-19.2 21.333333-17.066666 34.133334l-162.133334 91.733333c-8.533333-10.666667-21.333333-17.066667-36.266666-17.066667-12.8 0-23.466667 4.266667-32 12.8L320 394.666667c2.133333-12.8-4.266667-27.733333-17.066667-34.133334-17.066667-8.533333-36.266667-4.266667-46.933333 12.8-8.533333 14.933333-4.266667 36.266667 12.8 44.8 12.8 6.4 27.733333 4.266667 38.4-4.266666l157.866667 87.466666c0 4.266667-2.133333 8.533333-2.133334 10.666667 0 21.333333 14.933333 38.4 34.133334 42.666667v162.133333c-12.8 4.266667-23.466667 17.066667-23.466667 29.866667 0 19.2 14.933333 32 34.133333 32 19.2 0 34.133333-14.933333 34.133334-32 0-14.933333-8.533333-25.6-23.466667-29.866667V554.666667c19.2-4.266667 34.133333-21.333333 34.133333-42.666667v-6.4l164.266667-91.733333c10.666667 8.533333 25.6 10.666667 38.4 4.266666 17.066667-8.533333 21.333333-29.866667 12.8-44.8-6.4-17.066667-27.733333-23.466667-42.666667-12.8z" fill="#fff" p-id="3837"></path></svg>