<?xml version="1.0" standalone="no"?><!DOCTYPE svg PUBLIC "-//W3C//DTD SVG 1.1//EN" "http://www.w3.org/Graphics/SVG/1.1/DTD/svg11.dtd"><svg t="1703578915969" class="icon" viewBox="0 0 1024 1024" version="1.1" xmlns="http://www.w3.org/2000/svg" p-id="6793" xmlns:xlink="http://www.w3.org/1999/xlink" width="200" height="200"><path d="M593.327027 940.538352H431.232456c-24.18793 0-44.15257 18.753767-44.152571 41.730824s19.964641 41.730824 44.152571 41.730824h162.094571c24.18793 0 44.15257-18.753767 44.15257-41.730824s-19.964641-41.730824-44.15257-41.730824z m64.752181-125.812676H365.904372c-24.18793 0-44.15257 18.753767-44.152571 41.730824s19.964641 41.730824 44.152571 41.730824H658.079208c24.18793 0 44.15257-18.753767 44.15257-41.730824s-19.994174-41.730824-44.15257-41.730824zM512.316658 0C308.535564 0 142.749306 157.856515 142.749306 352.024457c0 103.367222 47.179753 199.602105 128.234423 266.126296a70.644113 70.644113 0 0 1 26.004239 55.035663v29.636859A70.215877 70.215877 0 0 0 367.174312 772.994852h289.723556a70.215877 70.215877 0 0 0 70.15681-70.15681v-29.63686a72.489956 72.489956 0 0 1 26.00424-55.035662c81.054669-66.538957 128.219655-162.094571 128.219655-266.126296C881.88401 157.886048 716.15682 0.014767 512.316658 0.014767z m35.691225 628.428409h-59.273718v-59.258952h59.273718v59.273718z m93.75407-264.324753c-8.461345 15.726584-25.398803 34.480352-50.812373 56.851972-17.040825 15.135915-27.86485 26.078073-33.284245 33.284245a66.878593 66.878593 0 0 0-11.488528 24.793367c-2.421746 9.066782-4.238056 24.18793-4.238056 44.758007h-50.206937v-15.711818c0-20.570077 2.953349-38.112971 8.461346-52.613916A120.954416 120.954416 0 0 1 520.74847 421.575831c6.659802-8.461345 19.359204-20.570077 37.507535-36.296662s29.636859-28.425986 35.085788-38.098204a61.636398 61.636398 0 0 0 7.855909-30.847733c0-19.964641-7.855909-38.098205-23.626793-53.160285s-35.085788-22.991823-58.062846-22.991824c-22.386387 0-40.519951 6.659802-55.641098 20.570078-14.515711 13.910275-24.793367 35.691225-29.031423 64.722647l-53.160286-6.659802c4.843493-39.309078 19.359204-69.551374 42.941698-90.726888s55.035662-31.453169 94.359507-31.453169c41.125388 0 74.394866 11.488528 99.188232 33.874916s36.916865 49.6015 36.916865 81.660105c-0.605437 19.964641-4.843493 36.916865-13.290071 52.023246z" fill="#38ADFF" p-id="6794"></path></svg>