<svg xmlns="http://www.w3.org/2000/svg" xmlns:xlink="http://www.w3.org/1999/xlink" fill="none" version="1.1" width="118.398193359375" height="95" viewBox="0 0 118.398193359375 95"><g><g><g><path d="M1.7433300018310547,76.06060921020509C1.7433300018310547,76.06060921020509,62.75973000183105,39.10840921020508,97.90143000183106,76.06060921020509C97.90143000183106,76.06060921020509,1.7433300018310547,76.06060921020509,1.7433300018310547,76.06060921020509Z" fill="#F2F2F2" fill-opacity="1"/></g><g><path d="M5.82607,55.08772277832031C5.82607,55.08772277832031,5.1844,55.08772277832031,5.1844,55.08772277832031C2.32113,55.08772277832031,0,56.77203277832031,0,58.84974277832031C0,58.84974277832031,0,72.36522277832032,0,72.36522277832032C0,74.44292277832031,2.32113,76.12722277832032,5.1844,76.12722277832032C5.1844,76.12722277832032,5.82607,76.12722277832032,5.82607,76.12722277832032C8.68931,76.12722277832032,11.0104,74.44292277832031,11.0104,72.36522277832032C11.0104,72.36522277832032,11.0104,58.84974277832031,11.0104,58.84974277832031C11.0104,56.77203277832031,8.68931,55.08772277832031,5.82607,55.08772277832031C5.82607,55.08772277832031,5.82607,55.08772277832031,5.82607,55.08772277832031Z" fill="#FFFFFF" fill-opacity="1"/></g><g><path d="M26.746028114624025,42.4373779296875C26.746028114624025,42.4373779296875,26.104358114624024,42.4373779296875,26.104358114624024,42.4373779296875C23.241088114624024,42.4373779296875,20.919958114624023,44.121687929687496,20.919958114624023,46.1993979296875C20.919958114624023,46.1993979296875,20.919958114624023,72.3651779296875,20.919958114624023,72.3651779296875C20.919958114624023,74.4428779296875,23.241088114624024,76.12717792968749,26.104358114624024,76.12717792968749C26.104358114624024,76.12717792968749,26.746028114624025,76.12717792968749,26.746028114624025,76.12717792968749C29.609268114624022,76.12717792968749,31.930358114624024,74.4428779296875,31.930358114624024,72.3651779296875C31.930358114624024,72.3651779296875,31.930358114624024,46.1993979296875,31.930358114624024,46.1993979296875C31.930358114624024,44.121687929687496,29.609268114624022,42.4373779296875,26.746028114624025,42.4373779296875C26.746028114624025,42.4373779296875,26.746028114624025,42.4373779296875,26.746028114624025,42.4373779296875Z" fill="#FFFFFF" fill-opacity="1"/></g><g><path d="M47.66598241455078,33.64876174926758C47.66598241455078,33.64876174926758,47.02431241455078,33.64876174926758,47.02431241455078,33.64876174926758C44.16104241455078,33.64876174926758,41.83991241455078,35.333071749267575,41.83991241455078,37.41078174926758C41.83991241455078,37.41078174926758,41.83991241455078,72.36516174926757,41.83991241455078,72.36516174926757C41.83991241455078,74.44286174926758,44.16104241455078,76.12716174926757,47.02431241455078,76.12716174926757C47.02431241455078,76.12716174926757,47.66598241455078,76.12716174926757,47.66598241455078,76.12716174926757C50.52922241455078,76.12716174926757,52.850312414550785,74.44286174926758,52.850312414550785,72.36516174926757C52.850312414550785,72.36516174926757,52.850312414550785,37.41078174926758,52.850312414550785,37.41078174926758C52.850312414550785,35.333071749267575,50.52922241455078,33.64876174926758,47.66598241455078,33.64876174926758C47.66598241455078,33.64876174926758,47.66598241455078,33.64876174926758,47.66598241455078,33.64876174926758Z" fill="#FFFFFF" fill-opacity="1"/></g><g><path d="M68.58568303710938,25.259620666503906C68.58568303710938,25.259620666503906,67.94401303710937,25.259620666503906,67.94401303710937,25.259620666503906C65.08075303710937,25.259620666503906,62.759613037109375,26.943940666503906,62.759613037109375,29.021640666503906C62.759613037109375,29.021640666503906,62.759613037109375,72.36512066650391,62.759613037109375,72.36512066650391C62.759613037109375,74.4427206665039,65.08075303710937,76.12712066650391,67.94401303710937,76.12712066650391C67.94401303710937,76.12712066650391,68.58568303710938,76.12712066650391,68.58568303710938,76.12712066650391C71.44892303710938,76.12712066650391,73.77011303710938,74.4427206665039,73.77011303710938,72.36512066650391C73.77011303710938,72.36512066650391,73.77011303710938,29.021640666503906,73.77011303710938,29.021640666503906C73.77011303710938,26.943940666503906,71.44892303710938,25.259620666503906,68.58568303710938,25.259620666503906C68.58568303710938,25.259620666503906,68.58568303710938,25.259620666503906,68.58568303710938,25.259620666503906Z" fill="#FFFFFF" fill-opacity="1"/></g><g><path d="M89.50564305908203,10.611867904663086C89.50564305908203,10.611867904663086,88.86397305908203,10.611867904663086,88.86397305908203,10.611867904663086C86.00071305908203,10.611867904663086,83.67957305908203,12.296187904663086,83.67957305908203,14.373887904663086C83.67957305908203,14.373887904663086,83.67957305908203,72.36516790466308,83.67957305908203,72.36516790466308C83.67957305908203,74.44306790466308,86.00071305908203,76.12696790466309,88.86397305908203,76.12696790466309C88.86397305908203,76.12696790466309,89.50564305908203,76.12696790466309,89.50564305908203,76.12696790466309C92.36888305908204,76.12696790466309,94.69007305908204,74.44306790466308,94.69007305908204,72.36516790466308C94.69007305908204,72.36516790466308,94.69007305908204,14.373887904663086,94.69007305908204,14.373887904663086C94.69007305908204,12.296187904663086,92.36888305908204,10.611867904663086,89.50564305908203,10.611867904663086C89.50564305908203,10.611867904663086,89.50564305908203,10.611867904663086,89.50564305908203,10.611867904663086Z" fill="#FFFFFF" fill-opacity="1"/></g><g><path d="M6.652483872070312,54.18115686669922C6.652483872070312,54.18115686669922,7.2941538720703125,54.18115686669922,7.2941538720703125,54.18115686669922C7.2941538720703125,54.18115686669922,7.2941538720703125,53.86370086669922,7.2941538720703125,53.86370086669922C7.2941538720703125,53.86370086669922,6.652483872070312,53.86370086669922,6.652483872070312,53.86370086669922C6.652483872070312,53.86370086669922,6.652483872070312,54.18115686669922,6.652483872070312,54.18115686669922C6.652483872070312,54.18115686669922,6.652483872070312,54.18115686669922,6.652483872070312,54.18115686669922ZM7.2941538720703125,54.18115686669922C10.036613872070312,54.18115686669922,12.259743872070313,55.79440086669922,12.259743872070313,57.78445086669922C12.259743872070313,57.78445086669922,12.697343872070313,57.78445086669922,12.697343872070313,57.78445086669922C12.697343872070313,55.61908086669922,10.278243872070313,53.86370086669922,7.2941538720703125,53.86370086669922C7.2941538720703125,53.86370086669922,7.2941538720703125,54.18115686669922,7.2941538720703125,54.18115686669922C7.2941538720703125,54.18115686669922,7.2941538720703125,54.18115686669922,7.2941538720703125,54.18115686669922ZM12.259743872070313,57.78445086669922C12.259743872070313,57.78445086669922,12.259743872070313,71.29990086669922,12.259743872070313,71.29990086669922C12.259743872070313,71.29990086669922,12.697343872070313,71.29990086669922,12.697343872070313,71.29990086669922C12.697343872070313,71.29990086669922,12.697343872070313,57.78445086669922,12.697343872070313,57.78445086669922C12.697343872070313,57.78445086669922,12.259743872070313,57.78445086669922,12.259743872070313,57.78445086669922C12.259743872070313,57.78445086669922,12.259743872070313,57.78445086669922,12.259743872070313,57.78445086669922ZM12.259743872070313,71.29990086669922C12.259743872070313,73.28990086669921,10.036613872070312,74.90320086669922,7.2941538720703125,74.90320086669922C7.2941538720703125,74.90320086669922,7.2941538720703125,75.22060086669921,7.2941538720703125,75.22060086669921C10.278243872070313,75.22060086669921,12.697343872070313,73.46520086669922,12.697343872070313,71.29990086669922C12.697343872070313,71.29990086669922,12.259743872070313,71.29990086669922,12.259743872070313,71.29990086669922C12.259743872070313,71.29990086669922,12.259743872070313,71.29990086669922,12.259743872070313,71.29990086669922ZM7.2941538720703125,74.90320086669922C7.2941538720703125,74.90320086669922,6.652483872070312,74.90320086669922,6.652483872070312,74.90320086669922C6.652483872070312,74.90320086669922,6.652483872070312,75.22060086669921,6.652483872070312,75.22060086669921C6.652483872070312,75.22060086669921,7.2941538720703125,75.22060086669921,7.2941538720703125,75.22060086669921C7.2941538720703125,75.22060086669921,7.2941538720703125,74.90320086669922,7.2941538720703125,74.90320086669922C7.2941538720703125,74.90320086669922,7.2941538720703125,74.90320086669922,7.2941538720703125,74.90320086669922ZM6.652483872070312,74.90320086669922C3.9100238720703127,74.90320086669922,1.6868258720703124,73.28990086669921,1.6868258720703124,71.29990086669922C1.6868258720703124,71.29990086669922,1.2493438720703125,71.29990086669922,1.2493438720703125,71.29990086669922C1.2493438720703125,73.46520086669922,3.6684138720703126,75.22060086669921,6.652483872070312,75.22060086669921C6.652483872070312,75.22060086669921,6.652483872070312,74.90320086669922,6.652483872070312,74.90320086669922C6.652483872070312,74.90320086669922,6.652483872070312,74.90320086669922,6.652483872070312,74.90320086669922ZM1.6868258720703124,71.29990086669922C1.6868258720703124,71.29990086669922,1.6868258720703124,57.78445086669922,1.6868258720703124,57.78445086669922C1.6868258720703124,57.78445086669922,1.2493438720703125,57.78445086669922,1.2493438720703125,57.78445086669922C1.2493438720703125,57.78445086669922,1.2493438720703125,71.29990086669922,1.2493438720703125,71.29990086669922C1.2493438720703125,71.29990086669922,1.6868258720703124,71.29990086669922,1.6868258720703124,71.29990086669922C1.6868258720703124,71.29990086669922,1.6868258720703124,71.29990086669922,1.6868258720703124,71.29990086669922ZM1.6868258720703124,57.78445086669922C1.6868258720703124,55.79440086669922,3.9100238720703127,54.18115686669922,6.652483872070312,54.18115686669922C6.652483872070312,54.18115686669922,6.652483872070312,53.86370086669922,6.652483872070312,53.86370086669922C3.6684138720703126,53.86370086669922,1.2493438720703125,55.61908086669922,1.2493438720703125,57.78445086669922C1.2493438720703125,57.78445086669922,1.6868258720703124,57.78445086669922,1.6868258720703124,57.78445086669922C1.6868258720703124,57.78445086669922,1.6868258720703124,57.78445086669922,1.6868258720703124,57.78445086669922Z" fill="#3F3D56" fill-opacity="1"/></g><g><path d="M27.572441986694336,41.530857794433594C27.572441986694336,41.530857794433594,28.214111986694334,41.530857794433594,28.214111986694334,41.530857794433594C28.214111986694334,41.530857794433594,28.214111986694334,41.213401794433594,28.214111986694334,41.213401794433594C28.214111986694334,41.213401794433594,27.572441986694336,41.213401794433594,27.572441986694336,41.213401794433594C27.572441986694336,41.213401794433594,27.572441986694336,41.530857794433594,27.572441986694336,41.530857794433594C27.572441986694336,41.530857794433594,27.572441986694336,41.530857794433594,27.572441986694336,41.530857794433594ZM28.214111986694334,41.530857794433594C30.956571986694335,41.530857794433594,33.17970198669434,43.144101794433595,33.17970198669434,45.13415179443359C33.17970198669434,45.13415179443359,33.617301986694336,45.13415179443359,33.617301986694336,45.13415179443359C33.617301986694336,42.968781794433596,31.198201986694336,41.213401794433594,28.214111986694334,41.213401794433594C28.214111986694334,41.213401794433594,28.214111986694334,41.530857794433594,28.214111986694334,41.530857794433594C28.214111986694334,41.530857794433594,28.214111986694334,41.530857794433594,28.214111986694334,41.530857794433594ZM33.17970198669434,45.13415179443359C33.17970198669434,45.13415179443359,33.17970198669434,71.2999017944336,33.17970198669434,71.2999017944336C33.17970198669434,71.2999017944336,33.617301986694336,71.2999017944336,33.617301986694336,71.2999017944336C33.617301986694336,71.2999017944336,33.617301986694336,45.13415179443359,33.617301986694336,45.13415179443359C33.617301986694336,45.13415179443359,33.17970198669434,45.13415179443359,33.17970198669434,45.13415179443359C33.17970198669434,45.13415179443359,33.17970198669434,45.13415179443359,33.17970198669434,45.13415179443359ZM33.17970198669434,71.2999017944336C33.17970198669434,73.2899017944336,30.956571986694335,74.90320179443358,28.214111986694334,74.90320179443358C28.214111986694334,74.90320179443358,28.214111986694334,75.22060179443359,28.214111986694334,75.22060179443359C31.198201986694336,75.22060179443359,33.617301986694336,73.4652017944336,33.617301986694336,71.2999017944336C33.617301986694336,71.2999017944336,33.17970198669434,71.2999017944336,33.17970198669434,71.2999017944336C33.17970198669434,71.2999017944336,33.17970198669434,71.2999017944336,33.17970198669434,71.2999017944336ZM28.214111986694334,74.90320179443358C28.214111986694334,74.90320179443358,27.572441986694336,74.90320179443358,27.572441986694336,74.90320179443358C27.572441986694336,74.90320179443358,27.572441986694336,75.22060179443359,27.572441986694336,75.22060179443359C27.572441986694336,75.22060179443359,28.214111986694334,75.22060179443359,28.214111986694334,75.22060179443359C28.214111986694334,75.22060179443359,28.214111986694334,74.90320179443358,28.214111986694334,74.90320179443358C28.214111986694334,74.90320179443358,28.214111986694334,74.90320179443358,28.214111986694334,74.90320179443358ZM27.572441986694336,74.90320179443358C24.829981986694335,74.90320179443358,22.606783986694335,73.2899017944336,22.606783986694335,71.2999017944336C22.606783986694335,71.2999017944336,22.169301986694336,71.2999017944336,22.169301986694336,71.2999017944336C22.169301986694336,73.4652017944336,24.588371986694337,75.22060179443359,27.572441986694336,75.22060179443359C27.572441986694336,75.22060179443359,27.572441986694336,74.90320179443358,27.572441986694336,74.90320179443358C27.572441986694336,74.90320179443358,27.572441986694336,74.90320179443358,27.572441986694336,74.90320179443358ZM22.606783986694335,71.2999017944336C22.606783986694335,71.2999017944336,22.606783986694335,45.13415179443359,22.606783986694335,45.13415179443359C22.606783986694335,45.13415179443359,22.169301986694336,45.13415179443359,22.169301986694336,45.13415179443359C22.169301986694336,45.13415179443359,22.169301986694336,71.2999017944336,22.169301986694336,71.2999017944336C22.169301986694336,71.2999017944336,22.606783986694335,71.2999017944336,22.606783986694335,71.2999017944336C22.606783986694335,71.2999017944336,22.606783986694335,71.2999017944336,22.606783986694335,71.2999017944336ZM22.606783986694335,45.13415179443359C22.606783986694335,43.144101794433595,24.829981986694335,41.530857794433594,27.572441986694336,41.530857794433594C27.572441986694336,41.530857794433594,27.572441986694336,41.213401794433594,27.572441986694336,41.213401794433594C24.588371986694337,41.213401794433594,22.169301986694336,42.968781794433596,22.169301986694336,45.13415179443359C22.169301986694336,45.13415179443359,22.606783986694335,45.13415179443359,22.606783986694335,45.13415179443359C22.606783986694335,45.13415179443359,22.606783986694335,45.13415179443359,22.606783986694335,45.13415179443359Z" fill="#3F3D56" fill-opacity="1"/></g><g><path d="M48.492396286621094,32.74219965234375C48.492396286621094,32.74219965234375,49.13406628662109,32.74219965234375,49.13406628662109,32.74219965234375C49.13406628662109,32.74219965234375,49.13406628662109,32.42474365234375,49.13406628662109,32.42474365234375C49.13406628662109,32.42474365234375,48.492396286621094,32.42474365234375,48.492396286621094,32.42474365234375C48.492396286621094,32.42474365234375,48.492396286621094,32.74219965234375,48.492396286621094,32.74219965234375C48.492396286621094,32.74219965234375,48.492396286621094,32.74219965234375,48.492396286621094,32.74219965234375ZM49.13406628662109,32.74219965234375C51.87652628662109,32.74219965234375,54.0996562866211,34.35544365234375,54.0996562866211,36.34549365234375C54.0996562866211,36.34549365234375,54.537256286621094,36.34549365234375,54.537256286621094,36.34549365234375C54.537256286621094,34.18012365234375,52.118156286621094,32.42474365234375,49.13406628662109,32.42474365234375C49.13406628662109,32.42474365234375,49.13406628662109,32.74219965234375,49.13406628662109,32.74219965234375C49.13406628662109,32.74219965234375,49.13406628662109,32.74219965234375,49.13406628662109,32.74219965234375ZM54.0996562866211,36.34549365234375C54.0996562866211,36.34549365234375,54.0996562866211,71.29984365234375,54.0996562866211,71.29984365234375C54.0996562866211,71.29984365234375,54.537256286621094,71.29984365234375,54.537256286621094,71.29984365234375C54.537256286621094,71.29984365234375,54.537256286621094,36.34549365234375,54.537256286621094,36.34549365234375C54.537256286621094,36.34549365234375,54.0996562866211,36.34549365234375,54.0996562866211,36.34549365234375C54.0996562866211,36.34549365234375,54.0996562866211,36.34549365234375,54.0996562866211,36.34549365234375ZM54.0996562866211,71.29984365234375C54.0996562866211,73.28994365234375,51.87652628662109,74.90314365234374,49.13406628662109,74.90314365234374C49.13406628662109,74.90314365234374,49.13406628662109,75.22054365234375,49.13406628662109,75.22054365234375C52.118156286621094,75.22054365234375,54.537256286621094,73.46524365234376,54.537256286621094,71.29984365234375C54.537256286621094,71.29984365234375,54.0996562866211,71.29984365234375,54.0996562866211,71.29984365234375C54.0996562866211,71.29984365234375,54.0996562866211,71.29984365234375,54.0996562866211,71.29984365234375ZM49.13406628662109,74.90314365234374C49.13406628662109,74.90314365234374,48.492396286621094,74.90314365234374,48.492396286621094,74.90314365234374C48.492396286621094,74.90314365234374,48.492396286621094,75.22054365234375,48.492396286621094,75.22054365234375C48.492396286621094,75.22054365234375,49.13406628662109,75.22054365234375,49.13406628662109,75.22054365234375C49.13406628662109,75.22054365234375,49.13406628662109,74.90314365234374,49.13406628662109,74.90314365234374C49.13406628662109,74.90314365234374,49.13406628662109,74.90314365234374,49.13406628662109,74.90314365234374ZM48.492396286621094,74.90314365234374C45.74993628662109,74.90314365234374,43.5267382866211,73.28994365234375,43.5267382866211,71.29984365234375C43.5267382866211,71.29984365234375,43.089256286621094,71.29984365234375,43.089256286621094,71.29984365234375C43.089256286621094,73.46524365234376,45.50832628662109,75.22054365234375,48.492396286621094,75.22054365234375C48.492396286621094,75.22054365234375,48.492396286621094,74.90314365234374,48.492396286621094,74.90314365234374C48.492396286621094,74.90314365234374,48.492396286621094,74.90314365234374,48.492396286621094,74.90314365234374ZM43.5267382866211,71.29984365234375C43.5267382866211,71.29984365234375,43.5267382866211,36.34549365234375,43.5267382866211,36.34549365234375C43.5267382866211,36.34549365234375,43.089256286621094,36.34549365234375,43.089256286621094,36.34549365234375C43.089256286621094,36.34549365234375,43.089256286621094,71.29984365234375,43.089256286621094,71.29984365234375C43.089256286621094,71.29984365234375,43.5267382866211,71.29984365234375,43.5267382866211,71.29984365234375C43.5267382866211,71.29984365234375,43.5267382866211,71.29984365234375,43.5267382866211,71.29984365234375ZM43.5267382866211,36.34549365234375C43.5267382866211,34.35544365234375,45.74993628662109,32.74219965234375,48.492396286621094,32.74219965234375C48.492396286621094,32.74219965234375,48.492396286621094,32.42474365234375,48.492396286621094,32.42474365234375C45.50832628662109,32.42474365234375,43.089256286621094,34.18012365234375,43.089256286621094,36.34549365234375C43.089256286621094,36.34549365234375,43.5267382866211,36.34549365234375,43.5267382866211,36.34549365234375C43.5267382866211,36.34549365234375,43.5267382866211,36.34549365234375,43.5267382866211,36.34549365234375Z" fill="#3F3D56" fill-opacity="1"/></g><g><path d="M69.41209690917968,24.35305284753418C69.41209690917968,24.35305284753418,70.05376690917969,24.35305284753418,70.05376690917969,24.35305284753418C70.05376690917969,24.35305284753418,70.05376690917969,24.03559684753418,70.05376690917969,24.03559684753418C70.05376690917969,24.03559684753418,69.41209690917968,24.03559684753418,69.41209690917968,24.03559684753418C69.41209690917968,24.03559684753418,69.41209690917968,24.35305284753418,69.41209690917968,24.35305284753418C69.41209690917968,24.35305284753418,69.41209690917968,24.35305284753418,69.41209690917968,24.35305284753418ZM70.05376690917969,24.35305284753418C72.7962269091797,24.35305284753418,75.01935690917969,25.96629684753418,75.01935690917969,27.956346847534178C75.01935690917969,27.956346847534178,75.4569569091797,27.956346847534178,75.4569569091797,27.956346847534178C75.4569569091797,25.79097684753418,73.03785690917968,24.03559684753418,70.05376690917969,24.03559684753418C70.05376690917969,24.03559684753418,70.05376690917969,24.35305284753418,70.05376690917969,24.35305284753418C70.05376690917969,24.35305284753418,70.05376690917969,24.35305284753418,70.05376690917969,24.35305284753418ZM75.01935690917969,27.956346847534178C75.01935690917969,27.956346847534178,75.01935690917969,71.29989684753417,75.01935690917969,71.29989684753417C75.01935690917969,71.29989684753417,75.4569569091797,71.29989684753417,75.4569569091797,71.29989684753417C75.4569569091797,71.29989684753417,75.4569569091797,27.956346847534178,75.4569569091797,27.956346847534178C75.4569569091797,27.956346847534178,75.01935690917969,27.956346847534178,75.01935690917969,27.956346847534178C75.01935690917969,27.956346847534178,75.01935690917969,27.956346847534178,75.01935690917969,27.956346847534178ZM75.01935690917969,71.29989684753417C75.01935690917969,73.28999684753418,72.7962269091797,74.90299684753418,70.05376690917969,74.90299684753418C70.05376690917969,74.90299684753418,70.05376690917969,75.22069684753419,70.05376690917969,75.22069684753419C73.03785690917968,75.22069684753419,75.4569569091797,73.46539684753418,75.4569569091797,71.29989684753417C75.4569569091797,71.29989684753417,75.01935690917969,71.29989684753417,75.01935690917969,71.29989684753417C75.01935690917969,71.29989684753417,75.01935690917969,71.29989684753417,75.01935690917969,71.29989684753417ZM70.05376690917969,74.90299684753418C70.05376690917969,74.90299684753418,69.41209690917968,74.90299684753418,69.41209690917968,74.90299684753418C69.41209690917968,74.90299684753418,69.41209690917968,75.22069684753419,69.41209690917968,75.22069684753419C69.41209690917968,75.22069684753419,70.05376690917969,75.22069684753419,70.05376690917969,75.22069684753419C70.05376690917969,75.22069684753419,70.05376690917969,74.90299684753418,70.05376690917969,74.90299684753418C70.05376690917969,74.90299684753418,70.05376690917969,74.90299684753418,70.05376690917969,74.90299684753418ZM69.41209690917968,74.90299684753418C66.66964690917969,74.90299684753418,64.44643890917969,73.28999684753418,64.44643890917969,71.29989684753417C64.44643890917969,71.29989684753417,64.00895690917969,71.29989684753417,64.00895690917969,71.29989684753417C64.00895690917969,73.46539684753418,66.42803690917968,75.22069684753419,69.41209690917968,75.22069684753419C69.41209690917968,75.22069684753419,69.41209690917968,74.90299684753418,69.41209690917968,74.90299684753418C69.41209690917968,74.90299684753418,69.41209690917968,74.90299684753418,69.41209690917968,74.90299684753418ZM64.44643890917969,71.29989684753417C64.44643890917969,71.29989684753417,64.44643890917969,27.956346847534178,64.44643890917969,27.956346847534178C64.44643890917969,27.956346847534178,64.00895690917969,27.956346847534178,64.00895690917969,27.956346847534178C64.00895690917969,27.956346847534178,64.00895690917969,71.29989684753417,64.00895690917969,71.29989684753417C64.00895690917969,71.29989684753417,64.44643890917969,71.29989684753417,64.44643890917969,71.29989684753417C64.44643890917969,71.29989684753417,64.44643890917969,71.29989684753417,64.44643890917969,71.29989684753417ZM64.44643890917969,27.956346847534178C64.44643890917969,25.96629684753418,66.66964690917969,24.35305284753418,69.41209690917968,24.35305284753418C69.41209690917968,24.35305284753418,69.41209690917968,24.03559684753418,69.41209690917968,24.03559684753418C66.42803690917968,24.03559684753418,64.00895690917969,25.79097684753418,64.00895690917969,27.956346847534178C64.00895690917969,27.956346847534178,64.44643890917969,27.956346847534178,64.44643890917969,27.956346847534178C64.44643890917969,27.956346847534178,64.44643890917969,27.956346847534178,64.44643890917969,27.956346847534178Z" fill="#3F3D56" fill-opacity="1"/></g><g><path d="M90.33205693115234,9.705301993041992C90.33205693115234,9.705301993041992,90.97372693115234,9.705301993041992,90.97372693115234,9.705301993041992C90.97372693115234,9.705301993041992,90.97372693115234,9.387845993041992,90.97372693115234,9.387845993041992C90.97372693115234,9.387845993041992,90.33205693115234,9.387845993041992,90.33205693115234,9.387845993041992C90.33205693115234,9.387845993041992,90.33205693115234,9.705301993041992,90.33205693115234,9.705301993041992C90.33205693115234,9.705301993041992,90.33205693115234,9.705301993041992,90.33205693115234,9.705301993041992ZM90.97372693115234,9.705301993041992C93.71618693115235,9.705301993041992,95.93931693115235,11.318555993041992,95.93931693115235,13.308595993041992C95.93931693115235,13.308595993041992,96.37691693115235,13.308595993041992,96.37691693115235,13.308595993041992C96.37691693115235,11.143225993041993,93.95781693115234,9.387845993041992,90.97372693115234,9.387845993041992C90.97372693115234,9.387845993041992,90.97372693115234,9.705301993041992,90.97372693115234,9.705301993041992C90.97372693115234,9.705301993041992,90.97372693115234,9.705301993041992,90.97372693115234,9.705301993041992ZM95.93931693115235,13.308595993041992C95.93931693115235,13.308595993041992,95.93931693115235,71.299845993042,95.93931693115235,71.299845993042C95.93931693115235,71.299845993042,96.37691693115235,71.299845993042,96.37691693115235,71.299845993042C96.37691693115235,71.299845993042,96.37691693115235,13.308595993041992,96.37691693115235,13.308595993041992C96.37691693115235,13.308595993041992,95.93931693115235,13.308595993041992,95.93931693115235,13.308595993041992C95.93931693115235,13.308595993041992,95.93931693115235,13.308595993041992,95.93931693115235,13.308595993041992ZM95.93931693115235,71.299845993042C95.93931693115235,73.289845993042,93.71618693115235,74.90324599304199,90.97372693115234,74.90324599304199C90.97372693115234,74.90324599304199,90.97372693115234,75.220545993042,90.97372693115234,75.220545993042C93.95781693115234,75.220545993042,96.37691693115235,73.46524599304199,96.37691693115235,71.299845993042C96.37691693115235,71.299845993042,95.93931693115235,71.299845993042,95.93931693115235,71.299845993042C95.93931693115235,71.299845993042,95.93931693115235,71.299845993042,95.93931693115235,71.299845993042ZM90.97372693115234,74.90324599304199C90.97372693115234,74.90324599304199,90.33205693115234,74.90324599304199,90.33205693115234,74.90324599304199C90.33205693115234,74.90324599304199,90.33205693115234,75.220545993042,90.33205693115234,75.220545993042C90.33205693115234,75.220545993042,90.97372693115234,75.220545993042,90.97372693115234,75.220545993042C90.97372693115234,75.220545993042,90.97372693115234,74.90324599304199,90.97372693115234,74.90324599304199C90.97372693115234,74.90324599304199,90.97372693115234,74.90324599304199,90.97372693115234,74.90324599304199ZM90.33205693115234,74.90324599304199C87.58960693115235,74.90324599304199,85.36639893115235,73.289845993042,85.36639893115235,71.299845993042C85.36639893115235,71.299845993042,84.92891693115234,71.299845993042,84.92891693115234,71.299845993042C84.92891693115234,73.46524599304199,87.34799693115234,75.220545993042,90.33205693115234,75.220545993042C90.33205693115234,75.220545993042,90.33205693115234,74.90324599304199,90.33205693115234,74.90324599304199C90.33205693115234,74.90324599304199,90.33205693115234,74.90324599304199,90.33205693115234,74.90324599304199ZM85.36639893115235,71.299845993042C85.36639893115235,71.299845993042,85.36639893115235,13.308595993041992,85.36639893115235,13.308595993041992C85.36639893115235,13.308595993041992,84.92891693115234,13.308595993041992,84.92891693115234,13.308595993041992C84.92891693115234,13.308595993041992,84.92891693115234,71.299845993042,84.92891693115234,71.299845993042C84.92891693115234,71.299845993042,85.36639893115235,71.299845993042,85.36639893115235,71.299845993042C85.36639893115235,71.299845993042,85.36639893115235,71.299845993042,85.36639893115235,71.299845993042ZM85.36639893115235,13.308595993041992C85.36639893115235,11.318555993041992,87.58960693115235,9.705301993041992,90.33205693115234,9.705301993041992C90.33205693115234,9.705301993041992,90.33205693115234,9.387845993041992,90.33205693115234,9.387845993041992C87.34799693115234,9.387845993041992,84.92891693115234,11.143225993041993,84.92891693115234,13.308595993041992C84.92891693115234,13.308595993041992,85.36639893115235,13.308595993041992,85.36639893115235,13.308595993041992C85.36639893115235,13.308595993041992,85.36639893115235,13.308595993041992,85.36639893115235,13.308595993041992Z" fill="#3F3D56" fill-opacity="1"/></g><g><path d="" fill="#A0616A" fill-opacity="1"/></g><g><path d="" fill="#575A89" fill-opacity="1"/></g><g><path d="" fill="#F2F2F2" fill-opacity="1"/></g><g><path d="" fill="#3F3D56" fill-opacity="1"/></g><g><path d="M27.80136842956543,33.3158602968216C27.80136842956543,33.3158602968216,27.69376842956543,33.17766029682159,27.69376842956543,33.17766029682159C27.69376842956543,33.17766029682159,27.676568429565428,33.18466029682159,27.676568429565428,33.18466029682159C27.676568429565428,33.18466029682159,27.661368429565428,33.1938602968216,27.661368429565428,33.1938602968216C27.661368429565428,33.1938602968216,27.80136842956543,33.3158602968216,27.80136842956543,33.3158602968216C27.80136842956543,33.3158602968216,27.80136842956543,33.3158602968216,27.80136842956543,33.3158602968216ZM48.90486842956543,24.660360296821594C48.90486842956543,24.660360296821594,48.79896842956543,24.521460296821594,48.79896842956543,24.521460296821594C48.79896842956543,24.521460296821594,48.79716842956543,24.522160296821593,48.79716842956543,24.522160296821593C48.79716842956543,24.522160296821593,48.90486842956543,24.660360296821594,48.90486842956543,24.660360296821594C48.90486842956543,24.660360296821594,48.90486842956543,24.660360296821594,48.90486842956543,24.660360296821594ZM69.82466842956543,16.271260296821595C69.82466842956543,16.271260296821595,69.93056842956543,16.410160296821594,69.93056842956543,16.410160296821594C69.93056842956543,16.410160296821594,69.95576842956544,16.399960296821597,69.95576842956544,16.399960296821597C69.95576842956544,16.399960296821597,69.97656842956543,16.385460296821595,69.97656842956543,16.385460296821595C69.97656842956543,16.385460296821595,69.82466842956543,16.271260296821595,69.82466842956543,16.271260296821595C69.82466842956543,16.271260296821595,69.82466842956543,16.271260296821595,69.82466842956543,16.271260296821595ZM7.02153842956543,46.088060296821595C7.02153842956543,46.088060296821595,27.94136842956543,33.437760296821594,27.94136842956543,33.437760296821594C27.94136842956543,33.437760296821594,27.661368429565428,33.1938602968216,27.661368429565428,33.1938602968216C27.661368429565428,33.1938602968216,6.74146842956543,45.84416029682159,6.74146842956543,45.84416029682159C6.74146842956543,45.84416029682159,7.02153842956543,46.088060296821595,7.02153842956543,46.088060296821595C7.02153842956543,46.088060296821595,7.02153842956543,46.088060296821595,7.02153842956543,46.088060296821595ZM27.90896842956543,33.45396029682159C27.90896842956543,33.45396029682159,49.01246842956543,24.798560296821595,49.01246842956543,24.798560296821595C49.01246842956543,24.798560296821595,48.79716842956543,24.522160296821593,48.79716842956543,24.522160296821593C48.79716842956543,24.522160296821593,27.69376842956543,33.17766029682159,27.69376842956543,33.17766029682159C27.69376842956543,33.17766029682159,27.90896842956543,33.45396029682159,27.90896842956543,33.45396029682159C27.90896842956543,33.45396029682159,27.90896842956543,33.45396029682159,27.90896842956543,33.45396029682159ZM49.01066842956543,24.799260296821593C49.01066842956543,24.799260296821593,69.93056842956543,16.410160296821594,69.93056842956543,16.410160296821594C69.93056842956543,16.410160296821594,69.71886842956543,16.132260296821592,69.71886842956543,16.132260296821592C69.71886842956543,16.132260296821592,48.79896842956543,24.521460296821594,48.79896842956543,24.521460296821594C48.79896842956543,24.521460296821594,49.01066842956543,24.799260296821593,49.01066842956543,24.799260296821593C49.01066842956543,24.799260296821593,49.01066842956543,24.799260296821593,49.01066842956543,24.799260296821593ZM69.97656842956543,16.385460296821595C69.97656842956543,16.385460296821595,90.89626842956542,1.7377082968215942,90.89626842956542,1.7377082968215942C90.89626842956542,1.7377082968215942,90.59296842956543,1.5092602968215942,90.59296842956543,1.5092602968215942C90.59296842956543,1.5092602968215942,69.67286842956543,16.156960296821595,69.67286842956543,16.156960296821595C69.67286842956543,16.156960296821595,69.97656842956543,16.385460296821595,69.97656842956543,16.385460296821595C69.97656842956543,16.385460296821595,69.97656842956543,16.385460296821595,69.97656842956543,16.385460296821595Z" fill="#FFFFFF" fill-opacity="1"/></g><g><path d="M6.331103351440429,48.09678251342773C7.44593335144043,48.09678251342773,8.34968335144043,47.440982513427734,8.34968335144043,46.63201251342773C8.34968335144043,45.823034513427736,7.44593335144043,45.167232513427734,6.331103351440429,45.167232513427734C5.21626635144043,45.167232513427734,4.31251335144043,45.823034513427736,4.31251335144043,46.63201251342773C4.31251335144043,47.440982513427734,5.21626635144043,48.09678251342773,6.331103351440429,48.09678251342773C6.331103351440429,48.09678251342773,6.331103351440429,48.09678251342773,6.331103351440429,48.09678251342773Z" fill="#F2F2F2" fill-opacity="1"/></g><g><path d="M27.25080778869629,35.44643766479492C28.36563778869629,35.44643766479492,29.26938778869629,34.79063766479492,29.26938778869629,33.98166766479492C29.26938778869629,33.17268966479492,28.36563778869629,32.51688766479492,27.25080778869629,32.51688766479492C26.13597078869629,32.51688766479492,25.23221778869629,33.17268966479492,25.23221778869629,33.98166766479492C25.23221778869629,34.79063766479492,26.13597078869629,35.44643766479492,27.25080778869629,35.44643766479492C27.25080778869629,35.44643766479492,27.25080778869629,35.44643766479492,27.25080778869629,35.44643766479492Z" fill="#F2F2F2" fill-opacity="1"/></g><g><path d="M48.35425284179688,26.7909944732666C49.469082841796876,26.7909944732666,50.37283284179688,26.1351944732666,50.37283284179688,25.326224473266603C50.37283284179688,24.517246473266603,49.469082841796876,23.8614444732666,48.35425284179688,23.8614444732666C47.23941584179688,23.8614444732666,46.335662841796875,24.517246473266603,46.335662841796875,25.326224473266603C46.335662841796875,26.1351944732666,47.23941584179688,26.7909944732666,48.35425284179688,26.7909944732666C48.35425284179688,26.7909944732666,48.35425284179688,26.7909944732666,48.35425284179688,26.7909944732666Z" fill="#F2F2F2" fill-opacity="1"/></g><g><path d="M69.27421286376953,18.401806660461425C70.38904286376953,18.401806660461425,71.29279286376953,17.746006660461425,71.29279286376953,16.937036660461427C71.29279286376953,16.128058660461427,70.38904286376953,15.472256660461426,69.27421286376953,15.472256660461426C68.15937586376953,15.472256660461426,67.25562286376953,16.128058660461427,67.25562286376953,16.937036660461427C67.25562286376953,17.746006660461425,68.15937586376953,18.401806660461425,69.27421286376953,18.401806660461425C69.27421286376953,18.401806660461425,69.27421286376953,18.401806660461425,69.27421286376953,18.401806660461425Z" fill="#F2F2F2" fill-opacity="1"/></g><g><path d="M90.19416525634766,3.7541005094528197C91.30899525634766,3.7541005094528197,92.21274525634766,3.09830050945282,92.21274525634766,2.28933050945282C92.21274525634766,1.4803525094528198,91.30899525634766,0.8245505094528198,90.19416525634766,0.8245505094528198C89.07932825634765,0.8245505094528198,88.17557525634766,1.4803525094528198,88.17557525634766,2.28933050945282C88.17557525634766,3.09830050945282,89.07932825634765,3.7541005094528197,90.19416525634766,3.7541005094528197C90.19416525634766,3.7541005094528197,90.19416525634766,3.7541005094528197,90.19416525634766,3.7541005094528197Z" fill="#F2F2F2" fill-opacity="1"/></g><g><path d="M8.681308799438476,45.966181884765625C8.681308799438476,46.68749188476563,7.875488799438477,47.27222188476563,6.881468799438476,47.27222188476563C6.881468799438476,47.27222188476563,6.881468799438476,47.589681884765625,6.881468799438476,47.589681884765625C8.117108799438476,47.589681884765625,9.118788799438477,46.86282188476562,9.118788799438477,45.966181884765625C9.118788799438477,45.966181884765625,8.681308799438476,45.966181884765625,8.681308799438476,45.966181884765625C8.681308799438476,45.966181884765625,8.681308799438476,45.966181884765625,8.681308799438476,45.966181884765625ZM6.881468799438476,47.27222188476563C5.887438799438477,47.27222188476563,5.081610799438477,46.68749188476563,5.081610799438477,45.966181884765625C5.081610799438477,45.966181884765625,4.644128799438477,45.966181884765625,4.644128799438477,45.966181884765625C4.644128799438477,46.86282188476562,5.645828799438476,47.589681884765625,6.881468799438476,47.589681884765625C6.881468799438476,47.589681884765625,6.881468799438476,47.27222188476563,6.881468799438476,47.27222188476563C6.881468799438476,47.27222188476563,6.881468799438476,47.27222188476563,6.881468799438476,47.27222188476563ZM5.081610799438477,45.966181884765625C5.081610799438477,45.244876884765624,5.887438799438477,44.660137884765625,6.881468799438476,44.660137884765625C6.881468799438476,44.660137884765625,6.881468799438476,44.342681884765625,6.881468799438476,44.342681884765625C5.645828799438476,44.342681884765625,4.644128799438477,45.06954688476562,4.644128799438477,45.966181884765625C4.644128799438477,45.966181884765625,5.081610799438477,45.966181884765625,5.081610799438477,45.966181884765625C5.081610799438477,45.966181884765625,5.081610799438477,45.966181884765625,5.081610799438477,45.966181884765625ZM6.881468799438476,44.660137884765625C7.875488799438477,44.660137884765625,8.681308799438476,45.24487188476562,8.681308799438476,45.966181884765625C8.681308799438476,45.966181884765625,9.118788799438477,45.966181884765625,9.118788799438477,45.966181884765625C9.118788799438477,45.06954688476562,8.117108799438476,44.342681884765625,6.881468799438476,44.342681884765625C6.881468799438476,44.342681884765625,6.881468799438476,44.660137884765625,6.881468799438476,44.660137884765625C6.881468799438476,44.660137884765625,6.881468799438476,44.660137884765625,6.881468799438476,44.660137884765625Z" fill="#3F3D56" fill-opacity="1"/></g><g><path d="M29.601265006713867,33.31588090515137C29.601265006713867,34.03719090515137,28.795445006713866,34.62192090515137,27.801425006713867,34.62192090515137C27.801425006713867,34.62192090515137,27.801425006713867,34.93938090515137,27.801425006713867,34.93938090515137C29.037065006713867,34.93938090515137,30.038745006713867,34.212520905151365,30.038745006713867,33.31588090515137C30.038745006713867,33.31588090515137,29.601265006713867,33.31588090515137,29.601265006713867,33.31588090515137C29.601265006713867,33.31588090515137,29.601265006713867,33.31588090515137,29.601265006713867,33.31588090515137ZM27.801425006713867,34.62192090515137C26.807395006713868,34.62192090515137,26.001567006713866,34.03719090515137,26.001567006713866,33.31588090515137C26.001567006713866,33.31588090515137,25.564085006713867,33.31588090515137,25.564085006713867,33.31588090515137C25.564085006713867,34.212520905151365,26.565785006713867,34.93938090515137,27.801425006713867,34.93938090515137C27.801425006713867,34.93938090515137,27.801425006713867,34.62192090515137,27.801425006713867,34.62192090515137C27.801425006713867,34.62192090515137,27.801425006713867,34.62192090515137,27.801425006713867,34.62192090515137ZM26.001567006713866,33.31588090515137C26.001567006713866,32.594575905151366,26.807395006713868,32.00983690515137,27.801425006713867,32.00983690515137C27.801425006713867,32.00983690515137,27.801425006713867,31.692380905151367,27.801425006713867,31.692380905151367C26.565785006713867,31.692380905151367,25.564085006713867,32.419245905151364,25.564085006713867,33.31588090515137C25.564085006713867,33.31588090515137,26.001567006713866,33.31588090515137,26.001567006713866,33.31588090515137C26.001567006713866,33.31588090515137,26.001567006713866,33.31588090515137,26.001567006713866,33.31588090515137ZM27.801425006713867,32.00983690515137C28.795445006713866,32.00983690515137,29.601265006713867,32.594570905151365,29.601265006713867,33.31588090515137C29.601265006713867,33.31588090515137,30.038745006713867,33.31588090515137,30.038745006713867,33.31588090515137C30.038745006713867,32.419245905151364,29.037065006713867,31.692380905151367,27.801425006713867,31.692380905151367C27.801425006713867,31.692380905151367,27.801425006713867,32.00983690515137,27.801425006713867,32.00983690515137C27.801425006713867,32.00983690515137,27.801425006713867,32.00983690515137,27.801425006713867,32.00983690515137Z" fill="#3F3D56" fill-opacity="1"/></g><g><path d="M50.70471387451172,24.660395751953125C50.70471387451172,25.381705751953124,49.89889387451172,25.966435751953124,48.90487387451172,25.966435751953124C48.90487387451172,25.966435751953124,48.90487387451172,26.283895751953125,48.90487387451172,26.283895751953125C50.14051387451172,26.283895751953125,51.14219387451172,25.557035751953126,51.14219387451172,24.660395751953125C51.14219387451172,24.660395751953125,50.70471387451172,24.660395751953125,50.70471387451172,24.660395751953125C50.70471387451172,24.660395751953125,50.70471387451172,24.660395751953125,50.70471387451172,24.660395751953125ZM48.90487387451172,25.966435751953124C47.91084387451172,25.966435751953124,47.10501587451172,25.381705751953124,47.10501587451172,24.660395751953125C47.10501587451172,24.660395751953125,46.66753387451172,24.660395751953125,46.66753387451172,24.660395751953125C46.66753387451172,25.557035751953126,47.66923387451172,26.283895751953125,48.90487387451172,26.283895751953125C48.90487387451172,26.283895751953125,48.90487387451172,25.966435751953124,48.90487387451172,25.966435751953124C48.90487387451172,25.966435751953124,48.90487387451172,25.966435751953124,48.90487387451172,25.966435751953124ZM47.10501587451172,24.660395751953125C47.10501587451172,23.939090751953124,47.91084387451172,23.354351751953125,48.90487387451172,23.354351751953125C48.90487387451172,23.354351751953125,48.90487387451172,23.036895751953125,48.90487387451172,23.036895751953125C47.66923387451172,23.036895751953125,46.66753387451172,23.763760751953125,46.66753387451172,24.660395751953125C46.66753387451172,24.660395751953125,47.10501587451172,24.660395751953125,47.10501587451172,24.660395751953125C47.10501587451172,24.660395751953125,47.10501587451172,24.660395751953125,47.10501587451172,24.660395751953125ZM48.90487387451172,23.354351751953125C49.89889387451172,23.354351751953125,50.70471387451172,23.939085751953126,50.70471387451172,24.660395751953125C50.70471387451172,24.660395751953125,51.14219387451172,24.660395751953125,51.14219387451172,24.660395751953125C51.14219387451172,23.763760751953125,50.14051387451172,23.036895751953125,48.90487387451172,23.036895751953125C48.90487387451172,23.036895751953125,48.90487387451172,23.354351751953125,48.90487387451172,23.354351751953125C48.90487387451172,23.354351751953125,48.90487387451172,23.354351751953125,48.90487387451172,23.354351751953125Z" fill="#FFFFFF" fill-opacity="1"/></g><g><path d="M71.62467389648438,16.271206985473633C71.62467389648438,16.99251698547363,70.81885389648437,17.577246985473632,69.82483389648438,17.577246985473632C69.82483389648438,17.577246985473632,69.82483389648438,17.894706985473633,69.82483389648438,17.894706985473633C71.06047389648438,17.894706985473633,72.06215389648438,17.167846985473634,72.06215389648438,16.271206985473633C72.06215389648438,16.271206985473633,71.62467389648438,16.271206985473633,71.62467389648438,16.271206985473633C71.62467389648438,16.271206985473633,71.62467389648438,16.271206985473633,71.62467389648438,16.271206985473633ZM69.82483389648438,17.577246985473632C68.83080389648437,17.577246985473632,68.02497589648438,16.99251698547363,68.02497589648438,16.271206985473633C68.02497589648438,16.271206985473633,67.58749389648438,16.271206985473633,67.58749389648438,16.271206985473633C67.58749389648438,17.167846985473634,68.58919389648437,17.894706985473633,69.82483389648438,17.894706985473633C69.82483389648438,17.894706985473633,69.82483389648438,17.577246985473632,69.82483389648438,17.577246985473632C69.82483389648438,17.577246985473632,69.82483389648438,17.577246985473632,69.82483389648438,17.577246985473632ZM68.02497589648438,16.271206985473633C68.02497589648438,15.549901985473634,68.83080389648437,14.965162985473633,69.82483389648438,14.965162985473633C69.82483389648438,14.965162985473633,69.82483389648438,14.647706985473633,69.82483389648438,14.647706985473633C68.58919389648437,14.647706985473633,67.58749389648438,15.374571985473633,67.58749389648438,16.271206985473633C67.58749389648438,16.271206985473633,68.02497589648438,16.271206985473633,68.02497589648438,16.271206985473633C68.02497589648438,16.271206985473633,68.02497589648438,16.271206985473633,68.02497589648438,16.271206985473633ZM69.82483389648438,14.965162985473633C70.81885389648437,14.965162985473633,71.62467389648438,15.549896985473634,71.62467389648438,16.271206985473633C71.62467389648438,16.271206985473633,72.06215389648438,16.271206985473633,72.06215389648438,16.271206985473633C72.06215389648438,15.374571985473633,71.06047389648438,14.647706985473633,69.82483389648438,14.647706985473633C69.82483389648438,14.647706985473633,69.82483389648438,14.965162985473633,69.82483389648438,14.965162985473633C69.82483389648438,14.965162985473633,69.82483389648438,14.965162985473633,69.82483389648438,14.965162985473633Z" fill="#3F3D56" fill-opacity="1"/></g><g><path d="M92.5446262890625,1.6235C92.5446262890625,2.34481,91.7388062890625,2.92954,90.7447862890625,2.92954C90.7447862890625,2.92954,90.7447862890625,3.247,90.7447862890625,3.247C91.9804262890625,3.247,92.9821062890625,2.52014,92.9821062890625,1.6235C92.9821062890625,1.6235,92.5446262890625,1.6235,92.5446262890625,1.6235C92.5446262890625,1.6235,92.5446262890625,1.6235,92.5446262890625,1.6235ZM90.7447862890625,2.92954C89.7507562890625,2.92954,88.9449282890625,2.34481,88.9449282890625,1.6235C88.9449282890625,1.6235,88.5074462890625,1.6235,88.5074462890625,1.6235C88.5074462890625,2.52014,89.5091462890625,3.247,90.7447862890625,3.247C90.7447862890625,3.247,90.7447862890625,2.92954,90.7447862890625,2.92954C90.7447862890625,2.92954,90.7447862890625,2.92954,90.7447862890625,2.92954ZM88.9449282890625,1.6235C88.9449282890625,0.902195,89.7507562890625,0.317456,90.7447862890625,0.317456C90.7447862890625,0.317456,90.7447862890625,0,90.7447862890625,0C89.5091462890625,0,88.5074462890625,0.726865,88.5074462890625,1.6235C88.5074462890625,1.6235,88.9449282890625,1.6235,88.9449282890625,1.6235C88.9449282890625,1.6235,88.9449282890625,1.6235,88.9449282890625,1.6235ZM90.7447862890625,0.317456C91.7388062890625,0.317456,92.5446262890625,0.90219,92.5446262890625,1.6235C92.5446262890625,1.6235,92.9821062890625,1.6235,92.9821062890625,1.6235C92.9821062890625,0.726865,91.9804262890625,0,90.7447862890625,0C90.7447862890625,0,90.7447862890625,0.317456,90.7447862890625,0.317456C90.7447862890625,0.317456,90.7447862890625,0.317456,90.7447862890625,0.317456Z" fill="#3F3D56" fill-opacity="1"/></g></g></g></svg>