<?xml version="1.0" standalone="no"?><!DOCTYPE svg PUBLIC "-//W3C//DTD SVG 1.1//EN" "http://www.w3.org/Graphics/SVG/1.1/DTD/svg11.dtd"><svg t="1713333774640" class="icon" viewBox="0 0 1024 1024" version="1.1" xmlns="http://www.w3.org/2000/svg" p-id="45624" xmlns:xlink="http://www.w3.org/1999/xlink" width="200" height="200"><path d="M512.1 114.3c50 0 91.6 17.3 127.1 52.9 35.6 35.5 52.9 77.1 52.9 127.1 0 50.1-17.3 91.6-52.9 127.1-35.6 35.6-77.2 52.9-127.1 52.9-50 0-91.7-17.3-127.3-52.8-35.5-35.6-52.8-77.2-52.8-127.2s17.3-91.5 52.8-127.1c35.6-35.5 77.3-52.9 127.3-52.9m186.4 495.2l11.4 0.6c26.8 4.3 52.7 17.2 79.1 39.4 26.4 22.5 42.8 45.9 50.1 71.5l0.3 1.1 0.4 1.1 1 3 4 12.1 1.9 1.8c0.7 2.2 1.4 4.4 2 6.6l0.1 0.4 0.1 0.4c1.3 4.1 2.6 9.2 3.8 14.8v0.2c1.9 8.9 3.4 16.3 4.6 23.2l0.1 0.6 0.1 0.6c1.2 5.9 2.2 14.1 3.2 25.8 0.8 9.3 1.4 17.6 1.9 25.4l-16.8 9.2c-8.2 3.7-19.5 8.4-33.9 14.1-20.1 7.7-43.3 15.3-69.2 22.4-24.9 6.8-58.7 12.9-100.5 18.1-42.2 5.1-86.1 7.7-130.4 7.7-44.5 0-88.5-2.7-130.7-8.1-41.3-5.4-74.9-11.4-99.6-17.9-24.4-6.4-47.9-14-69.9-22.7-31.1-12.3-38.9-16.2-40.1-16.9-5.7-3-8.8-4.9-10.3-5.9 3.4-62.2 13.6-95.4 21.7-112.4l1.4-2.9 1-3.1c8.5-26 25.5-49.6 51.9-72.1 25.6-21.6 50.9-33.9 77.4-37.7l11.9-0.6 1.6 0.8 29 14.1 1.1 0.5 1.1 0.5c48.1 20.6 99.8 31 153.7 31 53.9 0 105.6-10.4 153.8-31l0.9-0.4 0.9-0.4c7.9-3.6 18.5-8.8 29.9-14.9M512.1 64.3c-63.4 0-117.5 22.5-162.6 67.5-45 45-67.5 99.1-67.5 162.5s22.5 117.6 67.5 162.6c45.1 45 99.3 67.4 162.6 67.4 63.4 0 117.5-22.5 162.5-67.5 45.1-44.9 67.6-99.1 67.6-162.5 0-63.3-22.5-117.5-67.6-162.5-45-45-99.2-67.5-162.5-67.5z m185 495c-8 0-15.3 2-22 6-10 5.4-19.4 10-28 14.1-42.1 18-86.8 27-134.1 27s-92-9-134-27l-29-14.1c-6.7-4-13.7-6-21-6l-19 1c-36.7 4.7-71.7 21.2-105.1 49.4-33.3 28.4-55.6 59.9-67 94.6-15.3 32-24.4 79-27 141.1 0 6 2.2 12.3 6.5 19 4.3 6.7 9.5 11.7 15.5 15 4 2.7 9.2 5.7 15.5 9 6.3 3.3 21.3 9.7 45 19.1 23.7 9.3 48.9 17.5 75.5 24.5 26.7 7 62 13.4 106 19.1 44 5.6 89.7 8.5 137.1 8.5s92.9-2.8 136.5-8.1c43.7-5.4 79.6-11.8 107.6-19.5s52.6-15.7 74.1-24c21.4-8.4 36.8-15 46.5-20 9.7-5 14.5-7.8 14.5-8.5 6-3.3 11.3-8.5 15.5-15.5 4.3-7 6.5-13.2 6.5-18.5-0.6-12.7-1.5-25.1-2.5-37-1-12-2.2-22.6-4-31.5-1.5-8.4-3.2-16.7-5-25-1.6-7.6-3.3-14.1-5-19.5-1.6-5.4-3.1-10-4.5-14.1-1.3-4-2.6-6.7-4-8l-1-3c-10-35.3-32-67.3-65.9-96.1-34.1-28.7-69.5-45.7-106.2-51l-18-1z" p-id="45625" fill="#ffffff"></path></svg>