<svg xmlns="http://www.w3.org/2000/svg" xmlns:xlink="http://www.w3.org/1999/xlink" width="153" height="151" viewBox="0 0 153 151" fill="none"><g opacity="1"  transform="translate(0 0)  rotate(0)"><path id="矩形 3" fill-rule="evenodd" style="fill:#F3D1A2" opacity="1" d="M10 151L143 151C148.52 151 153 146.52 153 141L153 21C153 15.48 148.52 11 143 11L10 11C4.48 11 0 15.48 0 21L0 141C0 146.52 4.48 151 10 151Z"></path><path fill-rule="evenodd"  id="矩形 3" style="fill:#F2F2F2; opacity:1;" d="M143 151L10 151C4.48 151 0 146.52 0 141L0 21C0 15.48 4.48 11 10 11L143 11C148.52 11 153 15.48 153 21L153 141C153 146.52 148.52 151 143 151ZM143 150L10 150C5.02944 150 1 145.971 1 141L1 21C1 16.0294 5.02944 12 10 12L143 12C147.971 12 152 16.0294 152 21L152 141C152 145.971 147.971 150 143 150Z"></path><g opacity="1"  transform="translate(25 30)  rotate(0)"><g opacity="1" transform="translate(0 10.861114501953125)  rotate(0)"><a xlink:href="https://" xlink:title="跳转" target="_blank"><text><tspan x="0" y="16.240000000000002" font-size="14" line-height="0" fill="#000000" opacity="1" font-family="SourceHanSansCN-Regular" font-weight="Regular" letter-spacing="0" ></tspan></text></a></g><g opacity="1" transform="translate(18 0)  rotate(0)"><a xlink:href="https://" xlink:title="跳转" target="_blank"><text><tspan x="0" y="24" font-size="24" line-height="0" fill="#000000" opacity="1" font-family="YouSheBiaoTiHei" font-weight="Regular" letter-spacing="0" >100GB</tspan></text></a></g></g><g opacity="1"  transform="translate(2 0)  rotate(0)"><g opacity="1"  transform="translate(45 62)  rotate(0)"><rect fill="#FAE5CA" opacity="1" transform="translate(0 0)  rotate(0)" x="0" y="0" width="69" height="22" rx="11" ry="11"/><g opacity="1" transform="translate(8 2)  rotate(0)"><a xlink:href="https://" xlink:title="跳转" target="_blank"><text><tspan x="0" y="13.92" font-size="12" line-height="0" fill="#2F2513" opacity="1" font-family="SourceHanSansCN-Regular" font-weight="Regular" letter-spacing="0"  >24</tspan><tspan x="13.32" y="13.92" font-size="12" line-height="0" fill="#2F2513" opacity="1" font-family="Roboto-Regular" font-weight="Regular" letter-spacing="0"  > </tspan><tspan x="16.290703125" y="13.92" font-size="12" line-height="0" fill="#2F2513" opacity="1" font-family="SourceHanSansCN-Regular" font-weight="Regular" letter-spacing="0" >Weeks</tspan></text></a></g></g><g opacity="1"  transform="translate(0 0)  rotate(0)"><path id="矩形 4" fill-rule="evenodd" style="fill:#171717" opacity="1" d="M0 22L25 22C31.08 22 36 17.08 36 11L36 11C36 4.92 31.08 0 25 0L11 0C4.92 0 0 4.92 0 11L0 22Z"></path><g opacity="1" transform="translate(6 2)  rotate(0)"><a xlink:href="https://" xlink:title="跳转" target="_blank"><text><tspan x="0" y="13.92" font-size="12" line-height="0" fill="#F7D3A5" opacity="1" font-family="SourceHanSansCN-Regular" font-weight="Regular" letter-spacing="0" >Hot</tspan></text></a></g></g></g><g opacity="1" transform="translate(19 87)  rotate(0)"><a xlink:href="https://" xlink:title="跳转" target="_blank"><text><tspan x="0" y="10.44" font-size="9" line-height="0" fill="#736073" opacity="1" font-family="SourceHanSansCN-Regular" font-weight="Regular" letter-spacing="0"  >The</tspan><tspan x="15.84" y="10.44" font-size="9" line-height="0" fill="#736073" opacity="1" font-family="Roboto-Regular" font-weight="Regular" letter-spacing="0"  > </tspan><tspan x="18.06802734375" y="10.44" font-size="9" line-height="0" fill="#736073" opacity="1" font-family="SourceHanSansCN-Regular" font-weight="Regular" letter-spacing="0"  >choices</tspan><tspan x="49.83802734375" y="10.44" font-size="9" line-height="0" fill="#736073" opacity="1" font-family="Roboto-Regular" font-weight="Regular" letter-spacing="0"  > </tspan><tspan x="52.0660546875" y="10.44" font-size="9" line-height="0" fill="#736073" opacity="1" font-family="SourceHanSansCN-Regular" font-weight="Regular" letter-spacing="0"  >of</tspan><tspan x="60.4450546875" y="10.44" font-size="9" line-height="0" fill="#736073" opacity="1" font-family="Roboto-Regular" font-weight="Regular" letter-spacing="0"  > </tspan><tspan x="62.67308203125" y="10.44" font-size="9" line-height="0" fill="#736073" opacity="1" font-family="SourceHanSansCN-Regular" font-weight="Regular" letter-spacing="0"  >more</tspan><tspan x="84.93908203125" y="10.44" font-size="9" line-height="0" fill="#736073" opacity="1" font-family="Roboto-Regular" font-weight="Regular" letter-spacing="0"  > </tspan><tspan x="87.167109375" y="10.44" font-size="9" line-height="0" fill="#736073" opacity="1" font-family="SourceHanSansCN-Regular" font-weight="Regular" letter-spacing="0" >people</tspan></text></a></g><g opacity="1"  transform="translate(0 100)  rotate(0)"><g filter="url(#filter_13)"><path id="矩形 8" fill-rule="evenodd" fill="url(#linear_0)" opacity="1" d="M10 51L143 51C148.52 51 153 46.52 153 41L153 0C153 0 121.78 5.37 76.5 5.37C31.22 5.37 0 0 0 0L0 41C0 46.52 4.48 51 10 51Z"></path></g><g opacity="1"  transform="translate(12.48974609375 16.105224609375)  rotate(0)"><g filter="url(#filter_15)"><path id="矩形 1" fill-rule="evenodd" fill="url(#linear_1)" opacity="1" d="M12.53 25.05L115.49 25.05C122.41 25.05 128.02 19.45 128.02 12.53L128.02 12.53C128.02 5.61 122.41 0 115.49 0L12.53 0C5.61 0 0 5.61 0 12.53L0 12.53C0 19.45 5.61 25.05 12.53 25.05Z"></path></g><path  id="矩形 1" style="fill:#2F2F2D; opacity:1;" d="M14.5236 21.8643L113.494 21.8643C118.652 21.8643 122.834 17.6826 122.834 12.5243C122.834 7.36593 118.652 3.18427 113.494 3.18427L14.5236 3.18427C9.36526 3.18427 5.18359 7.36593 5.18359 12.5243C5.18359 17.6826 9.36526 21.8643 14.5236 21.8643ZM14.5236 22.8643C8.81297 22.8643 4.18359 18.2349 4.18359 12.5243C4.18359 6.81364 8.81297 2.18427 14.5236 2.18427L113.494 2.18427C119.204 2.18427 123.834 6.81364 123.834 12.5243C123.834 18.2349 119.204 22.8643 113.494 22.8643L14.5236 22.8643Z"></path><g opacity="1" transform="translate(23.41845703125 4.0263671875)  rotate(0)"><a xlink:href="https://" xlink:title="跳转" target="_blank"><text><tspan x="28.690333114624025" y="15.08" font-size="13" line-height="0" fill="#D2BB9F" opacity="1" font-family="SourceHanSansCN-Medium" font-weight="Medium" letter-spacing="0" >Buy</tspan></text></a></g></g></g></g><defs><linearGradient id="linear_0" x1="49.999999999999986%" y1="0%" x2="50%" y2="100%" gradientUnits="objectBoundingBox"><stop offset="0" stop-color="#F3D3A7" stop-opacity="1" /><stop offset="0.9934" stop-color="#F3D0A1" stop-opacity="1" /></linearGradient><filter id="filter_13" x="0" y="0" width="153" height="52" filterUnits="userSpaceOnUse" color-interpolation-filters="sRGB"><feFlood flood-opacity="0" result="feFloodId"/>
        <feColorMatrix in="SourceAlpha" type="matrix" values="0 0 0 0 0 0 0 0 0 0 0 0 0 0 0 0 0 0 127 0" result="hardAlpha"/>
        
        <feOffset dx="0" dy="-1"/>
        
         <feComposite in2="hardAlpha" operator="out"/>
        <feColorMatrix type="matrix" values="0 0 0 0 0.9882352941176471 0 0 0 0 0.8941176470588236 0 0 0 0 0.7725490196078432 0 0 0 1 0"/>
        <feBlend mode="normal" in2="BackgroundImageFix" result="dropShadow_1"/>
        <feBlend mode="normal" in="SourceGraphic" in2="dropShadow_2" result="shape"/></filter><radialGradient id="linear_1" cx="21.26492369225241%" cy="100.01042836202593%" fx="21.26492369225241%" fy="100.01042836202593%" r="2.281333552503249" gradientTransform="translate(0.2126492369225241 1.0001042836202594) scale(0.1956924369313205 1) rotate(325.31085492205625) scale(1 1) translate(-0.2126492369225241 -1.0001042836202594)" ><stop offset="0" stop-color="#4D4A46" stop-opacity="1" /><stop offset="0.6209" stop-color="#41423F" stop-opacity="1" /><stop offset="1" stop-color="#A7A19A" stop-opacity="1" /></radialGradient><filter id="filter_15" x="0" y="0" width="130.02" height="28.05" filterUnits="userSpaceOnUse" color-interpolation-filters="sRGB"><feFlood flood-opacity="0" result="feFloodId"/>
        <feColorMatrix in="SourceAlpha" type="matrix" values="0 0 0 0 0 0 0 0 0 0 0 0 0 0 0 0 0 0 127 0" result="hardAlpha"/>
        
        <feOffset dx="0" dy="1"/>
        <feGaussianBlur stdDeviation="0.5"/>
         <feComposite in2="hardAlpha" operator="out"/>
        <feColorMatrix type="matrix" values="0 0 0 0 0.30980392156862746 0 0 0 0 0.23137254901960785 0 0 0 0 0.15294117647058825 0 0 0 0.3 0"/>
        <feBlend mode="normal" in2="BackgroundImageFix" result="dropShadow_1"/>
        <feBlend mode="normal" in="SourceGraphic" in2="dropShadow_2" result="shape"/></filter></defs></svg>