<svg xmlns="http://www.w3.org/2000/svg" xmlns:xlink="http://www.w3.org/1999/xlink" fill="none" version="1.1" width="81" height="72" viewBox="0 0 81 72"><g><g><path d="M36,9.6C36,6.2396,36,4.55952,36.73575,3.27606C37.38285,2.14708,38.41537,1.2292,39.6855,0.65396C41.12955,0,43.01955,0,46.8,0L70.2,0C73.9804,0,75.87039999999999,0,77.31450000000001,0.65396C78.5846,1.2292,79.6171,2.14708,80.26429999999999,3.27606C81,4.55952,81,6.2396,81,9.6L81,62.4C81,65.7604,81,67.4404,80.26429999999999,68.724C79.6171,69.853,78.5846,70.7708,77.31450000000001,71.346C75.87039999999999,72,73.9804,72,70.2,72L46.8,72C43.01955,72,41.12955,72,39.6855,71.346C38.41537,70.7708,37.38285,69.853,36.73575,68.724C36,67.4404,36,65.7604,36,62.4L36,9.6ZM46.8,2L70.2,2C72.12729999999999,2,73.4375,2.00156,74.4502,2.0751C75.4366,2.14674,75.9411,2.2766,76.293,2.43598C77.1397,2.81946,77.82820000000001,3.43138,78.2595,4.18404C78.4388,4.49684,78.5849,4.94524,78.6654,5.82208C78.7482,6.7222,78.75,7.8868,78.75,9.6L78.75,62.4C78.75,64.1132,78.7482,65.2778,78.6654,66.178C78.5849,67.0548,78.4388,67.5032,78.2595,67.816C77.82820000000001,68.5686,77.1397,69.1806,76.293,69.564C75.9411,69.7234,75.4366,69.8532,74.4502,69.9248C73.4375,69.9984,72.12729999999999,70,70.2,70L46.8,70C44.87265,70,43.56248,69.9984,42.54975,69.9248C41.56335,69.8532,41.0589,69.7234,40.707,69.564C39.86032,69.1806,39.17182,68.5686,38.7405,67.816C38.56118,67.5032,38.41515,67.0548,38.3346,66.178C38.2518,65.2778,38.25,64.1132,38.25,62.4L38.25,9.6C38.25,7.8868,38.2518,6.7222,38.3346,5.82208C38.41515,4.94524,38.56118,4.49684,38.7405,4.18404C39.17182,3.43138,39.86032,2.81946,40.707,2.43598C41.0589,2.2766,41.56335,2.14674,42.54975,2.0751C43.56248,2.00156,44.87265,2,46.8,2Z" fill-rule="evenodd" fill="#000000" fill-opacity="1"/></g><g><path d="M51.75,3.999999761581421L44.1,3.999999761581421C42.83977,3.999999761581421,42.20977,3.999999761581421,41.7285,4.217979761581421C41.30505,4.409739761581421,40.961025,4.715699761581421,40.74525,5.092019761581421C40.5,5.519839761581421,40.5,6.079799761581421,40.5,7.199999761581421L40.5,64.79999976158142C40.5,65.92019976158142,40.5,66.48019976158142,40.74525,66.90799976158142C40.961025,67.28439976158143,41.30505,67.59019976158143,41.7285,67.78199976158142C42.20977,67.99999976158142,42.83977,67.99999976158142,44.1,67.99999976158142L72.9,67.99999976158142C74.1602,67.99999976158142,74.7902,67.99999976158142,75.2715,67.78199976158142C75.695,67.59019976158143,76.039,67.28439976158143,76.2547,66.90799976158142C76.5,66.48019976158142,76.5,65.92019976158142,76.5,64.79999976158142L76.5,7.199999761581421C76.5,6.079799761581421,76.5,5.519839761581421,76.2547,5.092019761581421C76.039,4.715699761581421,75.695,4.409739761581421,75.2715,4.217979761581421C74.7902,3.999999761581421,74.1602,3.999999761581421,72.9,3.999999761581421L65.25,3.999999761581421C65.25,5.104559761581421,64.2427,5.999999761581421,63,5.999999761581421L54,5.999999761581421C52.7573,5.999999761581421,51.75,5.104559761581421,51.75,3.999999761581421Z" fill-rule="evenodd" fill="#D1E2FE" fill-opacity="1"/></g><g><path d="M17.072774798583986,12L60.53942479858399,22.352800000000002L54.715924798583984,41.6712L11.249324798583984,31.3186L17.072774798583986,12Z" fill="#3C85FF" fill-opacity="1"/></g><g><path d="M17.65529856048584,10.068199811401367C16.45492856048584,9.782199811401368,15.22124856048584,10.415399811401366,14.899498560485839,11.482399811401367L9.07616256048584,30.801009811401368C8.75454756048584,31.86780981140137,9.46685256048584,32.96460981140137,10.66715856048584,33.25040981140137L54.13383856048584,43.60320981140137C55.33403856048584,43.889009811401365,56.56793856048584,43.25580981140137,56.88943856048584,42.18900981140137L62.71293856048584,22.870409811401366C63.03463856048584,21.803409811401366,62.32233856048584,20.706809811401367,61.12193856048584,20.42100981140137L17.65529856048584,10.068199811401367ZM11.24948856048584,31.318609811401366L17.07298856048584,11.999999811401366L60.53963856048584,22.352809811401368L54.71613856048584,41.67140981140137L11.24948856048584,31.318609811401366Z" fill-rule="evenodd" fill="#FFFFFF" fill-opacity="1"/></g><g><path d="M4.5,26C4.5,24.8954,5.50737,24,6.75,24L60.75,24C61.9927,24,63,24.8954,63,26L63,54C63,55.104600000000005,61.9927,56,60.75,56L6.75,56C5.50737,56,4.5,55.104600000000005,4.5,54L4.5,26Z" fill="#004AFF" fill-opacity="1"/></g><g><path d="M60.75,21.999998092651367L6.75,21.999998092651367C4.2647200000000005,21.999998092651367,2.25,23.790798092651368,2.25,25.999998092651367L2.25,53.99999809265137C2.25,56.20919809265137,4.2647200000000005,57.99999809265137,6.75,57.99999809265137L60.75,57.99999809265137C63.2354,57.99999809265137,65.25,56.20919809265137,65.25,53.99999809265137L65.25,25.999998092651367C65.25,23.790798092651368,63.2354,21.999998092651367,60.75,21.999998092651367ZM4.5,25.999998092651367C4.5,24.895398092651366,5.50737,23.999998092651367,6.75,23.999998092651367L60.75,23.999998092651367C61.9927,23.999998092651367,63,24.895398092651366,63,25.999998092651367L63,53.99999809265137C63,55.104598092651365,61.9927,55.99999809265137,60.75,55.99999809265137L6.75,55.99999809265137C5.50737,55.99999809265137,4.5,55.104598092651365,4.5,53.99999809265137L4.5,25.999998092651367Z" fill-rule="evenodd" fill="#FFFFFF" fill-opacity="1"/></g><g><path d="M46.5802,33.20979809265137C49.4044,33.44699809265137,51.6242,34.22139809265137,51.8632,36.519398092651365C52.0047,37.16439809265137,51.9039,37.83259809265137,51.576499999999996,38.421598092651365C51.2489,39.010598092651364,50.713,39.48759809265137,50.0506,39.77919809265137C50.5552,39.851198092651366,51.0377,40.01499809265137,51.4681,40.259998092651365C51.8985,40.50479809265137,52.2675,40.82599809265137,52.552099999999996,41.20319809265137C52.8368,41.58059809265137,53.0312,42.00579809265137,53.123000000000005,42.45279809265136C53.2148,42.89959809265137,53.201899999999995,43.35859809265136,53.0856,43.80079809265137C52.7483,46.873198092651364,50.177,47.68499809265137,46.4958,47.85999809265137L46.4958,51.04479809265136L44.31803,51.04479809265136L44.31803,47.872398092651366L42.57562,47.872398092651366L42.57562,51.03219809265137L40.39785,51.03219809265137L40.39785,47.79739809265136L36,47.79739809265136L36.5058,45.47439809265137L38.09363,45.47439809265137C38.19442,45.48119809265137,38.29568,45.469998092651366,38.39153,45.44159809265137C38.48738,45.412998092651364,38.5758,45.36779809265137,38.65185,45.308398092651366C38.72768,45.24899809265137,38.78955,45.17679809265137,38.83365,45.09599809265137C38.87775,45.01499809265137,38.90318,44.927198092651366,38.90858,44.83739809265137L38.90858,36.107398092651366C38.8665,35.848398092651365,38.71215,35.61459809265137,38.47838,35.455798092651364C38.2446,35.296998092651364,37.95008,35.225998092651366,37.65803,35.25799809265137L36.0702,35.25799809265137L36.0702,33.18479809265137L40.48222,33.18479809265137L40.48222,29.999998092651367L42.66,29.999998092651367L42.66,33.122398092651366L44.4303,33.122398092651366L44.4303,29.999998092651367L46.5802,29.999998092651367L46.5802,33.20979809265137ZM47.788399999999996,37.368858092651365C47.788399999999996,39.374388092651365,44.56054,39.32142809265137,43.05559,39.29673809265137C42.91101,39.29436809265137,42.78234,39.292258092651366,42.67395,39.292258092651366L42.67395,35.420458092651366C42.7979,35.420458092651366,42.94765,35.41714809265137,43.11688,35.41339809265137C44.655010000000004,35.379378092651365,47.8012,35.30978809265137,47.788399999999996,37.368858092651365ZM48.7861,43.41359809265137C48.7861,45.61399809265137,44.89936,45.55609809265137,43.0995,45.529298092651366C42.92757,45.526698092651365,42.77469,45.52439809265137,42.64606,45.52439809265137L42.67396,41.24059809265137C42.81342,41.24059809265137,42.981139999999996,41.237498092651364,43.170519999999996,41.23399809265137C44.98449,41.200098092651366,48.7861,41.12929809265137,48.7861,43.41359809265137Z" fill-rule="evenodd" fill="#FFFFFF" fill-opacity="1"/></g><g><path d="M2.25,33.999996185302734L18,33.999996185302734C21.728,33.999996185302734,24.75,36.686196185302734,24.75,39.999996185302734L24.75,39.999996185302734" fill="#185ADB" fill-opacity="1"/></g><g><path d="M18,31.999998092651367L0,31.999998092651367L0,47.99999809265137L18,47.99999809265137C22.9705,47.99999809265137,27,44.418198092651366,27,39.99999809265137C27,35.58179809265137,22.9705,31.999998092651367,18,31.999998092651367ZM2.25,45.99999809265137L2.25,33.99999809265137L18,33.99999809265137C21.728,33.99999809265137,24.75,36.68619809265137,24.75,39.99999809265137C24.75,43.31379809265137,21.728,45.99999809265137,18,45.99999809265137L2.25,45.99999809265137Z" fill-rule="evenodd" fill="#FFFFFF" fill-opacity="1"/></g><g><ellipse cx="18.000000953674316" cy="39.99999988079071" rx="2.25" ry="1.9999998807907104" fill="#FFFFFF" fill-opacity="1"/></g></g></svg>