<?xml version="1.0" standalone="no"?><!DOCTYPE svg PUBLIC "-//W3C//DTD SVG 1.1//EN" "http://www.w3.org/Graphics/SVG/1.1/DTD/svg11.dtd"><svg t="1701237645440" class="icon" viewBox="0 0 1024 1024" version="1.1" xmlns="http://www.w3.org/2000/svg" p-id="2447" xmlns:xlink="http://www.w3.org/1999/xlink" width="200" height="200"><path d="M924.483984 777.557168l-68.659753-118.934786c-6.391571-11.121292-20.615527-14.862499-31.676443-8.494465-11.102872 6.411013-14.910595 20.593014-8.472975 31.696909l68.653613 118.939903c7.841595 13.615089 9.878998 25.733081 5.573949 33.235962-4.393054 7.590885-16.133446 11.964496-32.217772 11.964496L159.433664 845.965188c-15.994276 0-27.686573-4.353145-32.082696-11.964496-4.352121-7.590885-2.26867-19.874653 5.710049-33.740452L482.143507 195.597817c15.904225-27.465538 36.796044-27.601638 52.568263-0.410346l169.851433 294.200532c6.341429 11.101849 20.526499 14.836917 31.674397 8.494465 11.101849-6.411013 14.910595-20.594037 8.473999-31.695886L574.860165 171.981956c-32.673144-56.642045-100.015901-56.55404-132.87017 0.407276L92.912621 777.041422c-16.768919 29.01994-18.808368 57.484226-5.758144 80.162738 12.918217 22.338774 39.246863 35.164894 72.28328 35.164894l698.246845 0c33.582863 0 59.276035-12.487406 72.375377-35.164894C943.10918 834.632071 941.11271 806.332539 924.483984 777.557168z" fill="#e36454" p-id="2448"></path><path d="M510.785847 348.277148c-12.991895 0-23.456225 10.440793-23.456225 23.412223 0 12.944823 10.464329 23.431665 23.456225 23.431665 12.944823 0 23.413246-10.486842 23.413246-23.431665C534.199093 358.717941 523.731694 348.277148 510.785847 348.277148z" fill="#e36454" p-id="2449"></path><path d="M487.329623 461.34532l0 289.004183c0 11.189853 10.389628 20.261463 23.202445 20.261463 12.836353 0 23.201421-9.071609 23.201421-20.261463L533.733489 461.34532c0.023536-11.166317-10.368138-20.25737-23.201421-20.25737C497.742786 441.08795 487.329623 450.180026 487.329623 461.34532z" fill="#e36454" p-id="2450"></path></svg>