<?xml version="1.0" standalone="no"?><!DOCTYPE svg PUBLIC "-//W3C//DTD SVG 1.1//EN" "http://www.w3.org/Graphics/SVG/1.1/DTD/svg11.dtd"><svg t="1718870488549" class="icon" viewBox="0 0 1024 1024" version="1.1" xmlns="http://www.w3.org/2000/svg" p-id="9731" xmlns:xlink="http://www.w3.org/1999/xlink" width="200" height="200"><path d="M511.3856 944.2816H214.6816c-42.6496 0-77.312-34.0992-77.312-76.032V150.8352c0-41.9328 34.7136-76.032 77.312-76.032h549.7856c42.6496 0 77.312 34.0992 77.312 76.032V479.232c0 14.1312-11.4688 25.6-25.6 25.6s-25.6-11.4688-25.6-25.6V150.8352c0-13.6704-11.7248-24.832-26.112-24.832H214.6816c-14.3872 0-26.112 11.1616-26.112 24.832v717.4144c0 13.7216 11.7248 24.832 26.112 24.832h296.704c14.1312 0 25.6 11.4688 25.6 25.6s-11.4688 25.6-25.6 25.6z" fill="#ffffff" p-id="9732"></path><path d="M359.3728 287.4368c-1.2288-0.3584-2.3552-0.7168-3.328-1.0752l-1.9968-0.6656c-11.4176-3.84-28.7232-9.5744-34.9696-22.1184-1.3824-2.7136-1.2288-5.6832 0.4096-8.2432 3.1232-5.0688 11.008-8.0896 21.0944-8.0896 17.8688 0 23.6544 13.9776 24.9856 18.3808a25.59488 25.59488 0 0 0 31.2832 17.7664 25.53856 25.53856 0 0 0 18.0736-31.3344c-4.0448-15.104-18.5344-40.6528-47.0016-51.2v-4.352c0-14.1312-11.4688-25.6-25.6-25.6s-25.6 11.4688-25.6 25.6v2.7136c-17.5104 4.7616-31.8464 14.7456-40.7552 29.1328-10.9568 17.7152-11.9808 39.424-2.7136 58.0608 15.7184 31.5392 48.7424 42.5472 64.6144 47.872l1.8944 0.6144c1.28 0.4096 2.7648 0.8704 4.3008 1.3824 23.552 7.3728 22.6816 11.52 21.0432 19.6608-1.28 6.3488-2.6112 12.8512-20.6848 13.7216-1.1776-0.1536-2.3552-0.3584-3.584-0.3584-1.3824 0-2.6624 0.2048-3.9936 0.4096-2.1504-0.0512-4.4544-0.1536-6.9632-0.3584-4.1984-0.3072-17.5104-7.5264-17.5104-18.432 0-14.1312-11.4688-25.6-25.6-25.6s-25.6 11.4688-25.6 25.6c0 33.6896 26.6752 60.2624 54.0672 67.6352v2.304c0 14.1312 11.4688 25.6 25.6 25.6s25.6-11.4688 25.6-25.6v-3.2768c32.512-8.2944 44.7488-31.0784 48.8448-51.5072 7.7312-38.144-11.1104-64.5632-55.9104-78.6432zM879.4624 937.4208H600.576c-14.1312 0-25.6-11.4688-25.6-25.6s11.4688-25.6 25.6-25.6h278.9376c14.1312 0 25.6 11.4688 25.6 25.6s-11.52 25.6-25.6512 25.6zM868.5056 750.6944h-63.488c-4.1472 0-7.8336-2.56-9.2672-6.4l-25.1392-66.5088a76.1344 76.1344 0 0 0 43.2128-77.1584c-3.7376-35.0208-32-63.3856-66.9696-67.2768-45.9264-5.0688-84.7872 30.72-84.7872 75.6224 0 30.0544 17.4592 56.064 42.752 68.4032l-21.6064 66.5088c-1.3312 4.096-5.12 6.8608-9.4208 6.8608h-62.2592c-15.616 0-28.3136 12.6976-28.3136 28.3136v52.736c0 10.6496 8.6528 19.3024 19.3024 19.3024h275.0464c10.6496 0 19.3024-8.6528 19.3024-19.3024v-52.736a28.39552 28.39552 0 0 0-28.3648-28.3648zM476.7744 573.2352H277.1456c-14.1312 0-25.6-11.4688-25.6-25.6s11.4688-25.6 25.6-25.6h199.6288c14.1312 0 25.6 11.4688 25.6 25.6s-11.4688 25.6-25.6 25.6zM476.7744 700.1088H277.1456c-14.1312 0-25.6-11.4688-25.6-25.6s11.4688-25.6 25.6-25.6h199.6288c14.1312 0 25.6 11.4688 25.6 25.6s-11.4688 25.6-25.6 25.6zM476.7744 826.9824H277.1456c-14.1312 0-25.6-11.4688-25.6-25.6s11.4688-25.6 25.6-25.6h199.6288c14.1312 0 25.6 11.4688 25.6 25.6s-11.4688 25.6-25.6 25.6zM710.7584 440.7808H506.0608c-14.1312 0-25.6-11.4688-25.6-25.6V196.5056c0-14.1312 11.4688-25.6 25.6-25.6h204.6976c14.1312 0 25.6 11.4688 25.6 25.6v218.6752c0 14.1312-11.4688 25.6-25.6 25.6z m-179.0976-51.2h153.4976V222.1056h-153.4976v167.4752z" fill="#ffffff" p-id="9733"></path></svg>