<?xml version="1.0" standalone="no"?><!DOCTYPE svg PUBLIC "-//W3C//DTD SVG 1.1//EN" "http://www.w3.org/Graphics/SVG/1.1/DTD/svg11.dtd"><svg t="1718867368096" class="icon" viewBox="0 0 2432 1024" version="1.1" xmlns="http://www.w3.org/2000/svg" p-id="4668" xmlns:xlink="http://www.w3.org/1999/xlink" width="475" height="200"><path d="M0 410.856399a410.856399 410.856399 0 0 0 410.856399 410.856399h1129.855097a410.856399 410.856399 0 1 0 0-821.712798H410.856399a410.856399 410.856399 0 0 0-410.856399 410.856399z" fill="#E9EDF2" p-id="4669"></path><path d="M359.499349 205.428199h212.618186q53.205904 0 81.65771 26.346167 28.451806 26.29481 28.451805 65.223453 0 32.56037-20.286034 55.876471-13.558261 15.561186-39.647643 24.600026 39.647642 9.501054 58.290252 32.714441 18.693966 23.162029 18.693966 58.290252 0 28.605877-13.301476 51.408407-13.250119 22.80253-36.360791 36.104006-14.27726 8.268485-43.139922 12.068906-38.312359 4.981634-50.84348 4.981634H359.499349V205.428199z m114.577578 144.210596h49.405482q26.602952 0 36.977076-9.192911 10.425481-9.141555 10.425481-26.448881 0-16.0234-10.374124-25.06224-10.425481-9.038841-36.258077-9.038841h-50.175838v69.742873z m0 144.416025h57.930752q29.376233 0 41.393783-10.425481 12.01755-10.374124 12.017549-27.938236 0-16.280185-11.914835-26.192095-11.863479-9.911911-41.753282-9.911911H474.076927v74.467723z m573.504176-28.811305h-204.606487q2.773281 24.54867 13.301476 36.566219 14.79083 17.307326 38.620502 17.307326 15.047616 0 28.55452-7.498129 8.319842-4.776206 17.820896-16.793756l100.557103 9.244269q-23.110672 40.161213-55.671042 57.571253-32.611727 17.461397-93.521187 17.461397-52.897761 0-83.249778-14.944901-30.352016-14.893544-50.329909-47.402557-19.875178-32.457656-19.875178-76.367933 0-62.450173 39.955784-101.070675 40.058499-38.620501 110.469015-38.620501 57.160396 0 90.285693 17.307326t50.432623 50.175837q17.255969 32.868512 17.255969 85.509488v11.555337z m-103.792598-48.943269q-3.030066-29.581661-15.920685-42.369566-12.941977-12.787905-33.998367-12.787905-24.291885 0-38.877287 19.31025-9.244269 12.068907-11.760764 35.847221h100.557103zM1217.624295 205.428199v101.32746h56.184613v74.724507h-56.184613v94.342901q0 16.999184 3.286851 22.494388 4.981634 8.52527 17.512754 8.52527 11.298551 0 31.635943-6.522345l7.498129 70.461872q-37.850146 8.268485-70.718657 8.268485-38.106931 0-56.184613-9.757839-18.026325-9.757839-26.705666-29.684375-8.627984-19.875178-8.627984-64.453098V381.480166h-37.644718V306.755659h37.644718V257.81239L1217.624295 205.428199z m197.827356 187.555947l-97.527038-10.27141q5.546561-25.575811 15.920686-40.263928 10.425481-14.636759 29.992517-25.421739 14.020475-7.806272 38.620502-12.068907 24.54867-4.262635 53.154546-4.262635 45.861846 0 73.697367 5.135705t46.426773 21.467247q13.044691 11.298551 20.54282 31.995442 7.498129 20.645534 7.498129 39.493571v117.607644q0 18.79668 2.413781 29.42759 2.362424 10.682266 10.425481 27.219236h-95.832255q-5.75199-10.27141-7.498129-15.6639-1.74614-5.39249-3.543636-16.947826-20.029249 19.310251-39.853071 27.630092-27.065165 10.990409-62.963743 10.990409-47.607985 0-72.310726-22.083531-24.702741-22.032174-24.702741-54.387116 0-30.300659 17.769539-49.919053 17.820896-19.515679 65.737024-29.06809 57.417182-11.555336 74.467722-16.17747 17.050541-4.622134 36.104006-12.171621 0-18.79668-7.754914-26.29481-7.806272-7.549486-27.321951-7.549486-25.113597 0-37.644717 8.0117-9.757839 6.26556-15.817972 23.624243z m88.539554 53.668117q-21.05639 7.549486-43.85892 13.352833-31.122372 8.217128-39.390858 16.228827-8.52527 8.319842-8.52527 18.848038 0 12.01755 8.422556 19.66975 8.371199 7.6522 24.651384 7.6522 17.101898 0 31.738657-8.268485 14.688116-8.268485 20.799605-20.18332 6.162846-11.914836 6.162846-30.968302v-16.331541z" fill="#6C7D8F" p-id="4670"></path></svg>