<?xml version="1.0" standalone="no"?><!DOCTYPE svg PUBLIC "-//W3C//DTD SVG 1.1//EN" "http://www.w3.org/Graphics/SVG/1.1/DTD/svg11.dtd"><svg t="1718865937869" class="icon" viewBox="0 0 2045 1024" version="1.1" xmlns="http://www.w3.org/2000/svg" p-id="3906" xmlns:xlink="http://www.w3.org/1999/xlink" width="399.4140625" height="200"><path d="M509.44 0h1024c282.666667 0 512 213.333333 512 512 0 265.813333-229.333333 512-512 512h-1024C226.56 1024 0 777.813333 0 512 0 213.333333 226.56 0 509.44 0z" fill="#47474E" p-id="3907"></path><path d="M1678.506667 745.386667l-4.053334-49.493334c-18.986667 50.133333-71.466667 59.093333-98.346666 59.733334-109.44 4.053333-182.826667-61.013333-182.826667-179.626667s76.8-177.493333 174.506667-176.853333a122.88 122.88 0 0 1 106.666666 54.826666l2.56-46.506666h79.573334v337.92z m-103.253334-271.573334A95.786667 95.786667 0 0 0 1476.053333 576a96.426667 96.426667 0 0 0 99.2 102.826667c131.413333 0 131.413333-205.013333 0-205.013334zM1301.333333 673.92a94.72 94.72 0 0 0 40.106667-10.24l23.04 75.52a331.733333 331.733333 0 0 1-68.48 10.24c-72.746667 2.773333-120.32-39.04-120.32-123.306667v-132.693333h-63.573333v-85.333333h62.506666v-87.04l84.053334-8.96v96h92.16v85.333333h-94.08v132.693333A42.666667 42.666667 0 0 0 1301.333333 673.92z m-485.76-67.84c5.333333 42.666667 41.386667 72.106667 99.626667 72.106667a138.026667 138.026667 0 0 0 89.813333-31.573334l52.906667 52.693334c-35.413333 53.546667-93.013333 54.826667-144 54.826666a178.773333 178.773333 0 0 1-183.893333-180.266666 168.106667 168.106667 0 0 1 177.706666-176.853334c112.213333 0 181.973333 69.973333 169.173334 209.066667z m94.933334-135.04a90.24 90.24 0 0 0-93.653334 65.92h180.48c-5.333333-43.946667-39.253333-65.92-86.826666-65.92zM509.866667 745.386667H288.853333V268.16H509.866667c93.866667 0 163.626667 52.48 163.626666 136.533333a97.706667 97.706667 0 0 1-61.653333 92.586667 116.693333 116.693333 0 0 1 75.946667 106.666667c0 107.093333-79.36 141.44-177.92 141.44z m0-397.653334h-137.173334v118.4h137.173334c56.32 0 86.826667-32 86.826666-59.52C597.333333 384 567.04 347.733333 509.866667 347.733333z m0 189.866667h-137.173334V661.333333h137.173334c36.693333 0 88.96-12.16 88.96-57.386666s-52.266667-66.346667-88.96-66.346667z" fill="#22E115" p-id="3908"></path></svg>