<?xml version="1.0" standalone="no"?><!DOCTYPE svg PUBLIC "-//W3C//DTD SVG 1.1//EN" "http://www.w3.org/Graphics/SVG/1.1/DTD/svg11.dtd"><svg t="1715258791263" class="icon" viewBox="0 0 1024 1024" version="1.1" xmlns="http://www.w3.org/2000/svg" p-id="10758" xmlns:xlink="http://www.w3.org/1999/xlink" width="200" height="200"><path d="M857.709714 265.142857H355.218286l-17.773715-91.062857A45.750857 45.750857 0 0 0 292.571429 137.142857H146.285714a45.714286 45.714286 0 0 0 0 91.428572h108.653715l51.126857 261.558857 24.027428 132.242285a54.857143 54.857143 0 0 0 53.979429 45.056h420.425143a54.857143 54.857143 0 0 0 53.979428-45.056l53.211429-292.571428a54.857143 54.857143 0 0 0-53.979429-64.658286z" fill="#FF9F1C" p-id="10759"></path><path d="M466.285714 786.285714m-73.142857 0a73.142857 73.142857 0 1 0 146.285714 0 73.142857 73.142857 0 1 0-146.285714 0Z" fill="#FF9F1C" p-id="10760"></path><path d="M722.285714 786.285714m-73.142857 0a73.142857 73.142857 0 1 0 146.285714 0 73.142857 73.142857 0 1 0-146.285714 0Z" fill="#FF9F1C" p-id="10761"></path></svg>