<?xml version="1.0" standalone="no"?><!DOCTYPE svg PUBLIC "-//W3C//DTD SVG 1.1//EN" "http://www.w3.org/Graphics/SVG/1.1/DTD/svg11.dtd"><svg t="1711091014822" class="icon" viewBox="0 0 1024 1024" version="1.1" xmlns="http://www.w3.org/2000/svg" p-id="17796" xmlns:xlink="http://www.w3.org/1999/xlink" width="200" height="200"><path d="M283 86.3L122.8 249.7c-9.5 10.1-12.1 25-6.7 37.7 5.5 12.7 18.1 21.1 32 21.1h732.2c19.2 0 34.9-15.6 34.9-34.9 0-19.3-15.6-34.9-34.9-34.9H229.1l104.6-104.5c13.2-14 12.6-36.1-1.4-49.3-14.1-13.2-36.1-12.6-49.3 1.4zM745.7 925.2l160.1-163.4c9.5-10.1 12.1-25 6.7-37.7-5.5-12.7-18.1-21.1-32-21.1H148.2c-19.2 0-34.9 15.6-34.9 34.9 0 19.3 15.6 34.9 34.9 34.9h651.3L695 877.3c-13.2 14-12.6 36.1 1.4 49.3 14 13.2 36 12.5 49.3-1.4zM148.2 536.2h732.2c19.2 0 34.9-15.6 34.9-34.9 0-19.3-15.6-34.9-34.9-34.9H148.2c-19.3 0-34.9 15.6-34.9 34.9 0.1 19.3 15.7 34.9 34.9 34.9" p-id="17797" fill="#ffffff"></path></svg>