<?xml version="1.0" standalone="no"?><!DOCTYPE svg PUBLIC "-//W3C//DTD SVG 1.1//EN" "http://www.w3.org/Graphics/SVG/1.1/DTD/svg11.dtd"><svg t="1717659031390" class="icon" viewBox="0 0 1024 1024" version="1.1" xmlns="http://www.w3.org/2000/svg" p-id="2772" xmlns:xlink="http://www.w3.org/1999/xlink" width="200" height="200"><path d="M942.545455 721.454545c-6.981818 0-11.636364 4.654545-11.636364 11.636364v23.272727c0 6.981818 4.654545 11.636364 11.636364 11.636364s11.636364-4.654545 11.636363-11.636364v-23.272727c0-6.981818-4.654545-11.636364-11.636363-11.636364zM197.818182 814.545455c-6.981818 0-11.636364 4.654545-11.636364 11.636363v23.272727c0 6.981818 4.654545 11.636364 11.636364 11.636364s11.636364-4.654545 11.636363-11.636364v-23.272727c0-6.981818-4.654545-11.636364-11.636363-11.636363zM942.545455 581.818182c-6.981818 0-11.636364 4.654545-11.636364 11.636363v69.818182c0 6.981818 4.654545 11.636364 11.636364 11.636364s11.636364-4.654545 11.636363-11.636364v-69.818182c0-6.981818-4.654545-11.636364-11.636363-11.636363zM756.363636 651.636364c-6.981818 0-11.636364 4.654545-11.636363 11.636363v116.363637c0 6.981818 4.654545 11.636364 11.636363 11.636363s11.636364-4.654545 11.636364-11.636363v-116.363637c0-6.981818-4.654545-11.636364-11.636364-11.636363zM453.818182 837.818182c-6.981818 0-11.636364 4.654545-11.636364 11.636363v116.363637c0 6.981818 4.654545 11.636364 11.636364 11.636363s11.636364-4.654545 11.636363-11.636363v-116.363637c0-6.981818-4.654545-11.636364-11.636363-11.636363zM616.727273 814.545455c-6.981818 0-11.636364 4.654545-11.636364 11.636363v69.818182c0 6.981818 4.654545 11.636364 11.636364 11.636364s11.636364-4.654545 11.636363-11.636364v-69.818182c0-6.981818-4.654545-11.636364-11.636363-11.636363zM128 861.090909c-6.981818 0-11.636364 4.654545-11.636364 11.636364v69.818182c0 6.981818 4.654545 11.636364 11.636364 11.636363s11.636364-4.654545 11.636364-11.636363v-69.818182c0-6.981818-4.654545-11.636364-11.636364-11.636364zM302.545455 709.818182c0-6.981818-4.654545-11.636364-11.636364-11.636364s-11.636364 4.654545-11.636364 11.636364v116.363636c0 6.981818 4.654545 11.636364 11.636364 11.636364s11.636364-4.654545 11.636364-11.636364v-116.363636z" p-id="2773" fill="#ffffff"></path><path d="M837.818182 186.181818h-9.309091C798.254545 76.8 698.181818 0 581.818182 0c-44.218182 0-88.436364 11.636364-128 34.909091-34.909091 18.618182-65.163636 46.545455-86.109091 81.454545-27.927273-13.963636-58.181818-23.272727-88.436364-23.272727-102.4 0-186.181818 83.781818-186.181818 186.181818v6.981818c-55.854545 18.618182-93.090909 72.145455-93.090909 132.654546 0 69.818182 51.2 125.672727 116.363636 137.309091v65.163636c0 9.309091-4.654545 18.618182-9.309091 25.6l-41.890909 41.890909c-11.636364 9.309091-18.618182 25.6-18.618181 39.563637v41.890909c-13.963636 4.654545-23.272727 18.618182-23.272728 32.581818 0 18.618182 16.290909 34.909091 34.909091 34.909091S93.090909 821.527273 93.090909 802.909091c0-16.290909-9.309091-27.927273-23.272727-32.581818v-41.890909c0-9.309091 4.654545-18.618182 9.309091-25.6l41.890909-41.890909c11.636364-9.309091 18.618182-25.6 18.618182-39.563637V558.545455h46.545454v141.963636c-13.963636 4.654545-23.272727 18.618182-23.272727 32.581818 0 18.618182 16.290909 34.909091 34.909091 34.909091s34.909091-16.290909 34.909091-34.909091c0-16.290909-9.309091-27.927273-23.272728-32.581818V558.545455h74.472728c16.290909 83.781818 76.8 148.945455 155.927272 174.545454-2.327273 6.981818-4.654545 11.636364-9.30909 16.290909L342.109091 837.818182c-11.636364 11.636364-16.290909 25.6-16.290909 41.890909v53.527273c-13.963636 4.654545-23.272727 18.618182-23.272727 32.581818 0 18.618182 16.290909 34.909091 34.90909 34.909091s34.909091-16.290909 34.909091-34.909091c0-16.290909-9.309091-27.927273-23.272727-32.581818v-53.527273c0-9.309091 4.654545-18.618182 9.309091-25.6l88.436364-88.436364c6.981818-6.981818 11.636364-16.290909 13.963636-27.927272 16.290909 2.327273 32.581818 4.654545 48.872727 4.654545 6.981818 0 16.290909 0 23.272728-2.327273v165.236364c-13.963636 4.654545-23.272727 18.618182-23.272728 32.581818 0 18.618182 16.290909 34.909091 34.909091 34.909091s34.909091-16.290909 34.909091-34.909091c0-16.290909-9.309091-27.927273-23.272727-32.581818v-169.890909c16.290909-2.327273 32.581818-9.309091 46.545454-13.963637 0 16.290909 6.981818 30.254545 16.290909 41.89091l65.163637 65.163636c6.981818 6.981818 9.309091 16.290909 9.309091 25.6V954.181818c-13.963636 4.654545-23.272727 18.618182-23.272728 32.581818 0 18.618182 16.290909 34.909091 34.909091 34.909091s34.909091-16.290909 34.909091-34.909091c0-16.290909-9.309091-27.927273-23.272727-32.581818v-100.072727c0-16.290909-6.981818-30.254545-16.290909-41.890909l-65.163636-65.163637c-6.981818-6.981818-9.309091-16.290909-9.309091-25.6v-11.636363c55.854545-32.581818 97.745455-88.436364 111.709091-153.6H791.272727v16.290909c0 16.290909 6.981818 30.254545 16.290909 41.890909l41.890909 41.890909c6.981818 6.981818 9.309091 16.290909 9.309091 25.6v53.527273c0 9.309091-4.654545 18.618182-9.309091 25.6l-18.618181 18.618182c-9.309091 11.636364-16.290909 27.927273-16.290909 41.890909v18.618182c-13.963636 4.654545-23.272727 18.618182-23.272728 32.581818 0 18.618182 16.290909 34.909091 34.909091 34.909091s34.909091-16.290909 34.909091-34.909091c0-16.290909-9.309091-27.927273-23.272727-32.581818v-18.618182c0-9.309091 4.654545-18.618182 9.309091-25.6l18.618182-18.618182c11.636364-11.636364 16.290909-25.6 16.290909-41.890909v-53.527273c0-16.290909-6.981818-30.254545-16.290909-41.890909l-41.89091-41.890909c-6.981818-6.981818-9.309091-16.290909-9.30909-25.6V558.545455h23.272727c102.4 0 186.181818-83.781818 186.181818-186.181819s-83.781818-186.181818-186.181818-186.181818zM58.181818 814.545455c-6.981818 0-11.636364-4.654545-11.636363-11.636364s4.654545-11.636364 11.636363-11.636364 11.636364 4.654545 11.636364 11.636364-4.654545 11.636364-11.636364 11.636364z m279.272727 162.90909c-6.981818 0-11.636364-4.654545-11.636363-11.636363s4.654545-11.636364 11.636363-11.636364 11.636364 4.654545 11.636364 11.636364-4.654545 11.636364-11.636364 11.636363z m372.363637 0c6.981818 0 11.636364 4.654545 11.636363 11.636364s-4.654545 11.636364-11.636363 11.636364-11.636364-4.654545-11.636364-11.636364 4.654545-11.636364 11.636364-11.636364z m116.363636-93.090909c-6.981818 0-11.636364-4.654545-11.636363-11.636363s4.654545-11.636364 11.636363-11.636364 11.636364 4.654545 11.636364 11.636364-4.654545 11.636364-11.636364 11.636363z m-628.363636-139.636363c-6.981818 0-11.636364-4.654545-11.636364-11.636364s4.654545-11.636364 11.636364-11.636364 11.636364 4.654545 11.636363 11.636364-4.654545 11.636364-11.636363 11.636364z m349.090909 209.454545c-6.981818 0-11.636364-4.654545-11.636364-11.636363s4.654545-11.636364 11.636364-11.636364 11.636364 4.654545 11.636364 11.636364-4.654545 11.636364-11.636364 11.636363zM512 698.181818c-102.4 0-186.181818-83.781818-186.181818-186.181818s83.781818-186.181818 186.181818-186.181818 186.181818 83.781818 186.181818 186.181818-83.781818 186.181818-186.181818 186.181818z m325.818182-186.181818h-93.090909c0-128-104.727273-232.727273-232.727273-232.727273s-232.727273 104.727273-232.727273 232.727273H139.636364c-51.2 0-93.090909-41.890909-93.090909-93.090909 0-44.218182 32.581818-83.781818 76.8-90.763636 4.654545-2.327273 11.636364-2.327273 16.290909-2.327273 37.236364 0 69.818182 20.945455 86.109091 55.854545 4.654545 11.636364 18.618182 16.290909 30.254545 11.636364 11.636364-4.654545 16.290909-18.618182 11.636364-30.254546-23.272727-51.2-72.145455-83.781818-128-83.781818 0-76.8 62.836364-139.636364 139.636363-139.636363 27.927273 0 55.854545 9.309091 81.454546 25.6 18.618182 13.963636 34.909091 32.581818 46.545454 53.527272 2.327273 9.309091 11.636364 13.963636 18.618182 13.963637 2.327273 0 6.981818 0 9.309091-2.327273 11.636364-4.654545 16.290909-18.618182 11.636364-30.254545-9.309091-20.945455-25.6-39.563636-41.890909-55.854546 18.618182-27.927273 41.890909-51.2 72.145454-69.818182C509.672727 55.854545 544.581818 46.545455 581.818182 46.545455c93.090909 0 174.545455 60.509091 200.145454 148.945454-41.890909 13.963636-79.127273 41.890909-104.727272 81.454546-6.981818 11.636364-2.327273 25.6 6.981818 32.581818 4.654545 2.327273 6.981818 2.327273 11.636363 2.327272 6.981818 0 16.290909-4.654545 20.945455-11.636363 20.945455-34.909091 55.854545-58.181818 97.745455-65.163637 2.327273 0 6.981818 0 9.30909-2.327272h13.963637c76.8 0 139.636364 62.836364 139.636363 139.636363s-62.836364 139.636364-139.636363 139.636364z" p-id="2774" fill="#ffffff"></path><path d="M595.781818 500.363636c4.654545-11.636364 9.309091-23.272727 9.309091-34.909091 0-39.563636-30.254545-69.818182-69.818182-69.818181 0-13.963636-9.309091-23.272727-23.272727-23.272728s-23.272727 9.309091-23.272727 23.272728h-46.545455c-13.963636 0-23.272727 9.309091-23.272727 23.272727s9.309091 23.272727 23.272727 23.272727v139.636364c-13.963636 0-23.272727 9.309091-23.272727 23.272727s9.309091 23.272727 23.272727 23.272727h46.545455c0 13.963636 9.309091 23.272727 23.272727 23.272728s23.272727-9.309091 23.272727-23.272728h23.272728c39.563636 0 69.818182-30.254545 69.818181-69.818181 0-25.6-13.963636-46.545455-32.581818-58.181819zM488.727273 442.181818h46.545454c13.963636 0 23.272727 9.309091 23.272728 23.272727s-9.309091 23.272727-23.272728 23.272728h-46.545454v-46.545455z m69.818182 139.636364h-69.818182v-46.545455h69.818182c13.963636 0 23.272727 9.309091 23.272727 23.272728s-9.309091 23.272727-23.272727 23.272727z" p-id="2775" fill="#ffffff"></path></svg>