<?xml version="1.0" standalone="no"?><!DOCTYPE svg PUBLIC "-//W3C//DTD SVG 1.1//EN" "http://www.w3.org/Graphics/SVG/1.1/DTD/svg11.dtd"><svg t="1718872012725" class="icon" viewBox="0 0 1024 1024" version="1.1" xmlns="http://www.w3.org/2000/svg" p-id="20008" xmlns:xlink="http://www.w3.org/1999/xlink" width="200" height="200"><path d="M98.680726 995.405585v28.494435h28.594416c-15.596954 0-28.594415-12.897481-28.594416-28.494435zM895.325132 1023.90002H923.919547v-28.494435c0 15.496973-12.997461 28.494435-28.594415 28.494435zM127.275142 1023.90002h768.04999zM135.073618 25.894942c0 12.297598 8.898262 23.29545 21.295841 25.495021-0.499902-7.698496-0.799844-15.496973-1.099785-23.495411h51.190002c0.299941 8.098418 0.699863 16.096856 1.199766 23.895333h607.38137c0.499902-8.098418 0.799844-16.296817 1.099786-24.595196h51.190001c-0.299941 8.098418-0.699863 16.096856-1.199765 23.995313 11.997657-2.599492 21.09588-13.297403 20.296036-25.29506 0-13.797305-11.197813-25.894942-25.994923-25.894942H161.068541c-13.797305 0-25.994923 11.197813-25.994923 25.894942z" fill="#FC9901" p-id="20009"></path><path d="M923.919547 995.405585c0-15.596954-12.997461-28.494435-28.594415-28.494435H127.275142c-15.596954 0-28.594415 12.997461-28.594416 28.494435 0 15.596954 12.997461 28.494435 28.594416 28.494435h768.04999c15.596954 0 28.594415-12.997461 28.594415-28.494435zM815.140793 51.789885c-6.698692 116.27729-32.793595 204.060145-70.986136 269.847295l-0.899824 0.899824C692.964655 411.919547 636.575669 459.710213 563.589924 482.3058l-3.499317 0.899824h-0.899824c-1.699668 0.899824-2.599492 1.699668-4.29916 2.599492l-4.299161 4.299161v0.899824c-0.899824 0.899824-1.699668 2.599492-2.599492 4.29916l-0.899824 0.899824-1.699668 6.098809v9.598126l1.699668 6.098808 0.899824 0.899825c0.899824 1.699668 1.699668 2.599492 2.599492 4.29916v0.899824l1.699668 1.699668v-0.899824l1.699668 0.899824 0.899825 0.899824c0.899824 0.899824 2.599492 1.699668 4.29916 2.599493h0.899824l3.499317 1.699668c73.785589 23.495411 129.374731 70.386253 180.564733 158.968951l0.899825 1.699668c21.695763 36.492872 38.192541 80.784222 51.190001 131.974224 2.599492 14.79711 12.197618 46.890842 13.897286 88.582699-40.792033-36.492872-153.669986-62.487795-289.143526-64.287444V446.612771c1.699668 0 2.599492-0.899824 4.29916-1.699668v-0.899824l6.898652-2.599493h1.699668c49.490334-15.596954 88.582699-39.992189 121.576255-72.08592 34.693224-34.693224 61.687952-77.284905 79.884398-125.075572 5.198985-12.997461-0.899824-27.794571-14.79711-32.993555-12.997461-5.198985-27.794571 0.899824-32.993556 13.897285v0.899824c-15.596954 39.992189-38.192541 77.284905-67.68678 106.779145-26.894747 26.094903-58.988479 46.890842-99.880492 59.088459l-0.899824 0.899825-2.599493 0.899824-4.29916 0.899824-2.599492-0.899824-1.699668-0.899824-2.599493-0.899825c-39.892209-12.997461-73.785589-32.993556-99.880492-59.088459-30.394064-29.494239-52.089826-65.987112-67.68678-106.779145-5.198985-12.997461-19.996095-19.996095-32.093731-14.797109-12.997461 5.198985-19.09627 19.09627-14.79711 32.993555 18.196446 47.790666 44.291349 90.282367 79.884397 125.075572 32.093732 32.093732 72.085921 56.488967 120.676431 72.08592h0.899824l6.898653 2.599493 1.699668 0.899824c0.899824 0.899824 1.699668 0.899824 3.499316 1.699668v401.221636c-126.775239 0-237.0537 21.695763-289.143527 52.089827 1.699668-20.795938 6.098809-43.391525 13.897286-76.385081 12.997461-52.089826 30.394064-95.581332 51.190002-131.974224l0.899824-1.699668c51.190002-88.582699 106.779145-135.47354 181.464558-158.968952l2.599492-1.699668h0.899825c1.699668-0.899824 2.599492-1.699668 4.29916-2.599492l0.899824-0.899824 1.699668-0.899825v-0.899824l1.699668-1.699668v-0.899824c0.899824-0.899824 1.699668-2.599492 2.599492-4.29916v-0.899825c0.899824-1.699668 1.699668-4.29916 1.699669-6.098808v-8.698302c0-1.699668-0.899824-4.29916-1.699669-6.098808v-0.899825c-0.899824-1.699668-1.699668-3.499317-2.599492-4.29916v-0.899824l-3.499316-3.499317-2.599493 0.899824c-1.699668-0.899824-2.599492-1.699668-4.29916-2.599492h-0.899824l-2.599492-0.899824c-73.785589-22.595587-130.274556-70.386253-181.464558-159.768795l-0.899824-0.899824c-37.392697-65.987112-63.38762-153.969928-70.886155-270.547159H161.068541c-1.599688 0-3.199375-0.09998-4.699082-0.399922 7.498535 127.175161 36.092951 223.256395 77.884788 296.14216l0.899824 1.699668c44.291349 77.284905 103.279828 126.775239 165.867604 158.069127-62.487795 30.394064-120.67643 80.784222-165.867604 158.069127l-0.899824 1.699668c-41.691857 72.985745-71.186096 170.266745-77.284905 299.641476h708.461629c-5.798867-130.074595-34.393283-227.355595-76.984964-300.341339l-0.899825-1.699668c-44.291349-77.284905-103.279828-127.675063-165.867604-158.069128 62.487795-31.293888 120.67643-80.784222 165.867604-158.069127l0.899825-1.699668c41.691857-71.88596 70.286272-168.567077 77.784807-295.642257-1.799649 0.399922-3.699277 0.599883-5.598906 0.599883h-45.491115z" fill="#FC9901" p-id="20010"></path><path d="M816.240578 27.194689c-0.299941 8.298379-0.699863 16.496778-1.099785 24.595196h45.491115c1.899629 0 3.799258-0.199961 5.598906-0.599883 0.499902-7.898457 0.899824-15.896895 1.199766-23.995313h-51.190002zM207.659442 51.789885c-0.499902-7.798477-0.899824-15.796915-1.199766-23.895333h-51.190002c0.299941 7.898457 0.699863 15.796915 1.099785 23.495411 1.499707 0.299941 3.099395 0.399922 4.699082 0.399922h46.590901z" fill="#FC9901" p-id="20011"></path></svg>