<?xml version="1.0" standalone="no"?><!DOCTYPE svg PUBLIC "-//W3C//DTD SVG 1.1//EN" "http://www.w3.org/Graphics/SVG/1.1/DTD/svg11.dtd"><svg t="1713509757069" class="icon" viewBox="0 0 1024 1024" version="1.1" xmlns="http://www.w3.org/2000/svg" p-id="34635" xmlns:xlink="http://www.w3.org/1999/xlink" width="200" height="200"><path d="M370.2 861.8s-153.7-79-182.4-187.8c-2.6-9.8-12.8-15.2-22.5-12.4-9.6 2.7-22 7.9-35 17.4-14.7 10.8-34.6 11.8-49.6 1.4-20-13.9-42.7-35.9-42.7-64.5V421.7c0-2.6 0.5-5.1 1.6-7.4 4.6-9.9 20.6-37 61.6-49.7 6.3-1.9 11.2-6.8 12.4-13.2 8.5-45 53.8-224 241.9-284.6 0 0 177.5-77.9 329.7-0.3 0.3 0.2 0.6 0.3 0.9 0.5 9.6 5.5 182 106.7 220.2 280.1 1.8 8.3 8.8 14.4 17.3 14.6l21.1 0.5s34.8 4.6 39.8 39.4v235.5c-0.1 0.9-0.1 1.6-0.2 2.5-0.8 5.3-5.4 24.2-30.6 33.6-14.6 5.5-25.1 18.6-26.6 34.2-5.6 59.5-51.7 195.8-344 265.1-4.4 1-8.2 3.6-10.8 7.3-6.7 9.8-23.4 29.2-52.2 32.7 0 0-111.3 9.9-92.8-75.4 0 0 7-62.6 94-55.1 0 0 24.3 3 33.4 23.9 3.3 7.5 11.6 11.3 19.7 10.3 44.9-5.5 169.7-26.3 231.5-91.3 67.4-70.9 68.3-73.3 82-128.9 3.6-14.4-0.9-30.5-13.1-39-9.6-6.7-21.4-6.6-39.2 19 0 0-129.5 162.6-161.6 167.8-32.1 5.2-6.2-20.9-6.2-20.9s90.5-94.3 77.3-143.8c0 0 23.1-115-53.9-246.2-0.2-0.3-0.3-0.6-0.5-0.9l-18.4-37.4c-4.7-9.6-14.3-15.7-25-16l-7.4-0.2c-4.2-0.1-7.3 3.6-6.4 7.7 4.7 22.1 9.4 85.4-79.4 122.2-0.6 0.2-1.1 0.4-1.7 0.6-11.9 3.2-150.6 40.5-231.6 37.4-4-0.2-7.8 1-11.1 3.4-17.6 12.9-70.8 57.9-35.6 110 0 0 68.8 139.6 97.8 166.3 0.3 0.2 33.1 37.7-1.7 35.8zM188.5 380c109-232 331.7-204.1 331.7-204.1C755.6 174 816 362.4 816 362.4c40.9 64.1 36.7-1 36.7-1-104.9-295-352.6-259.8-352.6-259.8-270.3 1.8-334 273.7-334 273.7-7.4 41.4 22.4 4.7 22.4 4.7z" fill="#ffffff" p-id="34636"></path></svg>