<?xml version="1.0" standalone="no"?><!DOCTYPE svg PUBLIC "-//W3C//DTD SVG 1.1//EN" "http://www.w3.org/Graphics/SVG/1.1/DTD/svg11.dtd"><svg t="1716797704940" class="icon" viewBox="0 0 1024 1024" version="1.1" xmlns="http://www.w3.org/2000/svg" p-id="12511" xmlns:xlink="http://www.w3.org/1999/xlink" width="200" height="200"><path d="M488.96 881.92c2.56 3.84 6.4 6.4 11.52 8.96 10.24 3.84 21.76 1.28 29.44-5.12l98.56-98.56c10.24-10.24 10.24-26.88 0-38.4s-26.88-10.24-38.4 0L537.6 801.28V499.2c0-15.36-11.52-26.88-26.88-26.88-15.36 0-26.88 11.52-26.88 26.88v302.08l-51.2-51.2c-5.12-5.12-11.52-7.68-19.2-7.68-6.4 0-14.08 2.56-19.2 7.68-10.24 10.24-10.24 28.16 0 38.4l94.72 93.44z m0 0" p-id="12512" fill="#ffffff"></path><path d="M814.08 431.36c-25.6-25.6-57.6-42.24-93.44-47.36-5.12-47.36-26.88-90.88-60.16-124.16-39.68-39.68-92.16-61.44-148.48-61.44-56.32 0-108.8 21.76-148.48 61.44-34.56 34.56-55.04 76.8-60.16 124.16-34.56 5.12-67.84 21.76-93.44 47.36-30.72 30.72-48.64 72.96-48.64 117.76 0 44.8 16.64 85.76 48.64 117.76 30.72 30.72 72.96 48.64 117.76 48.64 15.36 0 26.88-11.52 26.88-26.88 0-15.36-11.52-26.88-26.88-26.88-61.44 0-112.64-49.92-112.64-112.64 0-61.44 49.92-112.64 112.64-112.64h1.28c7.68 0 14.08-2.56 19.2-7.68 5.12-5.12 7.68-11.52 7.68-19.2 0-87.04 70.4-156.16 157.44-156.16 87.04 0 156.16 70.4 157.44 156.16 0 7.68 2.56 14.08 7.68 19.2 5.12 5.12 11.52 7.68 19.2 7.68h1.28c61.44 0 112.64 49.92 112.64 112.64 0 61.44-49.92 112.64-112.64 112.64-15.36 0-26.88 11.52-26.88 26.88 0 15.36 11.52 26.88 26.88 26.88 44.8 0 85.76-16.64 117.76-48.64 30.72-30.72 48.64-72.96 48.64-117.76-2.56-44.8-20.48-85.76-51.2-117.76z m0 0" p-id="12513" fill="#ffffff"></path></svg>