<?xml version="1.0" standalone="no"?><!DOCTYPE svg PUBLIC "-//W3C//DTD SVG 1.1//EN" "http://www.w3.org/Graphics/SVG/1.1/DTD/svg11.dtd"><svg t="1717061546823" class="icon" viewBox="0 0 1362 1024" version="1.1" xmlns="http://www.w3.org/2000/svg" p-id="5328" xmlns:xlink="http://www.w3.org/1999/xlink" width="266.015625" height="200"><path d="M590.153642 716.493515c160.393748 0.340539 289.79847 9.875624 289.79847 22.135018s-131.788494 22.135018-294.566013 22.135019-294.566013-9.875624-294.566013-22.135019 131.788494-22.135018 294.566013-22.135018h4.767543z" fill="#F2F2F2" p-id="5329"></path><path d="M195.1287 206.707017h-0.681078c-49.037579-7.832391-71.853675-20.432325-82.069837-32.010642-8.854007-1.362155-16.005321-5.108081-22.135018-11.237778-12.940472-13.62155-19.410708-37.118723-18.729631-72.534753 0-2.043232 1.702694-3.405387 3.405387-3.405387 2.043232 0 3.405387 1.702694 3.405388 3.405387-0.340539 33.032258 5.108081 55.507815 17.026937 67.426671 3.405387 3.405387 7.151314 6.129697 11.578317 7.491853-0.340539-0.681077-0.681077-1.702694-1.021616-2.383771-3.405387-9.875624-0.340539-20.091786 8.17293-28.945794 5.789159-6.129697 13.281011-7.151314 20.772863-3.064848 8.854007 4.767542 16.34586 17.367476 13.62155 28.605254-1.362155 5.44862-6.470236 14.643166-25.199867 15.324244 10.89724 8.513469 32.010642 18.048553 72.534752 24.859328 1.702694 0.340539 3.064849 2.043232 2.72431 3.745926-0.340539 1.702694-1.702694 2.72431-3.405387 2.72431zM116.123711 168.226139c1.702694 0 3.405387 0.340539 5.108081 0.340539 11.578317 0 18.729631-3.745926 20.432325-10.216163 2.043232-7.491852-3.745926-17.367476-10.216162-20.772863-3.064849-1.702694-7.832391-2.72431-12.259395 2.043233-4.767542 5.108081-9.875624 12.940472-6.470236 22.135018 0.340539 1.702694 1.362155 4.086465 3.405387 6.470236z" fill="#E0E0E0" p-id="5330"></path><path d="M1252.842035 186.274692c-29.967409 0-54.486199 24.518789-54.486199 54.486199v52.442967c26.221483 1.362155 44.270037 2.043232 54.486199 2.043232 29.967409 0 54.486199-24.518789 54.486199-54.486199s-24.518789-54.486199-54.486199-54.486199z m-23.497173 61.296974c-4.086465 0-7.151314-3.064849-7.151314-6.810775s3.064849-6.810775 7.151314-6.810775c4.086465 0 7.151314 3.064849 7.151314 6.810775s-3.064849 6.810775-7.151314 6.810775z m25.199867 0c-4.086465 0-7.151314-3.064849-7.151314-6.810775s3.064849-6.810775 7.151314-6.810775 7.151314 3.064849 7.151314 6.810775-3.064849 6.810775-7.151314 6.810775z m25.199867 0c-4.086465 0-7.151314-3.064849-7.151314-6.810775s3.064849-6.810775 7.151314-6.810775c4.086465 0 7.151314 3.064849 7.151314 6.810775s-3.064849 6.810775-7.151314 6.810775z" fill="#C8102E" p-id="5331"></path><path d="M912.98437 962.021949a137.237113 25.199867 0 1 0 274.474227 0 137.237113 25.199867 0 1 0-274.474227 0Z" fill="#F2F2F2" p-id="5332"></path><path d="M781.536415 70.49152c131.107416 0 64.021284 106.248088 64.021284 237.355504 0 3.064849 0 6.470236-0.340539 9.535084l-7.491852 188.317925c-5.108081 130.426339-112.377785 233.269039-242.804124 233.269039H391.619554c-19.751247 0-39.161955-4.427004-56.86997-13.281011-16.34586-8.17293-26.902561-25.199867-26.90256-43.588959V127.36149c0-18.389092 10.556701-35.075491 26.90256-43.588959 17.708015-8.854007 37.118723-13.281011 56.86997-13.281011h389.916861z" fill="#CECECE" p-id="5333"></path><path d="M815.930828 73.556368c27.583638 0 50.059195 22.475557 50.059195 50.059196V691.293648c0 27.583638-22.475557 50.059195-50.059195 50.059195H395.706019c-27.583638 0-50.059195-22.475557-50.059195-50.059195V123.615564c0-27.583638 22.475557-50.059195 50.059195-50.059196h420.224809z" fill="#E2E2E2" p-id="5334"></path><path d="M807.076821 123.275025c6.810775 0 12.599933 5.44862 12.599933 12.599933v546.224144c0 6.810775-5.44862 12.599933-12.599933 12.599934H405.241104c-6.810775 0-12.599933-5.44862-12.599933-12.599934V135.874958c0-6.810775 5.44862-12.599933 12.599933-12.599933h401.835717z" fill="#F9F9F9" p-id="5335"></path><path d="M390.597938 343.94413c0 164.480213 25.540406 261.533755 76.280679 291.160626 119.869638 26.902561 251.99867 24.518789 396.046558-6.470237-30.307948-66.064516-45.291653-149.496508-45.291653-250.977053l-0.340539-244.506818c0-6.810775-5.789159-12.599933-12.599933-12.599933H401.495178c-6.810775 0-12.599933 5.789159-12.599934 12.599933l1.702694 210.793482z" fill="#FFFFFF" p-id="5336"></path><path d="M753.271699 210.793482c8.513469 0 15.324243 6.810775 15.324244 15.324243s-6.810775 15.324243-15.324244 15.324244h-288.776854c-8.513469 0-15.324243-6.810775-15.324243-15.324244s6.810775-15.324243 15.324243-15.324243h288.776854zM753.271699 406.943798c8.513469 0 15.324243 6.810775 15.324244 15.324243s-6.810775 15.324243-15.324244 15.324244h-288.776854c-8.513469 0-15.324243-6.810775-15.324243-15.324244s6.810775-15.324243 15.324243-15.324243h288.776854zM668.477552 306.825407c8.513469 0 15.324243 6.810775 15.324244 15.324244s-6.810775 15.324243-15.324244 15.324243h-204.323245c-8.513469 0-15.324243-6.810775-15.324244-15.324243s6.810775-15.324243 15.324244-15.324244h204.323245z" fill="#F1F1F1" p-id="5337"></path><path d="M1071.675424 336.111739s9.875624-8.17293 9.875624-16.005321c0-5.44862-6.129697-3.405387-18.048554 6.129698v-22.135019h-46.313269v2.043233c-3.745926 32.691719 4.427004 49.378118 25.199867 49.378118v25.540405c5.789159 4.767542 11.237779 7.151314 16.686399 7.151314 8.17293 0 13.962088-4.767542 18.048553-8.513469v-29.967409c0.340539-1.021616 0.681077-2.043232 1.362155-2.72431-4.427004-1.702694-6.810775-10.89724-6.810775-10.89724z" fill="#FFCDC3" p-id="5338"></path><path d="M1000.502827 939.546392c-14.643166 2.043232-30.648487 10.556701-40.524111 17.026937-3.064849 2.043232-1.702694 6.810775 2.043233 6.810775h67.76721v-23.837712h-29.286332zM1095.853675 939.546392c-14.643166 2.043232-30.648487 10.556701-40.524111 17.026937-3.064849 2.043232-1.702694 6.810775 2.043233 6.810775h67.76721v-23.837712h-29.286332z" fill="#555555" p-id="5339"></path><path d="M1063.161955 352.798138l-20.772863 24.518789v-21.794479c9.875624 1.021616 17.026937 0.340539 20.432325-2.383772l0.340538-0.340538z" fill="#FFA593" p-id="5340"></path><path d="M1015.486531 282.306618c6.129697-13.962088 48.015963-18.048553 66.064517-8.17293s6.129697 68.107749 0 72.194214c-6.129697 4.086465-9.875624-9.875624-9.875624-9.875624s9.875624-8.17293 9.875624-16.005321c0-5.44862-6.129697-3.405387-18.048554 6.129697v-22.135018h-54.14566c0-5.44862 2.043232-12.940472 6.129697-22.135018z" fill="#4B4B4B" p-id="5341"></path><path d="M1219.469238 419.203193c4.427004 3.405387 31.670103 16.686398 18.389093 24.859328-6.470236 4.086465-39.161955 52.783505-68.107749 59.59428-10.216162 2.383771-23.837712-7.832391-40.52411-30.989026l-15.324244-15.324243 12.259395 128.042567h-135.874959l8.513469-128.042567s-3.064849 3.745926-8.854007 10.89724v0.340538c-2.043232 4.767542-19.410708 45.291653-48.356502 35.075491-10.216162-3.745926-28.945793-28.264716-56.188892-73.21583 14.643166-6.129697 21.113402-9.875624 19.410708-11.578317 4.086465 2.043232 19.751247 10.216162 47.334885 24.518789l1.362155 0.681078c28.264716-37.459262 55.848354-60.615896 82.069837-69.810443 8.17293 9.194546 16.005321 13.962088 23.837712 13.962089 13.962088 0 21.79448-13.962088 24.178251-13.962089 41.886265 0 41.886265 27.243099 75.94014 63.340207 8.513469 8.854007 13.62155 16.686398 15.324243 16.686398 1.021616 0 39.843033-29.626871 44.610575-35.07549z" fill="#C80F2D" p-id="5342"></path><path d="M992.329897 585.386099v354.160293h40.52411l26.902561-268.685068 24.859328 268.685068h40.524111v-354.160293z" fill="#6C6C6C" p-id="5343"></path><path d="M1246.712338 413.754573c15.664782-5.44862 19.751247-9.535085 11.918856-11.918856-4.767542-1.702694-17.026937 4.767542-37.118723 18.729631 3.745926 2.383771 9.875624 5.789159 14.643166 9.875623 0.340539-0.340539 0.681077-0.681077 1.021616-0.681077 7.832391-4.086465 44.951114 0 51.080812-10.216163 3.745926-6.470236-10.216162-8.513469-41.545727-5.789158zM966.789491 427.376122l-1.362155 1.702694c0.340539-0.681077 0.681077-1.362155 1.362155-1.702694zM889.487197 428.397739c11.237779-4.767542 16.34586-8.17293 14.643165-9.535085 1.362155 0.681077 3.745926 2.043232 7.491853 3.745926-27.243099-20.432325-43.929498-29.626871-49.378118-27.924177-7.832391 2.72431-4.086465 6.810775 11.918856 11.918856-31.329564-2.72431-44.951114-0.681077-41.205188 6.129697 5.789159 10.216162 43.24842 6.129697 51.080812 10.216163 1.021616 0.681077 3.064849 2.72431 5.44862 5.44862z" fill="#FFCDC3" p-id="5344"></path></svg>