<?xml version="1.0" standalone="no"?><!DOCTYPE svg PUBLIC "-//W3C//DTD SVG 1.1//EN" "http://www.w3.org/Graphics/SVG/1.1/DTD/svg11.dtd"><svg t="1714357826704" class="icon" viewBox="0 0 1073 1024" version="1.1" xmlns="http://www.w3.org/2000/svg" p-id="7976" xmlns:xlink="http://www.w3.org/1999/xlink" width="209.5703125" height="200"><path d="M528.650407 512m-512 0a512 512 0 1 0 1024 0 512 512 0 1 0-1024 0Z" fill="#BFD8FF" p-id="7977"></path><path d="M722.211382 108.227642h266.406504a18.731707 18.731707 0 0 1 0 37.463415h-62.439024c-16.650407 0-16.650407 27.056911 0 27.05691H849.170732c18.731707 0 18.731707-27.056911 0-27.05691h-126.95935a18.731707 18.731707 0 0 1 0-37.463415z" fill="#7EAFFF" p-id="7978"></path><path d="M803.382114 170.666667m18.731707 0l233.105691 0q18.731707 0 18.731708 18.731707l0 0q0 18.731707-18.731708 18.731707l-233.105691 0q-18.731707 0-18.731707-18.731707l0 0q0-18.731707 18.731707-18.731707Z" fill="#7EAFFF" p-id="7979"></path><path d="M18.731707 861.658537h266.406504a18.731707 18.731707 0 0 1 0 37.463414h-62.439024c-16.650407 0-16.650407 27.056911 0 27.056911H145.691057c18.731707 0 18.731707-27.056911 0-27.056911H18.731707a18.731707 18.731707 0 0 1 0-37.463414z" fill="#7EAFFF" p-id="7980"></path><path d="M99.902439 924.097561m18.731707 0l233.105691 0q18.731707 0 18.731708 18.731707l0 0q0 18.731707-18.731708 18.731708l-233.105691 0q-18.731707 0-18.731707-18.731708l0 0q0-18.731707 18.731707-18.731707Z" fill="#7EAFFF" p-id="7981"></path><path d="M235.186992 154.01626a18.731707 18.731707 0 1 1 0-37.463414 18.731707 18.731707 0 0 1 0 37.463414z m0-4.162601a14.569106 14.569106 0 1 0 0-29.138212 14.569106 14.569106 0 0 0 0 29.138212zM743.02439 907.447154a22.894309 22.894309 0 1 1 0-45.788617 22.894309 22.894309 0 0 1 0 45.788617z m0-4.162601a18.731707 18.731707 0 1 0 0-37.463415 18.731707 18.731707 0 0 0 0 37.463415z" fill="#7EAFFF" p-id="7982"></path><path d="M283.056911 216.455285m4.162601 0l33.300813 0q4.162602 0 4.162602 4.162601l0 0q0 4.162602-4.162602 4.162602l-33.300813 0q-4.162602 0-4.162601-4.162602l0 0q0-4.162602 4.162601-4.162601Z" fill="#7EAFFF" p-id="7983"></path><path d="M299.707317 199.804878m4.162602 0l0 0q4.162602 0 4.162601 4.162602l0 33.300813q0 4.162602-4.162601 4.162601l0 0q-4.162602 0-4.162602-4.162601l0-33.300813q0-4.162602 4.162602-4.162602Z" fill="#7EAFFF" p-id="7984"></path><path d="M374.634146 112.390244m4.162602 0l24.97561 0q4.162602 0 4.162601 4.162602l0 0q0 4.162602-4.162601 4.162601l-24.97561 0q-4.162602 0-4.162602-4.162601l0 0q0-4.162602 4.162602-4.162602Z" fill="#7EAFFF" p-id="7985"></path><path d="M387.121951 99.902439m4.162602 0l0 0q4.162602 0 4.162601 4.162602l0 24.975609q0 4.162602-4.162601 4.162602l0 0q-4.162602 0-4.162602-4.162602l0-24.975609q0-4.162602 4.162602-4.162602Z" fill="#7EAFFF" p-id="7986"></path><path d="M616.065041 857.495935m4.162601 0l24.97561 0q4.162602 0 4.162602 4.162602l0 0q0 4.162602-4.162602 4.162601l-24.97561 0q-4.162602 0-4.162601-4.162601l0 0q0-4.162602 4.162601-4.162602Z" fill="#7EAFFF" p-id="7987"></path><path d="M628.552846 845.00813m4.162601 0l0 0q4.162602 0 4.162602 4.162602l0 24.975609q0 4.162602-4.162602 4.162602l0 0q-4.162602 0-4.162601-4.162602l0-24.975609q0-4.162602 4.162601-4.162602Z" fill="#7EAFFF" p-id="7988"></path><path d="M899.121951 720.130081m4.162602 0l33.300813 0q4.162602 0 4.162601 4.162602l0 0q0 4.162602-4.162601 4.162602l-33.300813 0q-4.162602 0-4.162602-4.162602l0 0q0-4.162602 4.162602-4.162602Z" fill="#7EAFFF" p-id="7989"></path><path d="M915.772358 703.479675m4.162601 0l0 0q4.162602 0 4.162602 4.162601l0 33.300813q0 4.162602-4.162602 4.162602l0 0q-4.162602 0-4.162601-4.162602l0-33.300813q0-4.162602 4.162601-4.162601Z" fill="#7EAFFF" p-id="7990"></path><path d="M566.113821 495.349593H116.552846l17.124943 178.775415L566.113821 778.406504z" fill="#7B9FDB" p-id="7991"></path><path d="M566.113821 774.243902l-262.243902-136.229463V441.235772l262.243902 136.229464z" fill="#8DC3ED" p-id="7992"></path><path d="M564.806764 774.243902L828.357724 637.589854v-197.386407l-263.55096 136.654049V774.243902z m-0.149853-470.373983L299.707317 440.478179l264.949594 136.604097 0.149853-0.074926V303.953171l-0.149853-0.083252z" fill="#E8F0FB" p-id="7993"></path><path d="M566.113821 303.869919v274.731707l266.406504-137.365854z" fill="#8DC3ED" p-id="7994"></path><path d="M564.03252 491.186992L478.699187 534.902634 564.03252 578.601626l85.333334-43.698992z" fill="#476FB2" p-id="7995"></path><path d="M772.466472 512.765919l-79.422439 40.918374-54.904716 28.280715a25.341919 25.341919 0 0 0-13.749073 22.519675v0.507837c0 2.414309 1.265431 4.653789 3.330081 5.906732a6.939057 6.939057 0 0 0 6.785041 0.228943l84.713106-43.961236 49.659837-25.766504a25.346081 25.346081 0 0 0 13.690797-22.494699 6.934894 6.934894 0 0 0-10.102634-6.131512" fill="#44AFE7" p-id="7996"></path><path d="M380.586667 461.270374l134.389593-69.72774A25.337756 25.337756 0 0 0 528.650407 369.047935c0-2.410146-1.261268-4.641301-3.321757-5.894244a6.934894 6.934894 0 0 0-6.772552-0.237268l-134.33548 69.186601A25.346081 25.346081 0 0 0 370.471545 454.631024v0.503675a6.934894 6.934894 0 0 0 10.115122 6.131512" fill="#D2F5F9" p-id="7997"></path><path d="M915.772358 300.14439c0 2.039675-2.476748 50.750439-35.760911 75.588683C851.227057 398.731447 803.382114 388.807805 803.382114 390.84748c0-2.039675 2.476748-50.742114 35.76091-75.588683C867.927415 292.260423 915.772358 302.184065 915.772358 300.14439" fill="#6898E8" p-id="7998"></path><path d="M401.137431 341.691317c-21.27922 0.020813-38.520715 17.170732-38.545691 38.337561 0.029138 21.158504 17.270634 38.308423 38.545691 38.333398 21.27922-0.020813 38.524878-17.170732 38.545691-38.337561-0.020813-21.162667-17.266472-38.312585-38.545691-38.337561m0 93.687675c-30.678374 0-55.641496-24.825756-55.641496-55.350114C345.495935 349.512846 370.454894 324.682927 401.137431 324.682927s55.641496 24.825756 55.641496 55.341788c0 30.520195-24.958959 55.350114-55.641496 55.350114m268.362927 18.348748l-3.742179-16.600455c32.593171-7.26374 76.300488-23.726829 108.760455-40.94335L782.569106 411.181789c-34.216585 18.14478-78.589919 34.840976-113.064586 42.537626" fill="#FFFFFF" p-id="7999"></path><path d="M560.727415 466.211382C437.214699 466.211382 320.108228 421.492553 228.943089 339.909724c0 0 0.724293-5.719415 8.612423-15.226797 88.413659 80.408976 202.622959 124.532553 323.171903 124.532553 23.281431 0 46.662764-1.673366 69.519609-4.970147l2.468423 16.821074A506.263935 506.263935 0 0 1 560.727415 466.211382" fill="#FFFFFF" p-id="8000"></path><path d="M638.27252 581.931707a25.333593 25.333593 0 0 0-13.882276 22.548813v0.507838c0 2.414309 1.277919 4.653789 3.363382 5.910894a7.059772 7.059772 0 0 0 6.851642 0.228943L720.130081 567.129496 693.697561 553.626016l-55.425041 28.314017v-0.008326z" fill="#476FB2" p-id="8001"></path></svg>