<?xml version="1.0" standalone="no"?><!DOCTYPE svg PUBLIC "-//W3C//DTD SVG 1.1//EN" "http://www.w3.org/Graphics/SVG/1.1/DTD/svg11.dtd"><svg t="1717468449823" class="icon" viewBox="0 0 1024 1024" version="1.1" xmlns="http://www.w3.org/2000/svg" p-id="12853" xmlns:xlink="http://www.w3.org/1999/xlink" width="200" height="200"><path d="M512 512m-512 0a512 512 0 1 0 1024 0 512 512 0 1 0-1024 0Z" fill="#52C51A" p-id="12854"></path><path d="M760.9344 384c57.7024 0.1024 71.168 1.4336 85.0944 7.168 35.4304 14.2336 55.3984 47.6672 48.64 81.408-1.0752 25.7024-17.6128 48.9472-43.4176 61.1328a160.1024 160.1024 0 0 1-69.0688 9.9328l-51.2512 1.536v94.7712H670.208v-256z m-381.952-0.0512v41.984H240.0256v64.9728h121.6512v41.984H239.9744l0.0512 107.008H179.2v-256h199.8336z m260.7104 0v41.984h-86.8864v213.9648H492.032V425.9328H409.4464V384h230.2464z m91.2896 41.216V502.272h27.392c52.992 0 72.5504-10.6496 72.5504-40.0896a27.3408 27.3408 0 0 0-10.9056-24.7808c-9.5744-8.0384-16.5376-9.216-49.9712-10.752l-39.0656-1.536z" fill="#FFFFFF" p-id="12855"></path></svg>