<?xml version="1.0" standalone="no"?><!DOCTYPE svg PUBLIC "-//W3C//DTD SVG 1.1//EN" "http://www.w3.org/Graphics/SVG/1.1/DTD/svg11.dtd"><svg t="1719558119575" class="icon" viewBox="0 0 1024 1024" version="1.1" xmlns="http://www.w3.org/2000/svg" p-id="17048" xmlns:xlink="http://www.w3.org/1999/xlink" width="200" height="200"><path d="M872.530248 213.434418c-17.898665 0-38.354282 5.113904-53.695994 15.341713V159.738424c0-56.252946-46.025138-102.278085-102.278085-104.835037-20.455617 0-43.468186 7.670856-58.809899 17.898665-17.898665-51.139042-74.151611-84.37942-127.847605-69.037707-33.240377 10.227808-61.366851 35.79733-69.037707 69.037707-46.025138-33.240377-112.505893-20.455617-145.746271 25.569521-12.784761 17.898665-17.898665 38.354282-17.898664 58.809899v317.062062l-46.025139-81.822468c-15.341713-25.569521-38.354282-40.911234-66.480754-48.58209-28.126473-5.113904-56.252946-2.556952-81.822468 12.784761-51.139042 28.126473-71.594659 92.050276-43.468186 145.74627l212.227025 365.644152c94.607228 138.075414 219.897882 155.974079 340.074631 155.974079 334.960727 2.556952 365.644152-411.66929 365.644153-416.783194V318.269455c0-58.809899-46.025138-104.835037-104.835037-104.835037zM609.16418 975.406148c-122.733701 0-219.897882-23.012569-296.606445-132.96151L105.444614 479.357438c-15.341713-28.126473-2.556952-61.366851 23.012569-74.151611 12.784761-7.670856 28.126473-10.227808 43.468186-7.670857 12.784761 2.556952 25.569521 12.784761 33.240377 23.012569l94.607229 163.644936s0 2.556952 2.556952 2.556952c0 2.556952 2.556952 2.556952 2.556952 5.113904l5.113904 2.556952 5.113904 2.556952H330.4564l5.113904-2.556952h2.556952s2.556952 0 2.556952-2.556952l5.113905-2.556952s2.556952-2.556952 2.556952-5.113904 2.556952-2.556952 2.556952-5.113905V159.738424c0-28.126473 23.012569-53.695994 53.695994-53.695995 28.126473 0 53.695994 23.012569 53.695995 53.695995v314.50511c0 15.341713 10.227808 25.569521 25.569521 25.569521s25.569521-10.227808 25.569521-25.569521V108.599382c2.556952-30.683425 28.126473-51.139042 56.252946-48.582091 25.569521 2.556952 48.58209 23.012569 48.582091 48.582091v368.201104c0 15.341713 10.227808 25.569521 25.569521 25.569521s25.569521-10.227808 25.569521-25.569521V159.738424c-5.113904-28.126473 20.455617-53.695994 48.58209-53.695995s53.695994 25.569521 53.695994 53.695995v368.201104c0 15.341713 10.227808 25.569521 25.569521 25.569521s25.569521-10.227808 25.569522-25.569521v-209.670073c0-28.126473 23.012569-53.695994 53.695994-53.695995 28.126473 0 53.695994 23.012569 53.695994 53.695995v286.378636c0 5.113904-28.126473 370.758056-317.062062 370.758057z" p-id="17049" fill="#ffffff"></path></svg>