<?xml version="1.0" standalone="no"?><!DOCTYPE svg PUBLIC "-//W3C//DTD SVG 1.1//EN" "http://www.w3.org/Graphics/SVG/1.1/DTD/svg11.dtd"><svg t="1713506794963" class="icon" viewBox="0 0 1024 1024" version="1.1" xmlns="http://www.w3.org/2000/svg" p-id="11206" xmlns:xlink="http://www.w3.org/1999/xlink" width="200" height="200"><path d="M512 0C310.613333 0 119.466667 208.213333 119.466667 426.666667v3.413333c0 3.413333 0 10.24 3.413333 13.653333L238.933333 925.013333c0 3.413333 0 3.413333 3.413334 3.413334 34.133333 61.44 136.533333 95.573333 269.653333 95.573333 136.533333 0 235.52-34.133333 269.653333-95.573333 0 0 0-3.413333 3.413334-3.413334L901.12 443.733333c3.413333-3.413333 3.413333-10.24 3.413333-13.653333v-3.413333C904.533333 208.213333 713.386667 0 512 0z m0 34.133333c167.253333 0 324.266667 157.013333 354.986667 334.506667C798.72 327.68 655.36 307.2 512 307.2s-286.72 20.48-354.986667 61.44C187.733333 191.146667 344.746667 34.133333 512 34.133333z m331.093333 460.8c-68.266667 30.72-191.146667 51.2-331.093333 51.2s-262.826667-20.48-331.093333-51.2c-10.24-3.413333-13.653333-13.653333-10.24-23.893333 3.413333-10.24 13.653333-13.653333 23.893333-6.826667C259.413333 494.933333 375.466667 512 512 512c133.12 0 252.586667-17.066667 317.44-47.786667 10.24-3.413333 17.066667 0 23.893333 6.826667 3.413333 10.24 0 20.48-10.24 23.893333z" fill="#ffffff" p-id="11207"></path></svg>