<?xml version="1.0" standalone="no"?><!DOCTYPE svg PUBLIC "-//W3C//DTD SVG 1.1//EN" "http://www.w3.org/Graphics/SVG/1.1/DTD/svg11.dtd"><svg t="1718938246122" class="icon" viewBox="0 0 1024 1024" version="1.1" xmlns="http://www.w3.org/2000/svg" p-id="6769" xmlns:xlink="http://www.w3.org/1999/xlink" width="200" height="200"><path d="M659.2 640V428.8h70.4V384h-192v44.8H608V640h51.2z m294.4-204.8c0-12.8-6.4-19.2-12.8-25.6-6.4-6.4-12.8-12.8-25.6-19.2-6.4-6.4-19.2-6.4-32-6.4H780.8v256H832v-89.6h51.2c12.8 0 25.6 0 38.4-6.4 12.8-6.4 19.2-12.8 25.6-19.2 6.4-6.4 12.8-19.2 12.8-25.6v-32c0-12.8 0-25.6-6.4-32z m-44.8 51.2c0 6.4-6.4 6.4-12.8 12.8-6.4 0-6.4 6.4-12.8 6.4h-57.6v-76.8h57.6c6.4 0 12.8 0 12.8 6.4 6.4 0 6.4 6.4 12.8 12.8 0 6.4 6.4 12.8 6.4 19.2s-6.4 12.8-6.4 19.2zM422.4 640V428.8h70.4V384h-192v44.8h70.4V640h51.2zM115.2 531.2h96V640H256V384h-51.2v96h-89.6v-96H64v256h51.2V531.2zM640 908.8c32-51.2 57.6-121.6 76.8-204.8h-64c-32 140.8-89.6 224-140.8 224s-108.8-83.2-140.8-224h-64c12.8 83.2 38.4 153.6 76.8 204.8C275.2 870.4 192 800 140.8 704H70.4C147.2 870.4 313.6 992 512 992s364.8-121.6 441.6-288h-70.4C832 800 748.8 870.4 640 908.8zM384 115.2c-38.4 51.2-64 121.6-76.8 204.8h64c32-140.8 89.6-224 140.8-224s108.8 83.2 140.8 224h64C704 236.8 678.4 166.4 640 115.2 748.8 153.6 832 224 883.2 320h70.4C876.8 153.6 710.4 32 512 32S147.2 153.6 70.4 320h70.4C192 224 275.2 153.6 384 115.2z" fill="#bff937" p-id="6770"></path></svg>