<?xml version="1.0" standalone="no"?><!DOCTYPE svg PUBLIC "-//W3C//DTD SVG 1.1//EN" "http://www.w3.org/Graphics/SVG/1.1/DTD/svg11.dtd"><svg t="1717468428884" class="icon" viewBox="0 0 1024 1024" version="1.1" xmlns="http://www.w3.org/2000/svg" p-id="10735" xmlns:xlink="http://www.w3.org/1999/xlink" width="200" height="200"><path d="M512 0a512 512 0 1 1 0 1024A512 512 0 0 1 512 0z" fill="#288F33" p-id="10736"></path><path d="M290.816 619.300571h-60.781714V510.244571c0-28.891429-11.995429-43.446857-35.986286-43.446857-23.990857 2.413714-36.790857 17.773714-38.473143 45.860572v106.642285h-59.465143V329.142857h59.465143v125.147429c16.603429-22.381714 37.668571-33.865143 63.268572-34.669715 47.981714 0 71.826286 26.916571 71.826285 80.530286v119.222857h0.146286z m116.516571 4.900572c-42.934857 0.731429-64-19.456-63.195428-60.781714V469.211429h-30.939429v-44.617143h30.939429V357.668571l59.465143-12.288v79.213715h47.177143v44.617143h-47.177143v79.286857c0 21.504 7.826286 31.744 23.552 30.939428 5.851429 0 11.483429-1.609143 17.334857-5.046857l12.288 38.473143a101.668571 101.668571 0 0 1-49.444572 11.337143z m152.429715 0c-43.008 0.731429-64.073143-19.456-63.268572-60.781714V469.211429h-30.939428v-44.617143h30.939428V357.668571l59.538286-12.288v79.213715h47.177143v44.617143h-47.177143v79.286857c0 21.504 7.753143 31.744 23.478857 30.939428 5.851429 0 11.483429-1.609143 17.334857-5.046857l12.361143 38.473143a101.668571 101.668571 0 0 1-49.444571 11.337143z m303.542857-3.730286v-61.952h64.585143v61.952h-64.512z m0-131.364571v-64.512h64.585143v64.512h-64.512zM759.296 419.766857c48.786286 2.413714 74.386286 35.108571 76.8 97.938286 0 70.948571-28.525714 106.496-85.357714 106.496-25.6-0.804571-45.129143-10.386286-58.221715-28.525714V694.857143h-59.684571V424.594286h59.538286v29.842285c14.921143-22.381714 37.083429-33.865143 66.925714-34.669714z m-5.632 47.030857c-28.086857 0-42.130286 16.969143-42.130286 50.907429v14.848c0.731429 30.72 14.043429 46.226286 39.716572 47.177143 28.013714 0 42.130286-20.260571 42.130285-60.708572-0.804571-34.084571-14.116571-51.419429-39.716571-52.224z" fill="#FFFFFF" p-id="10737"></path></svg>