<?xml version="1.0" standalone="no"?><!DOCTYPE svg PUBLIC "-//W3C//DTD SVG 1.1//EN" "http://www.w3.org/Graphics/SVG/1.1/DTD/svg11.dtd"><svg t="1711077152795" class="icon" viewBox="0 0 1024 1024" version="1.1" xmlns="http://www.w3.org/2000/svg" p-id="5715" xmlns:xlink="http://www.w3.org/1999/xlink" width="200" height="200"><path d="M976.8 528L619.2 143.2c-7.2-8-44-47.2-99.2-49.6-40-0.8-78.4 16.8-113.6 54.4-51.2 54.4-166.4 176-343.2 363.2-10.4 10.4-16 16.8-16 17.6-12 12.8-11.2 32.8 0.8 44.8 5.6 5.6 13.6 8.8 21.6 8.8h0.8c8.8 0 16-4 21.6-10.4 0.8-0.8 6.4-7.2 17.6-18.4 14.4-15.2 28-29.6 41.6-44v332.8c-1.6 11.2-3.2 39.2 16 62.4 10.4 12.8 29.6 26.4 64 26.4h557.6c35.2 0 54.4-14.4 64-26.4 18.4-22.4 17.6-50.4 16-62.4l1.6-332.8 58.4 63.2c6.4 6.4 14.4 10.4 23.2 10.4 8 0 16-3.2 21.6-8.8 14.4-13.6 15.2-32.8 3.2-46.4z m-167.2 328c0.8 2.4 0.8 10.4-2.4 13.6-1.6 1.6-6.4 4-16 4l-558.4-0.8c-8.8 0-14.4-1.6-16-3.2-2.4-3.2-3.2-9.6-2.4-13.6 0.8-2.4 0.8-4 0.8-5.6v-408c116.8-124 196-208 236-250.4 21.6-23.2 44-35.2 64.8-34.4 29.6 0.8 52 25.6 53.6 28l0.8 0.8L808 441.6v408c1.6 2.4 1.6 4 1.6 6.4z" p-id="5716" fill="#ffffff"></path><path d="M538.4 791.2c8.8-8.8 13.6-20 13.6-32.8 0-12.8-4.8-24-13.6-32.8-8.8-8.8-19.2-13.6-32-13.6s-23.2 4.8-32 13.6-13.6 20-13.6 32.8c0 12.8 4.8 24 13.6 32.8 8.8 8.8 19.2 13.6 32 13.6s23.2-4 32-13.6zM261.6 497.6c-4 4.8-6.4 10.4-6.4 17.6 0 7.2 2.4 12.8 6.4 17.6s8.8 7.2 15.2 7.2 11.2-2.4 15.2-7.2c29.6-34.4 64-60.8 103.2-78.4 38.4-17.6 77.6-27.2 116.8-27.2s78.4 8.8 117.6 27.2c39.2 17.6 73.6 44 103.2 78.4 4 4.8 8.8 7.2 14.4 7.2s10.4-2.4 15.2-7.2 6.4-10.4 6.4-17.6c0-7.2-2.4-12.8-6.4-17.6-34.4-39.2-73.6-68.8-117.6-89.6s-88-30.4-132.8-30.4-89.6 10.4-133.6 30.4S296 458.4 261.6 497.6z m409.6 76.8c-22.4-25.6-47.2-44.8-76-58.4S537.6 496 508.8 496c-28.8 0-57.6 6.4-86.4 20-28.8 13.6-54.4 32.8-76 58.4-4 4.8-6.4 10.4-6.4 17.6 0 7.2 2.4 12.8 6.4 17.6 4 4.8 8.8 7.2 15.2 7.2s11.2-2.4 15.2-7.2c17.6-20.8 38.4-36.8 62.4-47.2 23.2-10.4 47.2-16 70.4-16 23.2 0 47.2 5.6 70.4 16 23.2 10.4 44 26.4 62.4 47.2 4 4.8 8.8 7.2 15.2 7.2 5.6 0 11.2-2.4 15.2-7.2 4-4.8 6.4-10.4 6.4-17.6-1.6-7.2-4-12.8-8-17.6z m-75.2 75.2c-12-13.6-25.6-24.8-41.6-32-16-7.2-31.2-11.2-47.2-11.2s-32 4-47.2 11.2c-16 7.2-29.6 17.6-41.6 32-4 4.8-6.4 10.4-6.4 17.6 0 7.2 2.4 12.8 6.4 17.6 4 4.8 9.6 7.2 15.2 7.2s11.2-2.4 15.2-7.2c16-18.4 36-28 58.4-28 23.2 0 42.4 9.6 58.4 28 4 4.8 8.8 7.2 15.2 7.2s11.2-2.4 15.2-7.2c4-4.8 6.4-10.4 6.4-17.6 0-7.2-2.4-12.8-6.4-17.6z" p-id="5717" fill="#ffffff"></path></svg>