<?xml version="1.0" standalone="no"?><!DOCTYPE svg PUBLIC "-//W3C//DTD SVG 1.1//EN" "http://www.w3.org/Graphics/SVG/1.1/DTD/svg11.dtd"><svg t="1717468467914" class="icon" viewBox="0 0 1024 1024" version="1.1" xmlns="http://www.w3.org/2000/svg" p-id="14357" xmlns:xlink="http://www.w3.org/1999/xlink" width="200" height="200"><path d="M752.17408 380.03712c-53.84192 6.79168-83.66592 38.28992-80.85504 85.3888 2.52416 42.22976 22.07488 59.81696 89.18016 80.21248 46.336 14.08256 54.00064 20.38272 54.00064 44.38272 0 44.29056-58.37568 54.76352-124.28288 22.29504-4.00384-1.9712-7.51872-3.34848-7.808-3.05664-1.27232 1.26976-12.42368 39.90784-11.80672 40.90624 4.672 7.56224 49.38496 20.7616 77.48352 22.87616 79.04768 5.94688 127.49824-33.03168 119.9232-96.4736-4.8512-40.60928-22.58688-56.18688-88.50944-77.73696-49.6768-16.23808-53.96224-19.49184-53.80864-40.832 0.27136-37.91104 47.744-48.15616 109.16608-23.55968 10.60608 4.24704 9.83808 4.54656 13.92896-5.44 1.6896-4.12416 5.10464-12.34176 7.58528-18.26048l4.51328-10.75968-9.19296-4.39552c-26.42688-12.63872-69.37856-19.34848-99.51744-15.54688m-490.17344 146.46272v143.5008h51.00032V560.22016l27.24864 0.512c56.52992 1.05984 83.6352-6.08512 103.8592-27.3792 27.45856-28.91008 29.93152-87.37536 4.95616-117.11232-23.37792-27.83488-45.92896-33.21344-139.3152-33.23136l-47.74912-0.01024v143.5008m-95.0016 0.4992v143.0016h53.00224V384H166.99904v142.99904m320 0v143.0016H538.98496l0.25856-60.75136 0.256-60.7488 54.25152 0.40192 54.24896 0.40448v-42.30656h-108.99968v-81.00096h114.78016l0.6272-11.24864c0.3456-6.18752 0.89344-15.63904 1.21856-20.99968l0.5888-9.75104h-169.216v142.99904m-109.08672-102.54848c30.19776 7.54176 44.11648 32.90112 35.40992 64.51968-7.14496 25.9456-25.45152 34.29888-74.05568 33.79712l-25.7664-0.26624-0.26112-49.00096c-0.14336-26.94912-0.02048-49.62304 0.27136-50.38336 0.79104-2.06592 55.30368-0.93696 64.40192 1.33376" fill="#FBFBFB" p-id="14358"></path><path d="M508.0064 1.59232c-1.92 0.83456-4.39552 2.3424-5.49888 3.35616-1.10336 1.0112-20.23168 12.39552-42.50624 25.29536-61.21728 35.45344-246.90432 142.63552-369.50016 213.28384-10.9696 6.32064-16.70912 10.25024-18.25024 12.49536l-2.25024 3.27168v503.40864l2.25024 3.27168c1.65632 2.41152 9.87904 7.66976 31.24992 19.98848a547560.2432 547560.2432 0 0 1 269.99808 155.84c99.20256 57.34656 127.50848 73.80992 132.10368 76.83584 6.34112 4.17536 7.45472 4.17536 13.79328 0 4.5952-3.02592 32.90368-19.48928 132.10368-76.83584 37.46048-21.65504 227.85792-131.55072 270.00064-155.84 21.36832-12.31872 29.59104-17.57696 31.24992-19.98848l2.25024-3.27168V259.29472l-2.25024-3.28704c-1.6384-2.39104-8.64-6.95808-25.75104-16.78848-41.77152-24.00512-302.86592-174.72768-361.99936-208.97536-22.27456-12.89984-41.40544-24.28672-42.51392-25.30304C517.76768 0.61696 512.8704-0.51712 508.0064 1.59232M811.49952 381.9776c18.3552 3.65568 49.50016 15.12448 49.50016 18.2272 0 0.80896-14.92992 37.76768-15.62112 38.66368-0.1536 0.20224-4.24192-1.22368-9.08032-3.16672-63.01952-25.32864-109.93664-15.58272-109.75488 22.79936 0.09216 20.02688 5.44256 24.34048 46.45632 37.45024 62.656 20.02688 82.33216 33.12896 91.38688 60.85632 26.1248 79.99232-43.08992 134.26688-144.30464 113.15456-15.05536-3.14112-46.66624-15.21408-50.88768-19.43552-0.448-0.448 11.85536-40.8576 12.72576-41.79456 0.39168-0.41984 5.40928 1.44128 11.14624 4.13696 68.89984 32.37632 129.4464 17.37216 120.98304-29.98528-3.17952-17.78688-12.58752-24.256-52.84864-36.34432-27.776-8.33792-38.10048-11.95776-47.3728-16.60416-59.9552-30.04928-58.31936-113.56416 2.75968-140.97664 22.14912-9.93792 64.44032-13.05088 94.912-6.98112m-590.7456 144.77312l0.25344 143.24992H166.99904V382.96832l26.752 0.26624 26.74944 0.26624 0.25344 143.24992m163.44576-142.26688c58.47552 7.66976 87.71584 42.18112 81.98912 96.76544-4.93312 47.03232-30.24128 71.62368-81.18784 78.89408-10.04544 1.4336-63.04768 1.83296-68.25216 0.51456l-2.74944-0.69632v110.03904H260.99968v-287.0016h55.9488c43.69408 0 58.42432 0.32512 67.2512 1.4848m272.06144-0.73472c0.20992 0.41216-0.1024 9.97632-0.6912 21.25056l-1.07008 20.50048-57.24928 0.25856-57.24928 0.25856v80.98304h108.99968v41.99936h-108.99968v121.00096h-52.7232l-0.50688-142.75072c-0.27904-78.51264-0.31488-143.08864-0.07936-143.5008 0.23296-0.41216 38.39744-0.75008 84.80768-0.75008 46.41024 0 84.55424 0.33792 84.7616 0.75008m-342.26176 88.61952v49.3696l3.7504 0.61952c20.5824 3.40224 62.72-1.13408 75.58912-8.13824 26.73408-14.55104 29.568-63.04 4.70016-80.45312-12.56448-8.79616-23.10656-10.76736-57.62816-10.76736h-26.41152v49.3696" fill="#3F8989" p-id="14359"></path><path d="M539.44832 474.50112c0 18.14784 0.13312 25.7152 0.29952 16.81152a1090.6368 1090.6368 0 0 0 0-32.9984c-0.16384-9.24928-0.29952-1.96352-0.29952 16.18688m0.02048 134.99904c0 33.5488 0.128 47.1296 0.2816 30.17728s0.1536-44.40064 0-60.99968c-0.15616-16.59648-0.2816-2.72896-0.2816 30.8224m-195.71968-47.77728c1.78944 0.22272 4.71296 0.22272 6.49984 0 1.78944-0.22016 0.32512-0.40192-3.24864-0.40192-3.57632 0-5.03808 0.18176-3.2512 0.40192" fill="#83B1B2" p-id="14360"></path><path d="M193.24672 383.74144l26.74688 0.29184 0.25856 142.98368 0.25856 142.98368-0.00512-143.24992-0.00512-143.24992-27.00032-0.0256-27.00032-0.0256 26.74688 0.29184m293.20704 0.51456c-0.26624 0.69888-0.3584 14.08768-0.2048 29.75744l0.28416 28.48768 0.23296-29.25056 0.23296-29.25056h84.4288c79.54176 0 84.4544 0.1024 84.9408 1.75104 0.40192 1.35936 0.47104 1.30304 0.30976-0.25088-0.25856-2.51648-169.26208-3.7504-170.22464-1.24416m183.77728 79.744c0 1.92512 0.20736 2.7136 0.45824 1.75104a8.2432 8.2432 0 0 0 0-3.50208c-0.25088-0.96256-0.45824-0.17408-0.45824 1.75104m-334.46912 97.70752c1.24416 0.23808 3.04384 0.2304 3.99872-0.02048 0.95744-0.25088-0.06144-0.44544-2.26048-0.4352-2.19904 0.01024-2.9824 0.21504-1.73824 0.45568m28.48768-0.01792c0.96256 0.25088 2.53696 0.25088 3.49952 0s0.17664-0.45824-1.74848-0.45824-2.7136 0.20736-1.75104 0.45824" fill="#60A3A4" p-id="14361"></path><path d="M365.25056 383.71584c1.51296 0.2304 3.98592 0.2304 5.49888 0 1.51296-0.22784 0.27648-0.41728-2.74944-0.41728-3.02592 0-4.2624 0.18944-2.74944 0.41728m-103.76448 143.2832c0 78.9248 0.11776 111.21408 0.26368 71.75168 0.14592-39.4624 0.14592-104.0384 0-143.5008s-0.26368-7.17568-0.26368 71.74912m511.27552-105.2928c1.24416 0.24064 3.04384 0.2304 4.00128-0.01792 0.95488-0.25088-0.064-0.448-2.26304-0.4352-2.19904 0.01024-2.9824 0.21504-1.73824 0.45312m-459.3024 1.54368c-0.26368 0.68864-0.3584 23.30112-0.20992 50.25024l0.27136 49.00096 0.23808-49.73312 0.24064-49.73056 23.75168-0.28928 23.74912-0.28672-23.7824-0.2304c-18.27584-0.17664-23.89248 0.05888-24.25856 1.01888m225.88928 10.74944c0 4.67456 0.17408 6.58688 0.384 4.2496 0.20992-2.33728 0.20992-6.16192 0-8.4992-0.20992-2.33728-0.384-0.42496-0.384 4.2496m185.90464 24.50176c0.01024 2.19904 0.21504 2.9824 0.45312 1.73824 0.24064-1.24416 0.2304-3.04384-0.01792-4.00128-0.25088-0.95488-0.448 0.06144-0.4352 2.26304m-309.98016 12.49792c0 2.47552 0.19456 3.48928 0.43264 2.25024a14.26944 14.26944 0 0 0 0-4.50048c-0.23808-1.23648-0.43264-0.22272-0.43264 2.25024m233.152 57.00096c0 11.82464 0.14336 16.66304 0.32 10.74944 0.1792-5.91104 0.1792-15.58784 0-21.49888-0.17664-5.9136-0.32-1.0752-0.32 10.74944m42.5344-14.75072c2.44992 2.61376 4.58752 4.75136 4.7488 4.75136 0.75008 0-0.04352-0.89856-4.45696-5.0432l-4.75136-4.45696 4.45952 4.7488m-249.5232 23.0016l-2.93632 3.24864 3.2512-2.93632c3.02848-2.7392 3.70944-3.56352 2.93632-3.56352-0.17152 0-1.63584 1.46176-3.2512 3.2512m108.36736 12.49536c5.66528 0.1792 14.66624 0.1792 19.99872-0.00256 5.33504-0.1792 0.69888-0.32512-10.30144-0.32256-11.00032 0-15.36512 0.14592-9.69728 0.32512m-236.33664 66.2528c0 30.52544 0.128 43.01312 0.2816 27.7504 0.15616-15.26272 0.15616-40.23808 0-55.49824-0.1536-15.26272-0.2816-2.77504-0.2816 27.74784m441.28256 15.7056a14.1184 14.1184 0 0 0 4.50048 0c1.23648-0.23808 0.22528-0.43264-2.25024-0.43264s-3.48672 0.19456-2.25024 0.43264m12.50048-0.01536c0.96256 0.25088 2.53696 0.25088 3.49952 0s0.17664-0.45824-1.74848-0.45824-2.7136 0.20736-1.75104 0.45824m-17.48736 43.01824c1.24416 0.23808 3.04384 0.2304 3.99872-0.02048 0.95744-0.25088-0.06144-0.44544-2.26048-0.4352-2.2016 0.01024-2.9824 0.21504-1.73824 0.45568m20.99968 0c1.24416 0.23808 3.04384 0.2304 3.99872-0.02048 0.95744-0.25088-0.06144-0.44544-2.26048-0.4352-2.2016 0.01024-2.9824 0.21504-1.73824 0.45568" fill="#98C2C4" p-id="14362"></path></svg>