<?xml version="1.0" standalone="no"?><!DOCTYPE svg PUBLIC "-//W3C//DTD SVG 1.1//EN" "http://www.w3.org/Graphics/SVG/1.1/DTD/svg11.dtd"><svg t="1713337572264" class="icon" viewBox="0 0 1024 1024" version="1.1" xmlns="http://www.w3.org/2000/svg" p-id="79862" xmlns:xlink="http://www.w3.org/1999/xlink" width="200" height="200"><path d="M887.466667 210.488889L580.266667 34.133333 512 0 449.422222 34.133333 125.155556 216.177778l-51.2 28.444444v529.066667l62.577777 34.133333 352.711111 199.111111 22.755556 17.066667 62.577778-34.133333 312.888889-176.355556 62.577777-34.133333V244.622222l-62.577777-34.133333z m-5.688889 449.422222" fill="#ffffff" opacity=".3" p-id="79863"></path><path d="M887.466667 210.488889L580.266667 34.133333 512 0 449.422222 34.133333 125.155556 216.177778l-51.2 28.444444v529.066667l62.577777 34.133333 352.711111 199.111111 22.755556 17.066667 62.577778-34.133333 312.888889-176.355556 62.577777-34.133333V244.622222l-62.577777-34.133333zM483.555556 932.977778l-278.755556-159.288889c5.688889-11.377778 11.377778-22.755556 11.377778-39.822222 0-39.822222-34.133333-73.955556-73.955556-73.955556v-341.333333l278.755556 159.288889c-11.377778 45.511111 17.066667 91.022222 62.577778 102.4v352.711111z m-34.133334-512L170.666667 261.688889l278.755555-159.288889c11.377778 28.444444 34.133333 39.822222 62.577778 39.822222 28.444444 0 51.2-17.066667 62.577778-39.822222L853.333333 267.377778l-278.755555 159.288889c-34.133333-39.822222-91.022222-39.822222-125.155556-5.688889z m432.355556 238.933333c-39.822222 0-73.955556 34.133333-73.955556 73.955556 0 11.377778 5.688889 28.444444 11.377778 39.822222l-273.066667 159.288889v-352.711111c45.511111-11.377778 73.955556-62.577778 62.577778-108.088889l273.066667-159.288889v347.022222z m0 0" fill="#ffffff" p-id="79864"></path></svg>