<?xml version="1.0" standalone="no"?><!DOCTYPE svg PUBLIC "-//W3C//DTD SVG 1.1//EN" "http://www.w3.org/Graphics/SVG/1.1/DTD/svg11.dtd"><svg t="1717468511838" class="icon" viewBox="0 0 1024 1024" version="1.1" xmlns="http://www.w3.org/2000/svg" p-id="18504" xmlns:xlink="http://www.w3.org/1999/xlink" width="200" height="200"><path d="M507.787 0C231.351 0 7.314 229.127 7.314 511.854c0 282.711 224.037 511.853 500.473 511.853 276.436 0 500.473-229.142 500.473-511.853C1008.26 229.127 784.238 0 507.787 0z" fill="#5E7FFF" p-id="18505"></path><path d="M668.672 500.838a20.114 20.114 0 0 1-28.965-27.75l34.992-36.615a79.053 79.053 0 0 0-7.636-107.608c-30.384-31.583-75.235-34.392-100.572-7.841L468.73 423.6a79.053 79.053 0 0 0 7.65 107.607 20.114 20.114 0 1 1-28.57 28.38 119.077 119.077 0 0 1-7.635-163.153l97.748-101.975c42.042-43.857 113.444-40.23 158.91 8.045a119.077 119.077 0 0 1 7.022 161.31l-35.182 37.01z" fill="#FFFFFF" p-id="18506"></path><path d="M333.97 507.275a20.114 20.114 0 0 1 28.965 27.765l-35.006 36.6a79.053 79.053 0 0 0 7.65 107.608c30.37 31.598 75.22 34.407 100.572 7.856l97.748-102.59a79.053 79.053 0 0 0-7.636-107.608 20.114 20.114 0 1 1 28.555-28.365 119.077 119.077 0 0 1 7.65 163.123l-97.762 101.99c-42.043 43.843-113.445 40.23-158.896-8.045a119.077 119.077 0 0 1-7.05-161.324l35.21-37.01z" fill="#FFFFFF" p-id="18507"></path></svg>