<?xml version="1.0" standalone="no"?><!DOCTYPE svg PUBLIC "-//W3C//DTD SVG 1.1//EN" "http://www.w3.org/Graphics/SVG/1.1/DTD/svg11.dtd"><svg t="1718780129481" class="icon" viewBox="0 0 1024 1024" version="1.1" xmlns="http://www.w3.org/2000/svg" p-id="13994" xmlns:xlink="http://www.w3.org/1999/xlink" width="200" height="200"><path d="M416.1536 504.6272a100.352 100.352 0 1 1 100.352-100.352 100.352 100.352 0 0 1-100.352 100.352z m0-159.744a59.392 59.392 0 1 0 59.392 59.392 59.392 59.392 0 0 0-59.392-59.392zM296.1408 849.3056l-34.816-21.504 131.072-213.1968 146.432 75.5712 175.104-251.0848 191.6928 163.6352-26.624 31.1296-157.2864-134.3488-169.7792 243.5072-144.5888-74.5472-111.2064 180.8384z" p-id="13995" fill="#ffffff"></path><path d="M138.6496 593.1008m-25.6 0a25.6 25.6 0 1 0 51.2 0 25.6 25.6 0 1 0-51.2 0Z" p-id="13996" fill="#ffffff"></path><path d="M513.6384 915.2512A406.528 406.528 0 0 1 153.3952 696.32l36.4544-18.8416a364.9536 364.9536 0 0 0 413.0816 184.32 362.2912 362.2912 0 1 0-182.0672-700.416A363.52 363.52 0 0 0 149.504 504.2176h-40.96A404.6848 404.6848 0 0 1 409.6 121.856 403.2512 403.2512 0 0 1 860.16 716.8a401.408 401.408 0 0 1-346.112 198.656z" p-id="13997" fill="#ffffff"></path><path d="M144.554825 682.291347m17.816077-10.100386l0.178161-0.101004q17.816077-10.100386 27.916463 7.715692l1.010039 1.781608q10.100386 17.816077-7.715692 27.916463l-0.17816 0.101003q-17.816077 10.100386-27.916463-7.715691l-1.010039-1.781608q-10.100386-17.816077 7.715691-27.916463Z" p-id="13998" fill="#ffffff"></path><path d="M123.667813 521.976141a20.48 20.2752 15.45 1 0 10.802519-39.085042 20.48 20.2752 15.45 1 0-10.802519 39.085042Z" p-id="13999" fill="#ffffff"></path></svg>