<?xml version="1.0" standalone="no"?><!DOCTYPE svg PUBLIC "-//W3C//DTD SVG 1.1//EN" "http://www.w3.org/Graphics/SVG/1.1/DTD/svg11.dtd"><svg t="1718786211783" class="icon" viewBox="0 0 1024 1024" version="1.1" xmlns="http://www.w3.org/2000/svg" p-id="15979" xmlns:xlink="http://www.w3.org/1999/xlink" width="200" height="200"><path d="M347.3 897.3H142.2c-30.8 0-51.4-31.7-38.9-59.9l136.1-306.1c4.9-11 4.9-23.6 0-34.6L103.3 190.6c-12.5-28.2 8.1-59.9 38.9-59.9h205.1c16.8 0 32.1 9.9 38.9 25.3l151.4 340.7c4.9 11 4.9 23.6 0 34.6L386.3 872.1c-6.9 15.3-22.1 25.2-39 25.2z" fill="#009F72" p-id="15980"></path><path d="M730.4 897.3H525.3c-30.8 0-51.4-31.7-38.9-59.9l136.1-306.1c4.9-11 4.9-23.6 0-34.6L486.4 190.6c-12.5-28.2 8.1-59.9 38.9-59.9h205.1c16.8 0 32.1 9.9 38.9 25.3l151.4 340.7c4.9 11 4.9 23.6 0 34.6L769.3 872.1c-6.8 15.3-22.1 25.2-38.9 25.2z" fill="#F9DB88" p-id="15981"></path></svg>