<?xml version="1.0" standalone="no"?><!DOCTYPE svg PUBLIC "-//W3C//DTD SVG 1.1//EN" "http://www.w3.org/Graphics/SVG/1.1/DTD/svg11.dtd"><svg t="1718629552230" class="icon" viewBox="0 0 1024 1024" version="1.1" xmlns="http://www.w3.org/2000/svg" p-id="6500" xmlns:xlink="http://www.w3.org/1999/xlink" width="200" height="200"><path d="M477.866667 89.6c21.333333-12.8 42.666667-12.8 64 0l315.733333 183.466667c21.333333 12.8 34.133333 34.133333 34.133333 55.466666v170.666667H810.666667V375.466667c0-21.333333-12.8-42.666667-34.133334-55.466667l-234.666666-136.533333c-21.333333-12.8-42.666667-12.8-64 0L243.2 320c-17.066667 12.8-29.866667 34.133333-29.866667 55.466667v123.733333H132.266667v-170.666667c0-21.333333 12.8-42.666667 34.133333-55.466666l311.466667-183.466667zM810.666667 520.533333v123.733334c0 21.333333-12.8 42.666667-34.133334 55.466666l-234.666666 136.533334c-21.333333 12.8-42.666667 12.8-64 0l-234.666667-136.533334c-17.066667-8.533333-29.866667-29.866667-29.866667-51.2v-123.733333H132.266667v170.666667c0 21.333333 12.8 42.666667 34.133333 55.466666l315.733333 183.466667c21.333333 12.8 42.666667 12.8 64 0l315.733334-183.466667c21.333333-12.8 34.133333-34.133333 34.133333-55.466666v-170.666667h-85.333333zM273.066667 418.133333c0-38.4 46.933333-46.933333 64-17.066666l85.333333 102.4v-85.333334c4.266667-21.333333 17.066667-34.133333 38.4-34.133333h281.6c42.666667 0 42.666667 68.266667 0 68.266667h-42.666667v153.6c0 46.933333-68.266667 46.933333-68.266666 0v-153.6h-136.533334v42.666666h64c42.666667 0 38.4 59.733333 0 59.733334h-64v51.2c0 34.133333-38.4 46.933333-68.266666 17.066666l-85.333334-98.133333v81.066667c0 51.2-68.266667 51.2-68.266666 4.266666V418.133333z" p-id="6501" fill="#ffffff"></path></svg>