<?xml version="1.0" standalone="no"?><!DOCTYPE svg PUBLIC "-//W3C//DTD SVG 1.1//EN" "http://www.w3.org/Graphics/SVG/1.1/DTD/svg11.dtd"><svg t="1716256941262" class="icon" viewBox="0 0 1024 1024" version="1.1" xmlns="http://www.w3.org/2000/svg" p-id="5806" xmlns:xlink="http://www.w3.org/1999/xlink" width="200" height="200"><path d="M622.31893333 603.7504c-10.37653333-10.92266667-27.8528-10.92266667-38.77546666 0l-78.6432 78.09706667-78.6432-78.09706667c-10.92266667-10.37653333-27.8528-10.37653333-38.77546667 0-10.37653333 10.92266667-10.37653333 27.8528 0 38.77546667l97.75786667 97.21173333c5.46133333 5.46133333 12.56106667 8.192 19.11466666 8.192 7.09973333 0 13.65333333-2.73066667 19.11466667-8.192l97.75786667-97.21173333c12.01493333-10.92266667 12.01493333-28.39893333 1.09226666-38.77546667z" p-id="5807" fill="#72d1e0"></path><path d="M503.808 637.61066667c15.29173333 0 27.30666667-12.01493333 27.30666667-27.30666667v-81.37386667c0-15.29173333-12.01493333-27.30666667-27.30666667-27.30666666s-27.30666667 12.01493333-27.30666667 27.30666666V610.304c0 15.29173333 12.01493333 27.30666667 27.30666667 27.30666667zM374.92053333 350.89066667c-3.2768 1.6384-6.00746667 2.73066667-9.28426666 4.36906666-43.69066667 22.39146667-83.01226667 54.61333333-113.0496 93.93493334-12.56106667 16.384-9.28426667 39.86773333 7.09973333 52.4288 6.5536 4.9152 14.7456 7.64586667 22.39146667 7.64586666 10.92266667 0 22.39146667-4.9152 29.4912-14.7456C343.2448 453.56373333 383.65866667 424.07253333 430.08 408.23466667L374.92053333 350.89066667zM773.59786667 448.64853333c-30.03733333-39.3216-68.8128-71.54346667-112.50346667-93.93493333-28.94506667-14.7456-60.07466667-24.576-91.7504-30.03733333l160.01706667 166.57066666c4.9152 5.46133333 9.28426667 10.92266667 12.56106666 16.93013334 8.73813333 0.54613333 17.47626667-2.18453333 24.576-7.64586667 16.384-12.01493333 19.6608-35.49866667 7.09973334-51.88266667z" p-id="5808" fill="#72d1e0"></path><path d="M262.9632 234.01813333c-54.0672 32.768-102.12693333 75.91253333-139.264 126.70293334-12.56106667 16.384-8.73813333 39.86773333 7.64586667 52.4288 6.5536 4.9152 14.19946667 7.09973333 21.84533333 7.09973333 11.4688 0 22.9376-5.46133333 30.03733333-15.29173333 35.49866667-48.05973333 81.37386667-87.38133333 132.7104-115.78026667l-52.97493333-55.15946667zM897.57013333 360.17493333c-43.69066667-58.9824-101.5808-108.1344-166.57066666-141.44853333-67.72053333-34.4064-143.63306667-52.97493333-220.09173334-52.97493333-28.94506667 0-58.43626667 2.73066667-86.8352 8.192l64.44373334 67.1744c7.64586667-0.54613333 14.7456-0.54613333 22.39146666-0.54613334 129.97973333 0 249.0368 60.07466667 326.58773334 164.38613334 12.56106667 16.384 35.49866667 20.20693333 52.4288 7.64586666s19.6608-36.0448 7.64586666-52.4288z" p-id="5809" fill="#72d1e0"></path><path d="M672.01706667 579.1744c-8.73813333 0-17.47626667-3.2768-23.48373334-10.37653333L285.35466667 190.32746667c-12.56106667-13.1072-12.01493333-33.86026667 1.09226666-46.42133334s33.86026667-12.01493333 46.42133334 1.09226667l363.17866666 378.4704c12.56106667 13.1072 12.01493333 33.86026667-1.09226666 46.42133333-6.5536 6.00746667-14.7456 9.28426667-22.9376 9.28426667z" p-id="5810" fill="#72d1e0"></path></svg>