<?xml version="1.0" standalone="no"?><!DOCTYPE svg PUBLIC "-//W3C//DTD SVG 1.1//EN" "http://www.w3.org/Graphics/SVG/1.1/DTD/svg11.dtd"><svg t="1713408565273" class="icon" viewBox="0 0 1024 1024" version="1.1" xmlns="http://www.w3.org/2000/svg" p-id="2567" xmlns:xlink="http://www.w3.org/1999/xlink" width="200" height="200"><path d="M271.675676 996.498538c0 3.636212-7.02165 6.603694-15.673325 6.603695s-15.673325-2.967483-15.673325-6.603695V696.239418c0-3.636212 7.02165-6.603694 15.673325-6.603694s15.673325 2.967483 15.673325 6.603694v300.25912zM355.266746 995.599934c0 4.137758-7.02165 7.502298-15.673326 7.502299s-15.673325-3.343643-15.673325-7.502299V655.363385c0-4.137758 7.02165-7.502298 15.673325-7.502298s15.673325 3.343643 15.673326 7.502298V995.579037z" p-id="2568" fill="#dbdbdb"></path><path d="M985.271735 900.619582a78.366627 78.366627 0 0 1-69.2552 114.833231l-827.091833 1.044889A78.366627 78.366627 0 0 1 19.439626 901.706266C122.6328 705.058276 284.360621 606.044655 502.533311 606.044655c218.130895 0 379.733329 98.637461 482.738424 294.574927z m-27.731337 14.586642C859.926927 729.529561 708.961456 637.391306 502.533311 637.391306c-206.449043 0-357.519002 92.493518-455.341451 278.880704a47.019976 47.019976 0 0 0 41.711944 68.879041l827.070935-1.044889a47.019976 47.019976 0 0 0 41.565659-68.899938z" p-id="2569" fill="#dbdbdb"></path><path d="M496.326675 585.146887c122.33553 0 221.808902-97.759755 224.588304-219.426556H271.73837C274.517773 487.387132 373.991145 585.146887 496.326675 585.146887z m255.119942-250.773207l0.626933 15.004597c0.167182 3.698905 0.250773 7.39781 0.250774 11.117612 0 141.373396-114.624253 255.997649-255.997649 255.997649S240.329026 501.869285 240.329026 360.495889c0-3.719803 0.083591-7.418707 0.229875-11.117612l0.647831-15.004597h510.239885zM601.212568 156.742658a67.917744 67.917744 0 0 1-67.917743-67.917743V33.842889a268.954265 268.954265 0 0 0-73.142186 0V88.824915a67.917744 67.917744 0 0 1-135.626509 5.621499A265.944986 265.944986 0 0 0 231.551963 271.680378h530.385333a265.944986 265.944986 0 0 0-93.015962-177.233964 67.917744 67.917744 0 0 1-67.708766 62.296244z m60.958788-106.578613a297.500615 297.500615 0 0 1 132.136582 236.625419l0.585137 16.237565H198.533491l0.585138-16.237565A297.500615 297.500615 0 0 1 331.276109 50.164045a15.673325 15.673325 0 0 1 24.387694 13.019309V88.824915a36.571093 36.571093 0 0 0 73.142186 0V20.510114a15.673325 15.673325 0 0 1 12.789433-15.401655 299.339618 299.339618 0 0 1 110.25662 0 15.673325 15.673325 0 0 1 12.789434 15.401655V88.824915a36.571093 36.571093 0 0 0 73.142185 0V63.183354a15.673325 15.673325 0 0 1 24.387695-13.019309z" p-id="2570" fill="#dbdbdb"></path><path d="M151.513515 303.027029a15.673325 15.673325 0 1 1 0-31.346651h711.757055a15.673325 15.673325 0 1 1 0 31.346651H151.513515zM773.222091 996.498538c0 3.636212-7.02165 6.603694-15.673326 6.603695s-15.673325-2.967483-15.673325-6.603695V696.239418c0-3.636212 7.02165-6.603694 15.673325-6.603694s15.673325 2.967483 15.673326 6.603694v300.25912zM689.631022 995.599934c0 4.137758-7.02165 7.502298-15.673326 7.502299s-15.673325-3.343643-15.673325-7.502299V655.363385c0-4.137758 7.02165-7.502298 15.673325-7.502298s15.673325 3.343643 15.673326 7.502298V995.579037zM444.082256 532.902469a15.673325 15.673325 0 1 1 0-31.346651h106.557716a15.673325 15.673325 0 1 1 0 31.346651H444.082256z" p-id="2571" fill="#dbdbdb"></path></svg>