<?xml version="1.0" standalone="no"?><!DOCTYPE svg PUBLIC "-//W3C//DTD SVG 1.1//EN" "http://www.w3.org/Graphics/SVG/1.1/DTD/svg11.dtd"><svg t="1711077475742" class="icon" viewBox="0 0 1024 1024" version="1.1" xmlns="http://www.w3.org/2000/svg" p-id="10923" xmlns:xlink="http://www.w3.org/1999/xlink" width="200" height="200"><path d="M278.17984 832.98816c-1.63328 0-3.26656-0.63488-4.39296-1.87904L221.02528 778.3424a6.21568 6.21568 0 0 1 0-8.91904 6.21568 6.21568 0 0 1 8.91904 0l52.7616 52.75648c2.5088 2.51904 2.5088 6.41024 0 8.92928-1.38752 1.24416-3.0208 1.87904-4.52608 1.87904z" fill="#ffffff" p-id="10924"></path><path d="M278.17984 839.2704a12.87168 12.87168 0 0 1-8.91904-3.64032 12.51328 12.51328 0 0 1 0-17.7152l364.6976-364.82048a12.4928 12.4928 0 0 1 17.71008 0 12.50816 12.50816 0 0 1 0 17.71008L286.976 835.63008a12.5952 12.5952 0 0 1-8.79616 3.64032z" fill="#ffffff" p-id="10925"></path><path d="M642.87744 474.57792a12.85632 12.85632 0 0 1-8.91904-3.64544 12.50304 12.50304 0 0 1 0-17.7152l67.33312-67.33312 0.50176-35.55328-35.4304 0.37376-65.07008 65.2032c-4.89984 4.89984-12.81536 4.89984-17.7152 0s-4.89984-12.81024 0-17.71008l68.71552-68.71552a12.46208 12.46208 0 0 1 8.80128-3.64032l53.39136-0.62976h0.128c3.38944 0 6.528 1.3824 8.91904 3.64032 2.38592 2.38592 3.7632 5.65248 3.64032 9.04704l-0.62976 53.39136c0 3.26656-1.3824 6.40512-3.64544 8.79616L651.66848 470.9376a12.60544 12.60544 0 0 1-8.79104 3.64032z" fill="#ffffff" p-id="10926"></path><path d="M225.41824 786.5088a12.8512 12.8512 0 0 1-8.91904-3.64544 12.51328 12.51328 0 0 1 0-17.7152l366.95552-367.08352a12.51328 12.51328 0 0 1 17.7152 0 12.52352 12.52352 0 0 1 0 17.7152l-366.95552 367.0784a12.57984 12.57984 0 0 1-8.79616 3.65056z" fill="#ffffff" p-id="10927"></path><path d="M231.3216 946.304a12.87168 12.87168 0 0 1-8.91904-3.64032l-113.06496-113.06496a12.5696 12.5696 0 0 1-1.3824-16.08192c38.69184-55.28064 114.69824-52.26496 117.9648-52.13696 6.90688 0.37376 12.30848 6.28224 11.9296 13.18912-0.37376 6.90688-6.15424 12.30848-13.06112 11.93472-0.62976 0-57.1648-2.01728-89.69728 33.29024l97.11104 97.11104c35.54816-32.5376 33.29024-89.06752 33.29024-89.5744-0.37888-6.90688 5.02272-12.81024 11.93472-13.184 6.912-0.37888 12.81536 5.02272 13.19424 11.9296 0.12288 3.27168 3.13856 79.27296-52.13696 117.95968a12.35968 12.35968 0 0 1-7.16288 2.26816z" fill="#ffffff" p-id="10928"></path><path d="M225.41824 885.12512c-1.62816 0-3.26656-0.62464-4.39296-1.88416l-52.63872-52.6336a6.29248 6.29248 0 0 1-0.75264-8.0384c18.21696-26.0096 53.77024-24.4992 55.27552-24.4992 1.50528 0.12288 3.01568 0.75264 4.14208 1.88416l24.6272 24.62208a6.656 6.656 0 0 1 1.88416 4.15232c0.12288 1.5104 1.50528 37.18144-24.4992 55.27552a6.64064 6.64064 0 0 1-3.64544 1.12128zM181.1968 825.7024l44.72832 44.7232c13.18912-12.4416 14.94528-32.15872 15.07328-38.81984l-20.85376-20.85376c-6.78912 0-26.51136 1.75616-38.94784 14.9504z m552.00768-260.80256a12.83584 12.83584 0 0 1-8.91904-3.64544l-90.57792-90.5728c-4.89984-4.89984-4.89984-12.81536 0-17.7152s12.81536-4.89984 17.71008 0l81.65888 81.65376 174.99648-174.99648c38.19008-83.16928 3.89632-187.43296-4.77184-210.92352-23.61856-8.67328-127.75936-43.09504-210.92352-4.77696l-174.8736 174.8736 81.40288 81.40288a12.51328 12.51328 0 0 1 0 17.7152 12.4928 12.4928 0 0 1-17.71008 0L490.86976 327.71584a12.51328 12.51328 0 0 1 0-17.7152l185.42592-185.42592c0.9984-1.00352 2.13504-1.88416 3.52256-2.5088 43.45856-20.60288 98.4832-26.25536 159.16544-16.20992 45.35296 7.53664 77.76256 20.98176 79.14496 21.4784 3.01568 1.25952 5.5296 3.64544 6.784 6.784 0.62464 1.3824 13.94688 33.79712 21.4784 79.14496 10.05568 60.68224 4.39808 115.70688-16.19968 159.17056a13.952 13.952 0 0 1-2.51904 3.51744l-185.54368 185.29792a12.31872 12.31872 0 0 1-8.92416 3.65056z" fill="#ffffff" p-id="10929"></path><path d="M642.75456 468.16768c-1.63328 0-3.27168-0.62976-4.39808-1.88416l-52.7616-52.76672a6.21568 6.21568 0 0 1 0-8.91904 6.21056 6.21056 0 0 1 8.91392 0l52.76672 52.76672c2.5088 2.5088 2.5088 6.40512 0 8.91904-1.38752 1.2544-3.01568 1.88416-4.52096 1.88416z m174.86848-227.38432c-1.63328 0-3.27168-0.62976-4.39808-1.88928a6.2208 6.2208 0 0 1 0-8.91392L908.6976 134.5024a6.21568 6.21568 0 0 1 8.91904 0c2.51392 2.5088 2.51392 6.40512 0 8.91392L822.144 238.8992c-1.3824 1.2544-2.88768 1.88416-4.52096 1.88416zM659.456 411.63264a19.93216 19.93216 0 0 1-13.94176-5.90336c-3.51744-3.51744-5.65248-8.1664-5.90336-12.93824-0.25088-5.02272 1.5104-9.79968 4.89984-13.19424 6.90688-6.90688 18.59072-6.528 26.13248 1.00352 7.41376 7.40864 7.9104 19.22048 1.00352 26.13248a17.50016 17.50016 0 0 1-12.19072 4.89984z m-2.75968-24.36608a4.44928 4.44928 0 0 0-3.26656 1.2544c-1.2544 1.25952-1.2544 2.7648-1.2544 3.64544 0.11776 1.75616 0.88064 3.38944 2.25792 4.77696 2.5088 2.51392 6.40512 3.01056 8.28928 1.00352 2.01216-2.01216 1.50528-5.78048-1.00352-8.2944a6.59456 6.59456 0 0 0-5.02272-2.38592z m143.59552 519.59296a12.85632 12.85632 0 0 1-8.91904-3.64544L270.01344 381.86496a12.51328 12.51328 0 0 1 0-17.7152 12.50816 12.50816 0 0 1 17.71008 0l521.35424 521.34912a12.5184 12.5184 0 0 1 0 17.72032 12.36992 12.36992 0 0 1-8.78592 3.64032z" fill="#ffffff" p-id="10930"></path><path d="M800.29184 900.57728a5.888 5.888 0 0 1-4.39808-1.88416 6.22592 6.22592 0 0 1 0-8.91904l52.76672-52.75648a6.21568 6.21568 0 0 1 8.91904 0c2.5088 2.5088 2.5088 6.40512 0 8.91392l-52.76672 52.7616a6.39488 6.39488 0 0 1-4.52096 1.88416z" fill="#ffffff" p-id="10931"></path><path d="M853.04832 854.0928a12.86656 12.86656 0 0 1-8.91904-3.64544l-67.584-67.584a12.51328 12.51328 0 0 1 0-17.7152 12.51328 12.51328 0 0 1 17.71008 0l67.584 67.58912a12.4928 12.4928 0 0 1 0 17.71008c-2.38592 2.51904-5.64224 3.64544-8.79104 3.64544z m-113.5616-113.5616a12.84608 12.84608 0 0 1-8.91904-3.64544L322.78016 329.09824c-4.89984-4.89984-4.89984-12.81024 0-17.71008s12.81536-4.89984 17.7152 0l407.7824 407.66464a12.4928 12.4928 0 0 1 0 17.71008 12.1856 12.1856 0 0 1-8.79104 3.76832z" fill="#ffffff" p-id="10932"></path><path d="M278.93248 379.22304c-1.63328 0-3.26656-0.62976-4.39808-1.88416a6.21568 6.21568 0 0 1 0-8.91904l52.76672-52.76672a6.22592 6.22592 0 0 1 8.91904 0c2.5088 2.51392 2.5088 6.40512 0 8.91904L283.45856 377.33888c-1.25952 1.3824-2.8928 1.88416-4.52608 1.88416z m560.80384 567.08096a13.00992 13.00992 0 0 1-8.91904-3.64032l-39.44448-39.4496a12.50304 12.50304 0 0 1 0-17.7152 12.51328 12.51328 0 0 1 17.71008 0l30.53056 30.52544 34.92352-34.9184-30.53568-30.52544a12.52864 12.52864 0 1 1 17.72032-17.72032l39.44448 39.4496a12.51328 12.51328 0 0 1 0 17.7152l-52.76672 52.7616a12.57984 12.57984 0 0 1-8.66304 3.51744z" fill="#ffffff" p-id="10933"></path><path d="M331.6992 332.87168a12.61568 12.61568 0 0 1-9.17504-4.0192c-1.13152-1.13152-27.008-29.27104-13.568-58.4192 11.81184-25.7536 45.73184-62.4384 88.192-95.72864 50.74944-39.57248 107.65824-69.47328 160.42496-84.29568a12.52352 12.52352 0 0 1 6.784 24.12032c-49.61792 13.94688-103.51616 42.33728-151.7568 79.8976-44.34944 34.67264-72.61184 68.34176-80.90624 86.43072-6.15424 13.44 8.91904 30.52544 9.04192 30.65344 4.77696 5.02784 4.52608 13.06624-0.62976 17.7152-2.2528 2.5088-5.26848 3.64544-8.40704 3.64544z" fill="#ffffff" p-id="10934"></path><path d="M61.34784 614.90176c-0.88064 0-1.88416-0.12288-2.7648-0.37376-6.784-1.50528-10.92608-8.2944-9.4208-15.06816 1.00352-4.65408 27.008-115.328 102.51264-234.17344 44.47232-69.98016 97.11104-128.14848 156.16-172.6208C381.952 136.88832 466.62144 102.34368 559.4624 90.15808a12.4928 12.4928 0 0 1 14.06976 10.8032 12.49792 12.49792 0 0 1-10.79808 14.06976c-160.92672 21.10976-292.08576 109.9264-389.82144 263.69024-73.24672 115.2-98.9952 225.24928-99.2512 226.3808a12.70272 12.70272 0 0 1-12.3136 9.79968z" fill="#ffffff" p-id="10935"></path><path d="M61.34784 614.90176c-1.1264 0-2.25792-0.12288-3.38944-0.50688a12.5184 12.5184 0 0 1-8.66816-15.44704c14.82752-52.76672 44.7232-109.67552 84.29568-160.42496 33.29024-42.58816 69.85216-76.38016 95.72864-88.192 29.02016-13.44 57.15968 12.43648 58.41408 13.568a12.64128 12.64128 0 0 1 0.62976 17.7152 12.64128 12.64128 0 0 1-17.71008 0.62976c-0.37376-0.25088-17.33632-15.32416-30.77632-9.16992-18.09408 8.28928-51.75808 36.5568-86.43072 80.90112-37.56032 48.11264-65.95584 102.00576-79.8976 151.7568a12.75392 12.75392 0 0 1-12.19584 9.16992z" fill="#ffffff" p-id="10936"></path></svg>