<svg xmlns="http://www.w3.org/2000/svg" xmlns:xlink="http://www.w3.org/1999/xlink" fill="none" version="1.1" width="349.95751953125" height="206.941162109375" viewBox="0 0 349.95751953125 206.941162109375"><defs><filter id="master_svg0_118_00485" filterUnits="objectBoundingBox" color-interpolation-filters="sRGB" x="-51" y="-51" width="269.46575927734375" height="306.6516571044922"><feFlood flood-opacity="0" result="BackgroundImageFix"/><feColorMatrix in="SourceAlpha" type="matrix" values="0 0 0 0 0 0 0 0 0 0 0 0 0 0 0 0 0 0 127 0"/><feOffset dy="9" dx="9"/><feGaussianBlur stdDeviation="15"/><feColorMatrix type="matrix" values="0 0 0 0 0.4588235318660736 0 0 0 0 0.4588235318660736 0 0 0 0 0.4588235318660736 0 0 0 0.10000000149011612 0"/><feBlend mode="normal" in2="BackgroundImageFix" result="effect1_dropShadow"/><feBlend mode="normal" in="SourceGraphic" in2="effect1_dropShadow" result="shape"/></filter><filter id="master_svg1_118_00511" filterUnits="objectBoundingBox" color-interpolation-filters="sRGB" x="-70" y="-60" width="217.3917465209961" height="219.56854248046875"><feFlood flood-opacity="0" result="BackgroundImageFix"/><feColorMatrix in="SourceAlpha" type="matrix" values="0 0 0 0 0 0 0 0 0 0 0 0 0 0 0 0 0 0 127 0"/><feOffset dy="10" dx="0"/><feGaussianBlur stdDeviation="17.5"/><feColorMatrix type="matrix" values="0 0 0 0 0.9843137264251709 0 0 0 0 0.43921568989753723 0 0 0 0 0.5647059082984924 0 0 0 0.25 0"/><feBlend mode="normal" in2="BackgroundImageFix" result="effect1_dropShadow"/><feBlend mode="normal" in="SourceGraphic" in2="effect1_dropShadow" result="shape"/></filter><linearGradient x1="0" y1="1" x2="1" y2="-3.469446951953614e-17" id="master_svg2_91_05730"><stop offset="0%" stop-color="#FFB017" stop-opacity="1"/><stop offset="100%" stop-color="#8F3CFF" stop-opacity="1"/></linearGradient><filter id="master_svg3_118_00454" filterUnits="objectBoundingBox" color-interpolation-filters="sRGB" x="-51" y="-51" width="281" height="307"><feFlood flood-opacity="0" result="BackgroundImageFix"/><feColorMatrix in="SourceAlpha" type="matrix" values="0 0 0 0 0 0 0 0 0 0 0 0 0 0 0 0 0 0 127 0"/><feOffset dy="9" dx="9"/><feGaussianBlur stdDeviation="15"/><feColorMatrix type="matrix" values="0 0 0 0 0.4588235318660736 0 0 0 0 0.4588235318660736 0 0 0 0 0.4588235318660736 0 0 0 0.10000000149011612 0"/><feBlend mode="normal" in2="BackgroundImageFix" result="effect1_dropShadow"/><feBlend mode="normal" in="SourceGraphic" in2="effect1_dropShadow" result="shape"/></filter><filter id="master_svg4_118_00479" filterUnits="objectBoundingBox" color-interpolation-filters="sRGB" x="-70" y="-60" width="223.36404418945312" height="219.717041015625"><feFlood flood-opacity="0" result="BackgroundImageFix"/><feColorMatrix in="SourceAlpha" type="matrix" values="0 0 0 0 0 0 0 0 0 0 0 0 0 0 0 0 0 0 127 0"/><feOffset dy="10" dx="0"/><feGaussianBlur stdDeviation="17.5"/><feColorMatrix type="matrix" values="0 0 0 0 0.9843137264251709 0 0 0 0 0.43921568989753723 0 0 0 0 0.5647059082984924 0 0 0 0.25 0"/><feBlend mode="normal" in2="BackgroundImageFix" result="effect1_dropShadow"/><feBlend mode="normal" in="SourceGraphic" in2="effect1_dropShadow" result="shape"/></filter><linearGradient x1="0" y1="1" x2="1" y2="-3.469446951953614e-17" id="master_svg5_91_05730"><stop offset="0%" stop-color="#FFB017" stop-opacity="1"/><stop offset="100%" stop-color="#8F3CFF" stop-opacity="1"/></linearGradient></defs><g><g filter="url(#master_svg0_118_00485)"><rect x="188.5224609375" y="19.592041015625" width="149.46575927734375" height="186.6516571044922" rx="20" fill="#FFFFFF" fill-opacity="0"/></g><g><g><g><path d="M231.12474718475343,149.1734311981201Q231.12474718475343,146.47143119812011,232.34974718475343,145.32343119812012Q233.57474718475342,144.17543119812012,235.95474718475342,144.17543119812012Q236.64074718475342,144.17543119812012,237.3757471847534,144.2734311981201Q238.11074718475342,144.37143119812012,238.54474718475342,144.52543119812012L238.54474718475342,146.2614311981201Q237.4947471847534,145.8694311981201,236.09474718475343,145.8694311981201Q235.10074718475343,145.8694311981201,234.48474718475342,146.16343119812012Q233.86874718475343,146.4574311981201,233.5607471847534,147.1784311981201Q233.25274718475342,147.8994311981201,233.25274718475342,149.1734311981201Q233.25274718475342,150.5174311981201,233.5257471847534,151.2384311981201Q233.7987471847534,151.95943119812011,234.37974718475343,152.2324311981201Q234.96074718475342,152.5054311981201,235.99674718475342,152.5054311981201Q236.68274718475342,152.5054311981201,237.13074718475343,152.40743119812012L237.13074718475343,150.13943119812012L235.43674718475341,150.13943119812012L235.43674718475341,148.4874311981201L238.97874718475342,148.4874311981201L238.97874718475342,153.75143119812012Q238.39074718475342,153.9334311981201,237.55074718475342,154.05243119812013Q236.71074718475342,154.1714311981201,235.85674718475343,154.1714311981201Q234.2747471847534,154.1714311981201,233.25274718475342,153.75143119812012Q232.23074718475343,153.33143119812013,231.67774718475343,152.23943119812012Q231.12474718475343,151.1474311981201,231.12474718475343,149.1734311981201ZM240.61674718475342,150.25143119812012Q240.61674718475342,148.7674311981201,241.0367471847534,147.90643119812012Q241.45674718475343,147.04543119812013,242.25474718475343,146.68843119812013Q243.05274718475343,146.33143119812013,244.27074718475342,146.33143119812013Q245.4887471847534,146.33143119812013,246.2937471847534,146.68843119812013Q247.09874718475342,147.04543119812013,247.5187471847534,147.90643119812012Q247.93874718475342,148.7674311981201,247.93874718475342,150.25143119812012Q247.93874718475342,151.73543119812012,247.5187471847534,152.59643119812011Q247.09874718475342,153.4574311981201,246.2937471847534,153.81443119812013Q245.4887471847534,154.1714311981201,244.27074718475342,154.1714311981201Q243.05274718475343,154.1714311981201,242.25474718475343,153.81443119812013Q241.45674718475343,153.4574311981201,241.0367471847534,152.59643119812011Q240.61674718475342,151.73543119812012,240.61674718475342,150.25143119812012ZM244.27074718475342,152.72943119812012Q244.95674718475343,152.72943119812012,245.3277471847534,152.5054311981201Q245.69874718475342,152.28143119812012,245.8527471847534,151.7564311981201Q246.0067471847534,151.2314311981201,246.0067471847534,150.25143119812012Q246.0067471847534,149.2854311981201,245.8457471847534,148.75343119812013Q245.6847471847534,148.22143119812011,245.30674718475342,147.99043119812012Q244.9287471847534,147.75943119812013,244.27074718475342,147.75943119812013Q243.59874718475342,147.75943119812013,243.2277471847534,147.99043119812012Q242.85674718475343,148.22143119812011,242.7027471847534,148.75343119812013Q242.5487471847534,149.2854311981201,242.5487471847534,150.25143119812012Q242.5487471847534,151.21743119812012,242.7097471847534,151.7494311981201Q242.8707471847534,152.28143119812012,243.24174718475342,152.5054311981201Q243.61274718475343,152.72943119812012,244.27074718475342,152.72943119812012ZM249.28274718475342,150.25143119812012Q249.28274718475342,148.7674311981201,249.7027471847534,147.90643119812012Q250.12274718475342,147.04543119812013,250.92074718475342,146.68843119812013Q251.71874718475343,146.33143119812013,252.93674718475341,146.33143119812013Q254.15474718475343,146.33143119812013,254.9597471847534,146.68843119812013Q255.76474718475342,147.04543119812013,256.1847471847534,147.90643119812012Q256.6047471847534,148.7674311981201,256.6047471847534,150.25143119812012Q256.6047471847534,151.73543119812012,256.1847471847534,152.59643119812011Q255.76474718475342,153.4574311981201,254.9597471847534,153.81443119812013Q254.15474718475343,154.1714311981201,252.93674718475341,154.1714311981201Q251.71874718475343,154.1714311981201,250.92074718475342,153.81443119812013Q250.12274718475342,153.4574311981201,249.7027471847534,152.59643119812011Q249.28274718475342,151.73543119812012,249.28274718475342,150.25143119812012ZM252.93674718475341,152.72943119812012Q253.62274718475342,152.72943119812012,253.99374718475343,152.5054311981201Q254.3647471847534,152.28143119812012,254.5187471847534,151.7564311981201Q254.6727471847534,151.2314311981201,254.6727471847534,150.25143119812012Q254.6727471847534,149.2854311981201,254.5117471847534,148.75343119812013Q254.3507471847534,148.22143119812011,253.97274718475342,147.99043119812012Q253.59474718475343,147.75943119812013,252.93674718475341,147.75943119812013Q252.26474718475342,147.75943119812013,251.8937471847534,147.99043119812012Q251.52274718475343,148.22143119812011,251.36874718475343,148.75343119812013Q251.2147471847534,149.2854311981201,251.2147471847534,150.25143119812012Q251.2147471847534,151.21743119812012,251.3757471847534,151.7494311981201Q251.5367471847534,152.28143119812012,251.90774718475342,152.5054311981201Q252.27874718475343,152.72943119812012,252.93674718475341,152.72943119812012ZM265.1727471847534,154.03143119812012L263.4787471847534,154.03143119812012L263.3247471847534,152.95343119812011Q262.8067471847534,154.1714311981201,260.9867471847534,154.1714311981201Q259.79674718475343,154.1714311981201,259.1317471847534,153.7024311981201Q258.46674718475344,153.23343119812012,258.20774718475343,152.3864311981201Q257.9487471847534,151.53943119812013,257.9487471847534,150.25143119812012Q257.9487471847534,148.43143119812012,258.61374718475344,147.3814311981201Q259.2787471847534,146.33143119812013,260.9867471847534,146.33143119812013Q261.9807471847534,146.33143119812013,262.51974718475344,146.63243119812012Q263.05874718475343,146.9334311981201,263.29674718475343,147.4934311981201L263.29674718475343,143.39143119812013L265.1727471847534,143.39143119812013L265.1727471847534,154.03143119812012ZM261.54674718475343,152.72943119812012Q262.59674718475344,152.72943119812012,262.98874718475344,152.12743119812012Q263.38074718475343,151.52543119812012,263.38074718475343,150.25143119812012Q263.38074718475343,149.03343119812013,262.9747471847534,148.39643119812013Q262.5687471847534,147.75943119812013,261.54674718475343,147.75943119812013Q260.84674718475344,147.75943119812013,260.4827471847534,148.0884311981201Q260.11874718475343,148.4174311981201,260.0067471847534,148.94243119812012Q259.89474718475344,149.46743119812012,259.89474718475344,150.25143119812012Q259.89474718475344,151.06343119812013,260.0137471847534,151.5884311981201Q260.13274718475344,152.1134311981201,260.4897471847534,152.4214311981201Q260.84674718475344,152.72943119812012,261.54674718475343,152.72943119812012ZM271.0527471847534,146.03743119812012L271.0527471847534,154.03143119812012L269.0787471847534,154.03143119812012L269.0787471847534,146.03743119812012L266.48874718475344,146.03743119812012L266.48874718475344,144.3154311981201L273.64274718475343,144.3154311981201L273.64274718475343,146.03743119812012L271.0527471847534,146.03743119812012ZM281.37074718475344,150.6434311981201L276.4567471847534,150.9514311981201Q276.4987471847534,151.84743119812012,276.99574718475344,152.2604311981201Q277.4927471847534,152.6734311981201,278.5567471847534,152.6734311981201Q279.21474718475343,152.6734311981201,279.92874718475343,152.5124311981201Q280.64274718475343,152.3514311981201,281.04874718475344,152.14143119812013L281.04874718475344,153.65343119812013Q280.6847471847534,153.8634311981201,279.9007471847534,154.0174311981201Q279.1167471847534,154.1714311981201,278.2207471847534,154.1714311981201Q277.0027471847534,154.1714311981201,276.2047471847534,153.81443119812013Q275.40674718475344,153.4574311981201,274.9867471847534,152.59643119812011Q274.5667471847534,151.73543119812012,274.5667471847534,150.25143119812012Q274.5667471847534,148.7674311981201,274.9867471847534,147.90643119812012Q275.40674718475344,147.04543119812013,276.21174718475345,146.68843119812013Q277.0167471847534,146.33143119812013,278.2347471847534,146.33143119812013Q280.0687471847534,146.33143119812013,280.7547471847534,147.19243119812012Q281.44074718475343,148.0534311981201,281.44074718475343,149.62143119812012Q281.44074718475343,150.0414311981201,281.37074718475344,150.6434311981201ZM279.7047471847534,149.38343119812012Q279.7047471847534,148.59943119812013,279.4037471847534,148.1794311981201Q279.1027471847534,147.75943119812013,278.2347471847534,147.75943119812013Q277.2687471847534,147.75943119812013,276.8837471847534,148.20043119812013Q276.4987471847534,148.64143119812013,276.4567471847534,149.6354311981201L279.7047471847534,149.38343119812012ZM282.79874718475344,153.87743119812012L282.79874718475344,152.29543119812013Q283.3167471847534,152.44943119812012,283.9327471847534,152.5474311981201Q284.54874718475344,152.64543119812012,285.0667471847534,152.64543119812012Q285.7807471847534,152.64543119812012,286.0957471847534,152.4634311981201Q286.4107471847534,152.28143119812012,286.4107471847534,151.81943119812013Q286.4107471847534,151.4694311981201,286.29174718475343,151.28743119812012Q286.1727471847534,151.10543119812013,285.8717471847534,150.97943119812012Q285.57074718475343,150.85343119812012,284.9127471847534,150.69943119812012Q284.08674718475345,150.50343119812013,283.6597471847534,150.2444311981201Q283.2327471847534,149.98543119812012,283.0577471847534,149.59343119812013Q282.88274718475344,149.2014311981201,282.88274718475344,148.54343119812012Q282.88274718475344,147.46543119812011,283.58974718475343,146.8984311981201Q284.29674718475343,146.33143119812013,285.8507471847534,146.33143119812013Q286.45274718475343,146.33143119812013,287.0267471847534,146.40143119812012Q287.6007471847534,146.47143119812011,287.89474718475344,146.5834311981201L287.81074718475344,148.03943119812013Q287.4607471847534,147.92743119812013,286.92174718475343,147.84343119812013Q286.38274718475344,147.75943119812013,285.90674718475344,147.75943119812013Q285.2067471847534,147.75943119812013,284.9267471847534,147.92743119812013Q284.6467471847534,148.0954311981201,284.6467471847534,148.5294311981201Q284.6467471847534,148.79543119812013,284.7517471847534,148.9354311981201Q284.85674718475343,149.07543119812013,285.1297471847534,149.18043119812012Q285.4027471847534,149.2854311981201,286.06074718475344,149.45343119812011Q286.9147471847534,149.66343119812012,287.3627471847534,149.9294311981201Q287.81074718475344,150.1954311981201,287.9997471847534,150.61543119812012Q288.1887471847534,151.0354311981201,288.1887471847534,151.76343119812012Q288.1887471847534,153.00943119812013,287.4257471847534,153.56243119812012Q286.6627471847534,154.11543119812012,285.1507471847534,154.11543119812012Q283.75074718475344,154.11543119812012,282.79874718475344,153.87743119812012ZM292.89274718475343,152.6314311981201Q293.2707471847534,152.6314311981201,293.53674718475344,152.57543119812013L293.53674718475344,154.04543119812013Q293.04674718475343,154.11543119812012,292.58474718475344,154.11543119812012Q291.63274718475344,154.11543119812012,291.1077471847534,153.9054311981201Q290.58274718475343,153.6954311981201,290.34474718475343,153.16343119812012Q290.10674718475343,152.6314311981201,290.10674718475343,151.6374311981201L290.10674718475343,147.9694311981201L289.08474718475344,147.9694311981201L289.08474718475344,146.47143119812011L290.10674718475343,146.47143119812011L290.10674718475343,144.6794311981201L291.9967471847534,144.6794311981201L291.9967471847534,146.47143119812011L293.60674718475343,146.47143119812011L293.60674718475343,147.9694311981201L291.9967471847534,147.9694311981201L291.9967471847534,151.48343119812012Q291.9967471847534,151.95943119812011,292.0667471847534,152.1974311981201Q292.1367471847534,152.4354311981201,292.3257471847534,152.53343119812013Q292.51474718475345,152.6314311981201,292.89274718475343,152.6314311981201ZM299.1087471847534,147.1854311981201Q299.1087471847534,146.40143119812012,298.6537471847534,146.0724311981201Q298.1987471847534,145.7434311981201,297.3587471847534,145.7434311981201Q296.33674718475345,145.7434311981201,295.1887471847534,146.07943119812012L295.1887471847534,144.49743119812013Q296.23874718475344,144.17543119812012,297.6947471847534,144.17543119812012Q299.3047471847534,144.17543119812012,300.1797471847534,144.86143119812013Q301.0547471847534,145.5474311981201,301.0547471847534,146.9334311981201Q301.0547471847534,147.78743119812012,300.76774718475343,148.45943119812011Q300.4807471847534,149.1314311981201,299.73874718475344,149.91543119812013Q298.9967471847534,150.69943119812012,297.5407471847534,151.8614311981201L296.9247471847534,152.3514311981201L296.9247471847534,152.4634311981201L301.3067471847534,152.4634311981201L301.3067471847534,154.03143119812012L294.58674718475345,154.03143119812012L294.58674718475345,152.29543119812013Q296.39274718475343,150.85343119812012,297.35174718475344,149.95043119812013Q298.31074718475344,149.0474311981201,298.7097471847534,148.4174311981201Q299.1087471847534,147.78743119812012,299.1087471847534,147.1854311981201Z" fill="#FFFFFF" fill-opacity="1"/></g></g><g><g><path d="M230.34005233764648,191.21203910827637L230.34005233764648,190.07203910827636L232.41005233764648,189.65203910827637L233.41005233764648,189.65203910827637L233.41005233764648,196.59203910827637L232.04005233764647,196.59203910827637L232.04005233764647,190.88203910827636L230.34005233764648,191.21203910827637ZM235.6800523376465,193.12203910827637Q235.6800523376465,191.74203910827637,235.9800523376465,190.95703910827638Q236.28005233764648,190.17203910827638,236.8250523376465,189.86203910827638Q237.37005233764648,189.55203910827638,238.1700523376465,189.55203910827638Q238.9800523376465,189.55203910827638,239.5200523376465,189.86203910827638Q240.06005233764648,190.17203910827638,240.3600523376465,190.95703910827638Q240.66005233764648,191.74203910827637,240.66005233764648,193.12203910827637Q240.66005233764648,194.50203910827636,240.3600523376465,195.28703910827636Q240.06005233764648,196.07203910827636,239.5200523376465,196.38203910827636Q238.9800523376465,196.69203910827636,238.1700523376465,196.69203910827636Q237.3600523376465,196.69203910827636,236.82005233764647,196.38203910827636Q236.28005233764648,196.07203910827636,235.9800523376465,195.28703910827636Q235.6800523376465,194.50203910827636,235.6800523376465,193.12203910827637ZM238.1700523376465,195.53203910827636Q238.60005233764647,195.53203910827636,238.84505233764648,195.32703910827638Q239.09005233764648,195.12203910827637,239.2050523376465,194.60203910827636Q239.32005233764647,194.08203910827638,239.32005233764647,193.12203910827637Q239.32005233764647,192.16203910827636,239.2050523376465,191.64203910827638Q239.09005233764648,191.12203910827637,238.84505233764648,190.91703910827636Q238.60005233764647,190.71203910827637,238.1700523376465,190.71203910827637Q237.75005233764648,190.71203910827637,237.51005233764647,190.91703910827636Q237.2700523376465,191.12203910827637,237.15505233764648,191.64203910827638Q237.04005233764647,192.16203910827636,237.04005233764647,193.12203910827637Q237.04005233764647,194.09203910827637,237.15005233764649,194.60703910827635Q237.26005233764647,195.12203910827637,237.50505233764648,195.32703910827638Q237.75005233764648,195.53203910827636,238.1700523376465,195.53203910827636ZM241.5500523376465,193.12203910827637Q241.5500523376465,191.74203910827637,241.85005233764647,190.95703910827638Q242.15005233764649,190.17203910827638,242.69505233764647,189.86203910827638Q243.2400523376465,189.55203910827638,244.04005233764647,189.55203910827638Q244.85005233764647,189.55203910827638,245.3900523376465,189.86203910827638Q245.9300523376465,190.17203910827638,246.2300523376465,190.95703910827638Q246.53005233764648,191.74203910827637,246.53005233764648,193.12203910827637Q246.53005233764648,194.50203910827636,246.2300523376465,195.28703910827636Q245.9300523376465,196.07203910827636,245.3900523376465,196.38203910827636Q244.85005233764647,196.69203910827636,244.04005233764647,196.69203910827636Q243.2300523376465,196.69203910827636,242.69005233764648,196.38203910827636Q242.15005233764649,196.07203910827636,241.85005233764647,195.28703910827636Q241.5500523376465,194.50203910827636,241.5500523376465,193.12203910827637ZM244.04005233764647,195.53203910827636Q244.47005233764648,195.53203910827636,244.71505233764648,195.32703910827638Q244.9600523376465,195.12203910827637,245.0750523376465,194.60203910827636Q245.19005233764648,194.08203910827638,245.19005233764648,193.12203910827637Q245.19005233764648,192.16203910827636,245.0750523376465,191.64203910827638Q244.9600523376465,191.12203910827637,244.71505233764648,190.91703910827636Q244.47005233764648,190.71203910827637,244.04005233764647,190.71203910827637Q243.62005233764648,190.71203910827637,243.38005233764648,190.91703910827636Q243.1400523376465,191.12203910827637,243.02505233764649,191.64203910827638Q242.91005233764648,192.16203910827636,242.91005233764648,193.12203910827637Q242.91005233764648,194.09203910827637,243.0200523376465,194.60703910827635Q243.13005233764648,195.12203910827637,243.37505233764648,195.32703910827638Q243.62005233764648,195.53203910827636,244.04005233764647,195.53203910827636ZM256.0300523376465,193.12203910827637Q256.0300523376465,195.02203910827637,255.1650523376465,195.80703910827637Q254.3000523376465,196.59203910827637,252.66005233764648,196.59203910827637L250.35005233764647,196.59203910827637L250.35005233764647,189.65203910827637L252.66005233764648,189.65203910827637Q253.7700523376465,189.65203910827637,254.49505233764648,189.93203910827637Q255.22005233764648,190.21203910827637,255.62505233764648,190.97203910827636Q256.0300523376465,191.73203910827635,256.0300523376465,193.12203910827637ZM252.59005233764648,195.38203910827636Q253.28005233764648,195.38203910827636,253.7100523376465,195.17703910827638Q254.1400523376465,194.97203910827636,254.3600523376465,194.47703910827636Q254.5800523376465,193.98203910827635,254.5800523376465,193.12203910827637Q254.5800523376465,192.22203910827636,254.3550523376465,191.72203910827636Q254.13005233764648,191.22203910827636,253.70005233764647,191.03203910827636Q253.2700523376465,190.84203910827637,252.59005233764648,190.84203910827637L251.76005233764647,190.84203910827637L251.76005233764647,195.38203910827636L252.59005233764648,195.38203910827636ZM262.03005233764645,192.83203910827638L262.03005233764645,196.59203910827637L260.83005233764646,196.59203910827637L260.70005233764647,195.93203910827637Q260.51005233764647,196.26203910827638,260.0400523376465,196.47703910827636Q259.5700523376465,196.69203910827636,258.9400523376465,196.69203910827636Q258.02005233764646,196.69203910827636,257.5550523376465,196.28203910827636Q257.0900523376465,195.87203910827637,257.0900523376465,195.05203910827638Q257.0900523376465,194.13203910827636,257.64005233764647,193.73703910827638Q258.1900523376465,193.34203910827637,259.2900523376465,193.34203910827637L260.6900523376465,193.34203910827637L260.6900523376465,193.15203910827637Q260.6900523376465,192.81203910827637,260.5950523376465,192.61203910827638Q260.5000523376465,192.41203910827636,260.2400523376465,192.31703910827636Q259.9800523376465,192.22203910827636,259.5000523376465,192.22203910827636Q258.9300523376465,192.22203910827636,258.3500523376465,192.33203910827638L258.3500523376465,191.18203910827637Q258.9700523376465,191.09203910827637,259.65005233764646,191.09203910827637Q260.9400523376465,191.09203910827637,261.4850523376465,191.52703910827637Q262.03005233764645,191.96203910827637,262.03005233764645,192.83203910827638ZM259.2500523376465,195.65203910827637Q259.77005233764646,195.65203910827637,260.15005233764646,195.46203910827637Q260.5300523376465,195.27203910827637,260.6900523376465,194.94203910827636L260.6900523376465,194.27203910827637L259.4800523376465,194.27203910827637Q258.89005233764647,194.27203910827637,258.6550523376465,194.42203910827638Q258.4200523376465,194.57203910827636,258.4200523376465,195.01203910827638Q258.4200523376465,195.34203910827637,258.6200523376465,195.49703910827637Q258.8200523376465,195.65203910827637,259.2500523376465,195.65203910827637ZM264.9900523376465,196.55203910827638L262.8800523376465,191.19203910827636L264.3600523376465,191.19203910827636L265.7100523376465,195.15203910827637L265.77005233764646,195.15203910827637L267.03005233764645,191.19203910827636L268.4600523376465,191.19203910827636L266.6300523376465,196.15203910827637Q266.28005233764645,197.11203910827638,265.9200523376465,197.62203910827637Q265.5600523376465,198.13203910827636,265.01505233764647,198.36203910827638Q264.4700523376465,198.59203910827637,263.5500523376465,198.59203910827637L263.5500523376465,197.43203910827637Q264.2100523376465,197.43203910827637,264.53005233764645,197.22203910827636Q264.8500523376465,197.01203910827638,264.9900523376465,196.55203910827638ZM269.0400523376465,196.48203910827635L269.0400523376465,195.35203910827636Q269.4100523376465,195.46203910827637,269.8500523376465,195.53203910827636Q270.2900523376465,195.60203910827636,270.6600523376465,195.60203910827636Q271.1700523376465,195.60203910827636,271.39505233764646,195.47203910827636Q271.6200523376465,195.34203910827637,271.6200523376465,195.01203910827638Q271.6200523376465,194.76203910827638,271.5350523376465,194.63203910827636Q271.45005233764647,194.50203910827636,271.2350523376465,194.41203910827636Q271.02005233764646,194.32203910827636,270.5500523376465,194.21203910827637Q269.9600523376465,194.07203910827636,269.65505233764645,193.88703910827635Q269.3500523376465,193.70203910827638,269.2250523376465,193.42203910827638Q269.1000523376465,193.14203910827638,269.1000523376465,192.67203910827638Q269.1000523376465,191.90203910827637,269.6050523376465,191.49703910827637Q270.1100523376465,191.09203910827637,271.2200523376465,191.09203910827637Q271.65005233764646,191.09203910827637,272.0600523376465,191.14203910827638Q272.4700523376465,191.19203910827636,272.6800523376465,191.27203910827637L272.6200523376465,192.31203910827637Q272.3700523376465,192.23203910827635,271.9850523376465,192.17203910827638Q271.6000523376465,192.11203910827638,271.26005233764647,192.11203910827638Q270.76005233764647,192.11203910827638,270.5600523376465,192.23203910827635Q270.3600523376465,192.35203910827636,270.3600523376465,192.66203910827636Q270.3600523376465,192.85203910827636,270.4350523376465,192.95203910827638Q270.51005233764647,193.05203910827638,270.70505233764646,193.12703910827636Q270.90005233764646,193.20203910827638,271.3700523376465,193.32203910827636Q271.9800523376465,193.47203910827636,272.3000523376465,193.66203910827636Q272.6200523376465,193.85203910827636,272.7550523376465,194.15203910827637Q272.89005233764647,194.45203910827638,272.89005233764647,194.97203910827636Q272.89005233764647,195.86203910827638,272.3450523376465,196.25703910827636Q271.8000523376465,196.65203910827637,270.7200523376465,196.65203910827637Q269.7200523376465,196.65203910827637,269.0400523376465,196.48203910827635ZM279.7200523376465,191.70203910827638Q279.7200523376465,191.14203910827638,279.39505233764646,190.90703910827636Q279.0700523376465,190.67203910827638,278.4700523376465,190.67203910827638Q277.7400523376465,190.67203910827638,276.9200523376465,190.91203910827636L276.9200523376465,189.78203910827636Q277.6700523376465,189.55203910827638,278.7100523376465,189.55203910827638Q279.8600523376465,189.55203910827638,280.4850523376465,190.04203910827636Q281.1100523376465,190.53203910827636,281.1100523376465,191.52203910827637Q281.1100523376465,192.13203910827636,280.90505233764645,192.61203910827638Q280.70005233764647,193.09203910827637,280.1700523376465,193.65203910827637Q279.64005233764647,194.21203910827637,278.6000523376465,195.04203910827636L278.1600523376465,195.39203910827638L278.1600523376465,195.47203910827636L281.2900523376465,195.47203910827636L281.2900523376465,196.59203910827637L276.4900523376465,196.59203910827637L276.4900523376465,195.35203910827636Q277.78005233764645,194.32203910827636,278.4650523376465,193.67703910827638Q279.15005233764646,193.03203910827636,279.4350523376465,192.58203910827638Q279.7200523376465,192.13203910827636,279.7200523376465,191.70203910827638ZM282.52005233764646,196.56203910827637L282.52005233764646,195.40203910827637Q283.3400523376465,195.57203910827636,284.03005233764645,195.57203910827636Q284.76005233764647,195.57203910827636,285.1700523376465,195.34703910827636Q285.58005233764646,195.12203910827637,285.58005233764646,194.55203910827638Q285.58005233764646,193.98203910827635,285.15005233764646,193.75703910827636Q284.7200523376465,193.53203910827636,283.83005233764646,193.53203910827636L283.3000523376465,193.53203910827636L283.3000523376465,192.50203910827636L283.8200523376465,192.50203910827636Q284.6200523376465,192.50203910827636,285.0400523376465,192.27203910827637Q285.4600523376465,192.04203910827636,285.4600523376465,191.52203910827637Q285.4600523376465,191.05203910827638,285.1300523376465,190.85203910827636Q284.8000523376465,190.65203910827637,284.1600523376465,190.65203910827637Q283.8400523376465,190.65203910827637,283.4650523376465,190.70703910827638Q283.0900523376465,190.76203910827635,282.8000523376465,190.85203910827636L282.8000523376465,189.75203910827636Q283.0600523376465,189.67203910827638,283.4850523376465,189.61203910827638Q283.9100523376465,189.55203910827638,284.3200523376465,189.55203910827638Q285.53005233764645,189.55203910827638,286.1650523376465,189.99203910827637Q286.8000523376465,190.43203910827637,286.8000523376465,191.43203910827637Q286.8000523376465,192.58203910827638,285.6600523376465,192.95203910827638L285.6600523376465,193.01203910827635Q286.3100523376465,193.14203910827638,286.64505233764646,193.56703910827636Q286.9800523376465,193.99203910827637,286.9800523376465,194.65203910827637Q286.9800523376465,196.69203910827636,284.1000523376465,196.69203910827636Q283.1800523376465,196.69203910827636,282.52005233764646,196.56203910827637ZM288.8700523376465,191.97203910827636Q288.8700523376465,191.59203910827637,288.9350523376465,191.41703910827636Q289.0000523376465,191.24203910827637,289.1650523376465,191.18703910827637Q289.33005233764646,191.13203910827636,289.7100523376465,191.13203910827636Q290.08005233764646,191.13203910827636,290.2500523376465,191.18703910827637Q290.4200523376465,191.24203910827637,290.4800523376465,191.41703910827636Q290.5400523376465,191.59203910827637,290.5400523376465,191.97203910827636Q290.5400523376465,192.35203910827636,290.4800523376465,192.52203910827637Q290.4200523376465,192.69203910827636,290.2500523376465,192.75203910827636Q290.08005233764646,192.81203910827637,289.7100523376465,192.81203910827637Q289.3400523376465,192.81203910827637,289.1700523376465,192.75203910827636Q289.0000523376465,192.69203910827636,288.9350523376465,192.52203910827637Q288.8700523376465,192.35203910827636,288.8700523376465,191.97203910827636ZM289.7100523376465,194.97203910827636Q290.08005233764646,194.97203910827636,290.2500523376465,195.02703910827637Q290.4200523376465,195.08203910827638,290.4800523376465,195.25703910827636Q290.5400523376465,195.43203910827637,290.5400523376465,195.81203910827637Q290.5400523376465,196.18203910827637,290.4800523376465,196.35703910827635Q290.4200523376465,196.53203910827636,290.2500523376465,196.59203910827637Q290.08005233764646,196.65203910827637,289.7100523376465,196.65203910827637Q289.3400523376465,196.65203910827637,289.1700523376465,196.59203910827637Q289.0000523376465,196.53203910827636,288.9350523376465,196.35703910827635Q288.8700523376465,196.18203910827637,288.8700523376465,195.81203910827637Q288.8700523376465,195.43203910827637,288.9350523376465,195.25703910827636Q289.0000523376465,195.08203910827638,289.1650523376465,195.02703910827637Q289.33005233764646,194.97203910827636,289.7100523376465,194.97203910827636ZM292.53005233764645,196.56203910827637L292.53005233764645,195.40203910827637Q292.95005233764647,195.49203910827637,293.2400523376465,195.53203910827636Q293.53005233764645,195.57203910827636,293.9200523376465,195.57203910827636Q294.70005233764647,195.57203910827636,295.1300523376465,195.30703910827637Q295.5600523376465,195.04203910827636,295.5600523376465,194.41203910827636Q295.5600523376465,193.78203910827636,295.1800523376465,193.52203910827637Q294.8000523376465,193.26203910827635,293.9300523376465,193.26203910827635Q293.3500523376465,193.26203910827635,292.51005233764647,193.41203910827636L292.9900523376465,189.65203910827637L296.51005233764647,189.65203910827637L296.51005233764647,190.80203910827638L294.0700523376465,190.80203910827638L293.8400523376465,192.31203910827637Q294.20005233764647,192.25203910827636,294.5900523376465,192.25203910827636Q295.77005233764646,192.25203910827636,296.3650523376465,192.77703910827637Q296.9600523376465,193.30203910827638,296.9600523376465,194.38203910827636Q296.9600523376465,195.55203910827638,296.1950523376465,196.12203910827637Q295.4300523376465,196.69203910827636,294.02005233764646,196.69203910827636Q293.2200523376465,196.69203910827636,292.53005233764645,196.56203910827637ZM301.58005233764646,193.76203910827635L301.5400523376465,193.76203910827635Q301.33005233764646,193.95203910827638,300.9850523376465,194.07203910827636Q300.64005233764647,194.19203910827636,300.2300523376465,194.19203910827636Q299.1700523376465,194.19203910827636,298.6050523376465,193.63203910827636Q298.0400523376465,193.07203910827636,298.0400523376465,191.98203910827635Q298.0400523376465,190.87203910827637,298.65005233764646,190.21203910827637Q299.26005233764647,189.55203910827638,300.4700523376465,189.55203910827638Q302.9400523376465,189.55203910827638,302.9400523376465,192.42203910827638Q302.9400523376465,194.55203910827638,302.02505233764646,195.62703910827636Q301.1100523376465,196.70203910827638,298.9800523376465,196.70203910827638L298.9800523376465,195.54203910827636Q300.1300523376465,195.54203910827636,300.8100523376465,195.08203910827638Q301.4900523376465,194.62203910827637,301.58005233764646,193.76203910827635ZM300.4400523376465,193.20203910827638Q301.6600523376465,193.20203910827638,301.6600523376465,192.05203910827638Q301.6600523376465,191.39203910827638,301.3650523376465,191.01203910827635Q301.0700523376465,190.63203910827636,300.5000523376465,190.63203910827636Q299.9100523376465,190.63203910827636,299.5950523376465,190.98703910827638Q299.28005233764645,191.34203910827637,299.28005233764645,191.98203910827635Q299.28005233764645,192.58203910827638,299.5900523376465,192.89203910827638Q299.90005233764646,193.20203910827638,300.4400523376465,193.20203910827638ZM304.6000523376465,191.97203910827636Q304.6000523376465,191.59203910827637,304.6650523376465,191.41703910827636Q304.7300523376465,191.24203910827637,304.89505233764646,191.18703910827637Q305.0600523376465,191.13203910827636,305.4400523376465,191.13203910827636Q305.8100523376465,191.13203910827636,305.9800523376465,191.18703910827637Q306.15005233764646,191.24203910827637,306.2100523376465,191.41703910827636Q306.27005233764646,191.59203910827637,306.27005233764646,191.97203910827636Q306.27005233764646,192.35203910827636,306.2100523376465,192.52203910827637Q306.15005233764646,192.69203910827636,305.9800523376465,192.75203910827636Q305.8100523376465,192.81203910827637,305.4400523376465,192.81203910827637Q305.0700523376465,192.81203910827637,304.90005233764646,192.75203910827636Q304.7300523376465,192.69203910827636,304.6650523376465,192.52203910827637Q304.6000523376465,192.35203910827636,304.6000523376465,191.97203910827636ZM305.4400523376465,194.97203910827636Q305.8100523376465,194.97203910827636,305.9800523376465,195.02703910827637Q306.15005233764646,195.08203910827638,306.2100523376465,195.25703910827636Q306.27005233764646,195.43203910827637,306.27005233764646,195.81203910827637Q306.27005233764646,196.18203910827637,306.2100523376465,196.35703910827635Q306.15005233764646,196.53203910827636,305.9800523376465,196.59203910827637Q305.8100523376465,196.65203910827637,305.4400523376465,196.65203910827637Q305.0700523376465,196.65203910827637,304.90005233764646,196.59203910827637Q304.7300523376465,196.53203910827636,304.6650523376465,196.35703910827635Q304.6000523376465,196.18203910827637,304.6000523376465,195.81203910827637Q304.6000523376465,195.43203910827637,304.6650523376465,195.25703910827636Q304.7300523376465,195.08203910827638,304.89505233764646,195.02703910827637Q305.0600523376465,194.97203910827636,305.4400523376465,194.97203910827636ZM308.26005233764647,196.56203910827637L308.26005233764647,195.40203910827637Q308.6800523376465,195.49203910827637,308.9700523376465,195.53203910827636Q309.26005233764647,195.57203910827636,309.65005233764646,195.57203910827636Q310.4300523376465,195.57203910827636,310.8600523376465,195.30703910827637Q311.2900523376465,195.04203910827636,311.2900523376465,194.41203910827636Q311.2900523376465,193.78203910827636,310.9100523376465,193.52203910827637Q310.53005233764645,193.26203910827635,309.6600523376465,193.26203910827635Q309.08005233764646,193.26203910827635,308.2400523376465,193.41203910827636L308.7200523376465,189.65203910827637L312.2400523376465,189.65203910827637L312.2400523376465,190.80203910827638L309.8000523376465,190.80203910827638L309.5700523376465,192.31203910827637Q309.9300523376465,192.25203910827636,310.3200523376465,192.25203910827636Q311.5000523376465,192.25203910827636,312.0950523376465,192.77703910827637Q312.6900523376465,193.30203910827638,312.6900523376465,194.38203910827636Q312.6900523376465,195.55203910827638,311.9250523376465,196.12203910827637Q311.1600523376465,196.69203910827636,309.7500523376465,196.69203910827636Q308.95005233764647,196.69203910827636,308.26005233764647,196.56203910827637ZM317.3100523376465,193.76203910827635L317.27005233764646,193.76203910827635Q317.0600523376465,193.95203910827638,316.7150523376465,194.07203910827636Q316.3700523376465,194.19203910827636,315.9600523376465,194.19203910827636Q314.90005233764646,194.19203910827636,314.3350523376465,193.63203910827636Q313.77005233764646,193.07203910827636,313.77005233764646,191.98203910827635Q313.77005233764646,190.87203910827637,314.3800523376465,190.21203910827637Q314.9900523376465,189.55203910827638,316.20005233764647,189.55203910827638Q318.6700523376465,189.55203910827638,318.6700523376465,192.42203910827638Q318.6700523376465,194.55203910827638,317.7550523376465,195.62703910827636Q316.8400523376465,196.70203910827638,314.7100523376465,196.70203910827638L314.7100523376465,195.54203910827636Q315.8600523376465,195.54203910827636,316.5400523376465,195.08203910827638Q317.2200523376465,194.62203910827637,317.3100523376465,193.76203910827635ZM316.1700523376465,193.20203910827638Q317.39005233764647,193.20203910827638,317.39005233764647,192.05203910827638Q317.39005233764647,191.39203910827638,317.0950523376465,191.01203910827635Q316.8000523376465,190.63203910827636,316.2300523376465,190.63203910827636Q315.64005233764647,190.63203910827636,315.32505233764647,190.98703910827638Q315.01005233764647,191.34203910827637,315.01005233764647,191.98203910827635Q315.01005233764647,192.58203910827638,315.3200523376465,192.89203910827638Q315.6300523376465,193.20203910827638,316.1700523376465,193.20203910827638Z" fill="#FFFFFF" fill-opacity="1"/></g></g><g><g><g><g><g><g filter="url(#master_svg1_118_00511)"><rect x="220.06561279296875" y="42.49990653991699" width="77.3917465209961" height="79.56854248046875" rx="25" fill="url(#master_svg2_91_05730)" fill-opacity="1"/></g><g><g><path d="" fill="#FFFFFF" fill-opacity="0"/></g></g></g></g></g></g></g><g></g></g><g><g filter="url(#master_svg3_118_00454)"><rect x="18.5224609375" y="19.592041015625" width="161" height="187" rx="20" fill="#FFFFFF" fill-opacity="0"/></g><g><g><g><path d="M64.34644499206543,149.44114093017578Q64.34644499206543,146.73914093017578,65.57144499206542,145.59114093017578Q66.79644499206543,144.4431409301758,69.17644499206543,144.4431409301758Q69.86244499206543,144.4431409301758,70.59744499206543,144.54114093017577Q71.33244499206543,144.63914093017578,71.76644499206543,144.79314093017578L71.76644499206543,146.52914093017577Q70.71644499206543,146.13714093017578,69.31644499206543,146.13714093017578Q68.32244499206543,146.13714093017578,67.70644499206543,146.4311409301758Q67.09044499206543,146.72514093017577,66.78244499206544,147.44614093017577Q66.47444499206543,148.16714093017578,66.47444499206543,149.44114093017578Q66.47444499206543,150.78514093017577,66.74744499206543,151.50614093017577Q67.02044499206544,152.22714093017578,67.60144499206542,152.50014093017577Q68.18244499206543,152.77314093017577,69.21844499206543,152.77314093017577Q69.90444499206544,152.77314093017577,70.35244499206543,152.6751409301758L70.35244499206543,150.40714093017579L68.65844499206543,150.40714093017579L68.65844499206543,148.75514093017577L72.20044499206543,148.75514093017577L72.20044499206543,154.01914093017578Q71.61244499206543,154.20114093017577,70.77244499206543,154.3201409301758Q69.93244499206543,154.43914093017577,69.07844499206543,154.43914093017577Q67.49644499206543,154.43914093017577,66.47444499206543,154.01914093017578Q65.45244499206542,153.5991409301758,64.89944499206543,152.50714093017578Q64.34644499206543,151.41514093017577,64.34644499206543,149.44114093017578ZM73.83844499206543,150.51914093017578Q73.83844499206543,149.03514093017577,74.25844499206544,148.17414093017578Q74.67844499206544,147.3131409301758,75.47644499206542,146.9561409301758Q76.27444499206543,146.5991409301758,77.49244499206543,146.5991409301758Q78.71044499206543,146.5991409301758,79.51544499206543,146.9561409301758Q80.32044499206543,147.3131409301758,80.74044499206543,148.17414093017578Q81.16044499206544,149.03514093017577,81.16044499206544,150.51914093017578Q81.16044499206544,152.0031409301758,80.74044499206543,152.86414093017578Q80.32044499206543,153.72514093017577,79.51544499206543,154.0821409301758Q78.71044499206543,154.43914093017577,77.49244499206543,154.43914093017577Q76.27444499206543,154.43914093017577,75.47644499206542,154.0821409301758Q74.67844499206544,153.72514093017577,74.25844499206544,152.86414093017578Q73.83844499206543,152.0031409301758,73.83844499206543,150.51914093017578ZM77.49244499206543,152.9971409301758Q78.17844499206544,152.9971409301758,78.54944499206543,152.77314093017577Q78.92044499206543,152.54914093017578,79.07444499206542,152.02414093017578Q79.22844499206543,151.49914093017577,79.22844499206543,150.51914093017578Q79.22844499206543,149.55314093017577,79.06744499206543,149.0211409301758Q78.90644499206543,148.48914093017578,78.52844499206543,148.25814093017578Q78.15044499206543,148.0271409301758,77.49244499206543,148.0271409301758Q76.82044499206543,148.0271409301758,76.44944499206542,148.25814093017578Q76.07844499206543,148.48914093017578,75.92444499206543,149.0211409301758Q75.77044499206544,149.55314093017577,75.77044499206544,150.51914093017578Q75.77044499206544,151.4851409301758,75.93144499206542,152.01714093017577Q76.09244499206542,152.54914093017578,76.46344499206543,152.77314093017577Q76.83444499206543,152.9971409301758,77.49244499206543,152.9971409301758ZM82.50444499206543,150.51914093017578Q82.50444499206543,149.03514093017577,82.92444499206543,148.17414093017578Q83.34444499206543,147.3131409301758,84.14244499206544,146.9561409301758Q84.94044499206544,146.5991409301758,86.15844499206543,146.5991409301758Q87.37644499206543,146.5991409301758,88.18144499206542,146.9561409301758Q88.98644499206543,147.3131409301758,89.40644499206543,148.17414093017578Q89.82644499206543,149.03514093017577,89.82644499206543,150.51914093017578Q89.82644499206543,152.0031409301758,89.40644499206543,152.86414093017578Q88.98644499206543,153.72514093017577,88.18144499206542,154.0821409301758Q87.37644499206543,154.43914093017577,86.15844499206543,154.43914093017577Q84.94044499206544,154.43914093017577,84.14244499206544,154.0821409301758Q83.34444499206543,153.72514093017577,82.92444499206543,152.86414093017578Q82.50444499206543,152.0031409301758,82.50444499206543,150.51914093017578ZM86.15844499206543,152.9971409301758Q86.84444499206543,152.9971409301758,87.21544499206543,152.77314093017577Q87.58644499206542,152.54914093017578,87.74044499206543,152.02414093017578Q87.89444499206543,151.49914093017577,87.89444499206543,150.51914093017578Q87.89444499206543,149.55314093017577,87.73344499206543,149.0211409301758Q87.57244499206543,148.48914093017578,87.19444499206543,148.25814093017578Q86.81644499206543,148.0271409301758,86.15844499206543,148.0271409301758Q85.48644499206543,148.0271409301758,85.11544499206543,148.25814093017578Q84.74444499206543,148.48914093017578,84.59044499206543,149.0211409301758Q84.43644499206543,149.55314093017577,84.43644499206543,150.51914093017578Q84.43644499206543,151.4851409301758,84.59744499206543,152.01714093017577Q84.75844499206542,152.54914093017578,85.12944499206543,152.77314093017577Q85.50044499206543,152.9971409301758,86.15844499206543,152.9971409301758ZM98.39444499206543,154.29914093017578L96.70044499206543,154.29914093017578L96.54644499206543,153.22114093017578Q96.02844499206543,154.43914093017577,94.20844499206544,154.43914093017577Q93.01844499206543,154.43914093017577,92.35344499206543,153.97014093017577Q91.68844499206543,153.50114093017578,91.42944499206543,152.65414093017577Q91.17044499206543,151.8071409301758,91.17044499206543,150.51914093017578Q91.17044499206543,148.6991409301758,91.83544499206543,147.64914093017578Q92.50044499206543,146.5991409301758,94.20844499206544,146.5991409301758Q95.20244499206544,146.5991409301758,95.74144499206542,146.90014093017578Q96.28044499206543,147.20114093017577,96.51844499206544,147.76114093017577L96.51844499206544,143.6591409301758L98.39444499206543,143.6591409301758L98.39444499206543,154.29914093017578ZM94.76844499206543,152.9971409301758Q95.81844499206542,152.9971409301758,96.21044499206543,152.39514093017578Q96.60244499206543,151.79314093017578,96.60244499206543,150.51914093017578Q96.60244499206543,149.3011409301758,96.19644499206544,148.6641409301758Q95.79044499206543,148.0271409301758,94.76844499206543,148.0271409301758Q94.06844499206542,148.0271409301758,93.70444499206543,148.35614093017577Q93.34044499206543,148.68514093017578,93.22844499206543,149.21014093017578Q93.11644499206542,149.7351409301758,93.11644499206542,150.51914093017578Q93.11644499206542,151.3311409301758,93.23544499206542,151.85614093017577Q93.35444499206542,152.38114093017577,93.71144499206542,152.68914093017577Q94.06844499206542,152.9971409301758,94.76844499206543,152.9971409301758ZM104.27444499206543,146.30514093017578L104.27444499206543,154.29914093017578L102.30044499206542,154.29914093017578L102.30044499206542,146.30514093017578L99.71044499206543,146.30514093017578L99.71044499206543,144.58314093017577L106.86444499206543,144.58314093017577L106.86444499206543,146.30514093017578L104.27444499206543,146.30514093017578ZM114.59244499206542,150.91114093017578L109.67844499206544,151.21914093017577Q109.72044499206544,152.11514093017578,110.21744499206542,152.52814093017577Q110.71444499206544,152.94114093017578,111.77844499206543,152.94114093017578Q112.43644499206543,152.94114093017578,113.15044499206543,152.78014093017578Q113.86444499206543,152.61914093017577,114.27044499206542,152.4091409301758L114.27044499206542,153.9211409301758Q113.90644499206543,154.13114093017577,113.12244499206543,154.28514093017577Q112.33844499206543,154.43914093017577,111.44244499206543,154.43914093017577Q110.22444499206543,154.43914093017577,109.42644499206543,154.0821409301758Q108.62844499206543,153.72514093017577,108.20844499206544,152.86414093017578Q107.78844499206542,152.0031409301758,107.78844499206542,150.51914093017578Q107.78844499206542,149.03514093017577,108.20844499206544,148.17414093017578Q108.62844499206543,147.3131409301758,109.43344499206543,146.9561409301758Q110.23844499206544,146.5991409301758,111.45644499206543,146.5991409301758Q113.29044499206543,146.5991409301758,113.97644499206544,147.46014093017578Q114.66244499206543,148.32114093017577,114.66244499206543,149.88914093017578Q114.66244499206543,150.30914093017577,114.59244499206542,150.91114093017578ZM112.92644499206543,149.65114093017579Q112.92644499206543,148.8671409301758,112.62544499206544,148.44714093017578Q112.32444499206542,148.0271409301758,111.45644499206543,148.0271409301758Q110.49044499206542,148.0271409301758,110.10544499206543,148.4681409301758Q109.72044499206544,148.9091409301758,109.67844499206544,149.90314093017577L112.92644499206543,149.65114093017579ZM116.02044499206542,154.14514093017578L116.02044499206542,152.5631409301758Q116.53844499206542,152.7171409301758,117.15444499206544,152.81514093017577Q117.77044499206542,152.91314093017579,118.28844499206542,152.91314093017579Q119.00244499206542,152.91314093017579,119.31744499206543,152.73114093017577Q119.63244499206543,152.54914093017578,119.63244499206543,152.0871409301758Q119.63244499206543,151.73714093017577,119.51344499206543,151.55514093017578Q119.39444499206543,151.3731409301758,119.09344499206543,151.2471409301758Q118.79244499206543,151.12114093017578,118.13444499206543,150.9671409301758Q117.30844499206543,150.7711409301758,116.88144499206544,150.51214093017578Q116.45444499206543,150.2531409301758,116.27944499206544,149.8611409301758Q116.10444499206542,149.46914093017577,116.10444499206542,148.81114093017578Q116.10444499206542,147.73314093017578,116.81144499206543,147.16614093017577Q117.51844499206544,146.5991409301758,119.07244499206543,146.5991409301758Q119.67444499206543,146.5991409301758,120.24844499206543,146.6691409301758Q120.82244499206543,146.73914093017578,121.11644499206542,146.85114093017577L121.03244499206542,148.3071409301758Q120.68244499206543,148.1951409301758,120.14344499206544,148.1111409301758Q119.60444499206542,148.0271409301758,119.12844499206543,148.0271409301758Q118.42844499206544,148.0271409301758,118.14844499206544,148.1951409301758Q117.86844499206543,148.36314093017577,117.86844499206543,148.79714093017577Q117.86844499206543,149.0631409301758,117.97344499206542,149.20314093017578Q118.07844499206543,149.3431409301758,118.35144499206544,149.44814093017578Q118.62444499206543,149.55314093017577,119.28244499206542,149.72114093017578Q120.13644499206544,149.9311409301758,120.58444499206543,150.19714093017578Q121.03244499206542,150.46314093017577,121.22144499206543,150.88314093017578Q121.41044499206544,151.30314093017577,121.41044499206544,152.03114093017578Q121.41044499206544,153.2771409301758,120.64744499206543,153.8301409301758Q119.88444499206543,154.38314093017578,118.37244499206543,154.38314093017578Q116.97244499206542,154.38314093017578,116.02044499206542,154.14514093017578ZM126.11444499206543,152.89914093017578Q126.49244499206543,152.89914093017578,126.75844499206542,152.8431409301758L126.75844499206542,154.3131409301758Q126.26844499206544,154.38314093017578,125.80644499206542,154.38314093017578Q124.85444499206542,154.38314093017578,124.32944499206543,154.17314093017578Q123.80444499206543,153.96314093017577,123.56644499206543,153.4311409301758Q123.32844499206543,152.89914093017578,123.32844499206543,151.90514093017578L123.32844499206543,148.23714093017577L122.30644499206542,148.23714093017577L122.30644499206542,146.73914093017578L123.32844499206543,146.73914093017578L123.32844499206543,144.94714093017578L125.21844499206543,144.94714093017578L125.21844499206543,146.73914093017578L126.82844499206543,146.73914093017578L126.82844499206543,148.23714093017577L125.21844499206543,148.23714093017577L125.21844499206543,151.75114093017578Q125.21844499206543,152.22714093017578,125.28844499206542,152.46514093017578Q125.35844499206543,152.70314093017578,125.54744499206544,152.8011409301758Q125.73644499206543,152.89914093017578,126.11444499206543,152.89914093017578ZM128.43844499206543,146.76714093017577L128.43844499206543,145.1711409301758L131.33644499206542,144.58314093017577L132.73644499206543,144.58314093017577L132.73644499206543,154.29914093017578L130.81844499206542,154.29914093017578L130.81844499206542,146.30514093017578L128.43844499206543,146.76714093017577Z" fill="#FFFFFF" fill-opacity="1"/></g></g><g><g><path d="M63.49224349975586,191.5610400390625L63.49224349975586,190.4210400390625L65.56224349975587,190.0010400390625L66.56224349975587,190.0010400390625L66.56224349975587,196.9410400390625L65.19224349975586,196.9410400390625L65.19224349975586,191.2310400390625L63.49224349975586,191.5610400390625ZM68.83224349975586,193.4710400390625Q68.83224349975586,192.0910400390625,69.13224349975586,191.3060400390625Q69.43224349975586,190.5210400390625,69.97724349975586,190.2110400390625Q70.52224349975586,189.9010400390625,71.32224349975586,189.9010400390625Q72.13224349975586,189.9010400390625,72.67224349975587,190.2110400390625Q73.21224349975586,190.5210400390625,73.51224349975585,191.3060400390625Q73.81224349975585,192.0910400390625,73.81224349975585,193.4710400390625Q73.81224349975585,194.8510400390625,73.51224349975585,195.6360400390625Q73.21224349975586,196.4210400390625,72.67224349975587,196.7310400390625Q72.13224349975586,197.0410400390625,71.32224349975586,197.0410400390625Q70.51224349975585,197.0410400390625,69.97224349975586,196.7310400390625Q69.43224349975586,196.4210400390625,69.13224349975586,195.6360400390625Q68.83224349975586,194.8510400390625,68.83224349975586,193.4710400390625ZM71.32224349975586,195.8810400390625Q71.75224349975586,195.8810400390625,71.99724349975585,195.6760400390625Q72.24224349975586,195.4710400390625,72.35724349975587,194.9510400390625Q72.47224349975586,194.4310400390625,72.47224349975586,193.4710400390625Q72.47224349975586,192.5110400390625,72.35724349975587,191.9910400390625Q72.24224349975586,191.4710400390625,71.99724349975585,191.2660400390625Q71.75224349975586,191.0610400390625,71.32224349975586,191.0610400390625Q70.90224349975585,191.0610400390625,70.66224349975586,191.2660400390625Q70.42224349975587,191.4710400390625,70.30724349975586,191.9910400390625Q70.19224349975586,192.5110400390625,70.19224349975586,193.4710400390625Q70.19224349975586,194.4410400390625,70.30224349975586,194.9560400390625Q70.41224349975586,195.4710400390625,70.65724349975586,195.6760400390625Q70.90224349975585,195.8810400390625,71.32224349975586,195.8810400390625ZM74.70224349975587,193.4710400390625Q74.70224349975587,192.0910400390625,75.00224349975586,191.3060400390625Q75.30224349975586,190.5210400390625,75.84724349975586,190.2110400390625Q76.39224349975586,189.9010400390625,77.19224349975586,189.9010400390625Q78.00224349975586,189.9010400390625,78.54224349975586,190.2110400390625Q79.08224349975586,190.5210400390625,79.38224349975586,191.3060400390625Q79.68224349975586,192.0910400390625,79.68224349975586,193.4710400390625Q79.68224349975586,194.8510400390625,79.38224349975586,195.6360400390625Q79.08224349975586,196.4210400390625,78.54224349975586,196.7310400390625Q78.00224349975586,197.0410400390625,77.19224349975586,197.0410400390625Q76.38224349975586,197.0410400390625,75.84224349975585,196.7310400390625Q75.30224349975586,196.4210400390625,75.00224349975586,195.6360400390625Q74.70224349975587,194.8510400390625,74.70224349975587,193.4710400390625ZM77.19224349975586,195.8810400390625Q77.62224349975585,195.8810400390625,77.86724349975586,195.6760400390625Q78.11224349975586,195.4710400390625,78.22724349975586,194.9510400390625Q78.34224349975585,194.4310400390625,78.34224349975585,193.4710400390625Q78.34224349975585,192.5110400390625,78.22724349975586,191.9910400390625Q78.11224349975586,191.4710400390625,77.86724349975586,191.2660400390625Q77.62224349975585,191.0610400390625,77.19224349975586,191.0610400390625Q76.77224349975586,191.0610400390625,76.53224349975586,191.2660400390625Q76.29224349975586,191.4710400390625,76.17724349975586,191.9910400390625Q76.06224349975585,192.5110400390625,76.06224349975585,193.4710400390625Q76.06224349975585,194.4410400390625,76.17224349975587,194.9560400390625Q76.28224349975586,195.4710400390625,76.52724349975585,195.6760400390625Q76.77224349975586,195.8810400390625,77.19224349975586,195.8810400390625ZM89.18224349975586,193.4710400390625Q89.18224349975586,195.3710400390625,88.31724349975586,196.1560400390625Q87.45224349975587,196.9410400390625,85.81224349975585,196.9410400390625L83.50224349975586,196.9410400390625L83.50224349975586,190.0010400390625L85.81224349975585,190.0010400390625Q86.92224349975587,190.0010400390625,87.64724349975586,190.2810400390625Q88.37224349975585,190.5610400390625,88.77724349975585,191.3210400390625Q89.18224349975586,192.0810400390625,89.18224349975586,193.4710400390625ZM85.74224349975586,195.7310400390625Q86.43224349975586,195.7310400390625,86.86224349975586,195.5260400390625Q87.29224349975586,195.3210400390625,87.51224349975585,194.8260400390625Q87.73224349975587,194.3310400390625,87.73224349975587,193.4710400390625Q87.73224349975587,192.5710400390625,87.50724349975586,192.0710400390625Q87.28224349975586,191.5710400390625,86.85224349975586,191.3810400390625Q86.42224349975587,191.1910400390625,85.74224349975586,191.1910400390625L84.91224349975586,191.1910400390625L84.91224349975586,195.7310400390625L85.74224349975586,195.7310400390625ZM95.18224349975586,193.1810400390625L95.18224349975586,196.9410400390625L93.98224349975587,196.9410400390625L93.85224349975586,196.2810400390625Q93.66224349975586,196.61104003906252,93.19224349975586,196.8260400390625Q92.72224349975586,197.0410400390625,92.09224349975585,197.0410400390625Q91.17224349975587,197.0410400390625,90.70724349975586,196.6310400390625Q90.24224349975586,196.2210400390625,90.24224349975586,195.4010400390625Q90.24224349975586,194.4810400390625,90.79224349975586,194.0860400390625Q91.34224349975585,193.6910400390625,92.44224349975586,193.6910400390625L93.84224349975585,193.6910400390625L93.84224349975585,193.5010400390625Q93.84224349975585,193.1610400390625,93.74724349975585,192.9610400390625Q93.65224349975585,192.7610400390625,93.39224349975586,192.6660400390625Q93.13224349975586,192.5710400390625,92.65224349975585,192.5710400390625Q92.08224349975586,192.5710400390625,91.50224349975586,192.6810400390625L91.50224349975586,191.5310400390625Q92.12224349975585,191.4410400390625,92.80224349975586,191.4410400390625Q94.09224349975585,191.4410400390625,94.63724349975587,191.8760400390625Q95.18224349975586,192.3110400390625,95.18224349975586,193.1810400390625ZM92.40224349975585,196.0010400390625Q92.92224349975587,196.0010400390625,93.30224349975586,195.8110400390625Q93.68224349975586,195.6210400390625,93.84224349975585,195.2910400390625L93.84224349975585,194.6210400390625L92.63224349975586,194.6210400390625Q92.04224349975586,194.6210400390625,91.80724349975586,194.7710400390625Q91.57224349975586,194.9210400390625,91.57224349975586,195.36104003906252Q91.57224349975586,195.6910400390625,91.77224349975586,195.8460400390625Q91.97224349975586,196.0010400390625,92.40224349975585,196.0010400390625ZM98.14224349975586,196.9010400390625L96.03224349975585,191.5410400390625L97.51224349975587,191.5410400390625L98.86224349975586,195.5010400390625L98.92224349975587,195.5010400390625L100.18224349975586,191.5410400390625L101.61224349975586,191.5410400390625L99.78224349975585,196.5010400390625Q99.43224349975586,197.4610400390625,99.07224349975586,197.9710400390625Q98.71224349975586,198.4810400390625,98.16724349975587,198.7110400390625Q97.62224349975585,198.9410400390625,96.70224349975587,198.9410400390625L96.70224349975587,197.7810400390625Q97.36224349975586,197.7810400390625,97.68224349975586,197.5710400390625Q98.00224349975585,197.36104003906252,98.14224349975586,196.9010400390625ZM102.19224349975586,196.8310400390625L102.19224349975586,195.7010400390625Q102.56224349975585,195.8110400390625,103.00224349975585,195.8810400390625Q103.44224349975586,195.9510400390625,103.81224349975585,195.9510400390625Q104.32224349975586,195.9510400390625,104.54724349975587,195.8210400390625Q104.77224349975586,195.6910400390625,104.77224349975586,195.36104003906252Q104.77224349975586,195.11104003906252,104.68724349975585,194.9810400390625Q104.60224349975586,194.8510400390625,104.38724349975587,194.7610400390625Q104.17224349975587,194.6710400390625,103.70224349975587,194.5610400390625Q103.11224349975586,194.4210400390625,102.80724349975586,194.2360400390625Q102.50224349975585,194.0510400390625,102.37724349975585,193.7710400390625Q102.25224349975585,193.4910400390625,102.25224349975585,193.0210400390625Q102.25224349975585,192.2510400390625,102.75724349975586,191.8460400390625Q103.26224349975587,191.4410400390625,104.37224349975585,191.4410400390625Q104.80224349975586,191.4410400390625,105.21224349975586,191.4910400390625Q105.62224349975585,191.5410400390625,105.83224349975586,191.6210400390625L105.77224349975586,192.6610400390625Q105.52224349975586,192.5810400390625,105.13724349975587,192.5210400390625Q104.75224349975585,192.4610400390625,104.41224349975586,192.4610400390625Q103.91224349975586,192.4610400390625,103.71224349975586,192.5810400390625Q103.51224349975587,192.7010400390625,103.51224349975587,193.0110400390625Q103.51224349975587,193.2010400390625,103.58724349975586,193.3010400390625Q103.66224349975586,193.4010400390625,103.85724349975587,193.4760400390625Q104.05224349975586,193.5510400390625,104.52224349975586,193.6710400390625Q105.13224349975586,193.8210400390625,105.45224349975587,194.0110400390625Q105.77224349975586,194.2010400390625,105.90724349975585,194.5010400390625Q106.04224349975587,194.8010400390625,106.04224349975587,195.3210400390625Q106.04224349975587,196.2110400390625,105.49724349975585,196.6060400390625Q104.95224349975587,197.0010400390625,103.87224349975585,197.0010400390625Q102.87224349975585,197.0010400390625,102.19224349975586,196.8310400390625ZM112.87224349975585,192.0510400390625Q112.87224349975585,191.4910400390625,112.54724349975587,191.2560400390625Q112.22224349975586,191.0210400390625,111.62224349975585,191.0210400390625Q110.89224349975586,191.0210400390625,110.07224349975586,191.2610400390625L110.07224349975586,190.1310400390625Q110.82224349975586,189.9010400390625,111.86224349975586,189.9010400390625Q113.01224349975587,189.9010400390625,113.63724349975587,190.3910400390625Q114.26224349975587,190.8810400390625,114.26224349975587,191.8710400390625Q114.26224349975587,192.4810400390625,114.05724349975586,192.9610400390625Q113.85224349975586,193.4410400390625,113.32224349975586,194.0010400390625Q112.79224349975587,194.5610400390625,111.75224349975585,195.3910400390625L111.31224349975585,195.7410400390625L111.31224349975585,195.8210400390625L114.44224349975586,195.8210400390625L114.44224349975586,196.9410400390625L109.64224349975586,196.9410400390625L109.64224349975586,195.7010400390625Q110.93224349975586,194.6710400390625,111.61724349975586,194.0260400390625Q112.30224349975586,193.3810400390625,112.58724349975586,192.9310400390625Q112.87224349975585,192.4810400390625,112.87224349975585,192.0510400390625ZM115.67224349975587,196.9110400390625L115.67224349975587,195.7510400390625Q116.49224349975586,195.9210400390625,117.18224349975586,195.9210400390625Q117.91224349975586,195.9210400390625,118.32224349975586,195.6960400390625Q118.73224349975587,195.4710400390625,118.73224349975587,194.9010400390625Q118.73224349975587,194.3310400390625,118.30224349975586,194.1060400390625Q117.87224349975585,193.8810400390625,116.98224349975587,193.8810400390625L116.45224349975587,193.8810400390625L116.45224349975587,192.8510400390625L116.97224349975586,192.8510400390625Q117.77224349975586,192.8510400390625,118.19224349975586,192.6210400390625Q118.61224349975586,192.3910400390625,118.61224349975586,191.8710400390625Q118.61224349975586,191.4010400390625,118.28224349975585,191.2010400390625Q117.95224349975587,191.0010400390625,117.31224349975585,191.0010400390625Q116.99224349975586,191.0010400390625,116.61724349975586,191.0560400390625Q116.24224349975586,191.1110400390625,115.95224349975587,191.2010400390625L115.95224349975587,190.1010400390625Q116.21224349975586,190.0210400390625,116.63724349975587,189.9610400390625Q117.06224349975585,189.9010400390625,117.47224349975586,189.9010400390625Q118.68224349975586,189.9010400390625,119.31724349975586,190.3410400390625Q119.95224349975587,190.7810400390625,119.95224349975587,191.7810400390625Q119.95224349975587,192.9310400390625,118.81224349975585,193.3010400390625L118.81224349975585,193.3610400390625Q119.46224349975586,193.4910400390625,119.79724349975587,193.9160400390625Q120.13224349975586,194.3410400390625,120.13224349975586,195.0010400390625Q120.13224349975586,197.0410400390625,117.25224349975585,197.0410400390625Q116.33224349975586,197.0410400390625,115.67224349975587,196.9110400390625ZM122.02224349975586,192.3210400390625Q122.02224349975586,191.9410400390625,122.08724349975586,191.7660400390625Q122.15224349975585,191.5910400390625,122.31724349975586,191.5360400390625Q122.48224349975587,191.4810400390625,122.86224349975586,191.4810400390625Q123.23224349975587,191.4810400390625,123.40224349975585,191.5360400390625Q123.57224349975586,191.5910400390625,123.63224349975586,191.7660400390625Q123.69224349975586,191.9410400390625,123.69224349975586,192.3210400390625Q123.69224349975586,192.7010400390625,123.63224349975586,192.8710400390625Q123.57224349975586,193.0410400390625,123.40224349975585,193.1010400390625Q123.23224349975587,193.1610400390625,122.86224349975586,193.1610400390625Q122.49224349975586,193.1610400390625,122.32224349975586,193.1010400390625Q122.15224349975585,193.0410400390625,122.08724349975586,192.8710400390625Q122.02224349975586,192.7010400390625,122.02224349975586,192.3210400390625ZM122.86224349975586,195.3210400390625Q123.23224349975587,195.3210400390625,123.40224349975585,195.3760400390625Q123.57224349975586,195.4310400390625,123.63224349975586,195.6060400390625Q123.69224349975586,195.7810400390625,123.69224349975586,196.1610400390625Q123.69224349975586,196.5310400390625,123.63224349975586,196.7060400390625Q123.57224349975586,196.8810400390625,123.40224349975585,196.9410400390625Q123.23224349975587,197.0010400390625,122.86224349975586,197.0010400390625Q122.49224349975586,197.0010400390625,122.32224349975586,196.9410400390625Q122.15224349975585,196.8810400390625,122.08724349975586,196.7060400390625Q122.02224349975586,196.5310400390625,122.02224349975586,196.1610400390625Q122.02224349975586,195.7810400390625,122.08724349975586,195.6060400390625Q122.15224349975585,195.4310400390625,122.31724349975586,195.3760400390625Q122.48224349975587,195.3210400390625,122.86224349975586,195.3210400390625ZM125.68224349975586,196.9110400390625L125.68224349975586,195.7510400390625Q126.10224349975586,195.8410400390625,126.39224349975586,195.8810400390625Q126.68224349975586,195.9210400390625,127.07224349975586,195.9210400390625Q127.85224349975586,195.9210400390625,128.28224349975585,195.6560400390625Q128.71224349975586,195.3910400390625,128.71224349975586,194.7610400390625Q128.71224349975586,194.1310400390625,128.33224349975586,193.8710400390625Q127.95224349975587,193.6110400390625,127.08224349975586,193.6110400390625Q126.50224349975585,193.6110400390625,125.66224349975586,193.7610400390625L126.14224349975586,190.0010400390625L129.66224349975585,190.0010400390625L129.66224349975585,191.1510400390625L127.22224349975586,191.1510400390625L126.99224349975586,192.6610400390625Q127.35224349975586,192.6010400390625,127.74224349975586,192.6010400390625Q128.92224349975587,192.6010400390625,129.51724349975586,193.1260400390625Q130.11224349975586,193.6510400390625,130.11224349975586,194.7310400390625Q130.11224349975586,195.9010400390625,129.34724349975585,196.4710400390625Q128.58224349975586,197.0410400390625,127.17224349975587,197.0410400390625Q126.37224349975585,197.0410400390625,125.68224349975586,196.9110400390625ZM134.73224349975584,194.1110400390625L134.69224349975588,194.1110400390625Q134.48224349975584,194.3010400390625,134.13724349975587,194.4210400390625Q133.79224349975584,194.5410400390625,133.38224349975587,194.5410400390625Q132.32224349975587,194.5410400390625,131.75724349975587,193.9810400390625Q131.19224349975588,193.4210400390625,131.19224349975588,192.3310400390625Q131.19224349975588,191.2210400390625,131.80224349975586,190.5610400390625Q132.41224349975585,189.9010400390625,133.62224349975585,189.9010400390625Q136.09224349975585,189.9010400390625,136.09224349975585,192.7710400390625Q136.09224349975585,194.9010400390625,135.17724349975586,195.9760400390625Q134.26224349975587,197.0510400390625,132.13224349975587,197.0510400390625L132.13224349975587,195.8910400390625Q133.28224349975585,195.8910400390625,133.96224349975586,195.4310400390625Q134.64224349975586,194.9710400390625,134.73224349975584,194.1110400390625ZM133.59224349975585,193.5510400390625Q134.81224349975588,193.5510400390625,134.81224349975588,192.4010400390625Q134.81224349975588,191.7410400390625,134.51724349975586,191.3610400390625Q134.22224349975585,190.9810400390625,133.65224349975585,190.9810400390625Q133.06224349975588,190.9810400390625,132.74724349975585,191.3360400390625Q132.43224349975586,191.6910400390625,132.43224349975586,192.3310400390625Q132.43224349975586,192.9310400390625,132.74224349975586,193.2410400390625Q133.05224349975586,193.5510400390625,133.59224349975585,193.5510400390625ZM137.75224349975588,192.3210400390625Q137.75224349975588,191.9410400390625,137.81724349975588,191.7660400390625Q137.88224349975587,191.5910400390625,138.04724349975587,191.5360400390625Q138.21224349975586,191.4810400390625,138.59224349975585,191.4810400390625Q138.96224349975586,191.4810400390625,139.13224349975587,191.5360400390625Q139.30224349975586,191.5910400390625,139.36224349975586,191.7660400390625Q139.42224349975587,191.9410400390625,139.42224349975587,192.3210400390625Q139.42224349975587,192.7010400390625,139.36224349975586,192.8710400390625Q139.30224349975586,193.0410400390625,139.13224349975587,193.1010400390625Q138.96224349975586,193.1610400390625,138.59224349975585,193.1610400390625Q138.22224349975585,193.1610400390625,138.05224349975586,193.1010400390625Q137.88224349975587,193.0410400390625,137.81724349975588,192.8710400390625Q137.75224349975588,192.7010400390625,137.75224349975588,192.3210400390625ZM138.59224349975585,195.3210400390625Q138.96224349975586,195.3210400390625,139.13224349975587,195.3760400390625Q139.30224349975586,195.4310400390625,139.36224349975586,195.6060400390625Q139.42224349975587,195.7810400390625,139.42224349975587,196.1610400390625Q139.42224349975587,196.5310400390625,139.36224349975586,196.7060400390625Q139.30224349975586,196.8810400390625,139.13224349975587,196.9410400390625Q138.96224349975586,197.0010400390625,138.59224349975585,197.0010400390625Q138.22224349975585,197.0010400390625,138.05224349975586,196.9410400390625Q137.88224349975587,196.8810400390625,137.81724349975588,196.7060400390625Q137.75224349975588,196.5310400390625,137.75224349975588,196.1610400390625Q137.75224349975588,195.7810400390625,137.81724349975588,195.6060400390625Q137.88224349975587,195.4310400390625,138.04724349975587,195.3760400390625Q138.21224349975586,195.3210400390625,138.59224349975585,195.3210400390625ZM141.41224349975585,196.9110400390625L141.41224349975585,195.7510400390625Q141.83224349975586,195.8410400390625,142.12224349975585,195.8810400390625Q142.41224349975585,195.9210400390625,142.80224349975586,195.9210400390625Q143.58224349975586,195.9210400390625,144.01224349975587,195.6560400390625Q144.44224349975588,195.3910400390625,144.44224349975588,194.7610400390625Q144.44224349975588,194.1310400390625,144.06224349975588,193.8710400390625Q143.68224349975586,193.6110400390625,142.81224349975588,193.6110400390625Q142.23224349975584,193.6110400390625,141.39224349975586,193.7610400390625L141.87224349975585,190.0010400390625L145.39224349975586,190.0010400390625L145.39224349975586,191.1510400390625L142.95224349975587,191.1510400390625L142.72224349975585,192.6610400390625Q143.08224349975586,192.6010400390625,143.47224349975585,192.6010400390625Q144.65224349975585,192.6010400390625,145.24724349975585,193.1260400390625Q145.84224349975585,193.6510400390625,145.84224349975585,194.7310400390625Q145.84224349975585,195.9010400390625,145.07724349975587,196.4710400390625Q144.31224349975588,197.0410400390625,142.90224349975585,197.0410400390625Q142.10224349975584,197.0410400390625,141.41224349975585,196.9110400390625ZM150.46224349975586,194.1110400390625L150.42224349975587,194.1110400390625Q150.21224349975586,194.3010400390625,149.86724349975586,194.4210400390625Q149.52224349975586,194.5410400390625,149.11224349975586,194.5410400390625Q148.05224349975586,194.5410400390625,147.48724349975586,193.9810400390625Q146.92224349975587,193.4210400390625,146.92224349975587,192.3310400390625Q146.92224349975587,191.2210400390625,147.53224349975585,190.5610400390625Q148.14224349975586,189.9010400390625,149.35224349975584,189.9010400390625Q151.82224349975587,189.9010400390625,151.82224349975587,192.7710400390625Q151.82224349975587,194.9010400390625,150.90724349975585,195.9760400390625Q149.99224349975586,197.0510400390625,147.86224349975586,197.0510400390625L147.86224349975586,195.8910400390625Q149.01224349975587,195.8910400390625,149.69224349975588,195.4310400390625Q150.37224349975585,194.9710400390625,150.46224349975586,194.1110400390625ZM149.32224349975587,193.5510400390625Q150.54224349975584,193.5510400390625,150.54224349975584,192.4010400390625Q150.54224349975584,191.7410400390625,150.24724349975585,191.3610400390625Q149.95224349975587,190.9810400390625,149.38224349975587,190.9810400390625Q148.79224349975584,190.9810400390625,148.47724349975584,191.3360400390625Q148.16224349975585,191.6910400390625,148.16224349975585,192.3310400390625Q148.16224349975585,192.9310400390625,148.47224349975585,193.2410400390625Q148.78224349975585,193.5510400390625,149.32224349975587,193.5510400390625Z" fill="#FFFFFF" fill-opacity="1"/></g></g><g><g><g><g><g><g filter="url(#master_svg4_118_00479)"><rect x="52.49978256225586" y="42.54266357421875" width="83.36404418945312" height="79.717041015625" rx="25" fill="url(#master_svg5_91_05730)" fill-opacity="1"/></g><g><g><path d="" fill="#FFFFFF" fill-opacity="0"/></g></g></g></g></g></g></g><g></g></g></g></g></svg>