<?xml version="1.0" standalone="no"?><!DOCTYPE svg PUBLIC "-//W3C//DTD SVG 1.1//EN" "http://www.w3.org/Graphics/SVG/1.1/DTD/svg11.dtd"><svg t="1711013348369" class="icon" viewBox="0 0 1024 1024" version="1.1" xmlns="http://www.w3.org/2000/svg" p-id="35297" xmlns:xlink="http://www.w3.org/1999/xlink" width="200" height="200"><path d="M512 0C229.2 0 0 229.2 0 512s229.2 512 512 512 512-229.2 512-512S794.8 0 512 0z m101.4 531.5l84.7 84.7c5 5 5 13.2 0 18.3L649.5 683h186.7v42.7H178.5V683h135.7l-17-124.6c-0.6-4 0.8-8 3.7-10.9L456 392.4c5-5 13.2-5 18.3 0l83.2 83.3c3.3 3.3 8.7 3.3 12 0l91.2-91.2c3.3-3.3 3.3-8.7 0-12l-67.6-67.6c-13.7-13.7-13.7-35.9 0-49.6 13.7-13.7 35.9-13.7 49.6 0l192.5 192.5c13.7 13.7 13.7 35.9 0 49.6-13.7 13.7-35.9 13.7-49.6 0l-69-69c-3.3-3.3-8.7-3.3-12 0l-91.2 91.2c-3.3 3.2-3.3 8.6 0 11.9z" p-id="35298" fill="#ffffff"></path><path d="M514 550.1l-127 127c-1.7 1.7-3 3.7-3.9 5.9h50.8l106.5-106.5c7.3-7.3 7.3-19.1 0-26.4-7.3-7.2-19.1-7.2-26.4 0z" p-id="35299" fill="#ffffff"></path></svg>