<?xml version="1.0" standalone="no"?><!DOCTYPE svg PUBLIC "-//W3C//DTD SVG 1.1//EN" "http://www.w3.org/Graphics/SVG/1.1/DTD/svg11.dtd"><svg t="1719302506325" class="icon" viewBox="0 0 1069 1024" version="1.1" xmlns="http://www.w3.org/2000/svg" p-id="4799" xmlns:xlink="http://www.w3.org/1999/xlink" width="208.7890625" height="200"><path d="M637.345745 379.345455c-11.636364 0-20.945455 9.309091-23.272727 20.945454-9.309091 32.581818-39.563636 58.181818-74.472727 58.181818-34.909091 0-65.163636-25.6-74.472727-58.181818-2.327273-11.636364-11.636364-20.945455-23.272728-20.945454-16.290909 0-27.927273 16.290909-23.272727 30.254545 13.963636 55.854545 62.836364 97.745455 123.345455 97.745455s109.381818-41.890909 123.345454-97.745455c0-13.963636-11.636364-30.254545-27.927273-30.254545z" fill="#ffffff" p-id="4800"></path><path d="M965.4912 712.145455c83.781818-53.527273 128-162.909091 90.763636-269.963637-27.927273-76.8-95.418182-134.981818-176.872727-146.618182-25.6-4.654545-51.2-2.327273-74.472727 2.327273-23.272727-130.327273-132.654545-228.072727-267.636364-228.072727-132.654545 0-244.363636 100.072727-265.309091 228.072727-25.6-6.981818-53.527273-6.981818-81.454545-2.327273-79.127273 11.636364-148.945455 69.818182-176.872727 146.618182-37.236364 104.727273 4.654545 214.109091 90.763636 269.963637 2.327273 2.327273 2.327273 4.654545 0 6.981818-44.218182 46.545455-69.818182 121.018182-74.472727 209.454545 0 13.963636 11.636364 25.6 23.272727 25.6 13.963636 0 23.272727-9.309091 23.272727-23.272727 4.654545-97.745455 34.909091-169.890909 88.436364-200.145455 6.981818-2.327273 13.963636-11.636364 13.963636-20.945454s-4.654545-16.290909-11.636363-20.945455c-62.836364-23.272727-111.709091-81.454545-118.69091-151.272727-9.309091-104.727273 72.145455-195.490909 174.545455-195.490909 16.290909 0 30.254545 2.327273 44.218182 6.981818 2.327273 111.709091 69.818182 209.454545 167.563636 249.018182-72.145455 46.545455-130.327273 146.618182-134.981818 330.472727 0 13.963636 11.636364 25.6 25.6 25.6 13.963636 0 23.272727-11.636364 25.6-25.6 4.654545-193.163636 76.8-309.527273 188.509091-309.527273 97.745455 0 197.818182 95.418182 204.8 309.527273 0 13.963636 11.636364 25.6 25.6 25.6 13.963636 0 25.6-11.636364 25.6-25.6-4.654545-176.872727-69.818182-283.927273-148.945455-330.472727 97.745455-41.890909 165.236364-137.309091 167.563637-251.345455 11.636364-2.327273 25.6-4.654545 37.236363-4.654545 102.4 0 183.854545 88.436364 174.545455 195.490909-6.981818 69.818182-53.527273 125.672727-118.690909 151.272727-6.981818 4.654545-11.636364 11.636364-11.636364 20.945455s4.654545 18.618182 13.963637 20.945454c51.2 32.581818 83.781818 104.727273 88.436363 200.145455 0 13.963636 11.636364 23.272727 23.272727 23.272727 13.963636 0 25.6-11.636364 23.272728-25.6-4.654545-90.763636-30.254545-162.909091-74.472728-209.454545-6.981818-2.327273-6.981818-6.981818-4.654545-6.981818z m-428.218182-141.963637c-121.018182 0-221.090909-100.072727-221.090909-225.745454s100.072727-225.745455 221.090909-225.745455 221.090909 100.072727 221.090909 225.745455-97.745455 225.745455-221.090909 225.745454z" fill="#ffffff" p-id="4801"></path></svg>