<?xml version="1.0" standalone="no"?><!DOCTYPE svg PUBLIC "-//W3C//DTD SVG 1.1//EN" "http://www.w3.org/Graphics/SVG/1.1/DTD/svg11.dtd"><svg t="1713337001826" class="icon" viewBox="0 0 1024 1024" version="1.1" xmlns="http://www.w3.org/2000/svg" p-id="66012" xmlns:xlink="http://www.w3.org/1999/xlink" width="200" height="200"><path d="M515.150769 933.612308l-189.636923-224.295385-189.046154-224.886154-18.904615-22.646154 13.784615-26.387692 95.113846-179.593846 12.603077-23.236923h619.716923l12.603077 23.236923 95.113847 179.593846 13.784615 26.387692-18.904615 22.646154-189.243077 224.492308-189.636923 224.886154-33.476924 39.581538-33.870769-39.778461z m258.953846-136.664616l-7.483077 92.553846-79.36 38.4 92.553847 7.483077 38.4 79.36 7.483077-92.553846 79.36-38.4-92.553847-7.483077-38.4-79.36zM225.476923 9.058462L159.310769 111.064615 43.323077 106.141538l102.006154 66.166154-5.12 115.987693 66.166154-102.006154 115.987692 4.332307-102.006154-65.575384 5.12-115.987692z m91.175385 311.72923l103.384615 108.898462 96.295385-108.898462H316.652308z m272.738461 0l86.252308 108.898462 102.596923-108.307692h-189.046154v-0.59077h0.196923z m221.144616 8.861539l-104.566154 110.867692h163.84l-59.273846-110.867692z m-163.84 110.867692l-93.144616-117.169231-102.596923 117.169231h195.741539z m-257.575385 0l-102.596923-108.898461-63.606154 119.138461 170.141539 201.649231 98.855384 117.169231-112.049231-232.369231 26.387693-12.603077 142.966154 295.975385 142.966153-295.975385 26.387693 12.603077L606.523077 768.590769l98.264615-116.578461 154.387693-182.744616H346.387692v-29.538461h42.732308v0.787692z" fill="#fdb043" p-id="66013"></path></svg>