<?xml version="1.0" standalone="no"?><!DOCTYPE svg PUBLIC "-//W3C//DTD SVG 1.1//EN" "http://www.w3.org/Graphics/SVG/1.1/DTD/svg11.dtd"><svg t="1713338280834" class="icon" viewBox="0 0 1024 1024" version="1.1" xmlns="http://www.w3.org/2000/svg" p-id="87509" xmlns:xlink="http://www.w3.org/1999/xlink" width="200" height="200"><path d="M167.997 329.85H67.584v168.04h891.392V329.85H167.997z" fill="#FDE466" p-id="87510"></path><path d="M852.429 331.899V129.034c55.327 10.24 102.461 61.471 102.461 120.894v81.97H852.43zM67.584 249.928c0-59.423 45.076-108.606 100.403-118.846v204.913H67.594v-86.057z" fill="#FDE670" p-id="87511"></path><path d="M448.737 397.476H163.901V215.1h284.836v182.375z m127.048 2.048V215.1h278.692v184.423H575.785z" fill="#F2573B" p-id="87512"></path><path d="M448.737 129.024v202.875l127.048-2.048V129.024H448.737z" fill="#FFA371" p-id="87513"></path><path d="M575.785 215.101v-88.125h258.202c4.096 0 12.288 0 20.48 2.048v86.067H575.795z m-407.788-86.077h282.788v86.067H167.997v-86.067z" fill="#E1462A" p-id="87514"></path><path d="M67.584 774.523c0 67.615 53.279 118.845 122.952 118.845h647.547c69.673 0 122.951-47.124 122.951-116.797V473.293H67.584v301.23z" fill="#F9C45A" p-id="87515"></path><path d="M165.95 616.735H860.63v-45.087H165.949v45.087z" fill="#D7341F" p-id="87516"></path><path d="M165.95 801.167H860.63V616.745H165.949v184.422z" fill="#EB492C" p-id="87517"></path><path d="M524.554 313.457c86.067 0 155.74 69.673 155.74 155.75 0 8.192-1.024 15.872-2.048 23.552s-2.048 15.37-2.048 23.573l-196.72-194.673c12.288-6.144 28.682-8.192 45.076-8.192z m-4.096 311.48c-86.067 0-155.74-69.673-155.74-155.74 0-40.98 14.346-77.865 40.99-106.558l221.308 221.317c-28.693 24.576-67.625 40.981-106.558 40.981z" fill="#FCD134" p-id="87518"></path><path d="M672.092 512.236l-196.71-194.673c-26.645 8.192-53.29 22.538-71.731 43.028l219.269 219.27c24.586-14.347 40.98-38.943 49.172-67.625" fill="#FFE786" p-id="87519"></path><path d="M436.439 469.197c0-47.135 38.933-86.067 84.02-86.067 45.076 0 84.018 38.932 84.018 86.067s-38.942 86.067-84.019 86.067c-45.086 0-84.019-38.943-84.019-86.067z" fill="#E56049" p-id="87520"></path><path d="M563.487 292.966c75.827 0 137.298-61.48 137.298-137.298 0 75.817 63.529 137.298 137.298 137.298-75.817 0-137.298 61.471-137.298 137.298 0-75.827-59.423-137.298-137.298-137.298zM276.603 188.785v-0.328 0.328z m0 0c-0.174 75.673-61.583 136.97-137.298 136.97 77.875 0 137.298 61.47 137.298 137.288 0-75.817 61.48-137.288 137.298-137.288-75.715-2.048-137.114-63.345-137.298-136.98z" fill="#FFFFFF" p-id="87521"></path></svg>