<?xml version="1.0" standalone="no"?><!DOCTYPE svg PUBLIC "-//W3C//DTD SVG 1.1//EN" "http://www.w3.org/Graphics/SVG/1.1/DTD/svg11.dtd"><svg t="1712817837731" class="icon" viewBox="0 0 1024 1024" version="1.1" xmlns="http://www.w3.org/2000/svg" p-id="6260" xmlns:xlink="http://www.w3.org/1999/xlink" width="200" height="200"><path d="M646.582857 250.660571a48.493714 48.493714 0 0 0 48.786286-17.700571 750.153143 750.153143 0 0 0 51.2-73.142857 95.890286 95.890286 0 0 0 8.557714-74.825143 95.085714 95.085714 0 0 0-48.054857-57.636571A184.758857 184.758857 0 0 0 583.68 2.267429c-43.885714 6.875429-79.945143 58.514286-129.682286 64S356.498286 31.305143 323.803429 33.792c-52.150857 3.437714-77.531429 72.411429-48.786286 126.098286a749.787429 749.787429 0 0 0 52.150857 73.142857 48.493714 48.493714 0 0 0 48.786286 17.700571 620.470857 620.470857 0 0 1 269.165714 0zM512 334.409143c-288.182857 0-438.857143 203.922286-438.857143 404.845714 0 122.148571 45.348571 284.672 438.857143 284.672s438.857143-162.523429 438.857143-284.672c0-200.923429-150.674286-404.845714-438.857143-404.845714z m8.777143 308.809143c108.763429 26.112 125.293714 87.771429 125.293714 121.636571a114.322286 114.322286 0 0 1-97.499428 109.714286v13.312a36.571429 36.571429 0 1 1-73.142858 0v-11.849143a117.906286 117.906286 0 0 1-97.499428-117.028571h73.142857c0 29.257143 24.868571 49.225143 64.877714 49.225142s57.051429-16.749714 57.051429-39.862857-38.034286-42.861714-69.705143-49.225143c-108.763429-26.112-125.293714-87.771429-125.293714-121.636571a114.322286 114.322286 0 0 1 97.499428-109.714286v-12.873143a36.571429 36.571429 0 1 1 73.142857 0v14.628572a117.906286 117.906286 0 0 1 97.499429 117.028571h-73.142857c0-29.257143-24.868571-49.225143-64.877714-49.225143s-57.051429 16.749714-57.051429 39.862858 38.034286 38.180571 69.705143 45.933714z" fill="#ffffff" p-id="6261"></path></svg>