<?xml version="1.0" standalone="no"?><!DOCTYPE svg PUBLIC "-//W3C//DTD SVG 1.1//EN" "http://www.w3.org/Graphics/SVG/1.1/DTD/svg11.dtd"><svg t="1716283067963" class="icon" viewBox="0 0 1024 1024" version="1.1" xmlns="http://www.w3.org/2000/svg" p-id="10845" xmlns:xlink="http://www.w3.org/1999/xlink" width="200" height="200"><path d="M508.110848 93.0816c232.774656 0 422.198272 189.423616 422.198272 422.197248S740.885504 937.476096 508.110848 937.476096c-232.773632 0-422.197248-189.422592-422.197248-422.197248S275.337216 93.0816 508.110848 93.0816M508.110848 32.768c-266.464256 0-482.510848 216.046592-482.510848 482.511872s216.046592 482.510848 482.510848 482.510848c266.466304 0 482.51392-216.045568 482.51392-482.510848S774.576128 32.768 508.110848 32.768L508.110848 32.768zM508.110848 153.396224c-199.907328 0-361.882624 161.97632-361.882624 361.883648 0 199.84896 161.975296 361.883648 361.882624 361.883648 199.846912 0 361.883648-162.034688 361.883648-361.883648C869.994496 315.372544 707.95776 153.396224 508.110848 153.396224zM639.694848 701.581312c-23.737344 26.622976-58.016768 42.292224-102.84032 47.003648l0 68.262912-57.135104 0 0-67.910656c-74.744832-7.658496-120.981504-51.126272-138.8288-130.287616l88.35072-23.02976c8.188928 49.770496 35.282944 74.627072 81.283072 74.627072 21.497856 0 37.402624-5.301248 47.53408-15.962112s15.19616-23.501824 15.19616-38.580224c0-15.607808-5.064704-27.450368-15.19616-35.460096-10.131456-8.067072-32.692224-18.258944-67.617792-30.62784-31.393792-10.894336-55.957504-21.61664-73.627648-32.334848-17.670144-10.602496-32.041984-25.503744-43.056128-44.648448-11.014144-19.203072-16.550912-41.58464-16.550912-67.028992 0-33.39776 9.894912-63.495168 29.569024-90.235904 19.673088-26.681344 50.654208-42.99776 92.945408-48.9472l0-52.712448 57.135104 0 0 52.71552c63.847424 7.658496 105.194496 43.763712 123.982848 108.376064l-78.68928 32.277504c-15.373312-44.29312-39.052288-66.439168-71.209984-66.439168-16.141312 0-29.099008 4.947968-38.815744 14.84288-9.7792 9.894912-14.666752 21.910528-14.666752 35.98848 0 14.37184 4.712448 25.387008 14.13632 33.102848 9.365504 7.65952 29.568 17.140736 60.43136 28.50816 33.926144 12.370944 60.54912 24.090624 79.809536 35.104768 19.318784 11.014144 34.692096 26.27072 46.235648 45.646848 11.486208 19.438592 17.258496 42.116096 17.258496 68.088832C675.328 641.79712 663.42912 675.017728 639.694848 701.581312z" fill="#ffffff" p-id="10846"></path></svg>