<?xml version="1.0" standalone="no"?><!DOCTYPE svg PUBLIC "-//W3C//DTD SVG 1.1//EN" "http://www.w3.org/Graphics/SVG/1.1/DTD/svg11.dtd"><svg t="1712824580740" class="icon" viewBox="0 0 1024 1024" version="1.1" xmlns="http://www.w3.org/2000/svg" p-id="16160" xmlns:xlink="http://www.w3.org/1999/xlink" width="200" height="200"><path d="M217.131608 816.798427h35.829926l74.731846-125.303742H577.479865a20.473958 20.473958 0 1 1 0-40.947915H315.408405a20.473958 20.473958 0 0 0-17.607964 10.031979l-98.276797 166.251657v1.637997a20.473958 20.473958 0 0 1 17.607964-11.669976z m367.105243 186.521616a20.473958 20.473958 0 0 1 20.474958-20.474958H249.89054c-31.734935 0-42.381913-8.598982-44.633908-11.874976L233.100575 857.542343h-15.969967a20.473958 20.473958 0 0 1-20.473958-20.473958 20.473958 20.473958 0 0 1 1.432997-6.756986v1.842996l-34.19293 133.082726a20.473958 20.473958 0 0 0 0 4.91399c0 2.251995 0 53.642889 85.992823 53.642889h354.821269a20.473958 20.473958 0 0 1-20.474958-20.473957z m242.417501-170.961648v-1.841996a20.473958 20.473958 0 0 1 1.432997 6.755986 20.473958 20.473958 0 0 1-20.474958 20.474958h-15.969967l27.435943 112.608768c-2.661995 4.70999-13.717972 12.693974-44.429908 12.693973a20.473958 20.473958 0 0 1 0 40.948916c85.378824-0.205 85.378824-51.595894 85.378824-53.847889a20.473958 20.473958 0 0 0 0-4.91399zM653.849708 650.54677H642.99973a20.473958 20.473958 0 0 1 12.284975 4.70899 20.473958 20.473958 0 0 1-1.433997-4.70999z m20.269958 18.630961a20.473958 20.473958 0 0 1-11.669976-4.094991 20.473958 20.473958 0 0 1 1.227997 5.937987 20.473958 20.473958 0 0 1-20.473957 20.473958h53.02789L770.349468 816.799427h36.443925a20.473958 20.473958 0 0 1 18.222962 11.669976v-1.637997L726.738558 660.579749a20.473958 20.473958 0 0 0-17.607964-10.031979H694.799623a20.473958 20.473958 0 0 1-20.678957 18.630961z m-117.113759 1.842996a20.473958 20.473958 0 0 0 20.474958 20.473958h65.517865a20.473958 20.473958 0 0 0 20.473958-20.473958 20.473958 20.473958 0 0 0-1.227998-5.937987 20.473958 20.473958 0 0 1-6.960985-9.82698 20.473958 20.473958 0 0 0-11.669976-4.094992H577.479865a20.473958 20.473958 0 0 0-20.474958 19.859959z m237.503511 332.299316a20.473958 20.473958 0 0 0-20.474958-20.474958H604.711809a20.473958 20.473958 0 1 0 0 40.949915h169.322651a20.473958 20.473958 0 0 0 20.474958-20.474957z m30.506937-175.05564v2.046996z m-54.052889-11.465976H252.961534l-16.583966 28.254942-3.275993 12.693974h557.72185l-3.069993-12.693974-16.789966-28.254942zM198.090647 830.311399v-2.046996z m19.040961 27.435944h15.969967l3.070993-12.693974 16.789966-28.254942H217.130608a20.473958 20.473958 0 0 0-18.221963 11.669976v2.047996a20.473958 20.473958 0 0 0-1.432997 6.755986 20.473958 20.473958 0 0 0 19.65496 20.474958z m589.661785-40.949916h-35.829927l16.789966 28.255942 3.069993 12.693974h15.969968a20.473958 20.473958 0 0 0 20.474957-20.474958 20.473958 20.473958 0 0 0-1.432997-6.755986v-2.047996a20.473958 20.473958 0 0 0-19.04196-11.669976zM245.795549 918.557217a20.473958 20.473958 0 1 0 40.948915 0 20.473958 20.473958 0 1 0-40.948915 0z m81.897831 0a20.473958 20.473958 0 1 0 40.948915 0 20.473958 20.473958 0 1 0-40.949915 0z m689.986578-441.223091L547.997926 15.021079a50.980895 50.980895 0 0 0-72.274851 0L290.225457 197.857702v47.909902a20.473958 20.473958 0 0 1-5.937988 14.53697L504.592015 44.300019a10.441978 10.441978 0 0 1 14.74097 0l469.683032 462.107048a20.473958 20.473958 0 1 0 28.663941-29.27894zM249.276541 245.767604v-8.599983l-63.469869 61.423874v36.853924a20.473958 20.473958 0 0 1-20.474958 20.474958 20.473958 20.473958 0 0 1-20.474957-17.607964L6.245042 477.332126a20.473958 20.473958 0 1 0 28.664941 29.27994l249.172487-245.693494a20.473958 20.473958 0 0 1-34.805929-15.149968zM542.059938 141.143819a42.586912 42.586912 0 0 0-60.194876 0L143.423759 474.876131a20.473958 20.473958 0 0 0-6.141987 14.536971v230.131525a20.473958 20.473958 0 0 0 40.948916 0V498.217083l332.913314-327.589325a1.842996 1.842996 0 0 1 2.660994 0l333.119314 327.589325v221.327544a20.473958 20.473958 0 0 0 40.947915 0V489.618101a20.473958 20.473958 0 0 0-6.141987-14.53697z m-356.254266-16.379966h63.469869v113.223767l40.949916-40.948916v-92.749809a20.473958 20.473958 0 0 0-20.474958-20.472958H165.330714a20.473958 20.473958 0 0 0-20.473957 20.473958v233.20352a19.24596 19.24596 0 0 0 0 2.865994l40.949915-39.719918z m98.276798 136.359719z m-118.750756 96.8438a20.473958 20.473958 0 0 0 20.473958-20.473957v-36.853924l-40.948915 39.719918a20.473958 20.473958 0 0 0 20.474957 17.607963z m124.893743-160.10967l-40.949916 40.948916v6.960986a20.473958 20.473958 0 0 0 35.011928 14.53697 20.473958 20.473958 0 0 0 5.937988-14.53697zM670.229674 490.2321a20.473958 20.473958 0 1 0 32.144934-25.387948 239.345507 239.345507 0 0 0-381.233215 8.189983 20.473958 20.473958 0 0 0 33.168932 23.953951 198.396591 198.396591 0 0 1 316.124349-6.755986z m-78.007839 39.105919a20.473958 20.473958 0 0 0 30.916936-26.821944 145.5727 145.5727 0 0 0-222.761541 3.275993 20.473958 20.473958 0 0 0 31.734935 26.616945 104.623784 104.623784 0 0 1 160.10967-2.251995z m-110.970772 38.696921a30.711937 30.711937 0 1 0 61.422874 0 30.711937 30.711937 0 1 0-61.422874 0z m213.342561 80.668833v-79.235836a20.473958 20.473958 0 0 0-40.947916 0v79.235836a18.835961 18.835961 0 0 0 0 1.842997h40.947916a18.835961 18.835961 0 0 0 0-1.842997z m-32.349934 16.174967a20.473958 20.473958 0 0 0 11.670976 4.094992 20.473958 20.473958 0 0 0 20.474958-18.631962h-40.949915a20.473958 20.473958 0 0 0 0 4.094992 20.473958 20.473958 0 0 1 8.804981 10.441978z m-6.959985-9.62298a20.473958 20.473958 0 0 0 7.574984 10.236979 20.473958 20.473958 0 0 0-7.574984-10.236979z" p-id="16161" fill="#dbdbdb"></path></svg>