<?xml version="1.0" standalone="no"?><!DOCTYPE svg PUBLIC "-//W3C//DTD SVG 1.1//EN" "http://www.w3.org/Graphics/SVG/1.1/DTD/svg11.dtd"><svg t="1712824634242" class="icon" viewBox="0 0 1024 1024" version="1.1" xmlns="http://www.w3.org/2000/svg" p-id="16366" xmlns:xlink="http://www.w3.org/1999/xlink" width="200" height="200"><path d="M957.704258 413.580387L541.184 128.330323a43.272258 43.272258 0 0 0-50.010839 0l-130.675613 88.526451V125.588645c0-14.567226-11.528258-26.508387-25.633032-26.508387h-102.598193c-14.03871 0-25.583484 11.941161-25.583484 26.442323v195.468387l-134.639484 91.334193c-6.408258 3.963871-7.696516 11.941161-3.782194 18.597162 2.642581 3.930839 6.408258 6.639484 10.256516 6.639483a9.249032 9.249032 0 0 0 6.408258-2.708645l44.890839-30.323613v466.86142c0 37.095226 28.209548 66.312258 64.049549 66.312258h640.825806c35.84 0 64.066065-29.217032 64.066065-66.312258V405.256258l44.874322 30.901677c6.424774 3.930839 14.03871 2.708645 17.953032-3.930838 3.848258-6.705548 2.510452-14.583742-3.897806-18.64671zM678.532129 623.434323l-117.46271 127.851354a59.771871 59.771871 0 0 1-45.766193 20.463484c-18.283355 0-35.014194-7.878194-47.269161-20.463484l-112.77213-123.078193a99.195871 99.195871 0 0 1-25.847741-72.637936c1.486452-48.970323 38.086194-93.150968 85.404903-99.476645a99.476645 99.476645 0 0 1 57.443097 8.373678 100.236387 100.236387 0 0 1 43.156645 39.044129c6.094452-9.480258 13.724903-18.910968 21.355355-25.286194a96.784516 96.784516 0 0 1 83.918451-22.131613 100.814452 100.814452 0 0 1 50.968774 28.490323 101.821935 101.821935 0 0 1 26.805678 52.075355c5.962323 31.496258-0.049548 61.555613-19.934968 86.775742z" fill="#ffffff" opacity=".3" p-id="16367"></path></svg>