<?xml version="1.0" standalone="no"?><!DOCTYPE svg PUBLIC "-//W3C//DTD SVG 1.1//EN" "http://www.w3.org/Graphics/SVG/1.1/DTD/svg11.dtd"><svg t="1712824365353" class="icon" viewBox="0 0 1024 1024" version="1.1" xmlns="http://www.w3.org/2000/svg" p-id="15942" xmlns:xlink="http://www.w3.org/1999/xlink" width="200" height="200"><path d="M854.61396 745.678606c-20.142409 20.144542-5.68338 54.607362 22.618358 54.607362 28.278279 0 42.786359-34.441494 22.620491-54.607362-12.49917-12.503435-32.735414-12.505568-45.238849 0z m101.036202-55.79522a17.060802 17.060802 0 0 1-24.128239 24.128239c-30.00142-30.003553-78.569258-30.005686-108.572812 0a17.060802 17.060802 0 1 1-24.128239-24.128239c43.33657-43.33657 113.48419-43.347233 156.82929 0z m51.269843-34.211173a17.005354 17.005354 0 0 1-12.06412-4.996683c-65.005921-65.010186-170.23055-65.014451-235.242869 0a17.060802 17.060802 0 0 1-24.128239-24.128239c78.347468-78.345335 205.145481-78.351733 283.50148 0 10.761101 10.763233 3.021895 29.122789-12.066252 29.124922z m-138.94957 213.537263c0 56.443531-45.919149 102.364812-102.364812 102.364812h-552.343465c-56.445663 0-102.364812-45.921281-102.364812-102.364812V352.073108l-84.54907 54.854744a17.060802 17.060802 0 0 1-23.597222-5.026539 17.060802 17.060802 0 0 1 5.024407-23.597222L405.368921 120.342632c50.120371-32.517889 114.883176-32.517889 165.003547 0l99.266144 64.404528V86.545183a17.060802 17.060802 0 0 1 0-34.121604h181.271021a17.060802 17.060802 0 0 1 0 34.121604h-2.1326v115.160414a17.060802 17.060802 0 0 1-34.121604 0v-115.160414h-110.895213v120.3405l264.205712 171.418408c14.250035 9.244822 7.592057 31.374815-9.302402 31.374815-7.481162 0 19.496232 15.913463-406.861741-260.712513-38.834651-25.194539-89.019-25.196672-127.857916 0L145.01895 329.934585v539.274891c0 37.629731 30.613477 68.243208 68.243208 68.243208h405.194048V654.82557c0-20.547603-16.717453-37.262924-37.265057-37.262924h-185.64925c-20.547603 0-37.265057 16.715321-37.265057 37.262924v212.251306a17.060802 17.060802 0 0 1-34.121604 0v-212.251306c0-39.361403 32.025258-71.384528 71.386661-71.384528h185.64925c39.361403 0 71.386661 32.023125 71.386661 71.384528v282.627114h113.027813c37.629731 0 68.243208-30.613477 68.243208-68.243208a17.060802 17.060802 0 0 1 34.121604 0z m-17.060802-456.376454a17.060802 17.060802 0 0 1 17.060802 17.060802v69.309508a17.060802 17.060802 0 0 1-34.121604 0v-69.309508a17.060802 17.060802 0 0 1 17.060802-17.060802z" p-id="15943" fill="#ffffff"></path></svg>