<?xml version="1.0" standalone="no"?><!DOCTYPE svg PUBLIC "-//W3C//DTD SVG 1.1//EN" "http://www.w3.org/Graphics/SVG/1.1/DTD/svg11.dtd"><svg t="1716792806229" class="icon" viewBox="0 0 1024 1024" version="1.1" xmlns="http://www.w3.org/2000/svg" p-id="7620" xmlns:xlink="http://www.w3.org/1999/xlink" width="200" height="200"><path d="M512 1023.488C229.888 1023.488 0.512 794.112 0.512 512S229.888 0.512 512 0.512c76.8 0 152.064 16.896 221.184 50.176 12.8 6.144 18.432 22.016 12.288 34.816-6.144 12.8-22.016 18.432-34.816 12.288-61.952-29.696-130.048-45.056-198.656-45.056-253.44 0-459.264 206.336-459.264 459.264s206.336 459.264 459.264 459.264 459.264-206.336 459.264-459.264c0-61.952-12.288-123.392-36.864-180.224-5.632-13.312 0.512-28.672 13.824-34.304 13.312-5.632 28.672 0.512 34.304 13.824 27.136 63.488 40.96 131.584 40.96 200.704 0 282.112-229.376 511.488-511.488 511.488z" fill="#ffd602" p-id="7621"></path><path d="M680.96 288.256H342.528c-7.168 0-12.8-5.632-12.8-12.8s5.632-12.8 12.8-12.8H680.96c7.168 0 12.8 5.632 12.8 12.8 0.512 6.656-5.632 12.8-12.8 12.8z m16.896 472.576H326.144c-7.68 0-13.824-6.144-13.824-13.824 0-7.68 6.144-13.824 13.824-13.824h371.712c7.68 0 13.824 6.144 13.824 13.824 0 7.68-6.144 13.824-13.824 13.824z m0 0" fill="#ffd602" p-id="7622"></path><path d="M645.12 589.824v-1.024c-21.504-37.376-50.176-61.952-80.384-76.288 30.208-15.36 58.368-38.912 80.384-76.288V435.2c21.504-36.864 35.84-87.552 38.4-154.624h-24.576c-2.048 61.952-15.36 108.544-34.816 142.336l-0.512 0.512c-24.576 43.008-51.712 66.56-87.04 77.312l-1.536 0.512h-0.512c-1.024 0.512-1.024 1.024-2.048 1.024l-2.048 2.048v0.512c-0.512 0.512-1.024 1.024-1.024 2.048l-0.512 0.512-1.024 3.072v4.608l1.024 3.072 0.512 0.512c0.512 1.024 1.024 1.024 1.024 2.048v0.512l1.024 1.024v-0.512l1.024 0.512 0.512 0.512c0.512 0.512 1.024 1.024 2.048 1.024h0.512l1.536 1.024c35.84 11.264 62.464 33.792 87.552 76.8l0.512 1.024c10.752 17.408 18.432 38.912 24.576 64 1.024 7.168 5.632 22.528 6.656 43.008-19.968-17.408-74.24-30.208-139.776-31.232V483.328c1.024 0 1.024-0.512 2.048-1.024v-0.512l3.584-1.024h1.024c24.064-7.68 43.008-19.456 58.88-34.816 16.896-16.896 29.696-37.376 38.4-60.416 2.56-6.144-0.512-13.312-7.168-15.872-6.144-2.56-13.312 0.512-15.872 6.656v0.512c-7.68 19.456-18.432 37.376-32.768 51.712-12.8 12.8-28.672 22.528-48.128 28.672l-0.512 0.512-1.024 0.512-2.048 0.512-1.024-0.512-1.024-0.512-1.024-0.512c-19.456-6.144-35.84-15.872-48.128-28.672-14.848-14.336-25.088-31.744-32.768-51.712-2.56-6.144-9.728-9.728-15.36-7.168-6.144 2.56-9.216 9.216-7.168 15.872 8.704 23.04 21.504 43.52 38.4 60.416 15.36 15.36 34.816 27.136 58.368 34.816h0.512l3.584 1.024 1.024 0.512c0.512 0.512 1.024 0.512 1.536 1.024v194.048c-61.44 0-114.688 10.752-139.776 25.088 1.024-10.24 3.072-20.992 6.656-36.864 6.144-25.088 14.848-46.08 24.576-64l0.512-1.024c24.576-43.008 51.712-65.536 87.552-76.8l1.024-1.024h0.512c1.024-0.512 1.024-1.024 2.048-1.024l0.512-0.512 1.024-0.512v-0.512l1.024-1.024v-0.512c0.512-0.512 1.024-1.024 1.024-2.048v0.512c0.512-1.024 1.024-2.048 1.024-3.072v-4.096c0-1.024-0.512-2.048-1.024-3.072v-0.512c-0.512-1.024-1.024-1.536-1.024-2.048v-0.512l-1.536-1.536-1.024 0.512c-1.024-0.512-1.024-1.024-2.048-1.024h-0.512l-1.024-0.512c-35.84-10.752-62.976-33.792-87.552-77.312l-0.512-0.512c-19.456-33.792-32.256-80.384-34.816-142.336h-24.576c2.56 67.072 16.896 117.248 38.4 154.624l0.512 1.024c21.504 37.376 50.176 61.44 80.384 76.288-30.208 14.848-58.368 38.912-80.384 76.288l-0.512 1.024c-19.968 35.328-34.304 82.432-37.376 144.896h342.528c-5.632-63.488-19.456-110.08-40.448-145.408z m0 0" fill="#ffd602" p-id="7623"></path></svg>