<?xml version="1.0" standalone="no"?><!DOCTYPE svg PUBLIC "-//W3C//DTD SVG 1.1//EN" "http://www.w3.org/Graphics/SVG/1.1/DTD/svg11.dtd"><svg t="1718630838452" class="icon" viewBox="0 0 1024 1024" version="1.1" xmlns="http://www.w3.org/2000/svg" p-id="9234" xmlns:xlink="http://www.w3.org/1999/xlink" width="200" height="200"><path d="M290.1353 273.0824l204.7988 0c9.437945 0 17.0659-7.645955 17.0659-17.0659s-7.627955-17.0659-17.0659-17.0659l-204.7988 0c-9.437945 0-17.0659 7.645955-17.0659 17.0659S280.697355 273.0824 290.1353 273.0824z" p-id="9235" fill="#4bd5fd"></path><path d="M392.5347 546.1468 256.0015 546.1468c-9.437945 0-17.0659 7.645955-17.0659 17.0659 0 9.419945 7.627955 17.0659 17.0659 17.0659l136.5332 0c9.437945 0 17.0659-7.645955 17.0659-17.0659C409.6006 553.792755 401.972645 546.1468 392.5347 546.1468z" p-id="9236" fill="#4bd5fd"></path><path d="M341.335 460.8153c0-9.419945-7.627955-17.0659-17.0659-17.0659l-102.3994 0c-9.437945 0-17.0659 7.645955-17.0659 17.0659s7.627955 17.0659 17.0659 17.0659l102.3994 0C333.705045 477.8812 341.335 470.235245 341.335 460.8153z" p-id="9237" fill="#4bd5fd"></path><path d="M221.8677 375.4818 460.8003 375.4818c9.437945 0 17.0659-7.645955 17.0659-17.0659 0-9.419945-7.627955-17.0659-17.0659-17.0659L221.8677 341.35c-9.437945 0-17.0659 7.645955-17.0659 17.0659C204.8018 367.835845 212.429755 375.4818 221.8677 375.4818z" p-id="9238" fill="#4bd5fd"></path><path d="M529.0659 546.1468 460.8003 546.1468c-9.437945 0-17.0659 7.645955-17.0659 17.0659 0 9.419945 7.627955 17.0659 17.0659 17.0659l68.2656 0c9.437945 0 17.0659-7.645955 17.0659-17.0659C546.1338 553.792755 538.503845 546.1468 529.0659 546.1468z" p-id="9239" fill="#4bd5fd"></path><path d="M772.624473 676.110038c-6.655961 6.655961-6.655961 17.475898 0 24.131859l36.215788 36.215788c3.327981 3.34598 7.697955 4.999971 12.065929 4.999971 4.351975 0 8.721949-1.65599 12.065929-4.999971 6.655961-6.655961 6.655961-17.459898 0-24.131859l-36.197788-36.215788C790.100371 669.454077 779.296434 669.454077 772.624473 676.110038z" p-id="9240" fill="#4bd5fd"></path><path d="M998.995147 878.348853l-119.603299-119.585299c-3.191981-3.207981-7.525956-4.999971-12.065929-4.999971l-0.016 0c-4.521974 0-8.873948 1.809989-12.083929 5.017971l-48.127718 48.401716c-6.655961 6.689961-6.621961 17.475898 0.068 24.131859 6.707961 6.655961 17.493897 6.637961 24.131859-0.068l36.061789-36.249788 107.50137 107.48537c9.659943 9.675943 15.001912 22.527868 15.001912 36.197788s-5.341969 26.537845-15.001912 36.197788c-19.949883 19.949883-52.411693 19.983883-72.395576 0.018l-202.238815-202.238815c-6.655961-6.655961-17.459898-6.655961-24.131859 0-6.655961 6.673961-6.655961 17.475898 0 24.149858l202.238815 202.220815c16.621903 16.639903 38.467775 24.951854 60.313647 24.951854s43.723744-8.327951 60.347646-24.951854c16.109906-16.127906 25.001854-37.54578 25.001854-60.347646C1023.997 915.894633 1015.105052 894.458759 998.995147 878.348853z" p-id="9241" fill="#4bd5fd"></path><path d="M819.1982 409.6156c0-225.842677-183.754923-409.5976-409.5976-409.5976S0.003 183.772923 0.003 409.6156s183.754923 409.5976 409.5976 409.5976S819.1982 635.456277 819.1982 409.6156zM409.6006 785.0794c-207.034787 0-375.4638-168.429013-375.4638-375.4638S202.565813 34.1498 409.6006 34.1498s375.4638 168.429013 375.4638 375.4638S616.635387 785.0794 409.6006 785.0794z" p-id="9242" fill="#4bd5fd"></path><path d="M409.6006 68.2836c-188.210897 0-341.332 153.121103-341.332 341.332S221.389703 750.9456 409.6006 750.9456s341.332-153.121103 341.332-341.332S597.811497 68.2836 409.6006 68.2836zM409.6006 716.8138c-169.385008 0-307.1982-137.813193-307.1982-307.1982s137.813193-307.1982 307.1982-307.1982 307.1982 137.813193 307.1982 307.1982S578.985608 716.8138 409.6006 716.8138z" p-id="9243" fill="#4bd5fd"></path><path d="M597.3335 443.7474l-204.7988 0c-9.437945 0-17.0659 7.645955-17.0659 17.0659s7.627955 17.0659 17.0659 17.0659l204.7988 0c9.437945 0 17.0659-7.645955 17.0659-17.0659S606.771445 443.7474 597.3335 443.7474z" p-id="9244" fill="#4bd5fd"></path><path d="M597.3335 341.348l-68.2656 0c-9.437945 0-17.0659 7.645955-17.0659 17.0659 0 9.419945 7.627955 17.0659 17.0659 17.0659l68.2656 0c9.437945 0 17.0659-7.645955 17.0659-17.0659C614.3994 348.993955 606.771445 341.348 597.3335 341.348z" p-id="9245" fill="#4bd5fd"></path></svg>