<?xml version="1.0" standalone="no"?><!DOCTYPE svg PUBLIC "-//W3C//DTD SVG 1.1//EN" "http://www.w3.org/Graphics/SVG/1.1/DTD/svg11.dtd"><svg t="1717471140825" class="icon" viewBox="0 0 1024 1024" version="1.1" xmlns="http://www.w3.org/2000/svg" p-id="26287" xmlns:xlink="http://www.w3.org/1999/xlink" width="200" height="200"><path d="M918.6 404.9l-44.4-264.8c-6.9-29-42.7-39.7-64.3-19.2l-44.7 42.3c-8.2 7.8-20.6 9-30.2 3-25.6-16.1-53.2-29.8-82.6-40.6C423.7 41.3 170 158.3 85.7 387c-9.2 24.9-15.9 50-20.5 75.2 105.9-181.2 329.6-266 533.4-190.9 0.1 0 0.2 0.1 0.4 0.1 17.2 6.3 21.6 28.6 8.3 41.1l-17.5 16.6c-21.7 20.5-13 56.8 15.6 65.3L869.8 451c28.6 8.6 55.7-17.1 48.8-46.1zM105.1 653.7l44.4 264.8c6.9 29 42.7 39.7 64.3 19.2l44.7-42.3c8.2-7.8 20.6-9 30.2-3 25.6 16.1 53.2 29.8 82.6 40.6C600 1017.3 853.7 900.3 938 671.6c9.2-24.9 15.9-50 20.5-75.2-105.9 181.2-329.6 266-533.4 190.9-0.1 0-0.2-0.1-0.4-0.1-17.2-6.3-21.6-28.6-8.3-41.1l17.5-16.6c21.7-20.5 13-56.8-15.6-65.3l-264.5-56.6c-28.5-8.6-55.6 17.1-48.7 46.1z" fill="#ffd07f" p-id="26288"></path></svg>