<?xml version="1.0" standalone="no"?><!DOCTYPE svg PUBLIC "-//W3C//DTD SVG 1.1//EN" "http://www.w3.org/Graphics/SVG/1.1/DTD/svg11.dtd"><svg t="1718870521905" class="icon" viewBox="0 0 1024 1024" version="1.1" xmlns="http://www.w3.org/2000/svg" p-id="10974" xmlns:xlink="http://www.w3.org/1999/xlink" width="200" height="200"><path d="M911.95387636 720.67158768H649.28393923v-145.52097562c0-27.45678784 22.88065653-50.33744441 50.33744442-50.3374444h212.33249271v195.85842002z" fill="#ffffff" p-id="10975"></path><path d="M904.63206627 738.06088665h-266.33084216c-36.60905046 0-65.89629086-31.1176929-65.89629082-70.47242214V511.08477374c0-38.43950299 29.28724036-70.47242217 65.89629082-70.47242216h266.33084216c10.06748889 0 17.38929897 8.23703635 17.38929897 17.38929897v261.75471087c0.91522626 10.06748889-7.3218101 18.30452524-17.38929897 18.30452523z m-265.4156159-261.75471085c-16.4740727 0-30.20246662 15.55884645-30.20246664 34.77859794V667.58846451c0 19.21975149 13.72839391 34.77859794 30.20246664 34.77859792H887.24276731V476.3061758h-248.02631694zM773.75471085 266.71936187H250.24528915c-24.71110907 0-43.93086055-20.13497775-43.93086056-43.93086056V120.28315999c0-23.79588279 20.13497775-43.93086055 43.93086056-43.93086058h523.5094217c24.71110907 0 43.93086055 20.13497775 43.93086056 43.93086058v102.50534132c0 23.79588279-19.21975149 43.93086055-43.93086056 43.93086056zM250.24528915 112.04612364c-4.5761313 0-8.23703635 3.66090506-8.23703635 8.23703635v102.50534132c0 4.5761313 3.66090506 8.23703635 8.23703635 8.23703634h523.5094217c4.5761313 0 8.23703635-3.66090506 8.23703635-8.23703634V120.28315999c0-4.5761313-3.66090506-8.23703635-8.23703635-8.23703635H250.24528915z" fill="#ffffff" p-id="10976"></path><path d="M703.28228869 633.72509279c-10.06748889 0-17.38929897-8.23703635-17.38929896-17.38929897v-52.16789689c0-10.06748889 8.23703635-17.38929897 17.38929896-17.38929899 10.06748889 0 17.38929897 8.23703635 17.38929899 17.38929899v52.16789689c0.91522626 9.15226261-7.3218101 17.38929897-17.38929899 17.38929897z" fill="#ffffff" p-id="10977"></path><path d="M825.92260775 947.64770059H198.07739225c-53.99834945 0-97.01398373-43.93086055-97.01398378-97.01398376V328.0395214c0-53.99834945 43.93086055-97.01398373 97.01398378-97.01398375h626.92998925c53.99834945 0 97.01398373 43.93086055 97.01398374 97.01398375V850.63371683c0.91522626 53.08312319-43.01563429 97.01398373-96.09875749 97.01398376zM198.07739225 266.71936187c-33.86337166 0-61.32015954 27.45678784-61.32015956 61.32015953V850.63371683c0 33.86337166 27.45678784 61.32015954 61.32015956 61.32015953h626.92998925c33.86337166 0 61.32015954-27.45678784 61.32015955-61.32015953V328.0395214c0-33.86337166-27.45678784-61.32015954-61.32015955-61.32015953H198.07739225z" fill="#ffffff" p-id="10978"></path><path d="M149.57040035 368.30947689h-14.64362017c-10.06748889 0-17.38929897-8.23703635-17.38929897-17.38929896 0-10.06748889 8.23703635-17.38929897 17.38929897-17.38929896h14.64362017c10.06748889 0 17.38929897 8.23703635 17.38929897 17.38929896 0 10.06748889-8.23703635 17.38929897-17.38929897 17.38929896zM790.22878357 368.30947689h-30.20246663c-10.06748889 0-17.38929897-8.23703635-17.389299-17.38929896 0-10.06748889 8.23703635-17.38929897 17.389299-17.38929896h30.20246663c10.06748889 0 17.38929897 8.23703635 17.38929897 17.38929896 0 10.06748889-7.3218101 17.38929897-17.38929897 17.38929896z m-107.08147264 0h-30.20246664c-10.06748889 0-17.38929897-8.23703635-17.38929897-17.38929896 0-10.06748889 8.23703635-17.38929897 17.38929897-17.38929896h30.20246664c10.06748889 0 17.38929897 8.23703635 17.389299 17.38929896 0.91522626 10.06748889-7.3218101 17.38929897-17.389299 17.38929896z m-106.16624634 0h-30.20246665c-10.06748889 0-17.38929897-8.23703635-17.38929897-17.38929896 0-10.06748889 8.23703635-17.38929897 17.38929897-17.38929896h30.20246665c10.06748889 0 17.38929897 8.23703635 17.38929896 17.38929896 0 10.06748889-8.23703635 17.38929897-17.38929896 17.38929896z m-107.08147261 0H438.78189905c-10.06748889 0-17.38929897-8.23703635-17.38929896-17.38929896 0-10.06748889 8.23703635-17.38929897 17.38929896-17.38929896h30.20246666c10.06748889 0 17.38929897 8.23703635 17.38929896 17.38929896 0.91522626 10.06748889-6.40658382 17.38929897-16.47407269 17.38929896z m-107.08147263 0h-30.20246665c-10.06748889 0-17.38929897-8.23703635-17.38929897-17.38929896 0-10.06748889 8.23703635-17.38929897 17.38929897-17.38929896h30.20246665c10.06748889 0 17.38929897 8.23703635 17.38929898 17.38929896 0.91522626 10.06748889-7.3218101 17.38929897-17.38929898 17.38929896z m-107.08147263 0h-30.20246663c-10.06748889 0-17.38929897-8.23703635-17.38929898-17.38929896 0-10.06748889 8.23703635-17.38929897 17.38929898-17.38929896H255.73664672c10.06748889 0 17.38929897 8.23703635 17.38929898 17.38929896 0.91522626 10.06748889-7.3218101 17.38929897-17.38929898 17.38929896zM880.83618346 368.30947689h-14.64362016c-10.06748889 0-17.38929897-8.23703635-17.38929898-17.38929896 0-10.06748889 8.23703635-17.38929897 17.38929898-17.38929896h14.64362016c10.06748889 0 17.38929897 8.23703635 17.38929898 17.38929896 0 10.06748889-7.3218101 17.38929897-17.38929898 17.38929896z" fill="#ffffff" p-id="10979"></path><path d="M149.57040035 846.05758551h-14.64362017c-10.06748889 0-17.38929897-8.23703635-17.38929897-17.38929897 0-10.06748889 8.23703635-17.38929897 17.38929897-17.38929897h14.64362017c10.06748889 0 17.38929897 8.23703635 17.38929897 17.38929897 0 9.15226261-8.23703635 17.38929897-17.38929897 17.38929897zM790.22878357 846.05758551h-30.20246663c-10.06748889 0-17.38929897-8.23703635-17.389299-17.38929897 0-10.06748889 8.23703635-17.38929897 17.389299-17.38929897h30.20246663c10.06748889 0 17.38929897 8.23703635 17.38929897 17.38929897 0 9.15226261-7.3218101 17.38929897-17.38929897 17.38929897z m-107.08147264 0h-30.20246664c-10.06748889 0-17.38929897-8.23703635-17.38929897-17.38929897 0-10.06748889 8.23703635-17.38929897 17.38929897-17.38929897h30.20246664c10.06748889 0 17.38929897 8.23703635 17.389299 17.38929897 0.91522626 9.15226261-7.3218101 17.38929897-17.389299 17.38929897z m-106.16624634 0h-30.20246665c-10.06748889 0-17.38929897-8.23703635-17.38929897-17.38929897 0-10.06748889 8.23703635-17.38929897 17.38929897-17.38929897h30.20246665c10.06748889 0 17.38929897 8.23703635 17.38929896 17.38929897 0 9.15226261-8.23703635 17.38929897-17.38929896 17.38929897z m-107.08147261 0H438.78189905c-10.06748889 0-17.38929897-8.23703635-17.38929896-17.38929897 0-10.06748889 8.23703635-17.38929897 17.38929896-17.38929897h30.20246666c10.06748889 0 17.38929897 8.23703635 17.38929896 17.38929897 0.91522626 9.15226261-6.40658382 17.38929897-16.47407269 17.38929897z m-107.08147263 0h-30.20246665c-10.06748889 0-17.38929897-8.23703635-17.38929897-17.38929897 0-10.06748889 8.23703635-17.38929897 17.38929897-17.38929897h30.20246665c10.06748889 0 17.38929897 8.23703635 17.38929898 17.38929897 0.91522626 9.15226261-7.3218101 17.38929897-17.38929898 17.38929897z m-107.08147263 0h-30.20246663c-10.06748889 0-17.38929897-8.23703635-17.38929898-17.38929897 0-10.06748889 8.23703635-17.38929897 17.38929898-17.38929897H255.73664672c10.06748889 0 17.38929897 8.23703635 17.38929898 17.38929897 0.91522626 9.15226261-7.3218101 17.38929897-17.38929898 17.38929897zM880.83618346 846.05758551h-14.64362016c-10.06748889 0-17.38929897-8.23703635-17.38929898-17.38929897 0-10.06748889 8.23703635-17.38929897 17.38929898-17.38929897h14.64362016c10.06748889 0 17.38929897 8.23703635 17.38929898 17.38929897 0 9.15226261-7.3218101 17.38929897-17.38929898 17.38929897z" fill="#ffffff" p-id="10980"></path></svg>